G04 #@! TF.GenerationSoftware,KiCad,Pcbnew,(5.1.12-1-10_14)*
G04 #@! TF.CreationDate,2021-12-30T10:25:41+00:00*
G04 #@! TF.ProjectId,TICAF_v1,54494341-465f-4763-912e-6b696361645f,rev?*
G04 #@! TF.SameCoordinates,Original*
G04 #@! TF.FileFunction,Copper,L1,Top*
G04 #@! TF.FilePolarity,Positive*
%FSLAX46Y46*%
G04 Gerber Fmt 4.6, Leading zero omitted, Abs format (unit mm)*
G04 Created by KiCad (PCBNEW (5.1.12-1-10_14)) date 2021-12-30 10:25:41*
%MOMM*%
%LPD*%
G01*
G04 APERTURE LIST*
G04 #@! TA.AperFunction,SMDPad,CuDef*
%ADD10R,0.600000X0.700000*%
G04 #@! TD*
G04 #@! TA.AperFunction,SMDPad,CuDef*
%ADD11R,0.900000X0.800000*%
G04 #@! TD*
G04 #@! TA.AperFunction,ComponentPad*
%ADD12O,1.700000X1.700000*%
G04 #@! TD*
G04 #@! TA.AperFunction,ComponentPad*
%ADD13R,1.700000X1.700000*%
G04 #@! TD*
G04 #@! TA.AperFunction,SMDPad,CuDef*
%ADD14R,0.550000X0.550000*%
G04 #@! TD*
G04 #@! TA.AperFunction,SMDPad,CuDef*
%ADD15R,1.500000X0.400000*%
G04 #@! TD*
G04 #@! TA.AperFunction,SMDPad,CuDef*
%ADD16R,7.620000X10.840000*%
G04 #@! TD*
G04 #@! TA.AperFunction,ComponentPad*
%ADD17O,1.600000X1.600000*%
G04 #@! TD*
G04 #@! TA.AperFunction,ComponentPad*
%ADD18R,1.600000X1.600000*%
G04 #@! TD*
G04 #@! TA.AperFunction,SMDPad,CuDef*
%ADD19R,1.150000X1.150000*%
G04 #@! TD*
G04 #@! TA.AperFunction,SMDPad,CuDef*
%ADD20R,1.600000X1.500000*%
G04 #@! TD*
G04 #@! TA.AperFunction,SMDPad,CuDef*
%ADD21R,1.200000X1.200000*%
G04 #@! TD*
G04 #@! TA.AperFunction,SMDPad,CuDef*
%ADD22R,0.500000X0.475000*%
G04 #@! TD*
G04 #@! TA.AperFunction,SMDPad,CuDef*
%ADD23R,0.475000X0.500000*%
G04 #@! TD*
G04 #@! TA.AperFunction,SMDPad,CuDef*
%ADD24R,1.000000X1.500000*%
G04 #@! TD*
G04 #@! TA.AperFunction,SMDPad,CuDef*
%ADD25C,0.100000*%
G04 #@! TD*
G04 #@! TA.AperFunction,SMDPad,CuDef*
%ADD26R,1.524000X3.524000*%
G04 #@! TD*
G04 #@! TA.AperFunction,ComponentPad*
%ADD27C,1.408000*%
G04 #@! TD*
G04 #@! TA.AperFunction,ComponentPad*
%ADD28R,1.408000X1.408000*%
G04 #@! TD*
G04 #@! TA.AperFunction,SMDPad,CuDef*
%ADD29R,2.500000X5.000000*%
G04 #@! TD*
G04 #@! TA.AperFunction,SMDPad,CuDef*
%ADD30R,0.700000X0.600000*%
G04 #@! TD*
G04 #@! TA.AperFunction,SMDPad,CuDef*
%ADD31R,1.200000X0.850000*%
G04 #@! TD*
G04 #@! TA.AperFunction,SMDPad,CuDef*
%ADD32R,2.300000X0.900000*%
G04 #@! TD*
G04 #@! TA.AperFunction,SMDPad,CuDef*
%ADD33R,1.600000X2.500000*%
G04 #@! TD*
G04 #@! TA.AperFunction,ComponentPad*
%ADD34C,1.100000*%
G04 #@! TD*
G04 #@! TA.AperFunction,ComponentPad*
%ADD35R,1.100000X1.100000*%
G04 #@! TD*
G04 #@! TA.AperFunction,ComponentPad*
%ADD36C,1.050000*%
G04 #@! TD*
G04 #@! TA.AperFunction,ComponentPad*
%ADD37R,1.050000X1.050000*%
G04 #@! TD*
G04 #@! TA.AperFunction,ViaPad*
%ADD38C,0.800000*%
G04 #@! TD*
G04 #@! TA.AperFunction,Conductor*
%ADD39C,0.350000*%
G04 #@! TD*
G04 #@! TA.AperFunction,Conductor*
%ADD40C,0.250000*%
G04 #@! TD*
G04 #@! TA.AperFunction,Conductor*
%ADD41C,0.200000*%
G04 #@! TD*
G04 APERTURE END LIST*
D10*
X113400000Y-47200000D03*
X114800000Y-47200000D03*
D11*
X122620000Y-103600000D03*
X120620000Y-104550000D03*
X120620000Y-102650000D03*
X122810000Y-128770000D03*
X120810000Y-129720000D03*
X120810000Y-127820000D03*
X122850000Y-115010000D03*
X120850000Y-115960000D03*
X120850000Y-114060000D03*
D12*
X78450000Y-130530000D03*
D13*
X78450000Y-127990000D03*
D12*
X42120000Y-135850000D03*
D13*
X42120000Y-133310000D03*
D12*
X66910000Y-130480000D03*
D13*
X66910000Y-127940000D03*
D12*
X54430000Y-135830000D03*
D13*
X54430000Y-133290000D03*
D12*
X54430000Y-124650000D03*
D13*
X54430000Y-122110000D03*
D12*
X42110000Y-124640000D03*
D13*
X42110000Y-122100000D03*
D12*
X66750000Y-108890000D03*
D13*
X66750000Y-111430000D03*
D14*
X87931000Y-70855500D03*
X87931000Y-70105500D03*
X85281000Y-70855500D03*
X85281000Y-70105500D03*
G04 #@! TA.AperFunction,SMDPad,CuDef*
G36*
G01*
X104734000Y-92098600D02*
X104734000Y-91162400D01*
G75*
G02*
X105020900Y-90875500I286900J0D01*
G01*
X109457100Y-90875500D01*
G75*
G02*
X109744000Y-91162400I0J-286900D01*
G01*
X109744000Y-92098600D01*
G75*
G02*
X109457100Y-92385500I-286900J0D01*
G01*
X105020900Y-92385500D01*
G75*
G02*
X104734000Y-92098600I0J286900D01*
G01*
G37*
G04 #@! TD.AperFunction*
G04 #@! TA.AperFunction,SMDPad,CuDef*
G36*
G01*
X95234000Y-92098600D02*
X95234000Y-91162400D01*
G75*
G02*
X95520900Y-90875500I286900J0D01*
G01*
X99957100Y-90875500D01*
G75*
G02*
X100244000Y-91162400I0J-286900D01*
G01*
X100244000Y-92098600D01*
G75*
G02*
X99957100Y-92385500I-286900J0D01*
G01*
X95520900Y-92385500D01*
G75*
G02*
X95234000Y-92098600I0J286900D01*
G01*
G37*
G04 #@! TD.AperFunction*
G04 #@! TA.AperFunction,SMDPad,CuDef*
G36*
G01*
X58889000Y-93285500D02*
X58889000Y-92769500D01*
G75*
G02*
X58931000Y-92727500I42000J0D01*
G01*
X60817000Y-92727500D01*
G75*
G02*
X60859000Y-92769500I0J-42000D01*
G01*
X60859000Y-93285500D01*
G75*
G02*
X60817000Y-93327500I-42000J0D01*
G01*
X58931000Y-93327500D01*
G75*
G02*
X58889000Y-93285500I0J42000D01*
G01*
G37*
G04 #@! TD.AperFunction*
G04 #@! TA.AperFunction,SMDPad,CuDef*
G36*
G01*
X58889000Y-94555500D02*
X58889000Y-94039500D01*
G75*
G02*
X58931000Y-93997500I42000J0D01*
G01*
X60817000Y-93997500D01*
G75*
G02*
X60859000Y-94039500I0J-42000D01*
G01*
X60859000Y-94555500D01*
G75*
G02*
X60817000Y-94597500I-42000J0D01*
G01*
X58931000Y-94597500D01*
G75*
G02*
X58889000Y-94555500I0J42000D01*
G01*
G37*
G04 #@! TD.AperFunction*
G04 #@! TA.AperFunction,SMDPad,CuDef*
G36*
G01*
X58889000Y-95825500D02*
X58889000Y-95309500D01*
G75*
G02*
X58931000Y-95267500I42000J0D01*
G01*
X60817000Y-95267500D01*
G75*
G02*
X60859000Y-95309500I0J-42000D01*
G01*
X60859000Y-95825500D01*
G75*
G02*
X60817000Y-95867500I-42000J0D01*
G01*
X58931000Y-95867500D01*
G75*
G02*
X58889000Y-95825500I0J42000D01*
G01*
G37*
G04 #@! TD.AperFunction*
G04 #@! TA.AperFunction,SMDPad,CuDef*
G36*
G01*
X58889000Y-97095500D02*
X58889000Y-96579500D01*
G75*
G02*
X58931000Y-96537500I42000J0D01*
G01*
X60817000Y-96537500D01*
G75*
G02*
X60859000Y-96579500I0J-42000D01*
G01*
X60859000Y-97095500D01*
G75*
G02*
X60817000Y-97137500I-42000J0D01*
G01*
X58931000Y-97137500D01*
G75*
G02*
X58889000Y-97095500I0J42000D01*
G01*
G37*
G04 #@! TD.AperFunction*
G04 #@! TA.AperFunction,SMDPad,CuDef*
G36*
G01*
X53949000Y-97095500D02*
X53949000Y-96579500D01*
G75*
G02*
X53991000Y-96537500I42000J0D01*
G01*
X55877000Y-96537500D01*
G75*
G02*
X55919000Y-96579500I0J-42000D01*
G01*
X55919000Y-97095500D01*
G75*
G02*
X55877000Y-97137500I-42000J0D01*
G01*
X53991000Y-97137500D01*
G75*
G02*
X53949000Y-97095500I0J42000D01*
G01*
G37*
G04 #@! TD.AperFunction*
G04 #@! TA.AperFunction,SMDPad,CuDef*
G36*
G01*
X53949000Y-95825500D02*
X53949000Y-95309500D01*
G75*
G02*
X53991000Y-95267500I42000J0D01*
G01*
X55877000Y-95267500D01*
G75*
G02*
X55919000Y-95309500I0J-42000D01*
G01*
X55919000Y-95825500D01*
G75*
G02*
X55877000Y-95867500I-42000J0D01*
G01*
X53991000Y-95867500D01*
G75*
G02*
X53949000Y-95825500I0J42000D01*
G01*
G37*
G04 #@! TD.AperFunction*
G04 #@! TA.AperFunction,SMDPad,CuDef*
G36*
G01*
X53949000Y-94555500D02*
X53949000Y-94039500D01*
G75*
G02*
X53991000Y-93997500I42000J0D01*
G01*
X55877000Y-93997500D01*
G75*
G02*
X55919000Y-94039500I0J-42000D01*
G01*
X55919000Y-94555500D01*
G75*
G02*
X55877000Y-94597500I-42000J0D01*
G01*
X53991000Y-94597500D01*
G75*
G02*
X53949000Y-94555500I0J42000D01*
G01*
G37*
G04 #@! TD.AperFunction*
G04 #@! TA.AperFunction,SMDPad,CuDef*
G36*
G01*
X53949000Y-93285500D02*
X53949000Y-92769500D01*
G75*
G02*
X53991000Y-92727500I42000J0D01*
G01*
X55877000Y-92727500D01*
G75*
G02*
X55919000Y-92769500I0J-42000D01*
G01*
X55919000Y-93285500D01*
G75*
G02*
X55877000Y-93327500I-42000J0D01*
G01*
X53991000Y-93327500D01*
G75*
G02*
X53949000Y-93285500I0J42000D01*
G01*
G37*
G04 #@! TD.AperFunction*
G04 #@! TA.AperFunction,SMDPad,CuDef*
G36*
G01*
X33333500Y-49808500D02*
X33849500Y-49808500D01*
G75*
G02*
X33891500Y-49850500I0J-42000D01*
G01*
X33891500Y-51736500D01*
G75*
G02*
X33849500Y-51778500I-42000J0D01*
G01*
X33333500Y-51778500D01*
G75*
G02*
X33291500Y-51736500I0J42000D01*
G01*
X33291500Y-49850500D01*
G75*
G02*
X33333500Y-49808500I42000J0D01*
G01*
G37*
G04 #@! TD.AperFunction*
G04 #@! TA.AperFunction,SMDPad,CuDef*
G36*
G01*
X32063500Y-49808500D02*
X32579500Y-49808500D01*
G75*
G02*
X32621500Y-49850500I0J-42000D01*
G01*
X32621500Y-51736500D01*
G75*
G02*
X32579500Y-51778500I-42000J0D01*
G01*
X32063500Y-51778500D01*
G75*
G02*
X32021500Y-51736500I0J42000D01*
G01*
X32021500Y-49850500D01*
G75*
G02*
X32063500Y-49808500I42000J0D01*
G01*
G37*
G04 #@! TD.AperFunction*
G04 #@! TA.AperFunction,SMDPad,CuDef*
G36*
G01*
X30793500Y-49808500D02*
X31309500Y-49808500D01*
G75*
G02*
X31351500Y-49850500I0J-42000D01*
G01*
X31351500Y-51736500D01*
G75*
G02*
X31309500Y-51778500I-42000J0D01*
G01*
X30793500Y-51778500D01*
G75*
G02*
X30751500Y-51736500I0J42000D01*
G01*
X30751500Y-49850500D01*
G75*
G02*
X30793500Y-49808500I42000J0D01*
G01*
G37*
G04 #@! TD.AperFunction*
G04 #@! TA.AperFunction,SMDPad,CuDef*
G36*
G01*
X29523500Y-49808500D02*
X30039500Y-49808500D01*
G75*
G02*
X30081500Y-49850500I0J-42000D01*
G01*
X30081500Y-51736500D01*
G75*
G02*
X30039500Y-51778500I-42000J0D01*
G01*
X29523500Y-51778500D01*
G75*
G02*
X29481500Y-51736500I0J42000D01*
G01*
X29481500Y-49850500D01*
G75*
G02*
X29523500Y-49808500I42000J0D01*
G01*
G37*
G04 #@! TD.AperFunction*
G04 #@! TA.AperFunction,SMDPad,CuDef*
G36*
G01*
X29523500Y-44868500D02*
X30039500Y-44868500D01*
G75*
G02*
X30081500Y-44910500I0J-42000D01*
G01*
X30081500Y-46796500D01*
G75*
G02*
X30039500Y-46838500I-42000J0D01*
G01*
X29523500Y-46838500D01*
G75*
G02*
X29481500Y-46796500I0J42000D01*
G01*
X29481500Y-44910500D01*
G75*
G02*
X29523500Y-44868500I42000J0D01*
G01*
G37*
G04 #@! TD.AperFunction*
G04 #@! TA.AperFunction,SMDPad,CuDef*
G36*
G01*
X30793500Y-44868500D02*
X31309500Y-44868500D01*
G75*
G02*
X31351500Y-44910500I0J-42000D01*
G01*
X31351500Y-46796500D01*
G75*
G02*
X31309500Y-46838500I-42000J0D01*
G01*
X30793500Y-46838500D01*
G75*
G02*
X30751500Y-46796500I0J42000D01*
G01*
X30751500Y-44910500D01*
G75*
G02*
X30793500Y-44868500I42000J0D01*
G01*
G37*
G04 #@! TD.AperFunction*
G04 #@! TA.AperFunction,SMDPad,CuDef*
G36*
G01*
X32063500Y-44868500D02*
X32579500Y-44868500D01*
G75*
G02*
X32621500Y-44910500I0J-42000D01*
G01*
X32621500Y-46796500D01*
G75*
G02*
X32579500Y-46838500I-42000J0D01*
G01*
X32063500Y-46838500D01*
G75*
G02*
X32021500Y-46796500I0J42000D01*
G01*
X32021500Y-44910500D01*
G75*
G02*
X32063500Y-44868500I42000J0D01*
G01*
G37*
G04 #@! TD.AperFunction*
G04 #@! TA.AperFunction,SMDPad,CuDef*
G36*
G01*
X33333500Y-44868500D02*
X33849500Y-44868500D01*
G75*
G02*
X33891500Y-44910500I0J-42000D01*
G01*
X33891500Y-46796500D01*
G75*
G02*
X33849500Y-46838500I-42000J0D01*
G01*
X33333500Y-46838500D01*
G75*
G02*
X33291500Y-46796500I0J42000D01*
G01*
X33291500Y-44910500D01*
G75*
G02*
X33333500Y-44868500I42000J0D01*
G01*
G37*
G04 #@! TD.AperFunction*
D15*
X82481000Y-53945500D03*
X82481000Y-53295500D03*
X82481000Y-52645500D03*
X82481000Y-51995500D03*
X82481000Y-51345500D03*
X82481000Y-50695500D03*
X82481000Y-50045500D03*
X82481000Y-49395500D03*
X82481000Y-48745500D03*
X82481000Y-48095500D03*
X82481000Y-47445500D03*
X82481000Y-46795500D03*
X82481000Y-46145500D03*
X82481000Y-45495500D03*
X89731000Y-45495500D03*
X89731000Y-46145500D03*
X89731000Y-46795500D03*
X89731000Y-47445500D03*
X89731000Y-48095500D03*
X89731000Y-48745500D03*
X89731000Y-49395500D03*
X89731000Y-50045500D03*
X89731000Y-50695500D03*
X89731000Y-51345500D03*
X89731000Y-51995500D03*
X89731000Y-52645500D03*
X89731000Y-53295500D03*
X89731000Y-53945500D03*
D16*
X131505400Y-44640500D03*
G04 #@! TA.AperFunction,SMDPad,CuDef*
G36*
G01*
X118730400Y-47556700D02*
X118730400Y-46804300D01*
G75*
G02*
X118849200Y-46685500I118800J0D01*
G01*
X122401600Y-46685500D01*
G75*
G02*
X122520400Y-46804300I0J-118800D01*
G01*
X122520400Y-47556700D01*
G75*
G02*
X122401600Y-47675500I-118800J0D01*
G01*
X118849200Y-47675500D01*
G75*
G02*
X118730400Y-47556700I0J118800D01*
G01*
G37*
G04 #@! TD.AperFunction*
G04 #@! TA.AperFunction,SMDPad,CuDef*
G36*
G01*
X118730400Y-45016700D02*
X118730400Y-44264300D01*
G75*
G02*
X118849200Y-44145500I118800J0D01*
G01*
X122401600Y-44145500D01*
G75*
G02*
X122520400Y-44264300I0J-118800D01*
G01*
X122520400Y-45016700D01*
G75*
G02*
X122401600Y-45135500I-118800J0D01*
G01*
X118849200Y-45135500D01*
G75*
G02*
X118730400Y-45016700I0J118800D01*
G01*
G37*
G04 #@! TD.AperFunction*
G04 #@! TA.AperFunction,SMDPad,CuDef*
G36*
G01*
X118730400Y-42476700D02*
X118730400Y-41724300D01*
G75*
G02*
X118849200Y-41605500I118800J0D01*
G01*
X122401600Y-41605500D01*
G75*
G02*
X122520400Y-41724300I0J-118800D01*
G01*
X122520400Y-42476700D01*
G75*
G02*
X122401600Y-42595500I-118800J0D01*
G01*
X118849200Y-42595500D01*
G75*
G02*
X118730400Y-42476700I0J118800D01*
G01*
G37*
G04 #@! TD.AperFunction*
D17*
X87366000Y-78130500D03*
X79746000Y-111150500D03*
X87366000Y-80670500D03*
X79746000Y-108610500D03*
X87366000Y-83210500D03*
X79746000Y-106070500D03*
X87366000Y-85750500D03*
X79746000Y-103530500D03*
X87366000Y-88290500D03*
X79746000Y-100990500D03*
X87366000Y-90830500D03*
X79746000Y-98450500D03*
X87366000Y-93370500D03*
X79746000Y-95910500D03*
X87366000Y-95910500D03*
X79746000Y-93370500D03*
X87366000Y-98450500D03*
X79746000Y-90830500D03*
X87366000Y-100990500D03*
X79746000Y-88290500D03*
X87366000Y-103530500D03*
X79746000Y-85750500D03*
X87366000Y-106070500D03*
X79746000Y-83210500D03*
X87366000Y-108610500D03*
X79746000Y-80670500D03*
X87366000Y-111150500D03*
D18*
X79746000Y-78130500D03*
D12*
X28956000Y-100965000D03*
D13*
X28956000Y-103505000D03*
G04 #@! TA.AperFunction,SMDPad,CuDef*
G36*
G01*
X27474500Y-41128000D02*
X28024500Y-41128000D01*
G75*
G02*
X28224500Y-41328000I0J-200000D01*
G01*
X28224500Y-41728000D01*
G75*
G02*
X28024500Y-41928000I-200000J0D01*
G01*
X27474500Y-41928000D01*
G75*
G02*
X27274500Y-41728000I0J200000D01*
G01*
X27274500Y-41328000D01*
G75*
G02*
X27474500Y-41128000I200000J0D01*
G01*
G37*
G04 #@! TD.AperFunction*
G04 #@! TA.AperFunction,SMDPad,CuDef*
G36*
G01*
X27474500Y-39478000D02*
X28024500Y-39478000D01*
G75*
G02*
X28224500Y-39678000I0J-200000D01*
G01*
X28224500Y-40078000D01*
G75*
G02*
X28024500Y-40278000I-200000J0D01*
G01*
X27474500Y-40278000D01*
G75*
G02*
X27274500Y-40078000I0J200000D01*
G01*
X27274500Y-39678000D01*
G75*
G02*
X27474500Y-39478000I200000J0D01*
G01*
G37*
G04 #@! TD.AperFunction*
G04 #@! TA.AperFunction,SMDPad,CuDef*
G36*
G01*
X122090000Y-99485000D02*
X122090000Y-98935000D01*
G75*
G02*
X122290000Y-98735000I200000J0D01*
G01*
X122690000Y-98735000D01*
G75*
G02*
X122890000Y-98935000I0J-200000D01*
G01*
X122890000Y-99485000D01*
G75*
G02*
X122690000Y-99685000I-200000J0D01*
G01*
X122290000Y-99685000D01*
G75*
G02*
X122090000Y-99485000I0J200000D01*
G01*
G37*
G04 #@! TD.AperFunction*
G04 #@! TA.AperFunction,SMDPad,CuDef*
G36*
G01*
X120440000Y-99485000D02*
X120440000Y-98935000D01*
G75*
G02*
X120640000Y-98735000I200000J0D01*
G01*
X121040000Y-98735000D01*
G75*
G02*
X121240000Y-98935000I0J-200000D01*
G01*
X121240000Y-99485000D01*
G75*
G02*
X121040000Y-99685000I-200000J0D01*
G01*
X120640000Y-99685000D01*
G75*
G02*
X120440000Y-99485000I0J200000D01*
G01*
G37*
G04 #@! TD.AperFunction*
G04 #@! TA.AperFunction,SMDPad,CuDef*
G36*
G01*
X89140000Y-128265000D02*
X89140000Y-127715000D01*
G75*
G02*
X89340000Y-127515000I200000J0D01*
G01*
X89740000Y-127515000D01*
G75*
G02*
X89940000Y-127715000I0J-200000D01*
G01*
X89940000Y-128265000D01*
G75*
G02*
X89740000Y-128465000I-200000J0D01*
G01*
X89340000Y-128465000D01*
G75*
G02*
X89140000Y-128265000I0J200000D01*
G01*
G37*
G04 #@! TD.AperFunction*
G04 #@! TA.AperFunction,SMDPad,CuDef*
G36*
G01*
X87490000Y-128265000D02*
X87490000Y-127715000D01*
G75*
G02*
X87690000Y-127515000I200000J0D01*
G01*
X88090000Y-127515000D01*
G75*
G02*
X88290000Y-127715000I0J-200000D01*
G01*
X88290000Y-128265000D01*
G75*
G02*
X88090000Y-128465000I-200000J0D01*
G01*
X87690000Y-128465000D01*
G75*
G02*
X87490000Y-128265000I0J200000D01*
G01*
G37*
G04 #@! TD.AperFunction*
G04 #@! TA.AperFunction,SMDPad,CuDef*
G36*
G01*
X122220000Y-110745000D02*
X122220000Y-110195000D01*
G75*
G02*
X122420000Y-109995000I200000J0D01*
G01*
X122820000Y-109995000D01*
G75*
G02*
X123020000Y-110195000I0J-200000D01*
G01*
X123020000Y-110745000D01*
G75*
G02*
X122820000Y-110945000I-200000J0D01*
G01*
X122420000Y-110945000D01*
G75*
G02*
X122220000Y-110745000I0J200000D01*
G01*
G37*
G04 #@! TD.AperFunction*
G04 #@! TA.AperFunction,SMDPad,CuDef*
G36*
G01*
X120570000Y-110745000D02*
X120570000Y-110195000D01*
G75*
G02*
X120770000Y-109995000I200000J0D01*
G01*
X121170000Y-109995000D01*
G75*
G02*
X121370000Y-110195000I0J-200000D01*
G01*
X121370000Y-110745000D01*
G75*
G02*
X121170000Y-110945000I-200000J0D01*
G01*
X120770000Y-110945000D01*
G75*
G02*
X120570000Y-110745000I0J200000D01*
G01*
G37*
G04 #@! TD.AperFunction*
G04 #@! TA.AperFunction,SMDPad,CuDef*
G36*
G01*
X122200000Y-124505000D02*
X122200000Y-123955000D01*
G75*
G02*
X122400000Y-123755000I200000J0D01*
G01*
X122800000Y-123755000D01*
G75*
G02*
X123000000Y-123955000I0J-200000D01*
G01*
X123000000Y-124505000D01*
G75*
G02*
X122800000Y-124705000I-200000J0D01*
G01*
X122400000Y-124705000D01*
G75*
G02*
X122200000Y-124505000I0J200000D01*
G01*
G37*
G04 #@! TD.AperFunction*
G04 #@! TA.AperFunction,SMDPad,CuDef*
G36*
G01*
X120550000Y-124505000D02*
X120550000Y-123955000D01*
G75*
G02*
X120750000Y-123755000I200000J0D01*
G01*
X121150000Y-123755000D01*
G75*
G02*
X121350000Y-123955000I0J-200000D01*
G01*
X121350000Y-124505000D01*
G75*
G02*
X121150000Y-124705000I-200000J0D01*
G01*
X120750000Y-124705000D01*
G75*
G02*
X120550000Y-124505000I0J200000D01*
G01*
G37*
G04 #@! TD.AperFunction*
D19*
X42418000Y-76708000D03*
X42418000Y-74358000D03*
D20*
X37957000Y-73394500D03*
D21*
X38957000Y-76644500D03*
X36957000Y-76644500D03*
G04 #@! TA.AperFunction,SMDPad,CuDef*
G36*
G01*
X40343500Y-81020500D02*
X39793500Y-81020500D01*
G75*
G02*
X39593500Y-80820500I0J200000D01*
G01*
X39593500Y-80420500D01*
G75*
G02*
X39793500Y-80220500I200000J0D01*
G01*
X40343500Y-80220500D01*
G75*
G02*
X40543500Y-80420500I0J-200000D01*
G01*
X40543500Y-80820500D01*
G75*
G02*
X40343500Y-81020500I-200000J0D01*
G01*
G37*
G04 #@! TD.AperFunction*
G04 #@! TA.AperFunction,SMDPad,CuDef*
G36*
G01*
X40343500Y-82670500D02*
X39793500Y-82670500D01*
G75*
G02*
X39593500Y-82470500I0J200000D01*
G01*
X39593500Y-82070500D01*
G75*
G02*
X39793500Y-81870500I200000J0D01*
G01*
X40343500Y-81870500D01*
G75*
G02*
X40543500Y-82070500I0J-200000D01*
G01*
X40543500Y-82470500D01*
G75*
G02*
X40343500Y-82670500I-200000J0D01*
G01*
G37*
G04 #@! TD.AperFunction*
G04 #@! TA.AperFunction,SMDPad,CuDef*
G36*
G01*
X32618000Y-114724500D02*
X33168000Y-114724500D01*
G75*
G02*
X33368000Y-114924500I0J-200000D01*
G01*
X33368000Y-115324500D01*
G75*
G02*
X33168000Y-115524500I-200000J0D01*
G01*
X32618000Y-115524500D01*
G75*
G02*
X32418000Y-115324500I0J200000D01*
G01*
X32418000Y-114924500D01*
G75*
G02*
X32618000Y-114724500I200000J0D01*
G01*
G37*
G04 #@! TD.AperFunction*
G04 #@! TA.AperFunction,SMDPad,CuDef*
G36*
G01*
X32618000Y-113074500D02*
X33168000Y-113074500D01*
G75*
G02*
X33368000Y-113274500I0J-200000D01*
G01*
X33368000Y-113674500D01*
G75*
G02*
X33168000Y-113874500I-200000J0D01*
G01*
X32618000Y-113874500D01*
G75*
G02*
X32418000Y-113674500I0J200000D01*
G01*
X32418000Y-113274500D01*
G75*
G02*
X32618000Y-113074500I200000J0D01*
G01*
G37*
G04 #@! TD.AperFunction*
D19*
X44323000Y-104902000D03*
X44323000Y-102552000D03*
G04 #@! TA.AperFunction,SMDPad,CuDef*
G36*
G01*
X35666000Y-114725500D02*
X36216000Y-114725500D01*
G75*
G02*
X36416000Y-114925500I0J-200000D01*
G01*
X36416000Y-115325500D01*
G75*
G02*
X36216000Y-115525500I-200000J0D01*
G01*
X35666000Y-115525500D01*
G75*
G02*
X35466000Y-115325500I0J200000D01*
G01*
X35466000Y-114925500D01*
G75*
G02*
X35666000Y-114725500I200000J0D01*
G01*
G37*
G04 #@! TD.AperFunction*
G04 #@! TA.AperFunction,SMDPad,CuDef*
G36*
G01*
X35666000Y-113075500D02*
X36216000Y-113075500D01*
G75*
G02*
X36416000Y-113275500I0J-200000D01*
G01*
X36416000Y-113675500D01*
G75*
G02*
X36216000Y-113875500I-200000J0D01*
G01*
X35666000Y-113875500D01*
G75*
G02*
X35466000Y-113675500I0J200000D01*
G01*
X35466000Y-113275500D01*
G75*
G02*
X35666000Y-113075500I200000J0D01*
G01*
G37*
G04 #@! TD.AperFunction*
G04 #@! TA.AperFunction,SMDPad,CuDef*
G36*
G01*
X33168000Y-94317500D02*
X32618000Y-94317500D01*
G75*
G02*
X32418000Y-94117500I0J200000D01*
G01*
X32418000Y-93717500D01*
G75*
G02*
X32618000Y-93517500I200000J0D01*
G01*
X33168000Y-93517500D01*
G75*
G02*
X33368000Y-93717500I0J-200000D01*
G01*
X33368000Y-94117500D01*
G75*
G02*
X33168000Y-94317500I-200000J0D01*
G01*
G37*
G04 #@! TD.AperFunction*
G04 #@! TA.AperFunction,SMDPad,CuDef*
G36*
G01*
X33168000Y-95967500D02*
X32618000Y-95967500D01*
G75*
G02*
X32418000Y-95767500I0J200000D01*
G01*
X32418000Y-95367500D01*
G75*
G02*
X32618000Y-95167500I200000J0D01*
G01*
X33168000Y-95167500D01*
G75*
G02*
X33368000Y-95367500I0J-200000D01*
G01*
X33368000Y-95767500D01*
G75*
G02*
X33168000Y-95967500I-200000J0D01*
G01*
G37*
G04 #@! TD.AperFunction*
G04 #@! TA.AperFunction,SMDPad,CuDef*
G36*
G01*
X36470000Y-94316500D02*
X35920000Y-94316500D01*
G75*
G02*
X35720000Y-94116500I0J200000D01*
G01*
X35720000Y-93716500D01*
G75*
G02*
X35920000Y-93516500I200000J0D01*
G01*
X36470000Y-93516500D01*
G75*
G02*
X36670000Y-93716500I0J-200000D01*
G01*
X36670000Y-94116500D01*
G75*
G02*
X36470000Y-94316500I-200000J0D01*
G01*
G37*
G04 #@! TD.AperFunction*
G04 #@! TA.AperFunction,SMDPad,CuDef*
G36*
G01*
X36470000Y-95966500D02*
X35920000Y-95966500D01*
G75*
G02*
X35720000Y-95766500I0J200000D01*
G01*
X35720000Y-95366500D01*
G75*
G02*
X35920000Y-95166500I200000J0D01*
G01*
X36470000Y-95166500D01*
G75*
G02*
X36670000Y-95366500I0J-200000D01*
G01*
X36670000Y-95766500D01*
G75*
G02*
X36470000Y-95966500I-200000J0D01*
G01*
G37*
G04 #@! TD.AperFunction*
D20*
X40052500Y-101652000D03*
D21*
X41052500Y-104902000D03*
X39052500Y-104902000D03*
G04 #@! TA.AperFunction,SMDPad,CuDef*
G36*
G01*
X164977500Y-96069998D02*
X164977500Y-96970002D01*
G75*
G02*
X164727502Y-97220000I-249998J0D01*
G01*
X164202498Y-97220000D01*
G75*
G02*
X163952500Y-96970002I0J249998D01*
G01*
X163952500Y-96069998D01*
G75*
G02*
X164202498Y-95820000I249998J0D01*
G01*
X164727502Y-95820000D01*
G75*
G02*
X164977500Y-96069998I0J-249998D01*
G01*
G37*
G04 #@! TD.AperFunction*
G04 #@! TA.AperFunction,SMDPad,CuDef*
G36*
G01*
X166802500Y-96069998D02*
X166802500Y-96970002D01*
G75*
G02*
X166552502Y-97220000I-249998J0D01*
G01*
X166027498Y-97220000D01*
G75*
G02*
X165777500Y-96970002I0J249998D01*
G01*
X165777500Y-96069998D01*
G75*
G02*
X166027498Y-95820000I249998J0D01*
G01*
X166552502Y-95820000D01*
G75*
G02*
X166802500Y-96069998I0J-249998D01*
G01*
G37*
G04 #@! TD.AperFunction*
G04 #@! TA.AperFunction,SMDPad,CuDef*
G36*
G01*
X164977500Y-89719998D02*
X164977500Y-90620002D01*
G75*
G02*
X164727502Y-90870000I-249998J0D01*
G01*
X164202498Y-90870000D01*
G75*
G02*
X163952500Y-90620002I0J249998D01*
G01*
X163952500Y-89719998D01*
G75*
G02*
X164202498Y-89470000I249998J0D01*
G01*
X164727502Y-89470000D01*
G75*
G02*
X164977500Y-89719998I0J-249998D01*
G01*
G37*
G04 #@! TD.AperFunction*
G04 #@! TA.AperFunction,SMDPad,CuDef*
G36*
G01*
X166802500Y-89719998D02*
X166802500Y-90620002D01*
G75*
G02*
X166552502Y-90870000I-249998J0D01*
G01*
X166027498Y-90870000D01*
G75*
G02*
X165777500Y-90620002I0J249998D01*
G01*
X165777500Y-89719998D01*
G75*
G02*
X166027498Y-89470000I249998J0D01*
G01*
X166552502Y-89470000D01*
G75*
G02*
X166802500Y-89719998I0J-249998D01*
G01*
G37*
G04 #@! TD.AperFunction*
G04 #@! TA.AperFunction,SMDPad,CuDef*
G36*
G01*
X164977500Y-83369998D02*
X164977500Y-84270002D01*
G75*
G02*
X164727502Y-84520000I-249998J0D01*
G01*
X164202498Y-84520000D01*
G75*
G02*
X163952500Y-84270002I0J249998D01*
G01*
X163952500Y-83369998D01*
G75*
G02*
X164202498Y-83120000I249998J0D01*
G01*
X164727502Y-83120000D01*
G75*
G02*
X164977500Y-83369998I0J-249998D01*
G01*
G37*
G04 #@! TD.AperFunction*
G04 #@! TA.AperFunction,SMDPad,CuDef*
G36*
G01*
X166802500Y-83369998D02*
X166802500Y-84270002D01*
G75*
G02*
X166552502Y-84520000I-249998J0D01*
G01*
X166027498Y-84520000D01*
G75*
G02*
X165777500Y-84270002I0J249998D01*
G01*
X165777500Y-83369998D01*
G75*
G02*
X166027498Y-83120000I249998J0D01*
G01*
X166552502Y-83120000D01*
G75*
G02*
X166802500Y-83369998I0J-249998D01*
G01*
G37*
G04 #@! TD.AperFunction*
G04 #@! TA.AperFunction,SMDPad,CuDef*
G36*
G01*
X165057500Y-77654998D02*
X165057500Y-78555002D01*
G75*
G02*
X164807502Y-78805000I-249998J0D01*
G01*
X164282498Y-78805000D01*
G75*
G02*
X164032500Y-78555002I0J249998D01*
G01*
X164032500Y-77654998D01*
G75*
G02*
X164282498Y-77405000I249998J0D01*
G01*
X164807502Y-77405000D01*
G75*
G02*
X165057500Y-77654998I0J-249998D01*
G01*
G37*
G04 #@! TD.AperFunction*
G04 #@! TA.AperFunction,SMDPad,CuDef*
G36*
G01*
X166882500Y-77654998D02*
X166882500Y-78555002D01*
G75*
G02*
X166632502Y-78805000I-249998J0D01*
G01*
X166107498Y-78805000D01*
G75*
G02*
X165857500Y-78555002I0J249998D01*
G01*
X165857500Y-77654998D01*
G75*
G02*
X166107498Y-77405000I249998J0D01*
G01*
X166632502Y-77405000D01*
G75*
G02*
X166882500Y-77654998I0J-249998D01*
G01*
G37*
G04 #@! TD.AperFunction*
G04 #@! TA.AperFunction,SMDPad,CuDef*
G36*
G01*
X164977500Y-71939998D02*
X164977500Y-72840002D01*
G75*
G02*
X164727502Y-73090000I-249998J0D01*
G01*
X164202498Y-73090000D01*
G75*
G02*
X163952500Y-72840002I0J249998D01*
G01*
X163952500Y-71939998D01*
G75*
G02*
X164202498Y-71690000I249998J0D01*
G01*
X164727502Y-71690000D01*
G75*
G02*
X164977500Y-71939998I0J-249998D01*
G01*
G37*
G04 #@! TD.AperFunction*
G04 #@! TA.AperFunction,SMDPad,CuDef*
G36*
G01*
X166802500Y-71939998D02*
X166802500Y-72840002D01*
G75*
G02*
X166552502Y-73090000I-249998J0D01*
G01*
X166027498Y-73090000D01*
G75*
G02*
X165777500Y-72840002I0J249998D01*
G01*
X165777500Y-71939998D01*
G75*
G02*
X166027498Y-71690000I249998J0D01*
G01*
X166552502Y-71690000D01*
G75*
G02*
X166802500Y-71939998I0J-249998D01*
G01*
G37*
G04 #@! TD.AperFunction*
D22*
X54102000Y-53979000D03*
X54102000Y-52955000D03*
X74676000Y-45910500D03*
X74676000Y-44886500D03*
X77050900Y-44928600D03*
X77050900Y-45952600D03*
D23*
X143256000Y-45275500D03*
X142232000Y-45275500D03*
D19*
X82606000Y-71830500D03*
X82606000Y-69480500D03*
D12*
X159290000Y-141590000D03*
D13*
X159290000Y-139050000D03*
D24*
X40610000Y-39878000D03*
G04 #@! TA.AperFunction,SMDPad,CuDef*
D25*
G36*
X39310000Y-40627398D02*
G01*
X39285466Y-40627398D01*
X39236635Y-40622588D01*
X39188510Y-40613016D01*
X39141555Y-40598772D01*
X39096222Y-40579995D01*
X39052949Y-40556864D01*
X39012150Y-40529604D01*
X38974221Y-40498476D01*
X38939524Y-40463779D01*
X38908396Y-40425850D01*
X38881136Y-40385051D01*
X38858005Y-40341778D01*
X38839228Y-40296445D01*
X38824984Y-40249490D01*
X38815412Y-40201365D01*
X38810602Y-40152534D01*
X38810602Y-40128000D01*
X38810000Y-40128000D01*
X38810000Y-39628000D01*
X38810602Y-39628000D01*
X38810602Y-39603466D01*
X38815412Y-39554635D01*
X38824984Y-39506510D01*
X38839228Y-39459555D01*
X38858005Y-39414222D01*
X38881136Y-39370949D01*
X38908396Y-39330150D01*
X38939524Y-39292221D01*
X38974221Y-39257524D01*
X39012150Y-39226396D01*
X39052949Y-39199136D01*
X39096222Y-39176005D01*
X39141555Y-39157228D01*
X39188510Y-39142984D01*
X39236635Y-39133412D01*
X39285466Y-39128602D01*
X39310000Y-39128602D01*
X39310000Y-39128000D01*
X39860000Y-39128000D01*
X39860000Y-40628000D01*
X39310000Y-40628000D01*
X39310000Y-40627398D01*
G37*
G04 #@! TD.AperFunction*
G04 #@! TA.AperFunction,SMDPad,CuDef*
G36*
X41360000Y-39128000D02*
G01*
X41910000Y-39128000D01*
X41910000Y-39128602D01*
X41934534Y-39128602D01*
X41983365Y-39133412D01*
X42031490Y-39142984D01*
X42078445Y-39157228D01*
X42123778Y-39176005D01*
X42167051Y-39199136D01*
X42207850Y-39226396D01*
X42245779Y-39257524D01*
X42280476Y-39292221D01*
X42311604Y-39330150D01*
X42338864Y-39370949D01*
X42361995Y-39414222D01*
X42380772Y-39459555D01*
X42395016Y-39506510D01*
X42404588Y-39554635D01*
X42409398Y-39603466D01*
X42409398Y-39628000D01*
X42410000Y-39628000D01*
X42410000Y-40128000D01*
X42409398Y-40128000D01*
X42409398Y-40152534D01*
X42404588Y-40201365D01*
X42395016Y-40249490D01*
X42380772Y-40296445D01*
X42361995Y-40341778D01*
X42338864Y-40385051D01*
X42311604Y-40425850D01*
X42280476Y-40463779D01*
X42245779Y-40498476D01*
X42207850Y-40529604D01*
X42167051Y-40556864D01*
X42123778Y-40579995D01*
X42078445Y-40598772D01*
X42031490Y-40613016D01*
X41983365Y-40622588D01*
X41934534Y-40627398D01*
X41910000Y-40627398D01*
X41910000Y-40628000D01*
X41360000Y-40628000D01*
X41360000Y-39128000D01*
G37*
G04 #@! TD.AperFunction*
D24*
X33401000Y-39878000D03*
X32101000Y-39878000D03*
D26*
X116880000Y-145620000D03*
X114340000Y-145620000D03*
X111800000Y-145620000D03*
D27*
X146986000Y-33940500D03*
X141986000Y-30340500D03*
D28*
X136986000Y-33940500D03*
D27*
X119046000Y-33940500D03*
X114046000Y-30340500D03*
D28*
X109046000Y-33940500D03*
D12*
X65151000Y-51625500D03*
X62611000Y-51625500D03*
X65151000Y-49085500D03*
X62611000Y-49085500D03*
X65151000Y-46545500D03*
D13*
X62611000Y-46545500D03*
D12*
X98806000Y-43484800D03*
D13*
X98806000Y-40944800D03*
D29*
X75300000Y-36588500D03*
X89800000Y-36588500D03*
G04 #@! TA.AperFunction,SMDPad,CuDef*
G36*
G01*
X82000000Y-37492500D02*
X82000000Y-40184500D01*
G75*
G02*
X81946000Y-40238500I-54000J0D01*
G01*
X81154000Y-40238500D01*
G75*
G02*
X81100000Y-40184500I0J54000D01*
G01*
X81100000Y-37492500D01*
G75*
G02*
X81154000Y-37438500I54000J0D01*
G01*
X81946000Y-37438500D01*
G75*
G02*
X82000000Y-37492500I0J-54000D01*
G01*
G37*
G04 #@! TD.AperFunction*
G04 #@! TA.AperFunction,SMDPad,CuDef*
G36*
G01*
X86500000Y-37492500D02*
X86500000Y-40184500D01*
G75*
G02*
X86446000Y-40238500I-54000J0D01*
G01*
X85654000Y-40238500D01*
G75*
G02*
X85600000Y-40184500I0J54000D01*
G01*
X85600000Y-37492500D01*
G75*
G02*
X85654000Y-37438500I54000J0D01*
G01*
X86446000Y-37438500D01*
G75*
G02*
X86500000Y-37492500I0J-54000D01*
G01*
G37*
G04 #@! TD.AperFunction*
G04 #@! TA.AperFunction,SMDPad,CuDef*
G36*
G01*
X84000000Y-37492500D02*
X84000000Y-40184500D01*
G75*
G02*
X83946000Y-40238500I-54000J0D01*
G01*
X83154000Y-40238500D01*
G75*
G02*
X83100000Y-40184500I0J54000D01*
G01*
X83100000Y-37492500D01*
G75*
G02*
X83154000Y-37438500I54000J0D01*
G01*
X83946000Y-37438500D01*
G75*
G02*
X84000000Y-37492500I0J-54000D01*
G01*
G37*
G04 #@! TD.AperFunction*
G04 #@! TA.AperFunction,SMDPad,CuDef*
G36*
G01*
X79500000Y-37492500D02*
X79500000Y-40184500D01*
G75*
G02*
X79446000Y-40238500I-54000J0D01*
G01*
X78654000Y-40238500D01*
G75*
G02*
X78600000Y-40184500I0J54000D01*
G01*
X78600000Y-37492500D01*
G75*
G02*
X78654000Y-37438500I54000J0D01*
G01*
X79446000Y-37438500D01*
G75*
G02*
X79500000Y-37492500I0J-54000D01*
G01*
G37*
G04 #@! TD.AperFunction*
D12*
X104584500Y-45910500D03*
X104584500Y-43370500D03*
D13*
X104584500Y-40830500D03*
D10*
X130860000Y-104550000D03*
X129460000Y-104550000D03*
D30*
X66802000Y-96967500D03*
X66802000Y-95567500D03*
D10*
X92500000Y-127990000D03*
X93900000Y-127990000D03*
X132270000Y-129720000D03*
X130870000Y-129720000D03*
X132160000Y-116000000D03*
X130760000Y-116000000D03*
X32451500Y-71185000D03*
X31051500Y-71185000D03*
X26667000Y-71183500D03*
X28067000Y-71183500D03*
D30*
X35814000Y-100139500D03*
X35814000Y-101539500D03*
X35052000Y-104905000D03*
X35052000Y-103505000D03*
X32893000Y-100200000D03*
X32893000Y-101600000D03*
G04 #@! TA.AperFunction,SMDPad,CuDef*
G36*
G01*
X157362500Y-96063750D02*
X157362500Y-96976250D01*
G75*
G02*
X157118750Y-97220000I-243750J0D01*
G01*
X156631250Y-97220000D01*
G75*
G02*
X156387500Y-96976250I0J243750D01*
G01*
X156387500Y-96063750D01*
G75*
G02*
X156631250Y-95820000I243750J0D01*
G01*
X157118750Y-95820000D01*
G75*
G02*
X157362500Y-96063750I0J-243750D01*
G01*
G37*
G04 #@! TD.AperFunction*
G04 #@! TA.AperFunction,SMDPad,CuDef*
G36*
G01*
X159237500Y-96063750D02*
X159237500Y-96976250D01*
G75*
G02*
X158993750Y-97220000I-243750J0D01*
G01*
X158506250Y-97220000D01*
G75*
G02*
X158262500Y-96976250I0J243750D01*
G01*
X158262500Y-96063750D01*
G75*
G02*
X158506250Y-95820000I243750J0D01*
G01*
X158993750Y-95820000D01*
G75*
G02*
X159237500Y-96063750I0J-243750D01*
G01*
G37*
G04 #@! TD.AperFunction*
G04 #@! TA.AperFunction,SMDPad,CuDef*
G36*
G01*
X157332500Y-89713750D02*
X157332500Y-90626250D01*
G75*
G02*
X157088750Y-90870000I-243750J0D01*
G01*
X156601250Y-90870000D01*
G75*
G02*
X156357500Y-90626250I0J243750D01*
G01*
X156357500Y-89713750D01*
G75*
G02*
X156601250Y-89470000I243750J0D01*
G01*
X157088750Y-89470000D01*
G75*
G02*
X157332500Y-89713750I0J-243750D01*
G01*
G37*
G04 #@! TD.AperFunction*
G04 #@! TA.AperFunction,SMDPad,CuDef*
G36*
G01*
X159207500Y-89713750D02*
X159207500Y-90626250D01*
G75*
G02*
X158963750Y-90870000I-243750J0D01*
G01*
X158476250Y-90870000D01*
G75*
G02*
X158232500Y-90626250I0J243750D01*
G01*
X158232500Y-89713750D01*
G75*
G02*
X158476250Y-89470000I243750J0D01*
G01*
X158963750Y-89470000D01*
G75*
G02*
X159207500Y-89713750I0J-243750D01*
G01*
G37*
G04 #@! TD.AperFunction*
G04 #@! TA.AperFunction,SMDPad,CuDef*
G36*
G01*
X157362500Y-83363750D02*
X157362500Y-84276250D01*
G75*
G02*
X157118750Y-84520000I-243750J0D01*
G01*
X156631250Y-84520000D01*
G75*
G02*
X156387500Y-84276250I0J243750D01*
G01*
X156387500Y-83363750D01*
G75*
G02*
X156631250Y-83120000I243750J0D01*
G01*
X157118750Y-83120000D01*
G75*
G02*
X157362500Y-83363750I0J-243750D01*
G01*
G37*
G04 #@! TD.AperFunction*
G04 #@! TA.AperFunction,SMDPad,CuDef*
G36*
G01*
X159237500Y-83363750D02*
X159237500Y-84276250D01*
G75*
G02*
X158993750Y-84520000I-243750J0D01*
G01*
X158506250Y-84520000D01*
G75*
G02*
X158262500Y-84276250I0J243750D01*
G01*
X158262500Y-83363750D01*
G75*
G02*
X158506250Y-83120000I243750J0D01*
G01*
X158993750Y-83120000D01*
G75*
G02*
X159237500Y-83363750I0J-243750D01*
G01*
G37*
G04 #@! TD.AperFunction*
G04 #@! TA.AperFunction,SMDPad,CuDef*
G36*
G01*
X157362500Y-77648750D02*
X157362500Y-78561250D01*
G75*
G02*
X157118750Y-78805000I-243750J0D01*
G01*
X156631250Y-78805000D01*
G75*
G02*
X156387500Y-78561250I0J243750D01*
G01*
X156387500Y-77648750D01*
G75*
G02*
X156631250Y-77405000I243750J0D01*
G01*
X157118750Y-77405000D01*
G75*
G02*
X157362500Y-77648750I0J-243750D01*
G01*
G37*
G04 #@! TD.AperFunction*
G04 #@! TA.AperFunction,SMDPad,CuDef*
G36*
G01*
X159237500Y-77648750D02*
X159237500Y-78561250D01*
G75*
G02*
X158993750Y-78805000I-243750J0D01*
G01*
X158506250Y-78805000D01*
G75*
G02*
X158262500Y-78561250I0J243750D01*
G01*
X158262500Y-77648750D01*
G75*
G02*
X158506250Y-77405000I243750J0D01*
G01*
X158993750Y-77405000D01*
G75*
G02*
X159237500Y-77648750I0J-243750D01*
G01*
G37*
G04 #@! TD.AperFunction*
G04 #@! TA.AperFunction,SMDPad,CuDef*
G36*
G01*
X157362500Y-71933750D02*
X157362500Y-72846250D01*
G75*
G02*
X157118750Y-73090000I-243750J0D01*
G01*
X156631250Y-73090000D01*
G75*
G02*
X156387500Y-72846250I0J243750D01*
G01*
X156387500Y-71933750D01*
G75*
G02*
X156631250Y-71690000I243750J0D01*
G01*
X157118750Y-71690000D01*
G75*
G02*
X157362500Y-71933750I0J-243750D01*
G01*
G37*
G04 #@! TD.AperFunction*
G04 #@! TA.AperFunction,SMDPad,CuDef*
G36*
G01*
X159237500Y-71933750D02*
X159237500Y-72846250D01*
G75*
G02*
X158993750Y-73090000I-243750J0D01*
G01*
X158506250Y-73090000D01*
G75*
G02*
X158262500Y-72846250I0J243750D01*
G01*
X158262500Y-71933750D01*
G75*
G02*
X158506250Y-71690000I243750J0D01*
G01*
X158993750Y-71690000D01*
G75*
G02*
X159237500Y-71933750I0J-243750D01*
G01*
G37*
G04 #@! TD.AperFunction*
G04 #@! TA.AperFunction,SMDPad,CuDef*
G36*
G01*
X54358250Y-49523000D02*
X53845750Y-49523000D01*
G75*
G02*
X53627000Y-49304250I0J218750D01*
G01*
X53627000Y-48866750D01*
G75*
G02*
X53845750Y-48648000I218750J0D01*
G01*
X54358250Y-48648000D01*
G75*
G02*
X54577000Y-48866750I0J-218750D01*
G01*
X54577000Y-49304250D01*
G75*
G02*
X54358250Y-49523000I-218750J0D01*
G01*
G37*
G04 #@! TD.AperFunction*
G04 #@! TA.AperFunction,SMDPad,CuDef*
G36*
G01*
X54358250Y-51098000D02*
X53845750Y-51098000D01*
G75*
G02*
X53627000Y-50879250I0J218750D01*
G01*
X53627000Y-50441750D01*
G75*
G02*
X53845750Y-50223000I218750J0D01*
G01*
X54358250Y-50223000D01*
G75*
G02*
X54577000Y-50441750I0J-218750D01*
G01*
X54577000Y-50879250D01*
G75*
G02*
X54358250Y-51098000I-218750J0D01*
G01*
G37*
G04 #@! TD.AperFunction*
G04 #@! TA.AperFunction,SMDPad,CuDef*
G36*
G01*
X80362250Y-70418000D02*
X79849750Y-70418000D01*
G75*
G02*
X79631000Y-70199250I0J218750D01*
G01*
X79631000Y-69761750D01*
G75*
G02*
X79849750Y-69543000I218750J0D01*
G01*
X80362250Y-69543000D01*
G75*
G02*
X80581000Y-69761750I0J-218750D01*
G01*
X80581000Y-70199250D01*
G75*
G02*
X80362250Y-70418000I-218750J0D01*
G01*
G37*
G04 #@! TD.AperFunction*
G04 #@! TA.AperFunction,SMDPad,CuDef*
G36*
G01*
X80362250Y-71993000D02*
X79849750Y-71993000D01*
G75*
G02*
X79631000Y-71774250I0J218750D01*
G01*
X79631000Y-71336750D01*
G75*
G02*
X79849750Y-71118000I218750J0D01*
G01*
X80362250Y-71118000D01*
G75*
G02*
X80581000Y-71336750I0J-218750D01*
G01*
X80581000Y-71774250D01*
G75*
G02*
X80362250Y-71993000I-218750J0D01*
G01*
G37*
G04 #@! TD.AperFunction*
G04 #@! TA.AperFunction,SMDPad,CuDef*
G36*
G01*
X74932250Y-48888000D02*
X74419750Y-48888000D01*
G75*
G02*
X74201000Y-48669250I0J218750D01*
G01*
X74201000Y-48231750D01*
G75*
G02*
X74419750Y-48013000I218750J0D01*
G01*
X74932250Y-48013000D01*
G75*
G02*
X75151000Y-48231750I0J-218750D01*
G01*
X75151000Y-48669250D01*
G75*
G02*
X74932250Y-48888000I-218750J0D01*
G01*
G37*
G04 #@! TD.AperFunction*
G04 #@! TA.AperFunction,SMDPad,CuDef*
G36*
G01*
X74932250Y-50463000D02*
X74419750Y-50463000D01*
G75*
G02*
X74201000Y-50244250I0J218750D01*
G01*
X74201000Y-49806750D01*
G75*
G02*
X74419750Y-49588000I218750J0D01*
G01*
X74932250Y-49588000D01*
G75*
G02*
X75151000Y-49806750I0J-218750D01*
G01*
X75151000Y-50244250D01*
G75*
G02*
X74932250Y-50463000I-218750J0D01*
G01*
G37*
G04 #@! TD.AperFunction*
G04 #@! TA.AperFunction,SMDPad,CuDef*
G36*
G01*
X78107250Y-48837100D02*
X77594750Y-48837100D01*
G75*
G02*
X77376000Y-48618350I0J218750D01*
G01*
X77376000Y-48180850D01*
G75*
G02*
X77594750Y-47962100I218750J0D01*
G01*
X78107250Y-47962100D01*
G75*
G02*
X78326000Y-48180850I0J-218750D01*
G01*
X78326000Y-48618350D01*
G75*
G02*
X78107250Y-48837100I-218750J0D01*
G01*
G37*
G04 #@! TD.AperFunction*
G04 #@! TA.AperFunction,SMDPad,CuDef*
G36*
G01*
X78107250Y-50412100D02*
X77594750Y-50412100D01*
G75*
G02*
X77376000Y-50193350I0J218750D01*
G01*
X77376000Y-49755850D01*
G75*
G02*
X77594750Y-49537100I218750J0D01*
G01*
X78107250Y-49537100D01*
G75*
G02*
X78326000Y-49755850I0J-218750D01*
G01*
X78326000Y-50193350D01*
G75*
G02*
X78107250Y-50412100I-218750J0D01*
G01*
G37*
G04 #@! TD.AperFunction*
G04 #@! TA.AperFunction,SMDPad,CuDef*
G36*
G01*
X146868500Y-45019250D02*
X146868500Y-45531750D01*
G75*
G02*
X146649750Y-45750500I-218750J0D01*
G01*
X146212250Y-45750500D01*
G75*
G02*
X145993500Y-45531750I0J218750D01*
G01*
X145993500Y-45019250D01*
G75*
G02*
X146212250Y-44800500I218750J0D01*
G01*
X146649750Y-44800500D01*
G75*
G02*
X146868500Y-45019250I0J-218750D01*
G01*
G37*
G04 #@! TD.AperFunction*
G04 #@! TA.AperFunction,SMDPad,CuDef*
G36*
G01*
X148443500Y-45019250D02*
X148443500Y-45531750D01*
G75*
G02*
X148224750Y-45750500I-218750J0D01*
G01*
X147787250Y-45750500D01*
G75*
G02*
X147568500Y-45531750I0J218750D01*
G01*
X147568500Y-45019250D01*
G75*
G02*
X147787250Y-44800500I218750J0D01*
G01*
X148224750Y-44800500D01*
G75*
G02*
X148443500Y-45019250I0J-218750D01*
G01*
G37*
G04 #@! TD.AperFunction*
D31*
X114046000Y-44895500D03*
X114046000Y-41845500D03*
G04 #@! TA.AperFunction,SMDPad,CuDef*
G36*
G01*
X36776000Y-81790500D02*
X37276000Y-81790500D01*
G75*
G02*
X37501000Y-82015500I0J-225000D01*
G01*
X37501000Y-82465500D01*
G75*
G02*
X37276000Y-82690500I-225000J0D01*
G01*
X36776000Y-82690500D01*
G75*
G02*
X36551000Y-82465500I0J225000D01*
G01*
X36551000Y-82015500D01*
G75*
G02*
X36776000Y-81790500I225000J0D01*
G01*
G37*
G04 #@! TD.AperFunction*
G04 #@! TA.AperFunction,SMDPad,CuDef*
G36*
G01*
X36776000Y-80240500D02*
X37276000Y-80240500D01*
G75*
G02*
X37501000Y-80465500I0J-225000D01*
G01*
X37501000Y-80915500D01*
G75*
G02*
X37276000Y-81140500I-225000J0D01*
G01*
X36776000Y-81140500D01*
G75*
G02*
X36551000Y-80915500I0J225000D01*
G01*
X36551000Y-80465500D01*
G75*
G02*
X36776000Y-80240500I225000J0D01*
G01*
G37*
G04 #@! TD.AperFunction*
G04 #@! TA.AperFunction,SMDPad,CuDef*
G36*
G01*
X32643000Y-109722500D02*
X33143000Y-109722500D01*
G75*
G02*
X33368000Y-109947500I0J-225000D01*
G01*
X33368000Y-110397500D01*
G75*
G02*
X33143000Y-110622500I-225000J0D01*
G01*
X32643000Y-110622500D01*
G75*
G02*
X32418000Y-110397500I0J225000D01*
G01*
X32418000Y-109947500D01*
G75*
G02*
X32643000Y-109722500I225000J0D01*
G01*
G37*
G04 #@! TD.AperFunction*
G04 #@! TA.AperFunction,SMDPad,CuDef*
G36*
G01*
X32643000Y-108172500D02*
X33143000Y-108172500D01*
G75*
G02*
X33368000Y-108397500I0J-225000D01*
G01*
X33368000Y-108847500D01*
G75*
G02*
X33143000Y-109072500I-225000J0D01*
G01*
X32643000Y-109072500D01*
G75*
G02*
X32418000Y-108847500I0J225000D01*
G01*
X32418000Y-108397500D01*
G75*
G02*
X32643000Y-108172500I225000J0D01*
G01*
G37*
G04 #@! TD.AperFunction*
G04 #@! TA.AperFunction,SMDPad,CuDef*
G36*
G01*
X35691000Y-109722500D02*
X36191000Y-109722500D01*
G75*
G02*
X36416000Y-109947500I0J-225000D01*
G01*
X36416000Y-110397500D01*
G75*
G02*
X36191000Y-110622500I-225000J0D01*
G01*
X35691000Y-110622500D01*
G75*
G02*
X35466000Y-110397500I0J225000D01*
G01*
X35466000Y-109947500D01*
G75*
G02*
X35691000Y-109722500I225000J0D01*
G01*
G37*
G04 #@! TD.AperFunction*
G04 #@! TA.AperFunction,SMDPad,CuDef*
G36*
G01*
X35691000Y-108172500D02*
X36191000Y-108172500D01*
G75*
G02*
X36416000Y-108397500I0J-225000D01*
G01*
X36416000Y-108847500D01*
G75*
G02*
X36191000Y-109072500I-225000J0D01*
G01*
X35691000Y-109072500D01*
G75*
G02*
X35466000Y-108847500I0J225000D01*
G01*
X35466000Y-108397500D01*
G75*
G02*
X35691000Y-108172500I225000J0D01*
G01*
G37*
G04 #@! TD.AperFunction*
G04 #@! TA.AperFunction,SMDPad,CuDef*
G36*
G01*
X92256000Y-53190500D02*
X92256000Y-53390500D01*
G75*
G02*
X92156000Y-53490500I-100000J0D01*
G01*
X91896000Y-53490500D01*
G75*
G02*
X91796000Y-53390500I0J100000D01*
G01*
X91796000Y-53190500D01*
G75*
G02*
X91896000Y-53090500I100000J0D01*
G01*
X92156000Y-53090500D01*
G75*
G02*
X92256000Y-53190500I0J-100000D01*
G01*
G37*
G04 #@! TD.AperFunction*
G04 #@! TA.AperFunction,SMDPad,CuDef*
G36*
G01*
X92896000Y-53190500D02*
X92896000Y-53390500D01*
G75*
G02*
X92796000Y-53490500I-100000J0D01*
G01*
X92536000Y-53490500D01*
G75*
G02*
X92436000Y-53390500I0J100000D01*
G01*
X92436000Y-53190500D01*
G75*
G02*
X92536000Y-53090500I100000J0D01*
G01*
X92796000Y-53090500D01*
G75*
G02*
X92896000Y-53190500I0J-100000D01*
G01*
G37*
G04 #@! TD.AperFunction*
G04 #@! TA.AperFunction,SMDPad,CuDef*
G36*
G01*
X92802500Y-98525000D02*
X92802500Y-98325000D01*
G75*
G02*
X92902500Y-98225000I100000J0D01*
G01*
X93162500Y-98225000D01*
G75*
G02*
X93262500Y-98325000I0J-100000D01*
G01*
X93262500Y-98525000D01*
G75*
G02*
X93162500Y-98625000I-100000J0D01*
G01*
X92902500Y-98625000D01*
G75*
G02*
X92802500Y-98525000I0J100000D01*
G01*
G37*
G04 #@! TD.AperFunction*
G04 #@! TA.AperFunction,SMDPad,CuDef*
G36*
G01*
X92162500Y-98525000D02*
X92162500Y-98325000D01*
G75*
G02*
X92262500Y-98225000I100000J0D01*
G01*
X92522500Y-98225000D01*
G75*
G02*
X92622500Y-98325000I0J-100000D01*
G01*
X92622500Y-98525000D01*
G75*
G02*
X92522500Y-98625000I-100000J0D01*
G01*
X92262500Y-98625000D01*
G75*
G02*
X92162500Y-98525000I0J100000D01*
G01*
G37*
G04 #@! TD.AperFunction*
D32*
X77203300Y-54880500D03*
X77203300Y-52180500D03*
D33*
X64135000Y-39215000D03*
X64135000Y-35715000D03*
D32*
X69850000Y-38815000D03*
X69850000Y-36115000D03*
G04 #@! TA.AperFunction,SMDPad,CuDef*
G36*
G01*
X107726500Y-96771000D02*
X106776500Y-96771000D01*
G75*
G02*
X106526500Y-96521000I0J250000D01*
G01*
X106526500Y-96021000D01*
G75*
G02*
X106776500Y-95771000I250000J0D01*
G01*
X107726500Y-95771000D01*
G75*
G02*
X107976500Y-96021000I0J-250000D01*
G01*
X107976500Y-96521000D01*
G75*
G02*
X107726500Y-96771000I-250000J0D01*
G01*
G37*
G04 #@! TD.AperFunction*
G04 #@! TA.AperFunction,SMDPad,CuDef*
G36*
G01*
X107726500Y-98671000D02*
X106776500Y-98671000D01*
G75*
G02*
X106526500Y-98421000I0J250000D01*
G01*
X106526500Y-97921000D01*
G75*
G02*
X106776500Y-97671000I250000J0D01*
G01*
X107726500Y-97671000D01*
G75*
G02*
X107976500Y-97921000I0J-250000D01*
G01*
X107976500Y-98421000D01*
G75*
G02*
X107726500Y-98671000I-250000J0D01*
G01*
G37*
G04 #@! TD.AperFunction*
G04 #@! TA.AperFunction,SMDPad,CuDef*
G36*
G01*
X98201500Y-96771000D02*
X97251500Y-96771000D01*
G75*
G02*
X97001500Y-96521000I0J250000D01*
G01*
X97001500Y-96021000D01*
G75*
G02*
X97251500Y-95771000I250000J0D01*
G01*
X98201500Y-95771000D01*
G75*
G02*
X98451500Y-96021000I0J-250000D01*
G01*
X98451500Y-96521000D01*
G75*
G02*
X98201500Y-96771000I-250000J0D01*
G01*
G37*
G04 #@! TD.AperFunction*
G04 #@! TA.AperFunction,SMDPad,CuDef*
G36*
G01*
X98201500Y-98671000D02*
X97251500Y-98671000D01*
G75*
G02*
X97001500Y-98421000I0J250000D01*
G01*
X97001500Y-97921000D01*
G75*
G02*
X97251500Y-97671000I250000J0D01*
G01*
X98201500Y-97671000D01*
G75*
G02*
X98451500Y-97921000I0J-250000D01*
G01*
X98451500Y-98421000D01*
G75*
G02*
X98201500Y-98671000I-250000J0D01*
G01*
G37*
G04 #@! TD.AperFunction*
D34*
X115586000Y-56070500D03*
D35*
X117586000Y-56070500D03*
D36*
X105176000Y-56070500D03*
D37*
X107676000Y-56070500D03*
D12*
X28956000Y-78105000D03*
D13*
X28956000Y-80645000D03*
D38*
X78486000Y-42100500D03*
X80391000Y-47180500D03*
X80391000Y-49085500D03*
X80391000Y-52260500D03*
X92456000Y-49720500D03*
X150876000Y-45275500D03*
X54102000Y-55372000D03*
X94297500Y-98425000D03*
X102362000Y-91630500D03*
X40068500Y-79184500D03*
X37973000Y-71310500D03*
X40068500Y-99314000D03*
X34099500Y-116903500D03*
X32893000Y-91376500D03*
X27749500Y-43561000D03*
X52387500Y-96837500D03*
X168910000Y-72390000D03*
X168910000Y-78105000D03*
X168910000Y-83820000D03*
X168910000Y-90170000D03*
X168910000Y-96520000D03*
X64135000Y-41910000D03*
X69850000Y-40640000D03*
X95480000Y-128000000D03*
X120190000Y-145660000D03*
X92710000Y-73660000D03*
X82550000Y-95250000D03*
X89600000Y-69400000D03*
X32966000Y-80660500D03*
X39116000Y-84772500D03*
X62293500Y-95821500D03*
X76170000Y-118930000D03*
X111506000Y-44640500D03*
X117586000Y-44910500D03*
X82570001Y-99865499D03*
X82684501Y-102115501D03*
X101401001Y-39505499D03*
X107188000Y-66294000D03*
X90735501Y-97085501D03*
X89217500Y-65659000D03*
X92646500Y-56261000D03*
X110871000Y-38290500D03*
X84836000Y-47815500D03*
X72606000Y-61980500D03*
X85281000Y-72595500D03*
X80106000Y-73438500D03*
X57467500Y-49085500D03*
X83700999Y-97325499D03*
X90805000Y-67945000D03*
X41910000Y-45085000D03*
X133350000Y-85090000D03*
X152400000Y-83820000D03*
X152400000Y-90170000D03*
X111860608Y-83084392D03*
X64330000Y-120100000D03*
X45890000Y-94820000D03*
X34163000Y-76771500D03*
X50165000Y-92710000D03*
X66802000Y-100647500D03*
X109726716Y-108226716D03*
X96990000Y-110710000D03*
X72560000Y-102940000D03*
X69550000Y-96980000D03*
X98806000Y-48450500D03*
X84607500Y-106070500D03*
X90424000Y-104330500D03*
X54673500Y-74549000D03*
X98430000Y-117580000D03*
X105020000Y-125310000D03*
X106720000Y-108390000D03*
X84455000Y-88265000D03*
X60310000Y-129280000D03*
X68970000Y-104400000D03*
X91440000Y-78105000D03*
X71420000Y-115140000D03*
X35433000Y-49276000D03*
X77733768Y-68843768D03*
X78476232Y-69586232D03*
X116419063Y-100509063D03*
X70650000Y-102900000D03*
X69750000Y-108660000D03*
X32893000Y-103505000D03*
X112540000Y-138500000D03*
X85340000Y-128010000D03*
D39*
X79050000Y-38838500D02*
X79050000Y-41536500D01*
X79050000Y-41536500D02*
X78486000Y-42100500D01*
X78486000Y-42100500D02*
X78486000Y-42100500D01*
X82481000Y-47445500D02*
X80656000Y-47445500D01*
X80656000Y-47445500D02*
X80391000Y-47180500D01*
X80391000Y-47180500D02*
X80391000Y-47180500D01*
X82481000Y-49395500D02*
X80701000Y-49395500D01*
X80701000Y-49395500D02*
X80391000Y-49085500D01*
X80391000Y-49085500D02*
X80391000Y-49085500D01*
X82481000Y-51995500D02*
X80656000Y-51995500D01*
X80656000Y-51995500D02*
X80391000Y-52260500D01*
X80776000Y-52645500D02*
X82481000Y-52645500D01*
X80391000Y-52260500D02*
X80776000Y-52645500D01*
X80391000Y-52260500D02*
X80391000Y-52260500D01*
X77203300Y-54880500D02*
X79041000Y-54880500D01*
X80391000Y-53530500D02*
X80391000Y-52260500D01*
X79041000Y-54880500D02*
X80391000Y-53530500D01*
X89731000Y-50045500D02*
X92131000Y-50045500D01*
X92131000Y-50045500D02*
X92456000Y-49720500D01*
X92456000Y-49720500D02*
X92456000Y-49720500D01*
X92456000Y-49720500D02*
X92456000Y-49720500D01*
X148006000Y-45275500D02*
X150876000Y-45275500D01*
X150876000Y-45275500D02*
X150876000Y-45275500D01*
X54102000Y-53979000D02*
X54102000Y-55372000D01*
X54102000Y-55372000D02*
X54102000Y-55372000D01*
X93032500Y-98425000D02*
X94297500Y-98425000D01*
X97726500Y-91643000D02*
X97739000Y-91630500D01*
X97726500Y-96271000D02*
X97726500Y-91643000D01*
X107251500Y-91643000D02*
X107239000Y-91630500D01*
X107239000Y-91630500D02*
X102362000Y-91630500D01*
X97739000Y-91630500D02*
X98234500Y-91630500D01*
X98234500Y-91630500D02*
X102362000Y-91630500D01*
X107239000Y-96258500D02*
X107251500Y-96271000D01*
X107239000Y-91630500D02*
X107239000Y-96258500D01*
X40068500Y-80620500D02*
X40068500Y-79184500D01*
X37957000Y-71326500D02*
X37973000Y-71310500D01*
X37957000Y-73394500D02*
X37957000Y-71326500D01*
X42418000Y-74358000D02*
X42418000Y-72707500D01*
X41021000Y-71310500D02*
X37973000Y-71310500D01*
X42418000Y-72707500D02*
X41021000Y-71310500D01*
X40052500Y-99330000D02*
X40068500Y-99314000D01*
X40052500Y-101652000D02*
X40052500Y-99330000D01*
X44323000Y-102552000D02*
X44323000Y-100774500D01*
X42862500Y-99314000D02*
X40068500Y-99314000D01*
X44323000Y-100774500D02*
X42862500Y-99314000D01*
X32893000Y-115124500D02*
X32893000Y-115760500D01*
X32893000Y-115760500D02*
X34036000Y-116903500D01*
X35814000Y-115125500D02*
X35941000Y-115125500D01*
X34036000Y-116903500D02*
X34099500Y-116903500D01*
X34099500Y-116903500D02*
X35814000Y-115125500D01*
X32893000Y-93917500D02*
X32893000Y-91376500D01*
X27749500Y-41528000D02*
X27749500Y-43561000D01*
X29781500Y-45593000D02*
X27749500Y-43561000D01*
X29781500Y-45853500D02*
X29781500Y-45593000D01*
X31014000Y-43561000D02*
X27749500Y-43561000D01*
X32321500Y-44868500D02*
X31014000Y-43561000D01*
X32321500Y-45853500D02*
X32321500Y-44868500D01*
X54934000Y-96837500D02*
X52387500Y-96837500D01*
X166290000Y-72390000D02*
X168910000Y-72390000D01*
X166370000Y-78105000D02*
X168910000Y-78105000D01*
X166290000Y-83820000D02*
X168910000Y-83820000D01*
X166290000Y-90170000D02*
X168910000Y-90170000D01*
X166290000Y-96520000D02*
X168910000Y-96520000D01*
X64135000Y-39215000D02*
X64135000Y-41910000D01*
X69850000Y-38815000D02*
X69850000Y-40640000D01*
X95470000Y-127990000D02*
X95480000Y-128000000D01*
X93900000Y-127990000D02*
X95470000Y-127990000D01*
X120150000Y-145620000D02*
X120190000Y-145660000D01*
X116880000Y-145620000D02*
X120150000Y-145620000D01*
X87931000Y-70105500D02*
X87931000Y-70855500D01*
X87931000Y-70855500D02*
X89905500Y-70855500D01*
X89905500Y-70855500D02*
X92710000Y-73660000D01*
X83210500Y-95910500D02*
X82550000Y-95250000D01*
X87366000Y-95910500D02*
X83210500Y-95910500D01*
X89905500Y-69705500D02*
X89600000Y-69400000D01*
X89905500Y-70855500D02*
X89905500Y-69705500D01*
D40*
X36996000Y-80660500D02*
X37026000Y-80690500D01*
X32966000Y-80660500D02*
X36996000Y-80660500D01*
X37026000Y-76713500D02*
X36957000Y-76644500D01*
X37026000Y-80690500D02*
X37026000Y-76713500D01*
X26667000Y-72450500D02*
X26667000Y-71183500D01*
X27559000Y-73342500D02*
X26667000Y-72450500D01*
X28956000Y-73342500D02*
X27559000Y-73342500D01*
X32966000Y-77352500D02*
X28956000Y-73342500D01*
X32966000Y-80660500D02*
X32966000Y-77352500D01*
X32966000Y-80660500D02*
X37078000Y-84772500D01*
X37078000Y-84772500D02*
X39116000Y-84772500D01*
X62293500Y-95821500D02*
X62293500Y-95567500D01*
X62293500Y-95567500D02*
X62547500Y-95313500D01*
X62547500Y-95313500D02*
X62547500Y-94678500D01*
X62166500Y-94297500D02*
X59874000Y-94297500D01*
X62547500Y-94678500D02*
X62166500Y-94297500D01*
X122810000Y-126090000D02*
X120950000Y-124230000D01*
X122810000Y-128770000D02*
X122810000Y-126090000D01*
X120950000Y-124230000D02*
X102893972Y-124230000D01*
X102893972Y-124230000D02*
X96600000Y-117936028D01*
X77163972Y-117936028D02*
X76170000Y-118930000D01*
X96600000Y-117936028D02*
X77163972Y-117936028D01*
X113791000Y-44640500D02*
X114046000Y-44895500D01*
X111506000Y-44640500D02*
X113791000Y-44640500D01*
X120625400Y-42100500D02*
X116841000Y-42100500D01*
X116841000Y-42100500D02*
X114046000Y-44895500D01*
X120625400Y-44640500D02*
X131505400Y-44640500D01*
X120355400Y-44910500D02*
X120625400Y-44640500D01*
X117586000Y-44910500D02*
X120355400Y-44910500D01*
X96032001Y-99865499D02*
X82570001Y-99865499D01*
X97726500Y-98171000D02*
X96032001Y-99865499D01*
X103306999Y-102115501D02*
X82684501Y-102115501D01*
X107251500Y-98171000D02*
X103306999Y-102115501D01*
D39*
X101401001Y-39505499D02*
X101401001Y-39505499D01*
X86106000Y-38894500D02*
X86050000Y-38838500D01*
X86106000Y-42100500D02*
X86106000Y-38894500D01*
X77675901Y-45553601D02*
X77050900Y-44928600D01*
X77675901Y-45612403D02*
X77675901Y-45553601D01*
X80756008Y-47995510D02*
X80059008Y-47995510D01*
X80059008Y-47995510D02*
X77675901Y-45612403D01*
X81505998Y-48745500D02*
X80756008Y-47995510D01*
X82481000Y-48745500D02*
X81505998Y-48745500D01*
X74718100Y-44928600D02*
X74676000Y-44886500D01*
X77050900Y-44928600D02*
X74718100Y-44928600D01*
X85176000Y-48745500D02*
X82481000Y-48745500D01*
X86106000Y-47815500D02*
X85176000Y-48745500D01*
X86106000Y-42100500D02*
X86106000Y-47815500D01*
X105082503Y-44595501D02*
X103996499Y-44595501D01*
X107667502Y-47180500D02*
X105082503Y-44595501D01*
X101401001Y-42000003D02*
X101401001Y-39505499D01*
X103996499Y-44595501D02*
X101401001Y-42000003D01*
X139446000Y-45275500D02*
X142232000Y-45275500D01*
X138811000Y-45910500D02*
X139446000Y-45275500D01*
X138811000Y-50355500D02*
X138811000Y-45910500D01*
X135636000Y-53530500D02*
X138811000Y-50355500D01*
X124841000Y-53530500D02*
X135636000Y-53530500D01*
X82106000Y-69980500D02*
X82606000Y-69480500D01*
X80106000Y-69980500D02*
X82106000Y-69980500D01*
X118491000Y-64325500D02*
X120625400Y-62191100D01*
X82606000Y-69480500D02*
X87761000Y-64325500D01*
X107188000Y-66294000D02*
X108775500Y-64706500D01*
X108775500Y-64325500D02*
X118491000Y-64325500D01*
X108775500Y-64706500D02*
X108775500Y-64325500D01*
X87761000Y-64325500D02*
X108775500Y-64325500D01*
X69850000Y-34290000D02*
X69850000Y-36115000D01*
X72390000Y-31750000D02*
X69850000Y-34290000D01*
X64135000Y-33655000D02*
X64135000Y-35715000D01*
X66040000Y-31750000D02*
X64135000Y-33655000D01*
X72390000Y-31750000D02*
X66040000Y-31750000D01*
X86500000Y-38388500D02*
X86050000Y-38838500D01*
X86500000Y-32525000D02*
X86500000Y-38388500D01*
X85725000Y-31750000D02*
X86500000Y-32525000D01*
X72390000Y-31750000D02*
X85725000Y-31750000D01*
X92075000Y-98425000D02*
X90735501Y-97085501D01*
X92392500Y-98425000D02*
X92075000Y-98425000D01*
X64135000Y-35715000D02*
X61700000Y-38150000D01*
X61700000Y-43094500D02*
X65151000Y-46545500D01*
X61700000Y-38150000D02*
X61700000Y-43094500D01*
X124841000Y-53530500D02*
X124841000Y-53559000D01*
X113380500Y-47180500D02*
X113400000Y-47200000D01*
X107667502Y-47180500D02*
X113380500Y-47180500D01*
X119730500Y-53530500D02*
X113400000Y-47200000D01*
X124841000Y-53530500D02*
X119730500Y-53530500D01*
X120625400Y-54425400D02*
X119730500Y-53530500D01*
X120625400Y-62191100D02*
X120625400Y-54425400D01*
D40*
X77203300Y-52180500D02*
X72691000Y-52180500D01*
X72691000Y-52180500D02*
X70866000Y-50355500D01*
X70866000Y-50355500D02*
X70866000Y-44640500D01*
X70866000Y-44640500D02*
X72771000Y-42735500D01*
X81595998Y-46795500D02*
X82481000Y-46795500D01*
X77535998Y-42735500D02*
X81595998Y-46795500D01*
X72771000Y-42735500D02*
X77535998Y-42735500D01*
X89736000Y-53290500D02*
X89731000Y-53295500D01*
X92026000Y-53290500D02*
X89736000Y-53290500D01*
X82606000Y-71830500D02*
X82606000Y-71980500D01*
X84481000Y-70105500D02*
X85281000Y-70105500D01*
X82606000Y-71980500D02*
X84481000Y-70105500D01*
X85281000Y-70105500D02*
X85281000Y-67512620D01*
X85281000Y-67512620D02*
X87134620Y-65659000D01*
X87134620Y-65659000D02*
X89217500Y-65659000D01*
X89217500Y-65659000D02*
X89217500Y-65659000D01*
X92646500Y-53310000D02*
X92666000Y-53290500D01*
X92646500Y-56261000D02*
X92646500Y-53310000D01*
X35941000Y-110172500D02*
X35941000Y-113475500D01*
X32893000Y-110172500D02*
X32893000Y-113474500D01*
X40038500Y-82240500D02*
X40068500Y-82270500D01*
X37026000Y-82240500D02*
X40038500Y-82240500D01*
D39*
X114046000Y-41465500D02*
X114046000Y-41845500D01*
X110871000Y-38290500D02*
X114046000Y-41465500D01*
D40*
X143256000Y-45275500D02*
X146431000Y-45275500D01*
X77851000Y-48399600D02*
X77851000Y-47815500D01*
X77050900Y-47015400D02*
X77050900Y-45952600D01*
X77851000Y-47815500D02*
X77050900Y-47015400D01*
X78571900Y-50695500D02*
X82481000Y-50695500D01*
X77851000Y-49974600D02*
X78571900Y-50695500D01*
X74676000Y-48450500D02*
X74676000Y-45910500D01*
X80277998Y-50045500D02*
X82481000Y-50045500D01*
X79444588Y-49212090D02*
X80277998Y-50045500D01*
X75489410Y-49212090D02*
X79444588Y-49212090D01*
X74676000Y-50025500D02*
X75489410Y-49212090D01*
X84556000Y-48095500D02*
X82481000Y-48095500D01*
X84836000Y-47815500D02*
X84556000Y-48095500D01*
X80106000Y-77770500D02*
X79746000Y-78130500D01*
X85281000Y-70855500D02*
X85281000Y-72595500D01*
X72606000Y-64055500D02*
X72606000Y-61980500D01*
X72606000Y-61980500D02*
X72606000Y-61980500D01*
X85281000Y-72595500D02*
X85281000Y-72595500D01*
X80106000Y-71555500D02*
X80106000Y-73438500D01*
X72606000Y-64055500D02*
X76840510Y-68290010D01*
X76840510Y-68290010D02*
X76840510Y-71125510D01*
X77270500Y-71555500D02*
X80106000Y-71555500D01*
X76840510Y-71125510D02*
X77270500Y-71555500D01*
X57467500Y-49085500D02*
X54102000Y-49085500D01*
X79495997Y-97325499D02*
X83700999Y-97325499D01*
X76390500Y-94220002D02*
X79495997Y-97325499D01*
X76390500Y-68476410D02*
X76390500Y-94220002D01*
X71880999Y-63966909D02*
X76390500Y-68476410D01*
X65715001Y-47910499D02*
X71880999Y-54076497D01*
X71880999Y-54076497D02*
X71880999Y-63966909D01*
X63786001Y-47910499D02*
X65715001Y-47910499D01*
X62611000Y-49085500D02*
X63786001Y-47910499D01*
X83700999Y-97325499D02*
X83700999Y-97325499D01*
X54102000Y-50660500D02*
X54102000Y-52955000D01*
X95250000Y-72390000D02*
X90805000Y-67945000D01*
X156875000Y-72390000D02*
X95250000Y-72390000D01*
X41910000Y-45085000D02*
X41910000Y-39878000D01*
X158750000Y-72390000D02*
X164465000Y-72390000D01*
X79746000Y-106070500D02*
X79400500Y-106070500D01*
X133350000Y-85090000D02*
X140335000Y-85090000D01*
X147320000Y-78105000D02*
X156875000Y-78105000D01*
X140335000Y-85090000D02*
X147320000Y-78105000D01*
X158750000Y-78105000D02*
X164545000Y-78105000D01*
X152400000Y-83820000D02*
X156875000Y-83820000D01*
X158750000Y-83820000D02*
X164465000Y-83820000D01*
X152400000Y-90170000D02*
X156845000Y-90170000D01*
X158720000Y-90170000D02*
X164465000Y-90170000D01*
X111860608Y-83084392D02*
X115570000Y-86793784D01*
X115570000Y-86793784D02*
X115570000Y-92075000D01*
X120015000Y-96520000D02*
X156875000Y-96520000D01*
X115570000Y-92075000D02*
X120015000Y-96520000D01*
X158750000Y-96520000D02*
X164465000Y-96520000D01*
X32893000Y-95567500D02*
X32893000Y-100200000D01*
X36194000Y-95567500D02*
X36195000Y-95566500D01*
X32893000Y-95567500D02*
X36194000Y-95567500D01*
X39049500Y-104905000D02*
X39052500Y-104902000D01*
X35052000Y-104905000D02*
X39049500Y-104905000D01*
X40560968Y-81545490D02*
X40868510Y-81853032D01*
X40868510Y-95084990D02*
X35814000Y-100139500D01*
X39576032Y-81545490D02*
X40560968Y-81545490D01*
X37882001Y-79851459D02*
X39576032Y-81545490D01*
X37882001Y-75380499D02*
X37882001Y-79851459D01*
X32321500Y-69819998D02*
X37882001Y-75380499D01*
X32321500Y-50793500D02*
X32321500Y-69819998D01*
X120970000Y-110470000D02*
X103972320Y-110470000D01*
X103972320Y-110470000D02*
X96956302Y-117486018D01*
X66943982Y-117486018D02*
X64330000Y-120100000D01*
X96956302Y-117486018D02*
X66943982Y-117486018D01*
X40868510Y-94701490D02*
X40868510Y-95084990D01*
X122850000Y-112350000D02*
X120970000Y-110470000D01*
X122850000Y-115010000D02*
X122850000Y-112350000D01*
X42967020Y-94820000D02*
X40868510Y-92721490D01*
X45890000Y-94820000D02*
X42967020Y-94820000D01*
X40868510Y-92721490D02*
X40868510Y-94701490D01*
X40868510Y-81853032D02*
X40868510Y-92721490D01*
X31050000Y-71183500D02*
X31051500Y-71185000D01*
X28067000Y-71183500D02*
X31050000Y-71183500D01*
X31051500Y-50793500D02*
X31051500Y-71185000D01*
X32451500Y-71185000D02*
X32451500Y-75060000D01*
X32451500Y-75060000D02*
X34163000Y-76771500D01*
X53022500Y-95567500D02*
X54934000Y-95567500D01*
X50165000Y-92710000D02*
X53022500Y-95567500D01*
X130860000Y-104550000D02*
X134950000Y-104550000D01*
X134950000Y-104550000D02*
X138130000Y-107730000D01*
X114226998Y-135740000D02*
X111590000Y-138376998D01*
X133740000Y-135740000D02*
X114226998Y-135740000D01*
X111590000Y-145410000D02*
X111800000Y-145620000D01*
X111590000Y-138376998D02*
X111590000Y-145410000D01*
X130860000Y-104550000D02*
X130860000Y-106240000D01*
X137165000Y-132315000D02*
X133740000Y-135740000D01*
X138130000Y-131350000D02*
X137165000Y-132315000D01*
X135640000Y-110470000D02*
X138130000Y-112960000D01*
X122620000Y-110470000D02*
X135640000Y-110470000D01*
X138130000Y-107730000D02*
X138130000Y-112960000D01*
X132160000Y-116000000D02*
X135640000Y-116000000D01*
X135640000Y-116000000D02*
X138130000Y-118490000D01*
X138130000Y-112960000D02*
X138130000Y-118490000D01*
X137430000Y-129720000D02*
X138130000Y-130420000D01*
X132270000Y-129720000D02*
X137430000Y-129720000D01*
X138130000Y-130420000D02*
X138130000Y-131350000D01*
X122600000Y-124230000D02*
X135570000Y-124230000D01*
X138130000Y-126630000D02*
X138130000Y-130420000D01*
X137970000Y-126630000D02*
X138130000Y-126630000D01*
X135570000Y-124230000D02*
X137970000Y-126630000D01*
X138130000Y-118490000D02*
X138130000Y-126630000D01*
X130720000Y-115960000D02*
X130760000Y-116000000D01*
X120850000Y-115960000D02*
X130720000Y-115960000D01*
X120810000Y-129720000D02*
X130870000Y-129720000D01*
X89540000Y-127990000D02*
X92500000Y-127990000D01*
X66802000Y-96967500D02*
X66802000Y-100647500D01*
X114353432Y-103600000D02*
X109726716Y-108226716D01*
X122620000Y-103600000D02*
X114353432Y-103600000D01*
X95424499Y-112275501D02*
X95424499Y-112325501D01*
X96990000Y-110710000D02*
X95424499Y-112275501D01*
X95424499Y-112325501D02*
X91614010Y-116135990D01*
X91614010Y-116135990D02*
X77211900Y-116135990D01*
X77211900Y-116135990D02*
X74512955Y-113437045D01*
X74512955Y-113437045D02*
X73999759Y-112923849D01*
X73999759Y-112923849D02*
X72078010Y-111002100D01*
X72078010Y-111002100D02*
X72078010Y-108570000D01*
X72078010Y-108570000D02*
X72078010Y-106050000D01*
X72078010Y-106050000D02*
X72078010Y-103330000D01*
X72170000Y-103330000D02*
X72560000Y-102940000D01*
X72078010Y-103330000D02*
X72170000Y-103330000D01*
X66814500Y-96980000D02*
X66802000Y-96967500D01*
X69550000Y-96980000D02*
X66814500Y-96980000D01*
X61945499Y-96546501D02*
X64489499Y-96546501D01*
X60966498Y-95567500D02*
X61945499Y-96546501D01*
X59874000Y-95567500D02*
X60966498Y-95567500D01*
X65468500Y-95567500D02*
X66802000Y-95567500D01*
X64489499Y-96546501D02*
X65468500Y-95567500D01*
X124120000Y-99210000D02*
X129460000Y-104550000D01*
X122490000Y-99210000D02*
X124120000Y-99210000D01*
X123000000Y-104550000D02*
X120620000Y-104550000D01*
X123690000Y-103860000D02*
X123000000Y-104550000D01*
X123690000Y-100410000D02*
X123690000Y-103860000D01*
X122490000Y-99210000D02*
X123690000Y-100410000D01*
D39*
X98806000Y-48450500D02*
X97536000Y-48450500D01*
X93991000Y-51995500D02*
X89731000Y-51995500D01*
X97536000Y-48450500D02*
X93991000Y-51995500D01*
D41*
X82494603Y-45495500D02*
X82481000Y-45495500D01*
X83100000Y-44890103D02*
X82494603Y-45495500D01*
X81550000Y-38838500D02*
X82799990Y-40088490D01*
X82799990Y-40331138D02*
X83100000Y-40631148D01*
X83100000Y-40631148D02*
X83100000Y-44890103D01*
X82799990Y-40088490D02*
X82799990Y-40331138D01*
X82630999Y-45995501D02*
X82481000Y-46145500D01*
X83531001Y-45935501D02*
X83471001Y-45995501D01*
X83471001Y-45995501D02*
X82630999Y-45995501D01*
X83531001Y-45095499D02*
X83531001Y-45935501D01*
X83550000Y-45076500D02*
X83531001Y-45095499D01*
X83550000Y-38838500D02*
X83550000Y-45076500D01*
D40*
X65151000Y-49085500D02*
X63975999Y-50260501D01*
X63975999Y-87175499D02*
X79205999Y-102405499D01*
X80942499Y-102405499D02*
X84607500Y-106070500D01*
X63975999Y-50260501D02*
X63975999Y-87175499D01*
X79205999Y-102405499D02*
X80942499Y-102405499D01*
X84607500Y-106070500D02*
X84607500Y-106070500D01*
X62611000Y-46545500D02*
X60452000Y-48704500D01*
X60452000Y-65849500D02*
X63525989Y-68923489D01*
X60452000Y-48704500D02*
X60452000Y-65849500D01*
X63525989Y-88975491D02*
X79495997Y-104945499D01*
X79495997Y-104945499D02*
X81259999Y-104945499D01*
X63525989Y-68923489D02*
X63525989Y-88975491D01*
X86825999Y-107195501D02*
X89146499Y-107195501D01*
X86675988Y-107045490D02*
X86825999Y-107195501D01*
X83359990Y-107045490D02*
X86675988Y-107045490D01*
X81259999Y-104945499D02*
X83359990Y-107045490D01*
X89146499Y-107195501D02*
X90424000Y-105918000D01*
X90424000Y-105918000D02*
X90424000Y-104330500D01*
X87709000Y-103187500D02*
X87366000Y-103530500D01*
X90424000Y-104330500D02*
X90424000Y-104330500D01*
X33401000Y-39878000D02*
X39310000Y-39878000D01*
X32101000Y-39878000D02*
X27749500Y-39878000D01*
X40610000Y-60485500D02*
X54673500Y-74549000D01*
X40610000Y-39878000D02*
X40610000Y-60485500D01*
X120850000Y-114060000D02*
X101018730Y-114060000D01*
X98430000Y-116648730D02*
X98430000Y-117580000D01*
X101018730Y-114060000D02*
X98430000Y-116648730D01*
X120810000Y-127820000D02*
X116929990Y-127820000D01*
X116929990Y-127820000D02*
X113799990Y-124690000D01*
X105640000Y-124690000D02*
X105020000Y-125310000D01*
X113799990Y-124690000D02*
X105640000Y-124690000D01*
X120620000Y-102650000D02*
X111792320Y-102650000D01*
X106720000Y-107722320D02*
X106720000Y-108390000D01*
X111792320Y-102650000D02*
X106720000Y-107722320D01*
X41052500Y-104902000D02*
X44323000Y-104902000D01*
X44323000Y-104902000D02*
X56457009Y-117036009D01*
X56457009Y-117036009D02*
X61273991Y-117036009D01*
X60310000Y-129280000D02*
X61273991Y-128316009D01*
X61273991Y-128316009D02*
X61273991Y-117036009D01*
X115067510Y-98738400D02*
X115067509Y-87316599D01*
X86825999Y-77005499D02*
X84455000Y-79376498D01*
X84455000Y-79376498D02*
X84455000Y-88265000D01*
X96769901Y-117036009D02*
X115067510Y-98738400D01*
X115067509Y-87316599D02*
X104756409Y-77005499D01*
X104756409Y-77005499D02*
X86825999Y-77005499D01*
X61273991Y-117036009D02*
X96769901Y-117036009D01*
X35138999Y-100699501D02*
X35203999Y-100764501D01*
X35138999Y-99579499D02*
X35138999Y-100699501D01*
X36995010Y-97723488D02*
X35138999Y-99579499D01*
X35203999Y-100764501D02*
X36331999Y-100764501D01*
X36995010Y-94716510D02*
X36995010Y-97723488D01*
X36195000Y-93916500D02*
X36995010Y-94716510D01*
X53838980Y-96192510D02*
X56207490Y-96192510D01*
X53758969Y-96112499D02*
X53838980Y-96192510D01*
X40984001Y-96112499D02*
X53758969Y-96112499D01*
X36331999Y-100764501D02*
X40984001Y-96112499D01*
X56578500Y-95821500D02*
X56578500Y-94996000D01*
X55880000Y-94297500D02*
X54934000Y-94297500D01*
X56578500Y-94996000D02*
X55880000Y-94297500D01*
X64790000Y-104400000D02*
X56395000Y-96005000D01*
X68970000Y-104400000D02*
X64790000Y-104400000D01*
X56395000Y-96005000D02*
X56578500Y-95821500D01*
X56207490Y-96192510D02*
X56395000Y-96005000D01*
X42354500Y-76644500D02*
X42418000Y-76708000D01*
X38957000Y-76644500D02*
X42354500Y-76644500D01*
X77025500Y-116586000D02*
X96583500Y-116586000D01*
X71628000Y-97713912D02*
X71628000Y-111188500D01*
X96583500Y-116586000D02*
X114617500Y-98552000D01*
X50622088Y-76708000D02*
X71628000Y-97713912D01*
X114617500Y-98552000D02*
X114617500Y-87503000D01*
X42418000Y-76708000D02*
X50622088Y-76708000D01*
X91440000Y-78105000D02*
X105219500Y-78105000D01*
X105791000Y-78676500D02*
X105245000Y-78130500D01*
X105219500Y-78105000D02*
X105791000Y-78676500D01*
X114617500Y-87503000D02*
X105791000Y-78676500D01*
X71420000Y-115140000D02*
X73449750Y-113110250D01*
X73449750Y-113110250D02*
X73549750Y-113110250D01*
X73549750Y-113110250D02*
X77025500Y-116586000D01*
X71628000Y-111188500D02*
X73549750Y-113110250D01*
X31051500Y-46838500D02*
X31051500Y-45853500D01*
X33489000Y-49276000D02*
X31051500Y-46838500D01*
X35433000Y-49276000D02*
X33489000Y-49276000D01*
D41*
X78158033Y-68843768D02*
X77733768Y-68843768D01*
X89281000Y-57720801D02*
X78158033Y-68843768D01*
X89281000Y-54985502D02*
X89281000Y-57720801D01*
X88680999Y-54385501D02*
X89281000Y-54985502D01*
X88680999Y-51555499D02*
X88680999Y-54385501D01*
X88740999Y-51495499D02*
X88680999Y-51555499D01*
X89581001Y-51495499D02*
X88740999Y-51495499D01*
X89731000Y-51345500D02*
X89581001Y-51495499D01*
X78476232Y-69211278D02*
X78476232Y-69586232D01*
X84843519Y-62794681D02*
X84737454Y-62900745D01*
X84896041Y-62752798D02*
X84843519Y-62794681D01*
X84956567Y-62723650D02*
X84896041Y-62752798D01*
X85089240Y-62708701D02*
X85022062Y-62708700D01*
X85215261Y-62752797D02*
X85154735Y-62723649D01*
X85267784Y-62794682D02*
X85215261Y-62752797D01*
X85550626Y-63077524D02*
X85267784Y-62794682D01*
X85603148Y-63119411D02*
X85550626Y-63077524D01*
X84737454Y-62900745D02*
X78483750Y-69154449D01*
X85663675Y-63148557D02*
X85603148Y-63119411D01*
X85729168Y-63163507D02*
X85663675Y-63148557D01*
X85922368Y-63119410D02*
X85861841Y-63148558D01*
X85974890Y-63077524D02*
X85922368Y-63119410D01*
X86016774Y-63025003D02*
X85974890Y-63077524D01*
X86045923Y-62766309D02*
X86060871Y-62831804D01*
X86016775Y-62705783D02*
X86045923Y-62766309D01*
X86045922Y-62964477D02*
X86016774Y-63025003D01*
X85974890Y-62653260D02*
X86016775Y-62705783D01*
X85692047Y-62370417D02*
X85974890Y-62653260D01*
X85650162Y-62317894D02*
X85692047Y-62370417D01*
X85621014Y-62257369D02*
X85650162Y-62317894D01*
X85606065Y-62124696D02*
X85606066Y-62191874D01*
X85621015Y-62059201D02*
X85606065Y-62124696D01*
X85692046Y-61946153D02*
X85650161Y-61998676D01*
X85805094Y-61875123D02*
X85744568Y-61904271D01*
X85937767Y-61860174D02*
X85870589Y-61860173D01*
X86003262Y-61875122D02*
X85937767Y-61860174D01*
X86063788Y-61904270D02*
X86003262Y-61875122D01*
X86116311Y-61946155D02*
X86063788Y-61904270D01*
X86512202Y-62300030D02*
X86451675Y-62270884D01*
X78483750Y-69154449D02*
X78483750Y-69203760D01*
X85154735Y-62723649D02*
X85089240Y-62708701D01*
X86577695Y-62314980D02*
X86512202Y-62300030D01*
X86644875Y-62314979D02*
X86577695Y-62314980D01*
X86710368Y-62300031D02*
X86644875Y-62314979D01*
X86865301Y-62176476D02*
X86823417Y-62228997D01*
X85022062Y-62708700D02*
X84956567Y-62723650D01*
X86894449Y-62115950D02*
X86865301Y-62176476D01*
X86909399Y-62050455D02*
X86894449Y-62115950D01*
X86909398Y-61983277D02*
X86909399Y-62050455D01*
X85606066Y-62191874D02*
X85621014Y-62257369D01*
X86865302Y-61857256D02*
X86894450Y-61917782D01*
X86823417Y-61804733D02*
X86865302Y-61857256D01*
X86540574Y-61521890D02*
X86823417Y-61804733D01*
X86498689Y-61469367D02*
X86540574Y-61521890D01*
X86894450Y-61917782D02*
X86909398Y-61983277D01*
X86653621Y-61026596D02*
X86593095Y-61055744D01*
X86719116Y-61011646D02*
X86653621Y-61026596D01*
X89044270Y-58923782D02*
X89086155Y-58976305D01*
X87713829Y-61008729D02*
X87742977Y-61069255D01*
X87389100Y-60249099D02*
X87347215Y-60301622D01*
X86851789Y-61026595D02*
X86786294Y-61011647D01*
X86912315Y-61055743D02*
X86851789Y-61026595D01*
X86964838Y-61097628D02*
X86912315Y-61055743D01*
X86451675Y-62270884D02*
X86399153Y-62228997D01*
X87634821Y-60163117D02*
X87567642Y-60163117D01*
X87360729Y-61451503D02*
X87300202Y-61422357D01*
X87426222Y-61466453D02*
X87360729Y-61451503D01*
X87318069Y-60362147D02*
X87303119Y-60427642D01*
X86454592Y-61276169D02*
X86454593Y-61343347D01*
X87558895Y-61451504D02*
X87493402Y-61466452D01*
X87619422Y-61422356D02*
X87558895Y-61451504D01*
X87389101Y-60673363D02*
X87671944Y-60956206D01*
X87671944Y-61380470D02*
X87619422Y-61422356D01*
X87757926Y-61201928D02*
X87742976Y-61267423D01*
X87757925Y-61134750D02*
X87757926Y-61201928D01*
X87742977Y-61069255D02*
X87757925Y-61134750D01*
X86823417Y-62228997D02*
X86770895Y-62270883D01*
X88467948Y-60573826D02*
X88407422Y-60602974D01*
X87493402Y-61466452D02*
X87426222Y-61466453D01*
X87671944Y-60956206D02*
X87713829Y-61008729D01*
X87742976Y-61267423D02*
X87713828Y-61327949D01*
X86540573Y-61097626D02*
X86498688Y-61150149D01*
X87347216Y-60620840D02*
X87389101Y-60673363D01*
X88209255Y-60602974D02*
X88148729Y-60573826D01*
X87247680Y-61380470D02*
X86964838Y-61097628D01*
X87318068Y-60560315D02*
X87347216Y-60620840D01*
X85870589Y-61860173D02*
X85805094Y-61875123D01*
X87303119Y-60427642D02*
X87303120Y-60494820D01*
X86593095Y-61055744D02*
X86540573Y-61097626D01*
X85744568Y-61904271D02*
X85692046Y-61946153D01*
X87567642Y-60163117D02*
X87502148Y-60178066D01*
X88096206Y-60531941D02*
X87813364Y-60249099D01*
X86786294Y-61011647D02*
X86719116Y-61011646D01*
X86059767Y-62903826D02*
X86045922Y-62964477D01*
X88148729Y-60573826D02*
X88096206Y-60531941D01*
X87502148Y-60178066D02*
X87441622Y-60207213D01*
X87300202Y-61422357D02*
X87247680Y-61380470D01*
X88274749Y-60617923D02*
X88209255Y-60602974D01*
X87760841Y-60207213D02*
X87700315Y-60178066D01*
X88416170Y-59314589D02*
X88350676Y-59329538D01*
X88341928Y-60617923D02*
X88274749Y-60617923D01*
X88407422Y-60602974D02*
X88341928Y-60617923D01*
X89440030Y-59372197D02*
X89454979Y-59437691D01*
X88195742Y-59772310D02*
X88237627Y-59824833D01*
X87813364Y-60249099D02*
X87760841Y-60207213D01*
X88151645Y-59646290D02*
X88166594Y-59711784D01*
X86469541Y-61408842D02*
X86498689Y-61469367D01*
X88944734Y-59683413D02*
X88661892Y-59400571D01*
X89410883Y-59630890D02*
X89368998Y-59683413D01*
X88237628Y-59400570D02*
X88195742Y-59453091D01*
X89086155Y-58976305D02*
X89368998Y-59259148D01*
X88997257Y-59725298D02*
X88944734Y-59683413D01*
X89316476Y-59725298D02*
X89255950Y-59754446D01*
X88606451Y-60353398D02*
X88591502Y-60418892D01*
X88290150Y-59358685D02*
X88237628Y-59400570D01*
X88483349Y-59314589D02*
X88416170Y-59314589D01*
X89410883Y-59311671D02*
X89440030Y-59372197D01*
X88195742Y-59453091D02*
X88166594Y-59513617D01*
X88548843Y-59329538D02*
X88483349Y-59314589D01*
X88166594Y-59711784D02*
X88195742Y-59772310D01*
X86498688Y-61150149D02*
X86469542Y-61210674D01*
X87700315Y-60178066D02*
X87634821Y-60163117D01*
X89086156Y-58552042D02*
X89044270Y-58604563D01*
X88661892Y-59400571D02*
X88609369Y-59358685D01*
X89440030Y-59570364D02*
X89410883Y-59630890D01*
X86060872Y-62898982D02*
X86059767Y-62903826D01*
X86454593Y-61343347D02*
X86469541Y-61408842D01*
X88520470Y-60107676D02*
X88562355Y-60160199D01*
X87441622Y-60207213D02*
X87389100Y-60249099D01*
X88591502Y-60220725D02*
X88606451Y-60286219D01*
X89368998Y-59683413D02*
X89316476Y-59725298D01*
X85796348Y-63163506D02*
X85729168Y-63163507D01*
X89255950Y-59754446D02*
X89190456Y-59769395D01*
X86060871Y-62831804D02*
X86060872Y-62898982D01*
X88237627Y-59824833D02*
X88520470Y-60107676D01*
X88609369Y-59358685D02*
X88548843Y-59329538D01*
X89057783Y-59754446D02*
X88997257Y-59725298D01*
X78483750Y-69203760D02*
X78476232Y-69211278D01*
X89454979Y-59504870D02*
X89440030Y-59570364D01*
X85650161Y-61998676D02*
X85621015Y-62059201D01*
X88350676Y-59329538D02*
X88290150Y-59358685D01*
X88520470Y-60531941D02*
X88467948Y-60573826D01*
X86469542Y-61210674D02*
X86454592Y-61276169D01*
X89000173Y-58730583D02*
X89000173Y-58797762D01*
X87713828Y-61327949D02*
X87671944Y-61380470D01*
X88562355Y-60160199D02*
X88591502Y-60220725D01*
X89731000Y-53945500D02*
X89731000Y-57907199D01*
X88562355Y-60479418D02*
X88520470Y-60531941D01*
X89015122Y-58863256D02*
X89044270Y-58923782D01*
X86399153Y-62228997D02*
X86116311Y-61946155D01*
X88591502Y-60418892D02*
X88562355Y-60479418D01*
X88606451Y-60286219D02*
X88606451Y-60353398D01*
X85861841Y-63148558D02*
X85796348Y-63163506D01*
X88151645Y-59579111D02*
X88151645Y-59646290D01*
X89368998Y-59259148D02*
X89410883Y-59311671D01*
X89123277Y-59769395D02*
X89057783Y-59754446D01*
X87347215Y-60301622D02*
X87318069Y-60362147D01*
X87303120Y-60494820D02*
X87318068Y-60560315D01*
X89731000Y-57907199D02*
X89086156Y-58552042D01*
X89015122Y-58665089D02*
X89000173Y-58730583D01*
X89000173Y-58797762D02*
X89015122Y-58863256D01*
X89190456Y-59769395D02*
X89123277Y-59769395D01*
X88166594Y-59513617D02*
X88151645Y-59579111D01*
X89044270Y-58604563D02*
X89015122Y-58665089D01*
X86770895Y-62270883D02*
X86710368Y-62300031D01*
X89454979Y-59437691D02*
X89454979Y-59504870D01*
D40*
X117718126Y-99210000D02*
X116419063Y-100509063D01*
X120840000Y-99210000D02*
X117718126Y-99210000D01*
X69750000Y-103800000D02*
X69750000Y-108660000D01*
X70650000Y-102900000D02*
X69750000Y-103800000D01*
X32893000Y-103505000D02*
X35052000Y-103505000D01*
X32893000Y-108622500D02*
X32893000Y-103505000D01*
X32893000Y-108622500D02*
X35941000Y-108622500D01*
X32893000Y-101600000D02*
X32893000Y-103505000D01*
X32893000Y-103505000D02*
X34861500Y-101536500D01*
X35811000Y-101536500D02*
X35814000Y-101539500D01*
X34861500Y-101536500D02*
X35811000Y-101536500D01*
X114340000Y-140300000D02*
X112540000Y-138500000D01*
X114340000Y-145620000D02*
X114340000Y-140300000D01*
X85360000Y-127990000D02*
X85340000Y-128010000D01*
X87890000Y-127990000D02*
X85360000Y-127990000D01*
D39*
X120605900Y-47200000D02*
X120625400Y-47180500D01*
X114800000Y-47200000D02*
X120605900Y-47200000D01*
M02*
