G04 #@! TF.GenerationSoftware,KiCad,Pcbnew,(5.1.12-1-10_14)*
G04 #@! TF.CreationDate,2021-12-30T10:25:41+00:00*
G04 #@! TF.ProjectId,TICAF_v1,54494341-465f-4763-912e-6b696361645f,rev?*
G04 #@! TF.SameCoordinates,Original*
G04 #@! TF.FileFunction,Copper,L2,Bot*
G04 #@! TF.FilePolarity,Positive*
%FSLAX46Y46*%
G04 Gerber Fmt 4.6, Leading zero omitted, Abs format (unit mm)*
G04 Created by KiCad (PCBNEW (5.1.12-1-10_14)) date 2021-12-30 10:25:41*
%MOMM*%
%LPD*%
G01*
G04 APERTURE LIST*
G04 #@! TA.AperFunction,ComponentPad*
%ADD10O,1.700000X1.700000*%
G04 #@! TD*
G04 #@! TA.AperFunction,ComponentPad*
%ADD11R,1.700000X1.700000*%
G04 #@! TD*
G04 #@! TA.AperFunction,ComponentPad*
%ADD12O,1.600000X1.600000*%
G04 #@! TD*
G04 #@! TA.AperFunction,ComponentPad*
%ADD13R,1.600000X1.600000*%
G04 #@! TD*
G04 #@! TA.AperFunction,ComponentPad*
%ADD14C,1.408000*%
G04 #@! TD*
G04 #@! TA.AperFunction,ComponentPad*
%ADD15R,1.408000X1.408000*%
G04 #@! TD*
G04 #@! TA.AperFunction,ComponentPad*
%ADD16C,1.100000*%
G04 #@! TD*
G04 #@! TA.AperFunction,ComponentPad*
%ADD17R,1.100000X1.100000*%
G04 #@! TD*
G04 #@! TA.AperFunction,ComponentPad*
%ADD18C,1.050000*%
G04 #@! TD*
G04 #@! TA.AperFunction,ComponentPad*
%ADD19R,1.050000X1.050000*%
G04 #@! TD*
G04 #@! TA.AperFunction,ViaPad*
%ADD20C,0.800000*%
G04 #@! TD*
G04 #@! TA.AperFunction,Conductor*
%ADD21C,0.250000*%
G04 #@! TD*
G04 #@! TA.AperFunction,Conductor*
%ADD22C,0.350000*%
G04 #@! TD*
G04 #@! TA.AperFunction,Conductor*
%ADD23C,0.200000*%
G04 #@! TD*
G04 #@! TA.AperFunction,Conductor*
%ADD24C,0.254000*%
G04 #@! TD*
G04 #@! TA.AperFunction,Conductor*
%ADD25C,0.100000*%
G04 #@! TD*
G04 APERTURE END LIST*
D10*
X78450000Y-130530000D03*
D11*
X78450000Y-127990000D03*
D10*
X42120000Y-135850000D03*
D11*
X42120000Y-133310000D03*
D10*
X66910000Y-130480000D03*
D11*
X66910000Y-127940000D03*
D10*
X54430000Y-135830000D03*
D11*
X54430000Y-133290000D03*
D10*
X54430000Y-124650000D03*
D11*
X54430000Y-122110000D03*
D10*
X42110000Y-124640000D03*
D11*
X42110000Y-122100000D03*
D10*
X66750000Y-108890000D03*
D11*
X66750000Y-111430000D03*
D12*
X87366000Y-78130500D03*
X79746000Y-111150500D03*
X87366000Y-80670500D03*
X79746000Y-108610500D03*
X87366000Y-83210500D03*
X79746000Y-106070500D03*
X87366000Y-85750500D03*
X79746000Y-103530500D03*
X87366000Y-88290500D03*
X79746000Y-100990500D03*
X87366000Y-90830500D03*
X79746000Y-98450500D03*
X87366000Y-93370500D03*
X79746000Y-95910500D03*
X87366000Y-95910500D03*
X79746000Y-93370500D03*
X87366000Y-98450500D03*
X79746000Y-90830500D03*
X87366000Y-100990500D03*
X79746000Y-88290500D03*
X87366000Y-103530500D03*
X79746000Y-85750500D03*
X87366000Y-106070500D03*
X79746000Y-83210500D03*
X87366000Y-108610500D03*
X79746000Y-80670500D03*
X87366000Y-111150500D03*
D13*
X79746000Y-78130500D03*
D10*
X28956000Y-100965000D03*
D11*
X28956000Y-103505000D03*
D10*
X159290000Y-141590000D03*
D11*
X159290000Y-139050000D03*
D14*
X146986000Y-33940500D03*
X141986000Y-30340500D03*
D15*
X136986000Y-33940500D03*
D14*
X119046000Y-33940500D03*
X114046000Y-30340500D03*
D15*
X109046000Y-33940500D03*
D10*
X65151000Y-51625500D03*
X62611000Y-51625500D03*
X65151000Y-49085500D03*
X62611000Y-49085500D03*
X65151000Y-46545500D03*
D11*
X62611000Y-46545500D03*
D10*
X98806000Y-43484800D03*
D11*
X98806000Y-40944800D03*
D10*
X104584500Y-45910500D03*
X104584500Y-43370500D03*
D11*
X104584500Y-40830500D03*
D16*
X115586000Y-56070500D03*
D17*
X117586000Y-56070500D03*
D18*
X105176000Y-56070500D03*
D19*
X107676000Y-56070500D03*
D10*
X28956000Y-78105000D03*
D11*
X28956000Y-80645000D03*
D20*
X78486000Y-42100500D03*
X80391000Y-47180500D03*
X80391000Y-49085500D03*
X80391000Y-52260500D03*
X92456000Y-49720500D03*
X150876000Y-45275500D03*
X54102000Y-55372000D03*
X94297500Y-98425000D03*
X102362000Y-91630500D03*
X40068500Y-79184500D03*
X37973000Y-71310500D03*
X40068500Y-99314000D03*
X34099500Y-116903500D03*
X32893000Y-91376500D03*
X27749500Y-43561000D03*
X52387500Y-96837500D03*
X168910000Y-72390000D03*
X168910000Y-78105000D03*
X168910000Y-83820000D03*
X168910000Y-90170000D03*
X168910000Y-96520000D03*
X64135000Y-41910000D03*
X69850000Y-40640000D03*
X95480000Y-128000000D03*
X120190000Y-145660000D03*
X92710000Y-73660000D03*
X82550000Y-95250000D03*
X89600000Y-69400000D03*
X32966000Y-80660500D03*
X39116000Y-84772500D03*
X62293500Y-95821500D03*
X76170000Y-118930000D03*
X111506000Y-44640500D03*
X117586000Y-44910500D03*
X82570001Y-99865499D03*
X82684501Y-102115501D03*
X101401001Y-39505499D03*
X107188000Y-66294000D03*
X90735501Y-97085501D03*
X89217500Y-65659000D03*
X92646500Y-56261000D03*
X110871000Y-38290500D03*
X84836000Y-47815500D03*
X72606000Y-61980500D03*
X85281000Y-72595500D03*
X80106000Y-73438500D03*
X57467500Y-49085500D03*
X83700999Y-97325499D03*
X90805000Y-67945000D03*
X41910000Y-45085000D03*
X133350000Y-85090000D03*
X152400000Y-83820000D03*
X152400000Y-90170000D03*
X111860608Y-83084392D03*
X64330000Y-120100000D03*
X45890000Y-94820000D03*
X34163000Y-76771500D03*
X50165000Y-92710000D03*
X66802000Y-100647500D03*
X109726716Y-108226716D03*
X96990000Y-110710000D03*
X72560000Y-102940000D03*
X69550000Y-96980000D03*
X98806000Y-48450500D03*
X84607500Y-106070500D03*
X90424000Y-104330500D03*
X54673500Y-74549000D03*
X98430000Y-117580000D03*
X105020000Y-125310000D03*
X106720000Y-108390000D03*
X84455000Y-88265000D03*
X60310000Y-129280000D03*
X68970000Y-104400000D03*
X91440000Y-78105000D03*
X71420000Y-115140000D03*
X35433000Y-49276000D03*
X77733768Y-68843768D03*
X78476232Y-69586232D03*
X116419063Y-100509063D03*
X70650000Y-102900000D03*
X69750000Y-108660000D03*
X32893000Y-103505000D03*
X112540000Y-138500000D03*
X85340000Y-128010000D03*
D21*
X32950500Y-80645000D02*
X32966000Y-80660500D01*
X28956000Y-80645000D02*
X32950500Y-80645000D01*
X39116000Y-84772500D02*
X41527590Y-84772500D01*
X41527590Y-84772500D02*
X45529500Y-88774410D01*
X45529500Y-88774410D02*
X49211795Y-92456705D01*
X49439999Y-93058001D02*
X52203498Y-95821500D01*
X49439999Y-92684909D02*
X49439999Y-93058001D01*
X49211795Y-92456705D02*
X49439999Y-92684909D01*
X52203498Y-95821500D02*
X62293500Y-95821500D01*
X41010000Y-122100000D02*
X24560000Y-105650000D01*
X42110000Y-122100000D02*
X41010000Y-122100000D01*
X24560000Y-85041000D02*
X28956000Y-80645000D01*
X24560000Y-105650000D02*
X24560000Y-85041000D01*
X63049002Y-95821500D02*
X62293500Y-95821500D01*
X68940000Y-101712498D02*
X63049002Y-95821500D01*
X68940000Y-103230000D02*
X68940000Y-101712498D01*
X69695001Y-103985001D02*
X68940000Y-103230000D01*
X69695001Y-104235001D02*
X69695001Y-103985001D01*
X72595011Y-107135011D02*
X69695001Y-104235001D01*
X72595011Y-115355011D02*
X72595011Y-107135011D01*
X76170000Y-118930000D02*
X72595011Y-115355011D01*
X107676000Y-56070500D02*
X107676000Y-48470500D01*
X107676000Y-48470500D02*
X111506000Y-44640500D01*
X111506000Y-44640500D02*
X111506000Y-44640500D01*
X117586000Y-56070500D02*
X117586000Y-44910500D01*
X117586000Y-44910500D02*
X117586000Y-44910500D01*
X81160999Y-99865499D02*
X79746000Y-98450500D01*
X82570001Y-99865499D02*
X81160999Y-99865499D01*
X82684501Y-102115501D02*
X81661000Y-101092000D01*
X79847500Y-101092000D02*
X79746000Y-100990500D01*
X81661000Y-101092000D02*
X79847500Y-101092000D01*
D22*
X100245301Y-39505499D02*
X98806000Y-40944800D01*
X101401001Y-39505499D02*
X100245301Y-39505499D01*
X78494698Y-40944800D02*
X77338998Y-42100500D01*
X98806000Y-40944800D02*
X78494698Y-40944800D01*
X69596000Y-42100500D02*
X65151000Y-46545500D01*
X82588000Y-93370500D02*
X79746000Y-93370500D01*
X82867500Y-78930500D02*
X82867500Y-93091000D01*
X82867500Y-93091000D02*
X82588000Y-93370500D01*
X95377000Y-66421000D02*
X82867500Y-78930500D01*
X107061000Y-66421000D02*
X95377000Y-66421000D01*
X107188000Y-66294000D02*
X107061000Y-66421000D01*
X86303001Y-97085501D02*
X90735501Y-97085501D01*
X82588000Y-93370500D02*
X86303001Y-97085501D01*
X90735501Y-97085501D02*
X89344500Y-98476502D01*
X87392002Y-98476502D02*
X87366000Y-98450500D01*
X89344500Y-98476502D02*
X87392002Y-98476502D01*
X77338998Y-42100500D02*
X69596000Y-42100500D01*
D21*
X89217500Y-65659000D02*
X89217500Y-59690000D01*
X89217500Y-59690000D02*
X92646500Y-56261000D01*
X92646500Y-56261000D02*
X92646500Y-56261000D01*
D22*
X104584500Y-38402000D02*
X109046000Y-33940500D01*
X104584500Y-40830500D02*
X104584500Y-38402000D01*
X109046000Y-33940500D02*
X109046000Y-36465500D01*
X109046000Y-36465500D02*
X110871000Y-38290500D01*
X110871000Y-38290500D02*
X110871000Y-38290500D01*
D21*
X78777997Y-52800501D02*
X81222998Y-50355500D01*
X62611000Y-51625500D02*
X63786001Y-52800501D01*
X81222998Y-50355500D02*
X84836000Y-50355500D01*
X84836000Y-50355500D02*
X84836000Y-47815500D01*
X84836000Y-47815500D02*
X84836000Y-47815500D01*
X72606000Y-52980500D02*
X72785999Y-52800501D01*
X72606000Y-61980500D02*
X72606000Y-52980500D01*
X72785999Y-52800501D02*
X78777997Y-52800501D01*
X63786001Y-52800501D02*
X72785999Y-52800501D01*
X85281000Y-72595500D02*
X79746000Y-78130500D01*
X80106000Y-77770500D02*
X79746000Y-78130500D01*
X80106000Y-73438500D02*
X80106000Y-77770500D01*
X62611000Y-49085500D02*
X57467500Y-49085500D01*
X83700999Y-97325499D02*
X87366000Y-100990500D01*
X90805000Y-67945000D02*
X59055000Y-67945000D01*
X41910000Y-50800000D02*
X41910000Y-45085000D01*
X59055000Y-67945000D02*
X41910000Y-50800000D01*
X90075999Y-105055501D02*
X110210909Y-105055501D01*
X89801007Y-104780509D02*
X90075999Y-105055501D01*
X81035991Y-104780509D02*
X89801007Y-104780509D01*
X79746000Y-106070500D02*
X81035991Y-104780509D01*
X110210909Y-105055501D02*
X130176410Y-85090000D01*
X130176410Y-85090000D02*
X133350000Y-85090000D01*
X79746000Y-103530500D02*
X79984500Y-103530500D01*
X87115997Y-102115501D02*
X112514499Y-102115501D01*
X85700998Y-103530500D02*
X87115997Y-102115501D01*
X79984500Y-103530500D02*
X85700998Y-103530500D01*
X130810000Y-83820000D02*
X152400000Y-83820000D01*
X112514499Y-102115501D02*
X130810000Y-83820000D01*
X78620999Y-106610501D02*
X79205999Y-107195501D01*
X78620999Y-91955501D02*
X78620999Y-106610501D01*
X79205999Y-107195501D02*
X108707319Y-107195501D01*
X79746000Y-90830500D02*
X78620999Y-91955501D01*
X125732820Y-90170000D02*
X152400000Y-90170000D01*
X108707319Y-107195501D02*
X125732820Y-90170000D01*
X79746000Y-88290500D02*
X79984500Y-88290500D01*
X107536001Y-65568999D02*
X111760000Y-69792998D01*
X95521881Y-65568999D02*
X107536001Y-65568999D01*
X82367490Y-78723390D02*
X95521881Y-65568999D01*
X82367490Y-85669010D02*
X82367490Y-78723390D01*
X79746000Y-88290500D02*
X82367490Y-85669010D01*
X111760000Y-82983784D02*
X111860608Y-83084392D01*
X111760000Y-69792998D02*
X111760000Y-82983784D01*
X64330000Y-120100000D02*
X50650000Y-106420000D01*
X50650000Y-99580000D02*
X45890000Y-94820000D01*
X50650000Y-106420000D02*
X50650000Y-99580000D01*
X50101500Y-92710000D02*
X50165000Y-92710000D01*
X34163000Y-76771500D02*
X50101500Y-92710000D01*
X66802000Y-108838000D02*
X66750000Y-108890000D01*
X66802000Y-100647500D02*
X66802000Y-108838000D01*
X109726716Y-108226716D02*
X107523412Y-110430020D01*
X97269980Y-110430020D02*
X96990000Y-110710000D01*
X107523412Y-110430020D02*
X97269980Y-110430020D01*
X72560000Y-102940000D02*
X72560000Y-102060910D01*
X72560000Y-102060910D02*
X71050990Y-100551900D01*
X71050990Y-98480990D02*
X69550000Y-96980000D01*
X71050990Y-100551900D02*
X71050990Y-98480990D01*
D22*
X98806000Y-43484800D02*
X101231700Y-45910500D01*
X101231700Y-45910500D02*
X104584500Y-45910500D01*
X98806000Y-43484800D02*
X98806000Y-48450500D01*
X98806000Y-48450500D02*
X98806000Y-48450500D01*
D21*
X84607500Y-106070500D02*
X87366000Y-106070500D01*
X88165999Y-104330499D02*
X87366000Y-103530500D01*
X90424000Y-104330500D02*
X88165999Y-104330499D01*
X133386000Y-30340500D02*
X114046000Y-30340500D01*
X136986000Y-33940500D02*
X133386000Y-30340500D01*
X54673500Y-74549000D02*
X71501000Y-91376500D01*
X71501000Y-100365500D02*
X79746000Y-108610500D01*
X71501000Y-91376500D02*
X71501000Y-100365500D01*
X98430000Y-117580000D02*
X97250000Y-118760000D01*
X87355500Y-118760000D02*
X79746000Y-111150500D01*
X97250000Y-118760000D02*
X87355500Y-118760000D01*
X105020000Y-125310000D02*
X104970000Y-125310000D01*
X104970000Y-125310000D02*
X104920000Y-125260000D01*
X104920000Y-125260000D02*
X103610000Y-125260000D01*
X93073502Y-111150500D02*
X87366000Y-111150500D01*
X99155001Y-117231999D02*
X93073502Y-111150500D01*
X99155001Y-120805001D02*
X99155001Y-117231999D01*
X103610000Y-125260000D02*
X99155001Y-120805001D01*
X95460500Y-108610500D02*
X87366000Y-108610500D01*
X96380000Y-109530000D02*
X95460500Y-108610500D01*
X105580000Y-109530000D02*
X96380000Y-109530000D01*
X106720000Y-108390000D02*
X105580000Y-109530000D01*
X87340500Y-88265000D02*
X87366000Y-88290500D01*
X84455000Y-88265000D02*
X87340500Y-88265000D01*
X54430000Y-133290000D02*
X56300000Y-133290000D01*
X56300000Y-133290000D02*
X60310000Y-129280000D01*
X66910000Y-127940000D02*
X66910000Y-120286410D01*
X66910000Y-120286410D02*
X71118205Y-116078205D01*
X72145001Y-115488001D02*
X72145001Y-107575001D01*
X71554797Y-116078205D02*
X72145001Y-115488001D01*
X71118205Y-116078205D02*
X71554797Y-116078205D01*
X72145001Y-107575001D02*
X68970000Y-104400000D01*
X91414500Y-78130500D02*
X91440000Y-78105000D01*
X87366000Y-78130500D02*
X91414500Y-78130500D01*
X42120000Y-133310000D02*
X49710000Y-133310000D01*
X49710000Y-133310000D02*
X55120000Y-127900000D01*
X55120000Y-127900000D02*
X58660000Y-127900000D01*
X58660000Y-127900000D02*
X71420000Y-115140000D01*
X79746000Y-85750500D02*
X79746000Y-85798500D01*
X71907500Y-85750500D02*
X35433000Y-49276000D01*
X79746000Y-85750500D02*
X71907500Y-85750500D01*
D23*
X77733768Y-69480166D02*
X77733768Y-68843768D01*
X77776231Y-69522629D02*
X77733768Y-69480166D01*
X77776231Y-69922233D02*
X77776231Y-69522629D01*
X79746000Y-83210500D02*
X79296000Y-82760500D01*
X78956008Y-70702406D02*
X78539835Y-70286233D01*
X78956008Y-76144107D02*
X78956008Y-70702406D01*
X78196008Y-76904107D02*
X78956008Y-76144107D01*
X78140231Y-70286233D02*
X77776231Y-69922233D01*
X78196008Y-80748510D02*
X78196008Y-76904107D01*
X79296000Y-81848502D02*
X78196008Y-80748510D01*
X78539835Y-70286233D02*
X78140231Y-70286233D01*
X79296000Y-82760500D02*
X79296000Y-81848502D01*
X79405999Y-70515999D02*
X78476232Y-69586232D01*
X79405999Y-76330499D02*
X79405999Y-70515999D01*
X78645999Y-77090499D02*
X79405999Y-76330499D01*
X78645999Y-79170501D02*
X78645999Y-77090499D01*
X79695998Y-80220500D02*
X78645999Y-79170501D01*
X79746000Y-80220500D02*
X79695998Y-80220500D01*
X79746000Y-80670500D02*
X79746000Y-80220500D01*
D21*
X77730010Y-109980010D02*
X70650000Y-102900000D01*
X106948116Y-109980010D02*
X77730010Y-109980010D01*
X116419063Y-100509063D02*
X106948116Y-109980010D01*
X69750000Y-108660000D02*
X69750000Y-109980000D01*
X68300000Y-111430000D02*
X66750000Y-111430000D01*
X69750000Y-109980000D02*
X68300000Y-111430000D01*
X28956000Y-103505000D02*
X32893000Y-103505000D01*
X47561000Y-122110000D02*
X28956000Y-103505000D01*
X54430000Y-122110000D02*
X47561000Y-122110000D01*
X104570000Y-130530000D02*
X78450000Y-130530000D01*
X112540000Y-138500000D02*
X104570000Y-130530000D01*
X78470000Y-128010000D02*
X78450000Y-127990000D01*
X85340000Y-128010000D02*
X78470000Y-128010000D01*
X87409990Y-130079990D02*
X85340000Y-128010000D01*
X111286410Y-136610000D02*
X104756400Y-130079990D01*
X156850000Y-136610000D02*
X111286410Y-136610000D01*
X104756400Y-130079990D02*
X87409990Y-130079990D01*
X159290000Y-139050000D02*
X156850000Y-136610000D01*
D24*
X172593000Y-25182606D02*
X172593000Y-150077394D01*
X171667394Y-151003000D01*
X18832606Y-151003000D01*
X17907000Y-150077394D01*
X17907000Y-141946890D01*
X157848524Y-141946890D01*
X157893175Y-142094099D01*
X158018359Y-142356920D01*
X158192412Y-142590269D01*
X158408645Y-142785178D01*
X158658748Y-142934157D01*
X158933109Y-143031481D01*
X159163000Y-142910814D01*
X159163000Y-141717000D01*
X159417000Y-141717000D01*
X159417000Y-142910814D01*
X159646891Y-143031481D01*
X159921252Y-142934157D01*
X160171355Y-142785178D01*
X160387588Y-142590269D01*
X160561641Y-142356920D01*
X160686825Y-142094099D01*
X160731476Y-141946890D01*
X160610155Y-141717000D01*
X159417000Y-141717000D01*
X159163000Y-141717000D01*
X157969845Y-141717000D01*
X157848524Y-141946890D01*
X17907000Y-141946890D01*
X17907000Y-136206890D01*
X40678524Y-136206890D01*
X40723175Y-136354099D01*
X40848359Y-136616920D01*
X41022412Y-136850269D01*
X41238645Y-137045178D01*
X41488748Y-137194157D01*
X41763109Y-137291481D01*
X41993000Y-137170814D01*
X41993000Y-135977000D01*
X42247000Y-135977000D01*
X42247000Y-137170814D01*
X42476891Y-137291481D01*
X42751252Y-137194157D01*
X43001355Y-137045178D01*
X43217588Y-136850269D01*
X43391641Y-136616920D01*
X43516825Y-136354099D01*
X43561476Y-136206890D01*
X43550922Y-136186890D01*
X52988524Y-136186890D01*
X53033175Y-136334099D01*
X53158359Y-136596920D01*
X53332412Y-136830269D01*
X53548645Y-137025178D01*
X53798748Y-137174157D01*
X54073109Y-137271481D01*
X54303000Y-137150814D01*
X54303000Y-135957000D01*
X54557000Y-135957000D01*
X54557000Y-137150814D01*
X54786891Y-137271481D01*
X55061252Y-137174157D01*
X55311355Y-137025178D01*
X55527588Y-136830269D01*
X55701641Y-136596920D01*
X55826825Y-136334099D01*
X55871476Y-136186890D01*
X55750155Y-135957000D01*
X54557000Y-135957000D01*
X54303000Y-135957000D01*
X53109845Y-135957000D01*
X52988524Y-136186890D01*
X43550922Y-136186890D01*
X43440155Y-135977000D01*
X42247000Y-135977000D01*
X41993000Y-135977000D01*
X40799845Y-135977000D01*
X40678524Y-136206890D01*
X17907000Y-136206890D01*
X17907000Y-124996890D01*
X40668524Y-124996890D01*
X40713175Y-125144099D01*
X40838359Y-125406920D01*
X41012412Y-125640269D01*
X41228645Y-125835178D01*
X41478748Y-125984157D01*
X41753109Y-126081481D01*
X41983000Y-125960814D01*
X41983000Y-124767000D01*
X42237000Y-124767000D01*
X42237000Y-125960814D01*
X42466891Y-126081481D01*
X42741252Y-125984157D01*
X42991355Y-125835178D01*
X43207588Y-125640269D01*
X43381641Y-125406920D01*
X43506825Y-125144099D01*
X43548442Y-125006890D01*
X52988524Y-125006890D01*
X53033175Y-125154099D01*
X53158359Y-125416920D01*
X53332412Y-125650269D01*
X53548645Y-125845178D01*
X53798748Y-125994157D01*
X54073109Y-126091481D01*
X54303000Y-125970814D01*
X54303000Y-124777000D01*
X54557000Y-124777000D01*
X54557000Y-125970814D01*
X54786891Y-126091481D01*
X55061252Y-125994157D01*
X55311355Y-125845178D01*
X55527588Y-125650269D01*
X55701641Y-125416920D01*
X55826825Y-125154099D01*
X55871476Y-125006890D01*
X55750155Y-124777000D01*
X54557000Y-124777000D01*
X54303000Y-124777000D01*
X53109845Y-124777000D01*
X52988524Y-125006890D01*
X43548442Y-125006890D01*
X43551476Y-124996890D01*
X43430155Y-124767000D01*
X42237000Y-124767000D01*
X41983000Y-124767000D01*
X40789845Y-124767000D01*
X40668524Y-124996890D01*
X17907000Y-124996890D01*
X17907000Y-85041000D01*
X23796324Y-85041000D01*
X23800001Y-85078333D01*
X23800000Y-105612678D01*
X23796324Y-105650000D01*
X23800000Y-105687322D01*
X23800000Y-105687332D01*
X23810997Y-105798985D01*
X23850486Y-105929165D01*
X23854454Y-105942246D01*
X23925026Y-106074276D01*
X23964871Y-106122826D01*
X24019999Y-106190001D01*
X24049003Y-106213804D01*
X40446201Y-122611003D01*
X40469999Y-122640001D01*
X40498997Y-122663799D01*
X40585723Y-122734974D01*
X40604432Y-122744974D01*
X40621928Y-122754326D01*
X40621928Y-122950000D01*
X40634188Y-123074482D01*
X40670498Y-123194180D01*
X40729463Y-123304494D01*
X40808815Y-123401185D01*
X40905506Y-123480537D01*
X41015820Y-123539502D01*
X41096466Y-123563966D01*
X41012412Y-123639731D01*
X40838359Y-123873080D01*
X40713175Y-124135901D01*
X40668524Y-124283110D01*
X40789845Y-124513000D01*
X41983000Y-124513000D01*
X41983000Y-124493000D01*
X42237000Y-124493000D01*
X42237000Y-124513000D01*
X43430155Y-124513000D01*
X43551476Y-124283110D01*
X43506825Y-124135901D01*
X43381641Y-123873080D01*
X43207588Y-123639731D01*
X43123534Y-123563966D01*
X43204180Y-123539502D01*
X43314494Y-123480537D01*
X43411185Y-123401185D01*
X43490537Y-123304494D01*
X43549502Y-123194180D01*
X43585812Y-123074482D01*
X43598072Y-122950000D01*
X43598072Y-121250000D01*
X43585812Y-121125518D01*
X43549502Y-121005820D01*
X43490537Y-120895506D01*
X43411185Y-120798815D01*
X43314494Y-120719463D01*
X43204180Y-120660498D01*
X43084482Y-120624188D01*
X42960000Y-120611928D01*
X41260000Y-120611928D01*
X41135518Y-120624188D01*
X41015820Y-120660498D01*
X40905506Y-120719463D01*
X40808815Y-120798815D01*
X40797457Y-120812655D01*
X25320000Y-105335199D01*
X25320000Y-102655000D01*
X27467928Y-102655000D01*
X27467928Y-104355000D01*
X27480188Y-104479482D01*
X27516498Y-104599180D01*
X27575463Y-104709494D01*
X27654815Y-104806185D01*
X27751506Y-104885537D01*
X27861820Y-104944502D01*
X27981518Y-104980812D01*
X28106000Y-104993072D01*
X29369271Y-104993072D01*
X46997201Y-122621003D01*
X47020999Y-122650001D01*
X47136724Y-122744974D01*
X47268753Y-122815546D01*
X47412014Y-122859003D01*
X47523667Y-122870000D01*
X47523676Y-122870000D01*
X47560999Y-122873676D01*
X47598322Y-122870000D01*
X52941928Y-122870000D01*
X52941928Y-122960000D01*
X52954188Y-123084482D01*
X52990498Y-123204180D01*
X53049463Y-123314494D01*
X53128815Y-123411185D01*
X53225506Y-123490537D01*
X53335820Y-123549502D01*
X53416466Y-123573966D01*
X53332412Y-123649731D01*
X53158359Y-123883080D01*
X53033175Y-124145901D01*
X52988524Y-124293110D01*
X53109845Y-124523000D01*
X54303000Y-124523000D01*
X54303000Y-124503000D01*
X54557000Y-124503000D01*
X54557000Y-124523000D01*
X55750155Y-124523000D01*
X55871476Y-124293110D01*
X55826825Y-124145901D01*
X55701641Y-123883080D01*
X55527588Y-123649731D01*
X55443534Y-123573966D01*
X55524180Y-123549502D01*
X55634494Y-123490537D01*
X55731185Y-123411185D01*
X55810537Y-123314494D01*
X55869502Y-123204180D01*
X55905812Y-123084482D01*
X55918072Y-122960000D01*
X55918072Y-121260000D01*
X55905812Y-121135518D01*
X55869502Y-121015820D01*
X55810537Y-120905506D01*
X55731185Y-120808815D01*
X55634494Y-120729463D01*
X55524180Y-120670498D01*
X55404482Y-120634188D01*
X55280000Y-120621928D01*
X53580000Y-120621928D01*
X53455518Y-120634188D01*
X53335820Y-120670498D01*
X53225506Y-120729463D01*
X53128815Y-120808815D01*
X53049463Y-120905506D01*
X52990498Y-121015820D01*
X52954188Y-121135518D01*
X52941928Y-121260000D01*
X52941928Y-121350000D01*
X47875802Y-121350000D01*
X30790801Y-104265000D01*
X32189289Y-104265000D01*
X32233226Y-104308937D01*
X32402744Y-104422205D01*
X32591102Y-104500226D01*
X32791061Y-104540000D01*
X32994939Y-104540000D01*
X33194898Y-104500226D01*
X33383256Y-104422205D01*
X33552774Y-104308937D01*
X33696937Y-104164774D01*
X33810205Y-103995256D01*
X33888226Y-103806898D01*
X33928000Y-103606939D01*
X33928000Y-103403061D01*
X33888226Y-103203102D01*
X33810205Y-103014744D01*
X33696937Y-102845226D01*
X33552774Y-102701063D01*
X33383256Y-102587795D01*
X33194898Y-102509774D01*
X32994939Y-102470000D01*
X32791061Y-102470000D01*
X32591102Y-102509774D01*
X32402744Y-102587795D01*
X32233226Y-102701063D01*
X32189289Y-102745000D01*
X30444072Y-102745000D01*
X30444072Y-102655000D01*
X30431812Y-102530518D01*
X30395502Y-102410820D01*
X30336537Y-102300506D01*
X30257185Y-102203815D01*
X30160494Y-102124463D01*
X30050180Y-102065498D01*
X29969534Y-102041034D01*
X30053588Y-101965269D01*
X30227641Y-101731920D01*
X30352825Y-101469099D01*
X30397476Y-101321890D01*
X30276155Y-101092000D01*
X29083000Y-101092000D01*
X29083000Y-101112000D01*
X28829000Y-101112000D01*
X28829000Y-101092000D01*
X27635845Y-101092000D01*
X27514524Y-101321890D01*
X27559175Y-101469099D01*
X27684359Y-101731920D01*
X27858412Y-101965269D01*
X27942466Y-102041034D01*
X27861820Y-102065498D01*
X27751506Y-102124463D01*
X27654815Y-102203815D01*
X27575463Y-102300506D01*
X27516498Y-102410820D01*
X27480188Y-102530518D01*
X27467928Y-102655000D01*
X25320000Y-102655000D01*
X25320000Y-100608110D01*
X27514524Y-100608110D01*
X27635845Y-100838000D01*
X28829000Y-100838000D01*
X28829000Y-99644186D01*
X29083000Y-99644186D01*
X29083000Y-100838000D01*
X30276155Y-100838000D01*
X30397476Y-100608110D01*
X30352825Y-100460901D01*
X30227641Y-100198080D01*
X30053588Y-99964731D01*
X29837355Y-99769822D01*
X29587252Y-99620843D01*
X29312891Y-99523519D01*
X29083000Y-99644186D01*
X28829000Y-99644186D01*
X28599109Y-99523519D01*
X28324748Y-99620843D01*
X28074645Y-99769822D01*
X27858412Y-99964731D01*
X27684359Y-100198080D01*
X27559175Y-100460901D01*
X27514524Y-100608110D01*
X25320000Y-100608110D01*
X25320000Y-85355801D01*
X28542730Y-82133072D01*
X29806000Y-82133072D01*
X29930482Y-82120812D01*
X30050180Y-82084502D01*
X30160494Y-82025537D01*
X30257185Y-81946185D01*
X30336537Y-81849494D01*
X30395502Y-81739180D01*
X30431812Y-81619482D01*
X30444072Y-81495000D01*
X30444072Y-81405000D01*
X32246789Y-81405000D01*
X32306226Y-81464437D01*
X32475744Y-81577705D01*
X32664102Y-81655726D01*
X32864061Y-81695500D01*
X33067939Y-81695500D01*
X33267898Y-81655726D01*
X33456256Y-81577705D01*
X33625774Y-81464437D01*
X33769937Y-81320274D01*
X33883205Y-81150756D01*
X33961226Y-80962398D01*
X34001000Y-80762439D01*
X34001000Y-80558561D01*
X33961226Y-80358602D01*
X33883205Y-80170244D01*
X33769937Y-80000726D01*
X33625774Y-79856563D01*
X33456256Y-79743295D01*
X33267898Y-79665274D01*
X33067939Y-79625500D01*
X32864061Y-79625500D01*
X32664102Y-79665274D01*
X32475744Y-79743295D01*
X32306226Y-79856563D01*
X32277789Y-79885000D01*
X30444072Y-79885000D01*
X30444072Y-79795000D01*
X30431812Y-79670518D01*
X30395502Y-79550820D01*
X30336537Y-79440506D01*
X30257185Y-79343815D01*
X30160494Y-79264463D01*
X30050180Y-79205498D01*
X29969534Y-79181034D01*
X30053588Y-79105269D01*
X30227641Y-78871920D01*
X30352825Y-78609099D01*
X30397476Y-78461890D01*
X30276155Y-78232000D01*
X29083000Y-78232000D01*
X29083000Y-78252000D01*
X28829000Y-78252000D01*
X28829000Y-78232000D01*
X27635845Y-78232000D01*
X27514524Y-78461890D01*
X27559175Y-78609099D01*
X27684359Y-78871920D01*
X27858412Y-79105269D01*
X27942466Y-79181034D01*
X27861820Y-79205498D01*
X27751506Y-79264463D01*
X27654815Y-79343815D01*
X27575463Y-79440506D01*
X27516498Y-79550820D01*
X27480188Y-79670518D01*
X27467928Y-79795000D01*
X27467928Y-81058270D01*
X24048998Y-84477201D01*
X24020000Y-84500999D01*
X23996202Y-84529997D01*
X23996201Y-84529998D01*
X23925026Y-84616724D01*
X23854454Y-84748754D01*
X23810998Y-84892015D01*
X23796324Y-85041000D01*
X17907000Y-85041000D01*
X17907000Y-77748110D01*
X27514524Y-77748110D01*
X27635845Y-77978000D01*
X28829000Y-77978000D01*
X28829000Y-76784186D01*
X29083000Y-76784186D01*
X29083000Y-77978000D01*
X30276155Y-77978000D01*
X30397476Y-77748110D01*
X30352825Y-77600901D01*
X30227641Y-77338080D01*
X30053588Y-77104731D01*
X29837355Y-76909822D01*
X29587252Y-76760843D01*
X29329924Y-76669561D01*
X33128000Y-76669561D01*
X33128000Y-76873439D01*
X33167774Y-77073398D01*
X33245795Y-77261756D01*
X33359063Y-77431274D01*
X33503226Y-77575437D01*
X33672744Y-77688705D01*
X33861102Y-77766726D01*
X34061061Y-77806500D01*
X34123199Y-77806500D01*
X40329199Y-84012500D01*
X39819711Y-84012500D01*
X39775774Y-83968563D01*
X39606256Y-83855295D01*
X39417898Y-83777274D01*
X39217939Y-83737500D01*
X39014061Y-83737500D01*
X38814102Y-83777274D01*
X38625744Y-83855295D01*
X38456226Y-83968563D01*
X38312063Y-84112726D01*
X38198795Y-84282244D01*
X38120774Y-84470602D01*
X38081000Y-84670561D01*
X38081000Y-84874439D01*
X38120774Y-85074398D01*
X38198795Y-85262756D01*
X38312063Y-85432274D01*
X38456226Y-85576437D01*
X38625744Y-85689705D01*
X38814102Y-85767726D01*
X39014061Y-85807500D01*
X39217939Y-85807500D01*
X39417898Y-85767726D01*
X39606256Y-85689705D01*
X39775774Y-85576437D01*
X39819711Y-85532500D01*
X41212789Y-85532500D01*
X45018496Y-89338209D01*
X45018507Y-89338218D01*
X48679999Y-92999711D01*
X48679999Y-93020679D01*
X48676323Y-93058001D01*
X48679999Y-93095323D01*
X48679999Y-93095334D01*
X48690996Y-93206987D01*
X48734453Y-93350248D01*
X48805025Y-93482277D01*
X48899998Y-93598002D01*
X48929000Y-93621804D01*
X51639698Y-96332502D01*
X51663497Y-96361501D01*
X51779222Y-96456474D01*
X51911251Y-96527046D01*
X52054512Y-96570503D01*
X52166165Y-96581500D01*
X52166173Y-96581500D01*
X52203498Y-96585176D01*
X52240823Y-96581500D01*
X61589789Y-96581500D01*
X61633726Y-96625437D01*
X61803244Y-96738705D01*
X61991602Y-96816726D01*
X62191561Y-96856500D01*
X62395439Y-96856500D01*
X62595398Y-96816726D01*
X62783756Y-96738705D01*
X62848287Y-96695587D01*
X66069245Y-99916544D01*
X65998063Y-99987726D01*
X65884795Y-100157244D01*
X65806774Y-100345602D01*
X65767000Y-100545561D01*
X65767000Y-100749439D01*
X65806774Y-100949398D01*
X65884795Y-101137756D01*
X65998063Y-101307274D01*
X66042000Y-101351211D01*
X66042001Y-107577076D01*
X65803368Y-107736525D01*
X65596525Y-107943368D01*
X65434010Y-108186589D01*
X65322068Y-108456842D01*
X65265000Y-108743740D01*
X65265000Y-109036260D01*
X65322068Y-109323158D01*
X65434010Y-109593411D01*
X65596525Y-109836632D01*
X65728380Y-109968487D01*
X65655820Y-109990498D01*
X65545506Y-110049463D01*
X65448815Y-110128815D01*
X65369463Y-110225506D01*
X65310498Y-110335820D01*
X65274188Y-110455518D01*
X65261928Y-110580000D01*
X65261928Y-112280000D01*
X65274188Y-112404482D01*
X65310498Y-112524180D01*
X65369463Y-112634494D01*
X65448815Y-112731185D01*
X65545506Y-112810537D01*
X65655820Y-112869502D01*
X65775518Y-112905812D01*
X65900000Y-112918072D01*
X67600000Y-112918072D01*
X67724482Y-112905812D01*
X67844180Y-112869502D01*
X67954494Y-112810537D01*
X68051185Y-112731185D01*
X68130537Y-112634494D01*
X68189502Y-112524180D01*
X68225812Y-112404482D01*
X68238072Y-112280000D01*
X68238072Y-112190000D01*
X68262678Y-112190000D01*
X68300000Y-112193676D01*
X68337322Y-112190000D01*
X68337333Y-112190000D01*
X68448986Y-112179003D01*
X68592247Y-112135546D01*
X68724276Y-112064974D01*
X68840001Y-111970001D01*
X68863804Y-111940997D01*
X70261003Y-110543799D01*
X70290001Y-110520001D01*
X70384974Y-110404276D01*
X70455546Y-110272247D01*
X70499003Y-110128986D01*
X70510000Y-110017333D01*
X70510000Y-110017325D01*
X70513676Y-109980000D01*
X70510000Y-109942675D01*
X70510000Y-109363711D01*
X70553937Y-109319774D01*
X70667205Y-109150256D01*
X70745226Y-108961898D01*
X70785000Y-108761939D01*
X70785000Y-108558061D01*
X70745226Y-108358102D01*
X70667205Y-108169744D01*
X70553937Y-108000226D01*
X70409774Y-107856063D01*
X70240256Y-107742795D01*
X70051898Y-107664774D01*
X69851939Y-107625000D01*
X69648061Y-107625000D01*
X69448102Y-107664774D01*
X69259744Y-107742795D01*
X69090226Y-107856063D01*
X68946063Y-108000226D01*
X68832795Y-108169744D01*
X68754774Y-108358102D01*
X68715000Y-108558061D01*
X68715000Y-108761939D01*
X68754774Y-108961898D01*
X68832795Y-109150256D01*
X68946063Y-109319774D01*
X68990001Y-109363712D01*
X68990001Y-109665197D01*
X68219730Y-110435469D01*
X68189502Y-110335820D01*
X68130537Y-110225506D01*
X68051185Y-110128815D01*
X67954494Y-110049463D01*
X67844180Y-109990498D01*
X67771620Y-109968487D01*
X67903475Y-109836632D01*
X68065990Y-109593411D01*
X68177932Y-109323158D01*
X68235000Y-109036260D01*
X68235000Y-108743740D01*
X68177932Y-108456842D01*
X68065990Y-108186589D01*
X67903475Y-107943368D01*
X67696632Y-107736525D01*
X67562000Y-107646567D01*
X67562000Y-101409300D01*
X68180001Y-102027301D01*
X68180000Y-103192677D01*
X68176324Y-103230000D01*
X68180000Y-103267322D01*
X68180000Y-103267332D01*
X68190997Y-103378985D01*
X68222487Y-103482795D01*
X68234454Y-103522246D01*
X68286560Y-103619729D01*
X68166063Y-103740226D01*
X68052795Y-103909744D01*
X67974774Y-104098102D01*
X67935000Y-104298061D01*
X67935000Y-104501939D01*
X67974774Y-104701898D01*
X68052795Y-104890256D01*
X68166063Y-105059774D01*
X68310226Y-105203937D01*
X68479744Y-105317205D01*
X68668102Y-105395226D01*
X68868061Y-105435000D01*
X68930199Y-105435000D01*
X71385002Y-107889805D01*
X71385001Y-114105000D01*
X71318061Y-114105000D01*
X71118102Y-114144774D01*
X70929744Y-114222795D01*
X70760226Y-114336063D01*
X70616063Y-114480226D01*
X70502795Y-114649744D01*
X70424774Y-114838102D01*
X70385000Y-115038061D01*
X70385000Y-115100198D01*
X65365000Y-120120198D01*
X65365000Y-119998061D01*
X65325226Y-119798102D01*
X65247205Y-119609744D01*
X65133937Y-119440226D01*
X64989774Y-119296063D01*
X64820256Y-119182795D01*
X64631898Y-119104774D01*
X64431939Y-119065000D01*
X64369802Y-119065000D01*
X51410000Y-106105199D01*
X51410000Y-99617333D01*
X51413677Y-99580000D01*
X51399003Y-99431014D01*
X51355546Y-99287753D01*
X51284974Y-99155724D01*
X51213799Y-99068997D01*
X51190001Y-99039999D01*
X51161003Y-99016201D01*
X46925000Y-94780199D01*
X46925000Y-94718061D01*
X46885226Y-94518102D01*
X46807205Y-94329744D01*
X46693937Y-94160226D01*
X46549774Y-94016063D01*
X46380256Y-93902795D01*
X46191898Y-93824774D01*
X45991939Y-93785000D01*
X45788061Y-93785000D01*
X45588102Y-93824774D01*
X45399744Y-93902795D01*
X45230226Y-94016063D01*
X45086063Y-94160226D01*
X44972795Y-94329744D01*
X44894774Y-94518102D01*
X44855000Y-94718061D01*
X44855000Y-94921939D01*
X44894774Y-95121898D01*
X44972795Y-95310256D01*
X45086063Y-95479774D01*
X45230226Y-95623937D01*
X45399744Y-95737205D01*
X45588102Y-95815226D01*
X45788061Y-95855000D01*
X45850199Y-95855000D01*
X49890001Y-99894803D01*
X49890000Y-106382677D01*
X49886324Y-106420000D01*
X49890000Y-106457322D01*
X49890000Y-106457332D01*
X49900997Y-106568985D01*
X49927241Y-106655500D01*
X49944454Y-106712246D01*
X50015026Y-106844276D01*
X50039779Y-106874437D01*
X50109999Y-106960001D01*
X50139003Y-106983804D01*
X63295000Y-120139802D01*
X63295000Y-120201939D01*
X63334774Y-120401898D01*
X63412795Y-120590256D01*
X63526063Y-120759774D01*
X63670226Y-120903937D01*
X63839744Y-121017205D01*
X64028102Y-121095226D01*
X64228061Y-121135000D01*
X64350199Y-121135000D01*
X58345199Y-127140000D01*
X55157322Y-127140000D01*
X55119999Y-127136324D01*
X55082676Y-127140000D01*
X55082667Y-127140000D01*
X54971014Y-127150997D01*
X54827753Y-127194454D01*
X54695724Y-127265026D01*
X54579999Y-127359999D01*
X54556201Y-127388997D01*
X49395199Y-132550000D01*
X43608072Y-132550000D01*
X43608072Y-132460000D01*
X43595812Y-132335518D01*
X43559502Y-132215820D01*
X43500537Y-132105506D01*
X43421185Y-132008815D01*
X43324494Y-131929463D01*
X43214180Y-131870498D01*
X43094482Y-131834188D01*
X42970000Y-131821928D01*
X41270000Y-131821928D01*
X41145518Y-131834188D01*
X41025820Y-131870498D01*
X40915506Y-131929463D01*
X40818815Y-132008815D01*
X40739463Y-132105506D01*
X40680498Y-132215820D01*
X40644188Y-132335518D01*
X40631928Y-132460000D01*
X40631928Y-134160000D01*
X40644188Y-134284482D01*
X40680498Y-134404180D01*
X40739463Y-134514494D01*
X40818815Y-134611185D01*
X40915506Y-134690537D01*
X41025820Y-134749502D01*
X41106466Y-134773966D01*
X41022412Y-134849731D01*
X40848359Y-135083080D01*
X40723175Y-135345901D01*
X40678524Y-135493110D01*
X40799845Y-135723000D01*
X41993000Y-135723000D01*
X41993000Y-135703000D01*
X42247000Y-135703000D01*
X42247000Y-135723000D01*
X43440155Y-135723000D01*
X43561476Y-135493110D01*
X43516825Y-135345901D01*
X43391641Y-135083080D01*
X43217588Y-134849731D01*
X43133534Y-134773966D01*
X43214180Y-134749502D01*
X43324494Y-134690537D01*
X43421185Y-134611185D01*
X43500537Y-134514494D01*
X43559502Y-134404180D01*
X43595812Y-134284482D01*
X43608072Y-134160000D01*
X43608072Y-134070000D01*
X49672678Y-134070000D01*
X49710000Y-134073676D01*
X49747322Y-134070000D01*
X49747333Y-134070000D01*
X49858986Y-134059003D01*
X50002247Y-134015546D01*
X50134276Y-133944974D01*
X50250001Y-133850001D01*
X50273804Y-133820997D01*
X51654801Y-132440000D01*
X52941928Y-132440000D01*
X52941928Y-134140000D01*
X52954188Y-134264482D01*
X52990498Y-134384180D01*
X53049463Y-134494494D01*
X53128815Y-134591185D01*
X53225506Y-134670537D01*
X53335820Y-134729502D01*
X53416466Y-134753966D01*
X53332412Y-134829731D01*
X53158359Y-135063080D01*
X53033175Y-135325901D01*
X52988524Y-135473110D01*
X53109845Y-135703000D01*
X54303000Y-135703000D01*
X54303000Y-135683000D01*
X54557000Y-135683000D01*
X54557000Y-135703000D01*
X55750155Y-135703000D01*
X55871476Y-135473110D01*
X55826825Y-135325901D01*
X55701641Y-135063080D01*
X55527588Y-134829731D01*
X55443534Y-134753966D01*
X55524180Y-134729502D01*
X55634494Y-134670537D01*
X55731185Y-134591185D01*
X55810537Y-134494494D01*
X55869502Y-134384180D01*
X55905812Y-134264482D01*
X55918072Y-134140000D01*
X55918072Y-134050000D01*
X56262678Y-134050000D01*
X56300000Y-134053676D01*
X56337322Y-134050000D01*
X56337333Y-134050000D01*
X56448986Y-134039003D01*
X56592247Y-133995546D01*
X56724276Y-133924974D01*
X56840001Y-133830001D01*
X56863804Y-133800997D01*
X59827912Y-130836890D01*
X65468524Y-130836890D01*
X65513175Y-130984099D01*
X65638359Y-131246920D01*
X65812412Y-131480269D01*
X66028645Y-131675178D01*
X66278748Y-131824157D01*
X66553109Y-131921481D01*
X66783000Y-131800814D01*
X66783000Y-130607000D01*
X67037000Y-130607000D01*
X67037000Y-131800814D01*
X67266891Y-131921481D01*
X67541252Y-131824157D01*
X67791355Y-131675178D01*
X68007588Y-131480269D01*
X68181641Y-131246920D01*
X68306825Y-130984099D01*
X68351476Y-130836890D01*
X68230155Y-130607000D01*
X67037000Y-130607000D01*
X66783000Y-130607000D01*
X65589845Y-130607000D01*
X65468524Y-130836890D01*
X59827912Y-130836890D01*
X60349803Y-130315000D01*
X60411939Y-130315000D01*
X60611898Y-130275226D01*
X60800256Y-130197205D01*
X60969774Y-130083937D01*
X61113937Y-129939774D01*
X61227205Y-129770256D01*
X61305226Y-129581898D01*
X61345000Y-129381939D01*
X61345000Y-129178061D01*
X61305226Y-128978102D01*
X61227205Y-128789744D01*
X61113937Y-128620226D01*
X60969774Y-128476063D01*
X60800256Y-128362795D01*
X60611898Y-128284774D01*
X60411939Y-128245000D01*
X60208061Y-128245000D01*
X60008102Y-128284774D01*
X59819744Y-128362795D01*
X59650226Y-128476063D01*
X59506063Y-128620226D01*
X59392795Y-128789744D01*
X59314774Y-128978102D01*
X59275000Y-129178061D01*
X59275000Y-129240197D01*
X55985199Y-132530000D01*
X55918072Y-132530000D01*
X55918072Y-132440000D01*
X55905812Y-132315518D01*
X55869502Y-132195820D01*
X55810537Y-132085506D01*
X55731185Y-131988815D01*
X55634494Y-131909463D01*
X55524180Y-131850498D01*
X55404482Y-131814188D01*
X55280000Y-131801928D01*
X53580000Y-131801928D01*
X53455518Y-131814188D01*
X53335820Y-131850498D01*
X53225506Y-131909463D01*
X53128815Y-131988815D01*
X53049463Y-132085506D01*
X52990498Y-132195820D01*
X52954188Y-132315518D01*
X52941928Y-132440000D01*
X51654801Y-132440000D01*
X55434802Y-128660000D01*
X58622678Y-128660000D01*
X58660000Y-128663676D01*
X58697322Y-128660000D01*
X58697333Y-128660000D01*
X58808986Y-128649003D01*
X58952247Y-128605546D01*
X59084276Y-128534974D01*
X59200001Y-128440001D01*
X59223804Y-128410997D01*
X66150001Y-121484801D01*
X66150000Y-126451928D01*
X66060000Y-126451928D01*
X65935518Y-126464188D01*
X65815820Y-126500498D01*
X65705506Y-126559463D01*
X65608815Y-126638815D01*
X65529463Y-126735506D01*
X65470498Y-126845820D01*
X65434188Y-126965518D01*
X65421928Y-127090000D01*
X65421928Y-128790000D01*
X65434188Y-128914482D01*
X65470498Y-129034180D01*
X65529463Y-129144494D01*
X65608815Y-129241185D01*
X65705506Y-129320537D01*
X65815820Y-129379502D01*
X65896466Y-129403966D01*
X65812412Y-129479731D01*
X65638359Y-129713080D01*
X65513175Y-129975901D01*
X65468524Y-130123110D01*
X65589845Y-130353000D01*
X66783000Y-130353000D01*
X66783000Y-130333000D01*
X67037000Y-130333000D01*
X67037000Y-130353000D01*
X68230155Y-130353000D01*
X68351476Y-130123110D01*
X68306825Y-129975901D01*
X68181641Y-129713080D01*
X68007588Y-129479731D01*
X67923534Y-129403966D01*
X68004180Y-129379502D01*
X68114494Y-129320537D01*
X68211185Y-129241185D01*
X68290537Y-129144494D01*
X68349502Y-129034180D01*
X68385812Y-128914482D01*
X68398072Y-128790000D01*
X68398072Y-127140000D01*
X76961928Y-127140000D01*
X76961928Y-128840000D01*
X76974188Y-128964482D01*
X77010498Y-129084180D01*
X77069463Y-129194494D01*
X77148815Y-129291185D01*
X77245506Y-129370537D01*
X77355820Y-129429502D01*
X77428380Y-129451513D01*
X77296525Y-129583368D01*
X77134010Y-129826589D01*
X77022068Y-130096842D01*
X76965000Y-130383740D01*
X76965000Y-130676260D01*
X77022068Y-130963158D01*
X77134010Y-131233411D01*
X77296525Y-131476632D01*
X77503368Y-131683475D01*
X77746589Y-131845990D01*
X78016842Y-131957932D01*
X78303740Y-132015000D01*
X78596260Y-132015000D01*
X78883158Y-131957932D01*
X79153411Y-131845990D01*
X79396632Y-131683475D01*
X79603475Y-131476632D01*
X79728178Y-131290000D01*
X104255199Y-131290000D01*
X111505000Y-138539802D01*
X111505000Y-138601939D01*
X111544774Y-138801898D01*
X111622795Y-138990256D01*
X111736063Y-139159774D01*
X111880226Y-139303937D01*
X112049744Y-139417205D01*
X112238102Y-139495226D01*
X112438061Y-139535000D01*
X112641939Y-139535000D01*
X112841898Y-139495226D01*
X113030256Y-139417205D01*
X113199774Y-139303937D01*
X113343937Y-139159774D01*
X113457205Y-138990256D01*
X113535226Y-138801898D01*
X113575000Y-138601939D01*
X113575000Y-138398061D01*
X113535226Y-138198102D01*
X113457205Y-138009744D01*
X113343937Y-137840226D01*
X113199774Y-137696063D01*
X113030256Y-137582795D01*
X112841898Y-137504774D01*
X112641939Y-137465000D01*
X112579802Y-137465000D01*
X112484802Y-137370000D01*
X156535199Y-137370000D01*
X157801928Y-138636730D01*
X157801928Y-139900000D01*
X157814188Y-140024482D01*
X157850498Y-140144180D01*
X157909463Y-140254494D01*
X157988815Y-140351185D01*
X158085506Y-140430537D01*
X158195820Y-140489502D01*
X158276466Y-140513966D01*
X158192412Y-140589731D01*
X158018359Y-140823080D01*
X157893175Y-141085901D01*
X157848524Y-141233110D01*
X157969845Y-141463000D01*
X159163000Y-141463000D01*
X159163000Y-141443000D01*
X159417000Y-141443000D01*
X159417000Y-141463000D01*
X160610155Y-141463000D01*
X160731476Y-141233110D01*
X160686825Y-141085901D01*
X160561641Y-140823080D01*
X160387588Y-140589731D01*
X160303534Y-140513966D01*
X160384180Y-140489502D01*
X160494494Y-140430537D01*
X160591185Y-140351185D01*
X160670537Y-140254494D01*
X160729502Y-140144180D01*
X160765812Y-140024482D01*
X160778072Y-139900000D01*
X160778072Y-138200000D01*
X160765812Y-138075518D01*
X160729502Y-137955820D01*
X160670537Y-137845506D01*
X160591185Y-137748815D01*
X160494494Y-137669463D01*
X160384180Y-137610498D01*
X160264482Y-137574188D01*
X160140000Y-137561928D01*
X158876730Y-137561928D01*
X157413804Y-136099003D01*
X157390001Y-136069999D01*
X157274276Y-135975026D01*
X157142247Y-135904454D01*
X156998986Y-135860997D01*
X156887333Y-135850000D01*
X156887322Y-135850000D01*
X156850000Y-135846324D01*
X156812678Y-135850000D01*
X111601212Y-135850000D01*
X105320204Y-129568993D01*
X105296401Y-129539989D01*
X105180676Y-129445016D01*
X105048647Y-129374444D01*
X104905386Y-129330987D01*
X104793733Y-129319990D01*
X104793722Y-129319990D01*
X104756400Y-129316314D01*
X104719078Y-129319990D01*
X87724792Y-129319990D01*
X86375000Y-127970199D01*
X86375000Y-127908061D01*
X86335226Y-127708102D01*
X86257205Y-127519744D01*
X86143937Y-127350226D01*
X85999774Y-127206063D01*
X85830256Y-127092795D01*
X85641898Y-127014774D01*
X85441939Y-126975000D01*
X85238061Y-126975000D01*
X85038102Y-127014774D01*
X84849744Y-127092795D01*
X84680226Y-127206063D01*
X84636289Y-127250000D01*
X79938072Y-127250000D01*
X79938072Y-127140000D01*
X79925812Y-127015518D01*
X79889502Y-126895820D01*
X79830537Y-126785506D01*
X79751185Y-126688815D01*
X79654494Y-126609463D01*
X79544180Y-126550498D01*
X79424482Y-126514188D01*
X79300000Y-126501928D01*
X77600000Y-126501928D01*
X77475518Y-126514188D01*
X77355820Y-126550498D01*
X77245506Y-126609463D01*
X77148815Y-126688815D01*
X77069463Y-126785506D01*
X77010498Y-126895820D01*
X76974188Y-127015518D01*
X76961928Y-127140000D01*
X68398072Y-127140000D01*
X68398072Y-127090000D01*
X68385812Y-126965518D01*
X68349502Y-126845820D01*
X68290537Y-126735506D01*
X68211185Y-126638815D01*
X68114494Y-126559463D01*
X68004180Y-126500498D01*
X67884482Y-126464188D01*
X67760000Y-126451928D01*
X67670000Y-126451928D01*
X67670000Y-120601211D01*
X71433007Y-116838205D01*
X71517475Y-116838205D01*
X71554797Y-116841881D01*
X71592119Y-116838205D01*
X71592130Y-116838205D01*
X71703783Y-116827208D01*
X71847044Y-116783751D01*
X71979073Y-116713179D01*
X72094798Y-116618206D01*
X72118600Y-116589203D01*
X72436501Y-116271302D01*
X75135000Y-118969802D01*
X75135000Y-119031939D01*
X75174774Y-119231898D01*
X75252795Y-119420256D01*
X75366063Y-119589774D01*
X75510226Y-119733937D01*
X75679744Y-119847205D01*
X75868102Y-119925226D01*
X76068061Y-119965000D01*
X76271939Y-119965000D01*
X76471898Y-119925226D01*
X76660256Y-119847205D01*
X76829774Y-119733937D01*
X76973937Y-119589774D01*
X77087205Y-119420256D01*
X77165226Y-119231898D01*
X77205000Y-119031939D01*
X77205000Y-118828061D01*
X77165226Y-118628102D01*
X77087205Y-118439744D01*
X76973937Y-118270226D01*
X76829774Y-118126063D01*
X76660256Y-118012795D01*
X76471898Y-117934774D01*
X76271939Y-117895000D01*
X76209802Y-117895000D01*
X73355011Y-115040210D01*
X73355011Y-107172333D01*
X73358687Y-107135010D01*
X73355011Y-107097687D01*
X73355011Y-107097678D01*
X73344014Y-106986025D01*
X73300557Y-106842764D01*
X73229985Y-106710735D01*
X73167256Y-106634299D01*
X73158810Y-106624007D01*
X73158806Y-106624003D01*
X73135012Y-106595010D01*
X73106019Y-106571216D01*
X70452000Y-103917199D01*
X70451869Y-103915866D01*
X70548061Y-103935000D01*
X70610199Y-103935000D01*
X77166211Y-110491013D01*
X77190009Y-110520011D01*
X77305734Y-110614984D01*
X77437763Y-110685556D01*
X77581024Y-110729013D01*
X77692677Y-110740010D01*
X77692686Y-110740010D01*
X77730009Y-110743686D01*
X77767332Y-110740010D01*
X78364539Y-110740010D01*
X78311000Y-111009165D01*
X78311000Y-111291835D01*
X78366147Y-111569074D01*
X78474320Y-111830227D01*
X78631363Y-112065259D01*
X78831241Y-112265137D01*
X79066273Y-112422180D01*
X79327426Y-112530353D01*
X79604665Y-112585500D01*
X79887335Y-112585500D01*
X80069887Y-112549188D01*
X86791701Y-119271003D01*
X86815499Y-119300001D01*
X86844497Y-119323799D01*
X86931223Y-119394974D01*
X87015883Y-119440226D01*
X87063253Y-119465546D01*
X87206514Y-119509003D01*
X87318167Y-119520000D01*
X87318176Y-119520000D01*
X87355499Y-119523676D01*
X87392822Y-119520000D01*
X97212678Y-119520000D01*
X97250000Y-119523676D01*
X97287322Y-119520000D01*
X97287333Y-119520000D01*
X97398986Y-119509003D01*
X97542247Y-119465546D01*
X97674276Y-119394974D01*
X97790001Y-119300001D01*
X97813804Y-119270997D01*
X98395002Y-118689800D01*
X98395001Y-120767678D01*
X98391325Y-120805001D01*
X98395001Y-120842323D01*
X98395001Y-120842333D01*
X98405998Y-120953986D01*
X98430698Y-121035412D01*
X98449455Y-121097247D01*
X98520027Y-121229277D01*
X98545241Y-121260000D01*
X98615000Y-121345002D01*
X98644004Y-121368805D01*
X103046200Y-125771002D01*
X103069999Y-125800001D01*
X103098997Y-125823799D01*
X103185723Y-125894974D01*
X103279266Y-125944974D01*
X103317753Y-125965546D01*
X103461014Y-126009003D01*
X103572667Y-126020000D01*
X103572677Y-126020000D01*
X103609999Y-126023676D01*
X103647322Y-126020000D01*
X104266289Y-126020000D01*
X104360226Y-126113937D01*
X104529744Y-126227205D01*
X104718102Y-126305226D01*
X104918061Y-126345000D01*
X105121939Y-126345000D01*
X105321898Y-126305226D01*
X105510256Y-126227205D01*
X105679774Y-126113937D01*
X105823937Y-125969774D01*
X105937205Y-125800256D01*
X106015226Y-125611898D01*
X106055000Y-125411939D01*
X106055000Y-125208061D01*
X106015226Y-125008102D01*
X105937205Y-124819744D01*
X105823937Y-124650226D01*
X105679774Y-124506063D01*
X105510256Y-124392795D01*
X105321898Y-124314774D01*
X105121939Y-124275000D01*
X104918061Y-124275000D01*
X104718102Y-124314774D01*
X104529744Y-124392795D01*
X104369300Y-124500000D01*
X103924802Y-124500000D01*
X99915001Y-120490200D01*
X99915001Y-117269321D01*
X99918677Y-117231998D01*
X99915001Y-117194675D01*
X99915001Y-117194666D01*
X99904004Y-117083013D01*
X99860547Y-116939752D01*
X99789975Y-116807723D01*
X99695002Y-116691998D01*
X99666004Y-116668200D01*
X93737813Y-110740010D01*
X95955000Y-110740010D01*
X95955000Y-110811939D01*
X95994774Y-111011898D01*
X96072795Y-111200256D01*
X96186063Y-111369774D01*
X96330226Y-111513937D01*
X96499744Y-111627205D01*
X96688102Y-111705226D01*
X96888061Y-111745000D01*
X97091939Y-111745000D01*
X97291898Y-111705226D01*
X97480256Y-111627205D01*
X97649774Y-111513937D01*
X97793937Y-111369774D01*
X97907205Y-111200256D01*
X97911445Y-111190020D01*
X107486090Y-111190020D01*
X107523412Y-111193696D01*
X107560734Y-111190020D01*
X107560745Y-111190020D01*
X107672398Y-111179023D01*
X107815659Y-111135566D01*
X107947688Y-111064994D01*
X108063413Y-110970021D01*
X108087216Y-110941018D01*
X109766519Y-109261716D01*
X109828655Y-109261716D01*
X110028614Y-109221942D01*
X110216972Y-109143921D01*
X110386490Y-109030653D01*
X110530653Y-108886490D01*
X110643921Y-108716972D01*
X110721942Y-108528614D01*
X110761716Y-108328655D01*
X110761716Y-108124777D01*
X110721942Y-107924818D01*
X110643921Y-107736460D01*
X110530653Y-107566942D01*
X110483319Y-107519608D01*
X116458865Y-101544063D01*
X116521002Y-101544063D01*
X116720961Y-101504289D01*
X116909319Y-101426268D01*
X117078837Y-101313000D01*
X117223000Y-101168837D01*
X117336268Y-100999319D01*
X117414289Y-100810961D01*
X117454063Y-100611002D01*
X117454063Y-100407124D01*
X117414289Y-100207165D01*
X117336268Y-100018807D01*
X117223000Y-99849289D01*
X117175666Y-99801955D01*
X126047623Y-90930000D01*
X151696289Y-90930000D01*
X151740226Y-90973937D01*
X151909744Y-91087205D01*
X152098102Y-91165226D01*
X152298061Y-91205000D01*
X152501939Y-91205000D01*
X152701898Y-91165226D01*
X152890256Y-91087205D01*
X153059774Y-90973937D01*
X153203937Y-90829774D01*
X153317205Y-90660256D01*
X153395226Y-90471898D01*
X153435000Y-90271939D01*
X153435000Y-90068061D01*
X153395226Y-89868102D01*
X153317205Y-89679744D01*
X153203937Y-89510226D01*
X153059774Y-89366063D01*
X152890256Y-89252795D01*
X152701898Y-89174774D01*
X152501939Y-89135000D01*
X152298061Y-89135000D01*
X152098102Y-89174774D01*
X151909744Y-89252795D01*
X151740226Y-89366063D01*
X151696289Y-89410000D01*
X126931212Y-89410000D01*
X130491212Y-85850000D01*
X132646289Y-85850000D01*
X132690226Y-85893937D01*
X132859744Y-86007205D01*
X133048102Y-86085226D01*
X133248061Y-86125000D01*
X133451939Y-86125000D01*
X133651898Y-86085226D01*
X133840256Y-86007205D01*
X134009774Y-85893937D01*
X134153937Y-85749774D01*
X134267205Y-85580256D01*
X134345226Y-85391898D01*
X134385000Y-85191939D01*
X134385000Y-84988061D01*
X134345226Y-84788102D01*
X134267205Y-84599744D01*
X134254013Y-84580000D01*
X151696289Y-84580000D01*
X151740226Y-84623937D01*
X151909744Y-84737205D01*
X152098102Y-84815226D01*
X152298061Y-84855000D01*
X152501939Y-84855000D01*
X152701898Y-84815226D01*
X152890256Y-84737205D01*
X153059774Y-84623937D01*
X153203937Y-84479774D01*
X153317205Y-84310256D01*
X153395226Y-84121898D01*
X153435000Y-83921939D01*
X153435000Y-83718061D01*
X153395226Y-83518102D01*
X153317205Y-83329744D01*
X153203937Y-83160226D01*
X153059774Y-83016063D01*
X152890256Y-82902795D01*
X152701898Y-82824774D01*
X152501939Y-82785000D01*
X152298061Y-82785000D01*
X152098102Y-82824774D01*
X151909744Y-82902795D01*
X151740226Y-83016063D01*
X151696289Y-83060000D01*
X130847325Y-83060000D01*
X130810000Y-83056324D01*
X130772675Y-83060000D01*
X130772667Y-83060000D01*
X130661014Y-83070997D01*
X130517753Y-83114454D01*
X130385724Y-83185026D01*
X130269999Y-83279999D01*
X130246201Y-83308997D01*
X112199698Y-101355501D01*
X88756509Y-101355501D01*
X88801000Y-101131835D01*
X88801000Y-100849165D01*
X88745853Y-100571926D01*
X88637680Y-100310773D01*
X88480637Y-100075741D01*
X88280759Y-99875863D01*
X88048241Y-99720500D01*
X88280759Y-99565137D01*
X88480637Y-99365259D01*
X88533261Y-99286502D01*
X89304712Y-99286502D01*
X89344500Y-99290421D01*
X89384288Y-99286502D01*
X89384291Y-99286502D01*
X89503288Y-99274782D01*
X89655973Y-99228465D01*
X89796689Y-99153251D01*
X89920028Y-99052030D01*
X89945399Y-99021115D01*
X90848143Y-98118372D01*
X91037399Y-98080727D01*
X91225757Y-98002706D01*
X91395275Y-97889438D01*
X91539438Y-97745275D01*
X91652706Y-97575757D01*
X91730727Y-97387399D01*
X91770501Y-97187440D01*
X91770501Y-96983562D01*
X91730727Y-96783603D01*
X91652706Y-96595245D01*
X91539438Y-96425727D01*
X91395275Y-96281564D01*
X91225757Y-96168296D01*
X91037399Y-96090275D01*
X90837440Y-96050501D01*
X90633562Y-96050501D01*
X90433603Y-96090275D01*
X90245245Y-96168296D01*
X90084801Y-96275501D01*
X88753063Y-96275501D01*
X88757904Y-96259539D01*
X88635915Y-96037500D01*
X87493000Y-96037500D01*
X87493000Y-96057500D01*
X87239000Y-96057500D01*
X87239000Y-96037500D01*
X87219000Y-96037500D01*
X87219000Y-95783500D01*
X87239000Y-95783500D01*
X87239000Y-93497500D01*
X87493000Y-93497500D01*
X87493000Y-95783500D01*
X88635915Y-95783500D01*
X88757904Y-95561461D01*
X88717246Y-95427413D01*
X88597037Y-95173080D01*
X88429519Y-94947086D01*
X88221131Y-94758115D01*
X88025018Y-94640500D01*
X88221131Y-94522885D01*
X88429519Y-94333914D01*
X88597037Y-94107920D01*
X88717246Y-93853587D01*
X88757904Y-93719539D01*
X88635915Y-93497500D01*
X87493000Y-93497500D01*
X87239000Y-93497500D01*
X86096085Y-93497500D01*
X85974096Y-93719539D01*
X86014754Y-93853587D01*
X86134963Y-94107920D01*
X86302481Y-94333914D01*
X86510869Y-94522885D01*
X86706982Y-94640500D01*
X86510869Y-94758115D01*
X86302481Y-94947086D01*
X86134963Y-95173080D01*
X86014754Y-95427413D01*
X85974096Y-95561461D01*
X86034599Y-95671587D01*
X83653449Y-93290437D01*
X83665780Y-93249788D01*
X83677500Y-93130791D01*
X83677500Y-93130788D01*
X83681419Y-93091000D01*
X83677500Y-93051212D01*
X83677500Y-91179539D01*
X85974096Y-91179539D01*
X86014754Y-91313587D01*
X86134963Y-91567920D01*
X86302481Y-91793914D01*
X86510869Y-91982885D01*
X86706982Y-92100500D01*
X86510869Y-92218115D01*
X86302481Y-92407086D01*
X86134963Y-92633080D01*
X86014754Y-92887413D01*
X85974096Y-93021461D01*
X86096085Y-93243500D01*
X87239000Y-93243500D01*
X87239000Y-90957500D01*
X87493000Y-90957500D01*
X87493000Y-93243500D01*
X88635915Y-93243500D01*
X88757904Y-93021461D01*
X88717246Y-92887413D01*
X88597037Y-92633080D01*
X88429519Y-92407086D01*
X88221131Y-92218115D01*
X88025018Y-92100500D01*
X88221131Y-91982885D01*
X88429519Y-91793914D01*
X88597037Y-91567920D01*
X88717246Y-91313587D01*
X88757904Y-91179539D01*
X88635915Y-90957500D01*
X87493000Y-90957500D01*
X87239000Y-90957500D01*
X86096085Y-90957500D01*
X85974096Y-91179539D01*
X83677500Y-91179539D01*
X83677500Y-88951211D01*
X83795226Y-89068937D01*
X83964744Y-89182205D01*
X84153102Y-89260226D01*
X84353061Y-89300000D01*
X84556939Y-89300000D01*
X84756898Y-89260226D01*
X84945256Y-89182205D01*
X85114774Y-89068937D01*
X85158711Y-89025000D01*
X86130918Y-89025000D01*
X86251363Y-89205259D01*
X86451241Y-89405137D01*
X86686273Y-89562180D01*
X86696865Y-89566567D01*
X86510869Y-89678115D01*
X86302481Y-89867086D01*
X86134963Y-90093080D01*
X86014754Y-90347413D01*
X85974096Y-90481461D01*
X86096085Y-90703500D01*
X87239000Y-90703500D01*
X87239000Y-90683500D01*
X87493000Y-90683500D01*
X87493000Y-90703500D01*
X88635915Y-90703500D01*
X88757904Y-90481461D01*
X88717246Y-90347413D01*
X88597037Y-90093080D01*
X88429519Y-89867086D01*
X88221131Y-89678115D01*
X88035135Y-89566567D01*
X88045727Y-89562180D01*
X88280759Y-89405137D01*
X88480637Y-89205259D01*
X88637680Y-88970227D01*
X88745853Y-88709074D01*
X88801000Y-88431835D01*
X88801000Y-88149165D01*
X88745853Y-87871926D01*
X88637680Y-87610773D01*
X88480637Y-87375741D01*
X88280759Y-87175863D01*
X88045727Y-87018820D01*
X88035135Y-87014433D01*
X88221131Y-86902885D01*
X88429519Y-86713914D01*
X88597037Y-86487920D01*
X88717246Y-86233587D01*
X88757904Y-86099539D01*
X88635915Y-85877500D01*
X87493000Y-85877500D01*
X87493000Y-85897500D01*
X87239000Y-85897500D01*
X87239000Y-85877500D01*
X86096085Y-85877500D01*
X85974096Y-86099539D01*
X86014754Y-86233587D01*
X86134963Y-86487920D01*
X86302481Y-86713914D01*
X86510869Y-86902885D01*
X86696865Y-87014433D01*
X86686273Y-87018820D01*
X86451241Y-87175863D01*
X86251363Y-87375741D01*
X86164995Y-87505000D01*
X85158711Y-87505000D01*
X85114774Y-87461063D01*
X84945256Y-87347795D01*
X84756898Y-87269774D01*
X84556939Y-87230000D01*
X84353061Y-87230000D01*
X84153102Y-87269774D01*
X83964744Y-87347795D01*
X83795226Y-87461063D01*
X83677500Y-87578789D01*
X83677500Y-83559539D01*
X85974096Y-83559539D01*
X86014754Y-83693587D01*
X86134963Y-83947920D01*
X86302481Y-84173914D01*
X86510869Y-84362885D01*
X86706982Y-84480500D01*
X86510869Y-84598115D01*
X86302481Y-84787086D01*
X86134963Y-85013080D01*
X86014754Y-85267413D01*
X85974096Y-85401461D01*
X86096085Y-85623500D01*
X87239000Y-85623500D01*
X87239000Y-83337500D01*
X87493000Y-83337500D01*
X87493000Y-85623500D01*
X88635915Y-85623500D01*
X88757904Y-85401461D01*
X88717246Y-85267413D01*
X88597037Y-85013080D01*
X88429519Y-84787086D01*
X88221131Y-84598115D01*
X88025018Y-84480500D01*
X88221131Y-84362885D01*
X88429519Y-84173914D01*
X88597037Y-83947920D01*
X88717246Y-83693587D01*
X88757904Y-83559539D01*
X88635915Y-83337500D01*
X87493000Y-83337500D01*
X87239000Y-83337500D01*
X86096085Y-83337500D01*
X85974096Y-83559539D01*
X83677500Y-83559539D01*
X83677500Y-79266012D01*
X84954347Y-77989165D01*
X85931000Y-77989165D01*
X85931000Y-78271835D01*
X85986147Y-78549074D01*
X86094320Y-78810227D01*
X86251363Y-79045259D01*
X86451241Y-79245137D01*
X86683759Y-79400500D01*
X86451241Y-79555863D01*
X86251363Y-79755741D01*
X86094320Y-79990773D01*
X85986147Y-80251926D01*
X85931000Y-80529165D01*
X85931000Y-80811835D01*
X85986147Y-81089074D01*
X86094320Y-81350227D01*
X86251363Y-81585259D01*
X86451241Y-81785137D01*
X86686273Y-81942180D01*
X86696865Y-81946567D01*
X86510869Y-82058115D01*
X86302481Y-82247086D01*
X86134963Y-82473080D01*
X86014754Y-82727413D01*
X85974096Y-82861461D01*
X86096085Y-83083500D01*
X87239000Y-83083500D01*
X87239000Y-83063500D01*
X87493000Y-83063500D01*
X87493000Y-83083500D01*
X88635915Y-83083500D01*
X88757904Y-82861461D01*
X88717246Y-82727413D01*
X88597037Y-82473080D01*
X88429519Y-82247086D01*
X88221131Y-82058115D01*
X88035135Y-81946567D01*
X88045727Y-81942180D01*
X88280759Y-81785137D01*
X88480637Y-81585259D01*
X88637680Y-81350227D01*
X88745853Y-81089074D01*
X88801000Y-80811835D01*
X88801000Y-80529165D01*
X88745853Y-80251926D01*
X88637680Y-79990773D01*
X88480637Y-79755741D01*
X88280759Y-79555863D01*
X88048241Y-79400500D01*
X88280759Y-79245137D01*
X88480637Y-79045259D01*
X88584043Y-78890500D01*
X90761789Y-78890500D01*
X90780226Y-78908937D01*
X90949744Y-79022205D01*
X91138102Y-79100226D01*
X91338061Y-79140000D01*
X91541939Y-79140000D01*
X91741898Y-79100226D01*
X91930256Y-79022205D01*
X92099774Y-78908937D01*
X92243937Y-78764774D01*
X92357205Y-78595256D01*
X92435226Y-78406898D01*
X92475000Y-78206939D01*
X92475000Y-78003061D01*
X92435226Y-77803102D01*
X92357205Y-77614744D01*
X92243937Y-77445226D01*
X92099774Y-77301063D01*
X91930256Y-77187795D01*
X91741898Y-77109774D01*
X91541939Y-77070000D01*
X91338061Y-77070000D01*
X91138102Y-77109774D01*
X90949744Y-77187795D01*
X90780226Y-77301063D01*
X90710789Y-77370500D01*
X88584043Y-77370500D01*
X88480637Y-77215741D01*
X88280759Y-77015863D01*
X88045727Y-76858820D01*
X87784574Y-76750647D01*
X87507335Y-76695500D01*
X87224665Y-76695500D01*
X86947426Y-76750647D01*
X86686273Y-76858820D01*
X86451241Y-77015863D01*
X86251363Y-77215741D01*
X86094320Y-77450773D01*
X85986147Y-77711926D01*
X85931000Y-77989165D01*
X84954347Y-77989165D01*
X95712513Y-67231000D01*
X106745533Y-67231000D01*
X106886102Y-67289226D01*
X107086061Y-67329000D01*
X107289939Y-67329000D01*
X107489898Y-67289226D01*
X107678256Y-67211205D01*
X107847774Y-67097937D01*
X107918956Y-67026755D01*
X111000000Y-70107800D01*
X111000001Y-82509431D01*
X110943403Y-82594136D01*
X110865382Y-82782494D01*
X110825608Y-82982453D01*
X110825608Y-83186331D01*
X110865382Y-83386290D01*
X110943403Y-83574648D01*
X111056671Y-83744166D01*
X111200834Y-83888329D01*
X111370352Y-84001597D01*
X111558710Y-84079618D01*
X111758669Y-84119392D01*
X111962547Y-84119392D01*
X112162506Y-84079618D01*
X112350864Y-84001597D01*
X112520382Y-83888329D01*
X112664545Y-83744166D01*
X112777813Y-83574648D01*
X112855834Y-83386290D01*
X112895608Y-83186331D01*
X112895608Y-82982453D01*
X112855834Y-82782494D01*
X112777813Y-82594136D01*
X112664545Y-82424618D01*
X112520382Y-82280455D01*
X112520000Y-82280200D01*
X112520000Y-69830323D01*
X112523676Y-69792998D01*
X112520000Y-69755673D01*
X112520000Y-69755665D01*
X112509003Y-69644012D01*
X112465546Y-69500751D01*
X112394974Y-69368722D01*
X112300001Y-69252997D01*
X112271004Y-69229200D01*
X108099805Y-65058002D01*
X108076002Y-65028998D01*
X107960277Y-64934025D01*
X107828248Y-64863453D01*
X107684987Y-64819996D01*
X107573334Y-64808999D01*
X107573323Y-64808999D01*
X107536001Y-64805323D01*
X107498679Y-64808999D01*
X95559203Y-64808999D01*
X95521880Y-64805323D01*
X95484557Y-64808999D01*
X95484548Y-64808999D01*
X95372895Y-64819996D01*
X95257293Y-64855063D01*
X95229634Y-64863453D01*
X95097604Y-64934025D01*
X95018157Y-64999226D01*
X94981880Y-65028998D01*
X94958082Y-65057996D01*
X91807935Y-68208144D01*
X91840000Y-68046939D01*
X91840000Y-67843061D01*
X91800226Y-67643102D01*
X91722205Y-67454744D01*
X91608937Y-67285226D01*
X91464774Y-67141063D01*
X91295256Y-67027795D01*
X91106898Y-66949774D01*
X90906939Y-66910000D01*
X90703061Y-66910000D01*
X90503102Y-66949774D01*
X90314744Y-67027795D01*
X90145226Y-67141063D01*
X90101289Y-67185000D01*
X59369802Y-67185000D01*
X57741863Y-65557061D01*
X88182500Y-65557061D01*
X88182500Y-65760939D01*
X88222274Y-65960898D01*
X88300295Y-66149256D01*
X88413563Y-66318774D01*
X88557726Y-66462937D01*
X88727244Y-66576205D01*
X88915602Y-66654226D01*
X89115561Y-66694000D01*
X89319439Y-66694000D01*
X89519398Y-66654226D01*
X89707756Y-66576205D01*
X89877274Y-66462937D01*
X90021437Y-66318774D01*
X90134705Y-66149256D01*
X90212726Y-65960898D01*
X90252500Y-65760939D01*
X90252500Y-65557061D01*
X90212726Y-65357102D01*
X90134705Y-65168744D01*
X90021437Y-64999226D01*
X89977500Y-64955289D01*
X89977500Y-60004801D01*
X92686302Y-57296000D01*
X92748439Y-57296000D01*
X92948398Y-57256226D01*
X93136756Y-57178205D01*
X93306274Y-57064937D01*
X93450437Y-56920774D01*
X93486650Y-56866576D01*
X104559529Y-56866576D01*
X104597693Y-57082536D01*
X104806244Y-57175912D01*
X105029004Y-57226808D01*
X105257413Y-57233267D01*
X105482693Y-57195042D01*
X105696187Y-57113602D01*
X105754307Y-57082536D01*
X105792471Y-56866576D01*
X105176000Y-56250105D01*
X104559529Y-56866576D01*
X93486650Y-56866576D01*
X93563705Y-56751256D01*
X93641726Y-56562898D01*
X93681500Y-56362939D01*
X93681500Y-56159061D01*
X93680079Y-56151913D01*
X104013233Y-56151913D01*
X104051458Y-56377193D01*
X104132898Y-56590687D01*
X104163964Y-56648807D01*
X104379924Y-56686971D01*
X104996395Y-56070500D01*
X105355605Y-56070500D01*
X105972076Y-56686971D01*
X106188036Y-56648807D01*
X106281412Y-56440256D01*
X106332308Y-56217496D01*
X106338767Y-55989087D01*
X106300542Y-55763807D01*
X106219102Y-55550313D01*
X106216530Y-55545500D01*
X106512928Y-55545500D01*
X106512928Y-56595500D01*
X106525188Y-56719982D01*
X106561498Y-56839680D01*
X106620463Y-56949994D01*
X106699815Y-57046685D01*
X106796506Y-57126037D01*
X106906820Y-57185002D01*
X107026518Y-57221312D01*
X107151000Y-57233572D01*
X108201000Y-57233572D01*
X108325482Y-57221312D01*
X108445180Y-57185002D01*
X108555494Y-57126037D01*
X108652185Y-57046685D01*
X108731537Y-56949994D01*
X108766556Y-56884479D01*
X114951626Y-56884479D01*
X114992841Y-57102978D01*
X115205665Y-57198859D01*
X115433105Y-57251378D01*
X115666421Y-57258516D01*
X115896646Y-57220000D01*
X116114934Y-57137308D01*
X116179159Y-57102978D01*
X116220374Y-56884479D01*
X115586000Y-56250105D01*
X114951626Y-56884479D01*
X108766556Y-56884479D01*
X108790502Y-56839680D01*
X108826812Y-56719982D01*
X108839072Y-56595500D01*
X108839072Y-56150921D01*
X114397984Y-56150921D01*
X114436500Y-56381146D01*
X114519192Y-56599434D01*
X114553522Y-56663659D01*
X114772021Y-56704874D01*
X115406395Y-56070500D01*
X115765605Y-56070500D01*
X116399979Y-56704874D01*
X116406124Y-56703715D01*
X116410188Y-56744982D01*
X116446498Y-56864680D01*
X116505463Y-56974994D01*
X116584815Y-57071685D01*
X116681506Y-57151037D01*
X116791820Y-57210002D01*
X116911518Y-57246312D01*
X117036000Y-57258572D01*
X118136000Y-57258572D01*
X118260482Y-57246312D01*
X118380180Y-57210002D01*
X118490494Y-57151037D01*
X118587185Y-57071685D01*
X118666537Y-56974994D01*
X118725502Y-56864680D01*
X118761812Y-56744982D01*
X118774072Y-56620500D01*
X118774072Y-55520500D01*
X118761812Y-55396018D01*
X118725502Y-55276320D01*
X118666537Y-55166006D01*
X118587185Y-55069315D01*
X118490494Y-54989963D01*
X118380180Y-54930998D01*
X118346000Y-54920630D01*
X118346000Y-45614211D01*
X118389937Y-45570274D01*
X118503205Y-45400756D01*
X118581226Y-45212398D01*
X118621000Y-45012439D01*
X118621000Y-44808561D01*
X118581226Y-44608602D01*
X118503205Y-44420244D01*
X118389937Y-44250726D01*
X118245774Y-44106563D01*
X118076256Y-43993295D01*
X117887898Y-43915274D01*
X117687939Y-43875500D01*
X117484061Y-43875500D01*
X117284102Y-43915274D01*
X117095744Y-43993295D01*
X116926226Y-44106563D01*
X116782063Y-44250726D01*
X116668795Y-44420244D01*
X116590774Y-44608602D01*
X116551000Y-44808561D01*
X116551000Y-45012439D01*
X116590774Y-45212398D01*
X116668795Y-45400756D01*
X116782063Y-45570274D01*
X116826001Y-45614212D01*
X116826000Y-54920630D01*
X116791820Y-54930998D01*
X116681506Y-54989963D01*
X116584815Y-55069315D01*
X116505463Y-55166006D01*
X116446498Y-55276320D01*
X116410188Y-55396018D01*
X116406124Y-55437285D01*
X116399979Y-55436126D01*
X115765605Y-56070500D01*
X115406395Y-56070500D01*
X114772021Y-55436126D01*
X114553522Y-55477341D01*
X114457641Y-55690165D01*
X114405122Y-55917605D01*
X114397984Y-56150921D01*
X108839072Y-56150921D01*
X108839072Y-55545500D01*
X108826812Y-55421018D01*
X108790502Y-55301320D01*
X108766557Y-55256521D01*
X114951626Y-55256521D01*
X115586000Y-55890895D01*
X116220374Y-55256521D01*
X116179159Y-55038022D01*
X115966335Y-54942141D01*
X115738895Y-54889622D01*
X115505579Y-54882484D01*
X115275354Y-54921000D01*
X115057066Y-55003692D01*
X114992841Y-55038022D01*
X114951626Y-55256521D01*
X108766557Y-55256521D01*
X108731537Y-55191006D01*
X108652185Y-55094315D01*
X108555494Y-55014963D01*
X108445180Y-54955998D01*
X108436000Y-54953213D01*
X108436000Y-48785301D01*
X111545802Y-45675500D01*
X111607939Y-45675500D01*
X111807898Y-45635726D01*
X111996256Y-45557705D01*
X112165774Y-45444437D01*
X112309937Y-45300274D01*
X112423205Y-45130756D01*
X112501226Y-44942398D01*
X112541000Y-44742439D01*
X112541000Y-44538561D01*
X112501226Y-44338602D01*
X112423205Y-44150244D01*
X112309937Y-43980726D01*
X112165774Y-43836563D01*
X111996256Y-43723295D01*
X111807898Y-43645274D01*
X111607939Y-43605500D01*
X111404061Y-43605500D01*
X111204102Y-43645274D01*
X111015744Y-43723295D01*
X110846226Y-43836563D01*
X110702063Y-43980726D01*
X110588795Y-44150244D01*
X110510774Y-44338602D01*
X110471000Y-44538561D01*
X110471000Y-44600698D01*
X107164998Y-47906701D01*
X107136000Y-47930499D01*
X107112202Y-47959497D01*
X107112201Y-47959498D01*
X107041026Y-48046224D01*
X106970454Y-48178254D01*
X106951421Y-48241000D01*
X106926998Y-48321514D01*
X106925522Y-48336497D01*
X106912324Y-48470500D01*
X106916001Y-48507832D01*
X106916000Y-54953213D01*
X106906820Y-54955998D01*
X106796506Y-55014963D01*
X106699815Y-55094315D01*
X106620463Y-55191006D01*
X106561498Y-55301320D01*
X106525188Y-55421018D01*
X106512928Y-55545500D01*
X106216530Y-55545500D01*
X106188036Y-55492193D01*
X105972076Y-55454029D01*
X105355605Y-56070500D01*
X104996395Y-56070500D01*
X104379924Y-55454029D01*
X104163964Y-55492193D01*
X104070588Y-55700744D01*
X104019692Y-55923504D01*
X104013233Y-56151913D01*
X93680079Y-56151913D01*
X93641726Y-55959102D01*
X93563705Y-55770744D01*
X93450437Y-55601226D01*
X93306274Y-55457063D01*
X93136756Y-55343795D01*
X92969281Y-55274424D01*
X104559529Y-55274424D01*
X105176000Y-55890895D01*
X105792471Y-55274424D01*
X105754307Y-55058464D01*
X105545756Y-54965088D01*
X105322996Y-54914192D01*
X105094587Y-54907733D01*
X104869307Y-54945958D01*
X104655813Y-55027398D01*
X104597693Y-55058464D01*
X104559529Y-55274424D01*
X92969281Y-55274424D01*
X92948398Y-55265774D01*
X92748439Y-55226000D01*
X92544561Y-55226000D01*
X92344602Y-55265774D01*
X92156244Y-55343795D01*
X91986726Y-55457063D01*
X91842563Y-55601226D01*
X91729295Y-55770744D01*
X91651274Y-55959102D01*
X91611500Y-56159061D01*
X91611500Y-56221198D01*
X88706498Y-59126201D01*
X88677500Y-59149999D01*
X88653702Y-59178997D01*
X88653701Y-59178998D01*
X88582526Y-59265724D01*
X88511954Y-59397754D01*
X88468498Y-59541015D01*
X88453824Y-59690000D01*
X88457501Y-59727332D01*
X88457500Y-64955289D01*
X88413563Y-64999226D01*
X88300295Y-65168744D01*
X88222274Y-65357102D01*
X88182500Y-65557061D01*
X57741863Y-65557061D01*
X42670000Y-50485199D01*
X42670000Y-48983561D01*
X56432500Y-48983561D01*
X56432500Y-49187439D01*
X56472274Y-49387398D01*
X56550295Y-49575756D01*
X56663563Y-49745274D01*
X56807726Y-49889437D01*
X56977244Y-50002705D01*
X57165602Y-50080726D01*
X57365561Y-50120500D01*
X57569439Y-50120500D01*
X57769398Y-50080726D01*
X57957756Y-50002705D01*
X58127274Y-49889437D01*
X58171211Y-49845500D01*
X61332822Y-49845500D01*
X61457525Y-50032132D01*
X61664368Y-50238975D01*
X61838760Y-50355500D01*
X61664368Y-50472025D01*
X61457525Y-50678868D01*
X61295010Y-50922089D01*
X61183068Y-51192342D01*
X61126000Y-51479240D01*
X61126000Y-51771760D01*
X61183068Y-52058658D01*
X61295010Y-52328911D01*
X61457525Y-52572132D01*
X61664368Y-52778975D01*
X61907589Y-52941490D01*
X62177842Y-53053432D01*
X62464740Y-53110500D01*
X62757260Y-53110500D01*
X62977408Y-53066710D01*
X63222201Y-53311503D01*
X63246000Y-53340502D01*
X63361725Y-53435475D01*
X63493754Y-53506047D01*
X63637015Y-53549504D01*
X63748668Y-53560501D01*
X63748677Y-53560501D01*
X63786000Y-53564177D01*
X63823323Y-53560501D01*
X71846001Y-53560501D01*
X71846000Y-61276789D01*
X71802063Y-61320726D01*
X71688795Y-61490244D01*
X71610774Y-61678602D01*
X71571000Y-61878561D01*
X71571000Y-62082439D01*
X71610774Y-62282398D01*
X71688795Y-62470756D01*
X71802063Y-62640274D01*
X71946226Y-62784437D01*
X72115744Y-62897705D01*
X72304102Y-62975726D01*
X72504061Y-63015500D01*
X72707939Y-63015500D01*
X72907898Y-62975726D01*
X73096256Y-62897705D01*
X73265774Y-62784437D01*
X73409937Y-62640274D01*
X73523205Y-62470756D01*
X73601226Y-62282398D01*
X73641000Y-62082439D01*
X73641000Y-61878561D01*
X73601226Y-61678602D01*
X73523205Y-61490244D01*
X73409937Y-61320726D01*
X73366000Y-61276789D01*
X73366000Y-53560501D01*
X78740675Y-53560501D01*
X78777997Y-53564177D01*
X78815319Y-53560501D01*
X78815330Y-53560501D01*
X78926983Y-53549504D01*
X79070244Y-53506047D01*
X79202273Y-53435475D01*
X79317998Y-53340502D01*
X79341801Y-53311498D01*
X81537800Y-51115500D01*
X84798667Y-51115500D01*
X84836000Y-51119177D01*
X84873333Y-51115500D01*
X84984986Y-51104503D01*
X85128247Y-51061046D01*
X85260276Y-50990474D01*
X85376001Y-50895501D01*
X85470974Y-50779776D01*
X85541546Y-50647747D01*
X85585003Y-50504486D01*
X85599677Y-50355500D01*
X85596000Y-50318167D01*
X85596000Y-48519211D01*
X85639937Y-48475274D01*
X85753205Y-48305756D01*
X85831226Y-48117398D01*
X85871000Y-47917439D01*
X85871000Y-47713561D01*
X85831226Y-47513602D01*
X85753205Y-47325244D01*
X85639937Y-47155726D01*
X85495774Y-47011563D01*
X85326256Y-46898295D01*
X85137898Y-46820274D01*
X84937939Y-46780500D01*
X84734061Y-46780500D01*
X84534102Y-46820274D01*
X84345744Y-46898295D01*
X84176226Y-47011563D01*
X84032063Y-47155726D01*
X83918795Y-47325244D01*
X83840774Y-47513602D01*
X83801000Y-47713561D01*
X83801000Y-47917439D01*
X83840774Y-48117398D01*
X83918795Y-48305756D01*
X84032063Y-48475274D01*
X84076001Y-48519212D01*
X84076000Y-49595500D01*
X81260331Y-49595500D01*
X81222998Y-49591823D01*
X81185665Y-49595500D01*
X81074012Y-49606497D01*
X80930751Y-49649954D01*
X80798722Y-49720526D01*
X80682997Y-49815499D01*
X80659199Y-49844497D01*
X78463196Y-52040501D01*
X72823321Y-52040501D01*
X72785998Y-52036825D01*
X72748675Y-52040501D01*
X66574850Y-52040501D01*
X66592476Y-51982390D01*
X66471155Y-51752500D01*
X65278000Y-51752500D01*
X65278000Y-51772500D01*
X65024000Y-51772500D01*
X65024000Y-51752500D01*
X65004000Y-51752500D01*
X65004000Y-51498500D01*
X65024000Y-51498500D01*
X65024000Y-51478500D01*
X65278000Y-51478500D01*
X65278000Y-51498500D01*
X66471155Y-51498500D01*
X66592476Y-51268610D01*
X66547825Y-51121401D01*
X66422641Y-50858580D01*
X66248588Y-50625231D01*
X66032355Y-50430322D01*
X65915466Y-50360695D01*
X66097632Y-50238975D01*
X66304475Y-50032132D01*
X66466990Y-49788911D01*
X66578932Y-49518658D01*
X66636000Y-49231760D01*
X66636000Y-48939240D01*
X66578932Y-48652342D01*
X66466990Y-48382089D01*
X66304475Y-48138868D01*
X66097632Y-47932025D01*
X65923240Y-47815500D01*
X66097632Y-47698975D01*
X66304475Y-47492132D01*
X66466990Y-47248911D01*
X66578932Y-46978658D01*
X66636000Y-46691760D01*
X66636000Y-46399240D01*
X66603941Y-46238071D01*
X69931513Y-42910500D01*
X77299210Y-42910500D01*
X77338998Y-42914419D01*
X77378786Y-42910500D01*
X77378789Y-42910500D01*
X77497786Y-42898780D01*
X77650471Y-42852463D01*
X77791187Y-42777249D01*
X77914526Y-42676028D01*
X77939897Y-42645113D01*
X78830211Y-41754800D01*
X97317928Y-41754800D01*
X97317928Y-41794800D01*
X97330188Y-41919282D01*
X97366498Y-42038980D01*
X97425463Y-42149294D01*
X97504815Y-42245985D01*
X97601506Y-42325337D01*
X97711820Y-42384302D01*
X97784380Y-42406313D01*
X97652525Y-42538168D01*
X97490010Y-42781389D01*
X97378068Y-43051642D01*
X97321000Y-43338540D01*
X97321000Y-43631060D01*
X97378068Y-43917958D01*
X97490010Y-44188211D01*
X97652525Y-44431432D01*
X97859368Y-44638275D01*
X97996000Y-44729570D01*
X97996001Y-47799799D01*
X97888795Y-47960244D01*
X97810774Y-48148602D01*
X97771000Y-48348561D01*
X97771000Y-48552439D01*
X97810774Y-48752398D01*
X97888795Y-48940756D01*
X98002063Y-49110274D01*
X98146226Y-49254437D01*
X98315744Y-49367705D01*
X98504102Y-49445726D01*
X98704061Y-49485500D01*
X98907939Y-49485500D01*
X99107898Y-49445726D01*
X99296256Y-49367705D01*
X99465774Y-49254437D01*
X99609937Y-49110274D01*
X99723205Y-48940756D01*
X99801226Y-48752398D01*
X99841000Y-48552439D01*
X99841000Y-48348561D01*
X99801226Y-48148602D01*
X99723205Y-47960244D01*
X99616000Y-47799800D01*
X99616000Y-45440313D01*
X100630805Y-46455118D01*
X100656172Y-46486028D01*
X100687080Y-46511393D01*
X100779510Y-46587249D01*
X100829392Y-46613911D01*
X100920227Y-46662463D01*
X101072912Y-46708780D01*
X101191909Y-46720500D01*
X101191912Y-46720500D01*
X101231700Y-46724419D01*
X101271488Y-46720500D01*
X103339730Y-46720500D01*
X103431025Y-46857132D01*
X103637868Y-47063975D01*
X103881089Y-47226490D01*
X104151342Y-47338432D01*
X104438240Y-47395500D01*
X104730760Y-47395500D01*
X105017658Y-47338432D01*
X105287911Y-47226490D01*
X105531132Y-47063975D01*
X105737975Y-46857132D01*
X105900490Y-46613911D01*
X106012432Y-46343658D01*
X106069500Y-46056760D01*
X106069500Y-45764240D01*
X106012432Y-45477342D01*
X105900490Y-45207089D01*
X105737975Y-44963868D01*
X105531132Y-44757025D01*
X105348966Y-44635305D01*
X105465855Y-44565678D01*
X105682088Y-44370769D01*
X105856141Y-44137420D01*
X105981325Y-43874599D01*
X106025976Y-43727390D01*
X105904655Y-43497500D01*
X104711500Y-43497500D01*
X104711500Y-43517500D01*
X104457500Y-43517500D01*
X104457500Y-43497500D01*
X103264345Y-43497500D01*
X103143024Y-43727390D01*
X103187675Y-43874599D01*
X103312859Y-44137420D01*
X103486912Y-44370769D01*
X103703145Y-44565678D01*
X103820034Y-44635305D01*
X103637868Y-44757025D01*
X103431025Y-44963868D01*
X103339730Y-45100500D01*
X101567213Y-45100500D01*
X100258941Y-43792229D01*
X100291000Y-43631060D01*
X100291000Y-43338540D01*
X100233932Y-43051642D01*
X100121990Y-42781389D01*
X99959475Y-42538168D01*
X99827620Y-42406313D01*
X99900180Y-42384302D01*
X100010494Y-42325337D01*
X100107185Y-42245985D01*
X100186537Y-42149294D01*
X100245502Y-42038980D01*
X100281812Y-41919282D01*
X100294072Y-41794800D01*
X100294072Y-40602241D01*
X100580814Y-40315499D01*
X100750301Y-40315499D01*
X100910745Y-40422704D01*
X101099103Y-40500725D01*
X101299062Y-40540499D01*
X101502940Y-40540499D01*
X101702899Y-40500725D01*
X101891257Y-40422704D01*
X102060775Y-40309436D01*
X102204938Y-40165273D01*
X102318206Y-39995755D01*
X102324524Y-39980500D01*
X103096428Y-39980500D01*
X103096428Y-41680500D01*
X103108688Y-41804982D01*
X103144998Y-41924680D01*
X103203963Y-42034994D01*
X103283315Y-42131685D01*
X103380006Y-42211037D01*
X103490320Y-42270002D01*
X103570966Y-42294466D01*
X103486912Y-42370231D01*
X103312859Y-42603580D01*
X103187675Y-42866401D01*
X103143024Y-43013610D01*
X103264345Y-43243500D01*
X104457500Y-43243500D01*
X104457500Y-43223500D01*
X104711500Y-43223500D01*
X104711500Y-43243500D01*
X105904655Y-43243500D01*
X106025976Y-43013610D01*
X105981325Y-42866401D01*
X105856141Y-42603580D01*
X105682088Y-42370231D01*
X105598034Y-42294466D01*
X105678680Y-42270002D01*
X105788994Y-42211037D01*
X105885685Y-42131685D01*
X105965037Y-42034994D01*
X106024002Y-41924680D01*
X106060312Y-41804982D01*
X106072572Y-41680500D01*
X106072572Y-39980500D01*
X106060312Y-39856018D01*
X106024002Y-39736320D01*
X105965037Y-39626006D01*
X105885685Y-39529315D01*
X105788994Y-39449963D01*
X105678680Y-39390998D01*
X105558982Y-39354688D01*
X105434500Y-39342428D01*
X105394500Y-39342428D01*
X105394500Y-38737512D01*
X108236001Y-35896012D01*
X108236001Y-36425702D01*
X108232081Y-36465500D01*
X108247721Y-36624287D01*
X108294038Y-36776973D01*
X108369251Y-36917689D01*
X108424852Y-36985439D01*
X108470473Y-37041028D01*
X108501383Y-37066395D01*
X109838129Y-38403142D01*
X109875774Y-38592398D01*
X109953795Y-38780756D01*
X110067063Y-38950274D01*
X110211226Y-39094437D01*
X110380744Y-39207705D01*
X110569102Y-39285726D01*
X110769061Y-39325500D01*
X110972939Y-39325500D01*
X111172898Y-39285726D01*
X111361256Y-39207705D01*
X111530774Y-39094437D01*
X111674937Y-38950274D01*
X111788205Y-38780756D01*
X111866226Y-38592398D01*
X111906000Y-38392439D01*
X111906000Y-38188561D01*
X111866226Y-37988602D01*
X111788205Y-37800244D01*
X111674937Y-37630726D01*
X111530774Y-37486563D01*
X111361256Y-37373295D01*
X111172898Y-37295274D01*
X110983642Y-37257629D01*
X109856000Y-36129988D01*
X109856000Y-35272132D01*
X109874482Y-35270312D01*
X109994180Y-35234002D01*
X110104494Y-35175037D01*
X110201185Y-35095685D01*
X110280537Y-34998994D01*
X110339502Y-34888680D01*
X110375812Y-34768982D01*
X110388072Y-34644500D01*
X110388072Y-33808620D01*
X117707000Y-33808620D01*
X117707000Y-34072380D01*
X117758457Y-34331072D01*
X117859393Y-34574754D01*
X118005931Y-34794063D01*
X118192437Y-34980569D01*
X118411746Y-35127107D01*
X118655428Y-35228043D01*
X118914120Y-35279500D01*
X119177880Y-35279500D01*
X119436572Y-35228043D01*
X119680254Y-35127107D01*
X119899563Y-34980569D01*
X120086069Y-34794063D01*
X120232607Y-34574754D01*
X120333543Y-34331072D01*
X120385000Y-34072380D01*
X120385000Y-33808620D01*
X120333543Y-33549928D01*
X120232607Y-33306246D01*
X120086069Y-33086937D01*
X119899563Y-32900431D01*
X119680254Y-32753893D01*
X119436572Y-32652957D01*
X119177880Y-32601500D01*
X118914120Y-32601500D01*
X118655428Y-32652957D01*
X118411746Y-32753893D01*
X118192437Y-32900431D01*
X118005931Y-33086937D01*
X117859393Y-33306246D01*
X117758457Y-33549928D01*
X117707000Y-33808620D01*
X110388072Y-33808620D01*
X110388072Y-33236500D01*
X110375812Y-33112018D01*
X110339502Y-32992320D01*
X110280537Y-32882006D01*
X110201185Y-32785315D01*
X110104494Y-32705963D01*
X109994180Y-32646998D01*
X109874482Y-32610688D01*
X109750000Y-32598428D01*
X108342000Y-32598428D01*
X108217518Y-32610688D01*
X108097820Y-32646998D01*
X107987506Y-32705963D01*
X107890815Y-32785315D01*
X107811463Y-32882006D01*
X107752498Y-32992320D01*
X107716188Y-33112018D01*
X107703928Y-33236500D01*
X107703928Y-34137059D01*
X104039883Y-37801105D01*
X104008973Y-37826472D01*
X103983608Y-37857380D01*
X103907751Y-37949811D01*
X103832538Y-38090527D01*
X103802800Y-38188561D01*
X103786221Y-38243213D01*
X103770581Y-38402000D01*
X103774501Y-38441798D01*
X103774501Y-39342428D01*
X103734500Y-39342428D01*
X103610018Y-39354688D01*
X103490320Y-39390998D01*
X103380006Y-39449963D01*
X103283315Y-39529315D01*
X103203963Y-39626006D01*
X103144998Y-39736320D01*
X103108688Y-39856018D01*
X103096428Y-39980500D01*
X102324524Y-39980500D01*
X102396227Y-39807397D01*
X102436001Y-39607438D01*
X102436001Y-39403560D01*
X102396227Y-39203601D01*
X102318206Y-39015243D01*
X102204938Y-38845725D01*
X102060775Y-38701562D01*
X101891257Y-38588294D01*
X101702899Y-38510273D01*
X101502940Y-38470499D01*
X101299062Y-38470499D01*
X101099103Y-38510273D01*
X100910745Y-38588294D01*
X100750301Y-38695499D01*
X100285089Y-38695499D01*
X100245301Y-38691580D01*
X100205513Y-38695499D01*
X100205510Y-38695499D01*
X100086513Y-38707219D01*
X99933828Y-38753536D01*
X99882903Y-38780756D01*
X99793111Y-38828750D01*
X99747688Y-38866028D01*
X99669773Y-38929971D01*
X99644406Y-38960881D01*
X99148559Y-39456728D01*
X97956000Y-39456728D01*
X97831518Y-39468988D01*
X97711820Y-39505298D01*
X97601506Y-39564263D01*
X97504815Y-39643615D01*
X97425463Y-39740306D01*
X97366498Y-39850620D01*
X97330188Y-39970318D01*
X97317928Y-40094800D01*
X97317928Y-40134800D01*
X78534486Y-40134800D01*
X78494698Y-40130881D01*
X78454910Y-40134800D01*
X78454907Y-40134800D01*
X78335910Y-40146520D01*
X78218761Y-40182057D01*
X78183224Y-40192837D01*
X78062320Y-40257462D01*
X78042509Y-40268051D01*
X77919170Y-40369272D01*
X77893805Y-40400180D01*
X77003486Y-41290500D01*
X69635787Y-41290500D01*
X69595999Y-41286581D01*
X69556211Y-41290500D01*
X69556209Y-41290500D01*
X69437212Y-41302220D01*
X69284527Y-41348537D01*
X69219024Y-41383549D01*
X69143810Y-41423751D01*
X69088210Y-41469381D01*
X69020472Y-41524972D01*
X68995107Y-41555880D01*
X65458429Y-45092559D01*
X65297260Y-45060500D01*
X65004740Y-45060500D01*
X64717842Y-45117568D01*
X64447589Y-45229510D01*
X64204368Y-45392025D01*
X64072513Y-45523880D01*
X64050502Y-45451320D01*
X63991537Y-45341006D01*
X63912185Y-45244315D01*
X63815494Y-45164963D01*
X63705180Y-45105998D01*
X63585482Y-45069688D01*
X63461000Y-45057428D01*
X61761000Y-45057428D01*
X61636518Y-45069688D01*
X61516820Y-45105998D01*
X61406506Y-45164963D01*
X61309815Y-45244315D01*
X61230463Y-45341006D01*
X61171498Y-45451320D01*
X61135188Y-45571018D01*
X61122928Y-45695500D01*
X61122928Y-47395500D01*
X61135188Y-47519982D01*
X61171498Y-47639680D01*
X61230463Y-47749994D01*
X61309815Y-47846685D01*
X61406506Y-47926037D01*
X61516820Y-47985002D01*
X61589380Y-48007013D01*
X61457525Y-48138868D01*
X61332822Y-48325500D01*
X58171211Y-48325500D01*
X58127274Y-48281563D01*
X57957756Y-48168295D01*
X57769398Y-48090274D01*
X57569439Y-48050500D01*
X57365561Y-48050500D01*
X57165602Y-48090274D01*
X56977244Y-48168295D01*
X56807726Y-48281563D01*
X56663563Y-48425726D01*
X56550295Y-48595244D01*
X56472274Y-48783602D01*
X56432500Y-48983561D01*
X42670000Y-48983561D01*
X42670000Y-45788711D01*
X42713937Y-45744774D01*
X42827205Y-45575256D01*
X42905226Y-45386898D01*
X42945000Y-45186939D01*
X42945000Y-44983061D01*
X42905226Y-44783102D01*
X42827205Y-44594744D01*
X42713937Y-44425226D01*
X42569774Y-44281063D01*
X42400256Y-44167795D01*
X42211898Y-44089774D01*
X42011939Y-44050000D01*
X41808061Y-44050000D01*
X41608102Y-44089774D01*
X41419744Y-44167795D01*
X41250226Y-44281063D01*
X41106063Y-44425226D01*
X40992795Y-44594744D01*
X40914774Y-44783102D01*
X40875000Y-44983061D01*
X40875000Y-45186939D01*
X40914774Y-45386898D01*
X40992795Y-45575256D01*
X41106063Y-45744774D01*
X41150001Y-45788712D01*
X41150000Y-50762677D01*
X41146324Y-50800000D01*
X41150000Y-50837322D01*
X41150000Y-50837332D01*
X41160997Y-50948985D01*
X41202407Y-51085499D01*
X41204454Y-51092246D01*
X41275026Y-51224276D01*
X41311410Y-51268610D01*
X41369999Y-51340001D01*
X41399003Y-51363804D01*
X58491201Y-68456003D01*
X58514999Y-68485001D01*
X58543997Y-68508799D01*
X58630724Y-68579974D01*
X58762753Y-68650546D01*
X58906014Y-68694003D01*
X59055000Y-68708677D01*
X59092333Y-68705000D01*
X76706094Y-68705000D01*
X76698768Y-68741829D01*
X76698768Y-68945707D01*
X76738542Y-69145666D01*
X76816563Y-69334024D01*
X76929831Y-69503542D01*
X77004909Y-69578620D01*
X77007398Y-69603896D01*
X77009403Y-69624250D01*
X77041231Y-69729173D01*
X77041231Y-69886128D01*
X77037675Y-69922233D01*
X77051866Y-70066318D01*
X77057607Y-70085244D01*
X77093894Y-70204865D01*
X77162144Y-70332552D01*
X77253993Y-70444470D01*
X77282039Y-70467487D01*
X77594972Y-70780420D01*
X77617993Y-70808471D01*
X77729911Y-70900320D01*
X77778550Y-70926318D01*
X77857597Y-70968570D01*
X77996146Y-71010598D01*
X78140231Y-71024789D01*
X78176336Y-71021233D01*
X78221009Y-71021233D01*
X78221008Y-75839660D01*
X77701816Y-76358853D01*
X77673771Y-76381869D01*
X77581922Y-76493787D01*
X77549509Y-76554428D01*
X77513672Y-76621474D01*
X77471643Y-76760022D01*
X77457452Y-76904107D01*
X77461009Y-76940222D01*
X77461008Y-80712405D01*
X77457452Y-80748510D01*
X77463689Y-80811835D01*
X77471643Y-80892594D01*
X77513671Y-81031142D01*
X77581921Y-81158829D01*
X77673770Y-81270747D01*
X77701816Y-81293764D01*
X78561000Y-82152949D01*
X78561000Y-82401047D01*
X78474320Y-82530773D01*
X78366147Y-82791926D01*
X78311000Y-83069165D01*
X78311000Y-83351835D01*
X78366147Y-83629074D01*
X78474320Y-83890227D01*
X78631363Y-84125259D01*
X78831241Y-84325137D01*
X79063759Y-84480500D01*
X78831241Y-84635863D01*
X78631363Y-84835741D01*
X78527957Y-84990500D01*
X72222302Y-84990500D01*
X36468000Y-49236199D01*
X36468000Y-49174061D01*
X36428226Y-48974102D01*
X36350205Y-48785744D01*
X36236937Y-48616226D01*
X36092774Y-48472063D01*
X35923256Y-48358795D01*
X35734898Y-48280774D01*
X35534939Y-48241000D01*
X35331061Y-48241000D01*
X35131102Y-48280774D01*
X34942744Y-48358795D01*
X34773226Y-48472063D01*
X34629063Y-48616226D01*
X34515795Y-48785744D01*
X34437774Y-48974102D01*
X34398000Y-49174061D01*
X34398000Y-49377939D01*
X34437774Y-49577898D01*
X34515795Y-49766256D01*
X34629063Y-49935774D01*
X34773226Y-50079937D01*
X34942744Y-50193205D01*
X35131102Y-50271226D01*
X35331061Y-50311000D01*
X35393199Y-50311000D01*
X71343701Y-86261503D01*
X71367499Y-86290501D01*
X71396497Y-86314299D01*
X71483224Y-86385474D01*
X71615253Y-86456046D01*
X71758514Y-86499503D01*
X71907500Y-86514177D01*
X71944833Y-86510500D01*
X78527957Y-86510500D01*
X78631363Y-86665259D01*
X78831241Y-86865137D01*
X79063759Y-87020500D01*
X78831241Y-87175863D01*
X78631363Y-87375741D01*
X78474320Y-87610773D01*
X78366147Y-87871926D01*
X78311000Y-88149165D01*
X78311000Y-88431835D01*
X78366147Y-88709074D01*
X78474320Y-88970227D01*
X78631363Y-89205259D01*
X78831241Y-89405137D01*
X79063759Y-89560500D01*
X78831241Y-89715863D01*
X78631363Y-89915741D01*
X78474320Y-90150773D01*
X78366147Y-90411926D01*
X78311000Y-90689165D01*
X78311000Y-90971835D01*
X78347312Y-91154387D01*
X78110001Y-91391697D01*
X78080998Y-91415500D01*
X78025870Y-91482675D01*
X77986025Y-91531225D01*
X77966411Y-91567920D01*
X77915453Y-91663255D01*
X77871996Y-91806516D01*
X77860999Y-91918169D01*
X77860999Y-91918179D01*
X77857323Y-91955501D01*
X77860999Y-91992823D01*
X77861000Y-105650698D01*
X72261000Y-100050699D01*
X72261000Y-91413825D01*
X72264676Y-91376500D01*
X72261000Y-91339175D01*
X72261000Y-91339167D01*
X72250003Y-91227514D01*
X72206546Y-91084253D01*
X72135974Y-90952224D01*
X72041001Y-90836499D01*
X72012004Y-90812702D01*
X55708500Y-74509199D01*
X55708500Y-74447061D01*
X55668726Y-74247102D01*
X55590705Y-74058744D01*
X55477437Y-73889226D01*
X55333274Y-73745063D01*
X55163756Y-73631795D01*
X54975398Y-73553774D01*
X54775439Y-73514000D01*
X54571561Y-73514000D01*
X54371602Y-73553774D01*
X54183244Y-73631795D01*
X54013726Y-73745063D01*
X53869563Y-73889226D01*
X53756295Y-74058744D01*
X53678274Y-74247102D01*
X53638500Y-74447061D01*
X53638500Y-74650939D01*
X53678274Y-74850898D01*
X53756295Y-75039256D01*
X53869563Y-75208774D01*
X54013726Y-75352937D01*
X54183244Y-75466205D01*
X54371602Y-75544226D01*
X54571561Y-75584000D01*
X54633699Y-75584000D01*
X70741000Y-91691302D01*
X70741001Y-97096199D01*
X70585000Y-96940198D01*
X70585000Y-96878061D01*
X70545226Y-96678102D01*
X70467205Y-96489744D01*
X70353937Y-96320226D01*
X70209774Y-96176063D01*
X70040256Y-96062795D01*
X69851898Y-95984774D01*
X69651939Y-95945000D01*
X69448061Y-95945000D01*
X69248102Y-95984774D01*
X69059744Y-96062795D01*
X68890226Y-96176063D01*
X68746063Y-96320226D01*
X68632795Y-96489744D01*
X68554774Y-96678102D01*
X68515000Y-96878061D01*
X68515000Y-97081939D01*
X68554774Y-97281898D01*
X68632795Y-97470256D01*
X68746063Y-97639774D01*
X68890226Y-97783937D01*
X69059744Y-97897205D01*
X69248102Y-97975226D01*
X69448061Y-98015000D01*
X69510198Y-98015000D01*
X70290991Y-98795794D01*
X70290990Y-100514577D01*
X70287314Y-100551900D01*
X70290990Y-100589222D01*
X70290990Y-100589232D01*
X70301987Y-100700885D01*
X70331978Y-100799753D01*
X70345444Y-100844146D01*
X70416016Y-100976176D01*
X70452036Y-101020066D01*
X70510989Y-101091901D01*
X70539992Y-101115703D01*
X71735415Y-102311128D01*
X71642795Y-102449744D01*
X71613284Y-102520989D01*
X71567205Y-102409744D01*
X71453937Y-102240226D01*
X71309774Y-102096063D01*
X71140256Y-101982795D01*
X70951898Y-101904774D01*
X70751939Y-101865000D01*
X70548061Y-101865000D01*
X70348102Y-101904774D01*
X70159744Y-101982795D01*
X69990226Y-102096063D01*
X69846063Y-102240226D01*
X69732795Y-102409744D01*
X69700000Y-102488918D01*
X69700000Y-101749820D01*
X69703676Y-101712497D01*
X69700000Y-101675174D01*
X69700000Y-101675165D01*
X69689003Y-101563512D01*
X69645546Y-101420251D01*
X69574974Y-101288222D01*
X69480001Y-101172497D01*
X69451003Y-101148699D01*
X63612806Y-95310503D01*
X63589003Y-95281499D01*
X63473278Y-95186526D01*
X63341249Y-95115954D01*
X63197988Y-95072497D01*
X63086335Y-95061500D01*
X63086324Y-95061500D01*
X63049002Y-95057824D01*
X63011680Y-95061500D01*
X62997211Y-95061500D01*
X62953274Y-95017563D01*
X62783756Y-94904295D01*
X62595398Y-94826274D01*
X62395439Y-94786500D01*
X62191561Y-94786500D01*
X61991602Y-94826274D01*
X61803244Y-94904295D01*
X61633726Y-95017563D01*
X61589789Y-95061500D01*
X52518300Y-95061500D01*
X50897755Y-93440956D01*
X50968937Y-93369774D01*
X51082205Y-93200256D01*
X51160226Y-93011898D01*
X51200000Y-92811939D01*
X51200000Y-92608061D01*
X51160226Y-92408102D01*
X51082205Y-92219744D01*
X50968937Y-92050226D01*
X50824774Y-91906063D01*
X50655256Y-91792795D01*
X50466898Y-91714774D01*
X50266939Y-91675000D01*
X50141302Y-91675000D01*
X35198000Y-76731699D01*
X35198000Y-76669561D01*
X35158226Y-76469602D01*
X35080205Y-76281244D01*
X34966937Y-76111726D01*
X34822774Y-75967563D01*
X34653256Y-75854295D01*
X34464898Y-75776274D01*
X34264939Y-75736500D01*
X34061061Y-75736500D01*
X33861102Y-75776274D01*
X33672744Y-75854295D01*
X33503226Y-75967563D01*
X33359063Y-76111726D01*
X33245795Y-76281244D01*
X33167774Y-76469602D01*
X33128000Y-76669561D01*
X29329924Y-76669561D01*
X29312891Y-76663519D01*
X29083000Y-76784186D01*
X28829000Y-76784186D01*
X28599109Y-76663519D01*
X28324748Y-76760843D01*
X28074645Y-76909822D01*
X27858412Y-77104731D01*
X27684359Y-77338080D01*
X27559175Y-77600901D01*
X27514524Y-77748110D01*
X17907000Y-77748110D01*
X17907000Y-34861939D01*
X78765000Y-34861939D01*
X78765000Y-35115061D01*
X78814381Y-35363321D01*
X78911247Y-35597176D01*
X79051875Y-35807640D01*
X79230860Y-35986625D01*
X79441324Y-36127253D01*
X79675179Y-36224119D01*
X79923439Y-36273500D01*
X80176561Y-36273500D01*
X80424821Y-36224119D01*
X80658676Y-36127253D01*
X80869140Y-35986625D01*
X81048125Y-35807640D01*
X81188753Y-35597176D01*
X81285619Y-35363321D01*
X81335000Y-35115061D01*
X81335000Y-34861939D01*
X83765000Y-34861939D01*
X83765000Y-35115061D01*
X83814381Y-35363321D01*
X83911247Y-35597176D01*
X84051875Y-35807640D01*
X84230860Y-35986625D01*
X84441324Y-36127253D01*
X84675179Y-36224119D01*
X84923439Y-36273500D01*
X85176561Y-36273500D01*
X85424821Y-36224119D01*
X85658676Y-36127253D01*
X85869140Y-35986625D01*
X86048125Y-35807640D01*
X86188753Y-35597176D01*
X86285619Y-35363321D01*
X86335000Y-35115061D01*
X86335000Y-34861939D01*
X86285619Y-34613679D01*
X86188753Y-34379824D01*
X86048125Y-34169360D01*
X85869140Y-33990375D01*
X85658676Y-33849747D01*
X85424821Y-33752881D01*
X85176561Y-33703500D01*
X84923439Y-33703500D01*
X84675179Y-33752881D01*
X84441324Y-33849747D01*
X84230860Y-33990375D01*
X84051875Y-34169360D01*
X83911247Y-34379824D01*
X83814381Y-34613679D01*
X83765000Y-34861939D01*
X81335000Y-34861939D01*
X81285619Y-34613679D01*
X81188753Y-34379824D01*
X81048125Y-34169360D01*
X80869140Y-33990375D01*
X80658676Y-33849747D01*
X80424821Y-33752881D01*
X80176561Y-33703500D01*
X79923439Y-33703500D01*
X79675179Y-33752881D01*
X79441324Y-33849747D01*
X79230860Y-33990375D01*
X79051875Y-34169360D01*
X78911247Y-34379824D01*
X78814381Y-34613679D01*
X78765000Y-34861939D01*
X17907000Y-34861939D01*
X17907000Y-30208620D01*
X112707000Y-30208620D01*
X112707000Y-30472380D01*
X112758457Y-30731072D01*
X112859393Y-30974754D01*
X113005931Y-31194063D01*
X113192437Y-31380569D01*
X113411746Y-31527107D01*
X113655428Y-31628043D01*
X113914120Y-31679500D01*
X114177880Y-31679500D01*
X114436572Y-31628043D01*
X114680254Y-31527107D01*
X114899563Y-31380569D01*
X115086069Y-31194063D01*
X115148586Y-31100500D01*
X133071199Y-31100500D01*
X135643928Y-33673230D01*
X135643928Y-34644500D01*
X135656188Y-34768982D01*
X135692498Y-34888680D01*
X135751463Y-34998994D01*
X135830815Y-35095685D01*
X135927506Y-35175037D01*
X136037820Y-35234002D01*
X136157518Y-35270312D01*
X136282000Y-35282572D01*
X137690000Y-35282572D01*
X137814482Y-35270312D01*
X137934180Y-35234002D01*
X138044494Y-35175037D01*
X138141185Y-35095685D01*
X138220537Y-34998994D01*
X138279502Y-34888680D01*
X138315812Y-34768982D01*
X138328072Y-34644500D01*
X138328072Y-33808620D01*
X145647000Y-33808620D01*
X145647000Y-34072380D01*
X145698457Y-34331072D01*
X145799393Y-34574754D01*
X145945931Y-34794063D01*
X146132437Y-34980569D01*
X146351746Y-35127107D01*
X146595428Y-35228043D01*
X146854120Y-35279500D01*
X147117880Y-35279500D01*
X147376572Y-35228043D01*
X147620254Y-35127107D01*
X147839563Y-34980569D01*
X148026069Y-34794063D01*
X148172607Y-34574754D01*
X148273543Y-34331072D01*
X148325000Y-34072380D01*
X148325000Y-33808620D01*
X148273543Y-33549928D01*
X148172607Y-33306246D01*
X148026069Y-33086937D01*
X147839563Y-32900431D01*
X147620254Y-32753893D01*
X147376572Y-32652957D01*
X147117880Y-32601500D01*
X146854120Y-32601500D01*
X146595428Y-32652957D01*
X146351746Y-32753893D01*
X146132437Y-32900431D01*
X145945931Y-33086937D01*
X145799393Y-33306246D01*
X145698457Y-33549928D01*
X145647000Y-33808620D01*
X138328072Y-33808620D01*
X138328072Y-33236500D01*
X138315812Y-33112018D01*
X138279502Y-32992320D01*
X138220537Y-32882006D01*
X138141185Y-32785315D01*
X138044494Y-32705963D01*
X137934180Y-32646998D01*
X137814482Y-32610688D01*
X137690000Y-32598428D01*
X136718730Y-32598428D01*
X135384930Y-31264628D01*
X141241477Y-31264628D01*
X141301423Y-31498805D01*
X141540551Y-31610102D01*
X141796797Y-31672609D01*
X142060314Y-31683925D01*
X142320976Y-31643614D01*
X142568764Y-31553224D01*
X142670577Y-31498805D01*
X142730523Y-31264628D01*
X141986000Y-30520105D01*
X141241477Y-31264628D01*
X135384930Y-31264628D01*
X134535116Y-30414814D01*
X140642575Y-30414814D01*
X140682886Y-30675476D01*
X140773276Y-30923264D01*
X140827695Y-31025077D01*
X141061872Y-31085023D01*
X141806395Y-30340500D01*
X142165605Y-30340500D01*
X142910128Y-31085023D01*
X143144305Y-31025077D01*
X143255602Y-30785949D01*
X143318109Y-30529703D01*
X143329425Y-30266186D01*
X143289114Y-30005524D01*
X143198724Y-29757736D01*
X143144305Y-29655923D01*
X142910128Y-29595977D01*
X142165605Y-30340500D01*
X141806395Y-30340500D01*
X141061872Y-29595977D01*
X140827695Y-29655923D01*
X140716398Y-29895051D01*
X140653891Y-30151297D01*
X140642575Y-30414814D01*
X134535116Y-30414814D01*
X133949804Y-29829503D01*
X133926001Y-29800499D01*
X133810276Y-29705526D01*
X133678247Y-29634954D01*
X133534986Y-29591497D01*
X133423333Y-29580500D01*
X133423322Y-29580500D01*
X133386000Y-29576824D01*
X133348678Y-29580500D01*
X115148586Y-29580500D01*
X115086069Y-29486937D01*
X115015504Y-29416372D01*
X141241477Y-29416372D01*
X141986000Y-30160895D01*
X142730523Y-29416372D01*
X142670577Y-29182195D01*
X142431449Y-29070898D01*
X142175203Y-29008391D01*
X141911686Y-28997075D01*
X141651024Y-29037386D01*
X141403236Y-29127776D01*
X141301423Y-29182195D01*
X141241477Y-29416372D01*
X115015504Y-29416372D01*
X114899563Y-29300431D01*
X114680254Y-29153893D01*
X114436572Y-29052957D01*
X114177880Y-29001500D01*
X113914120Y-29001500D01*
X113655428Y-29052957D01*
X113411746Y-29153893D01*
X113192437Y-29300431D01*
X113005931Y-29486937D01*
X112859393Y-29706246D01*
X112758457Y-29949928D01*
X112707000Y-30208620D01*
X17907000Y-30208620D01*
X17907000Y-25182606D01*
X18832606Y-24257000D01*
X171667394Y-24257000D01*
X172593000Y-25182606D01*
G04 #@! TA.AperFunction,Conductor*
D25*
G36*
X172593000Y-25182606D02*
G01*
X172593000Y-150077394D01*
X171667394Y-151003000D01*
X18832606Y-151003000D01*
X17907000Y-150077394D01*
X17907000Y-141946890D01*
X157848524Y-141946890D01*
X157893175Y-142094099D01*
X158018359Y-142356920D01*
X158192412Y-142590269D01*
X158408645Y-142785178D01*
X158658748Y-142934157D01*
X158933109Y-143031481D01*
X159163000Y-142910814D01*
X159163000Y-141717000D01*
X159417000Y-141717000D01*
X159417000Y-142910814D01*
X159646891Y-143031481D01*
X159921252Y-142934157D01*
X160171355Y-142785178D01*
X160387588Y-142590269D01*
X160561641Y-142356920D01*
X160686825Y-142094099D01*
X160731476Y-141946890D01*
X160610155Y-141717000D01*
X159417000Y-141717000D01*
X159163000Y-141717000D01*
X157969845Y-141717000D01*
X157848524Y-141946890D01*
X17907000Y-141946890D01*
X17907000Y-136206890D01*
X40678524Y-136206890D01*
X40723175Y-136354099D01*
X40848359Y-136616920D01*
X41022412Y-136850269D01*
X41238645Y-137045178D01*
X41488748Y-137194157D01*
X41763109Y-137291481D01*
X41993000Y-137170814D01*
X41993000Y-135977000D01*
X42247000Y-135977000D01*
X42247000Y-137170814D01*
X42476891Y-137291481D01*
X42751252Y-137194157D01*
X43001355Y-137045178D01*
X43217588Y-136850269D01*
X43391641Y-136616920D01*
X43516825Y-136354099D01*
X43561476Y-136206890D01*
X43550922Y-136186890D01*
X52988524Y-136186890D01*
X53033175Y-136334099D01*
X53158359Y-136596920D01*
X53332412Y-136830269D01*
X53548645Y-137025178D01*
X53798748Y-137174157D01*
X54073109Y-137271481D01*
X54303000Y-137150814D01*
X54303000Y-135957000D01*
X54557000Y-135957000D01*
X54557000Y-137150814D01*
X54786891Y-137271481D01*
X55061252Y-137174157D01*
X55311355Y-137025178D01*
X55527588Y-136830269D01*
X55701641Y-136596920D01*
X55826825Y-136334099D01*
X55871476Y-136186890D01*
X55750155Y-135957000D01*
X54557000Y-135957000D01*
X54303000Y-135957000D01*
X53109845Y-135957000D01*
X52988524Y-136186890D01*
X43550922Y-136186890D01*
X43440155Y-135977000D01*
X42247000Y-135977000D01*
X41993000Y-135977000D01*
X40799845Y-135977000D01*
X40678524Y-136206890D01*
X17907000Y-136206890D01*
X17907000Y-124996890D01*
X40668524Y-124996890D01*
X40713175Y-125144099D01*
X40838359Y-125406920D01*
X41012412Y-125640269D01*
X41228645Y-125835178D01*
X41478748Y-125984157D01*
X41753109Y-126081481D01*
X41983000Y-125960814D01*
X41983000Y-124767000D01*
X42237000Y-124767000D01*
X42237000Y-125960814D01*
X42466891Y-126081481D01*
X42741252Y-125984157D01*
X42991355Y-125835178D01*
X43207588Y-125640269D01*
X43381641Y-125406920D01*
X43506825Y-125144099D01*
X43548442Y-125006890D01*
X52988524Y-125006890D01*
X53033175Y-125154099D01*
X53158359Y-125416920D01*
X53332412Y-125650269D01*
X53548645Y-125845178D01*
X53798748Y-125994157D01*
X54073109Y-126091481D01*
X54303000Y-125970814D01*
X54303000Y-124777000D01*
X54557000Y-124777000D01*
X54557000Y-125970814D01*
X54786891Y-126091481D01*
X55061252Y-125994157D01*
X55311355Y-125845178D01*
X55527588Y-125650269D01*
X55701641Y-125416920D01*
X55826825Y-125154099D01*
X55871476Y-125006890D01*
X55750155Y-124777000D01*
X54557000Y-124777000D01*
X54303000Y-124777000D01*
X53109845Y-124777000D01*
X52988524Y-125006890D01*
X43548442Y-125006890D01*
X43551476Y-124996890D01*
X43430155Y-124767000D01*
X42237000Y-124767000D01*
X41983000Y-124767000D01*
X40789845Y-124767000D01*
X40668524Y-124996890D01*
X17907000Y-124996890D01*
X17907000Y-85041000D01*
X23796324Y-85041000D01*
X23800001Y-85078333D01*
X23800000Y-105612678D01*
X23796324Y-105650000D01*
X23800000Y-105687322D01*
X23800000Y-105687332D01*
X23810997Y-105798985D01*
X23850486Y-105929165D01*
X23854454Y-105942246D01*
X23925026Y-106074276D01*
X23964871Y-106122826D01*
X24019999Y-106190001D01*
X24049003Y-106213804D01*
X40446201Y-122611003D01*
X40469999Y-122640001D01*
X40498997Y-122663799D01*
X40585723Y-122734974D01*
X40604432Y-122744974D01*
X40621928Y-122754326D01*
X40621928Y-122950000D01*
X40634188Y-123074482D01*
X40670498Y-123194180D01*
X40729463Y-123304494D01*
X40808815Y-123401185D01*
X40905506Y-123480537D01*
X41015820Y-123539502D01*
X41096466Y-123563966D01*
X41012412Y-123639731D01*
X40838359Y-123873080D01*
X40713175Y-124135901D01*
X40668524Y-124283110D01*
X40789845Y-124513000D01*
X41983000Y-124513000D01*
X41983000Y-124493000D01*
X42237000Y-124493000D01*
X42237000Y-124513000D01*
X43430155Y-124513000D01*
X43551476Y-124283110D01*
X43506825Y-124135901D01*
X43381641Y-123873080D01*
X43207588Y-123639731D01*
X43123534Y-123563966D01*
X43204180Y-123539502D01*
X43314494Y-123480537D01*
X43411185Y-123401185D01*
X43490537Y-123304494D01*
X43549502Y-123194180D01*
X43585812Y-123074482D01*
X43598072Y-122950000D01*
X43598072Y-121250000D01*
X43585812Y-121125518D01*
X43549502Y-121005820D01*
X43490537Y-120895506D01*
X43411185Y-120798815D01*
X43314494Y-120719463D01*
X43204180Y-120660498D01*
X43084482Y-120624188D01*
X42960000Y-120611928D01*
X41260000Y-120611928D01*
X41135518Y-120624188D01*
X41015820Y-120660498D01*
X40905506Y-120719463D01*
X40808815Y-120798815D01*
X40797457Y-120812655D01*
X25320000Y-105335199D01*
X25320000Y-102655000D01*
X27467928Y-102655000D01*
X27467928Y-104355000D01*
X27480188Y-104479482D01*
X27516498Y-104599180D01*
X27575463Y-104709494D01*
X27654815Y-104806185D01*
X27751506Y-104885537D01*
X27861820Y-104944502D01*
X27981518Y-104980812D01*
X28106000Y-104993072D01*
X29369271Y-104993072D01*
X46997201Y-122621003D01*
X47020999Y-122650001D01*
X47136724Y-122744974D01*
X47268753Y-122815546D01*
X47412014Y-122859003D01*
X47523667Y-122870000D01*
X47523676Y-122870000D01*
X47560999Y-122873676D01*
X47598322Y-122870000D01*
X52941928Y-122870000D01*
X52941928Y-122960000D01*
X52954188Y-123084482D01*
X52990498Y-123204180D01*
X53049463Y-123314494D01*
X53128815Y-123411185D01*
X53225506Y-123490537D01*
X53335820Y-123549502D01*
X53416466Y-123573966D01*
X53332412Y-123649731D01*
X53158359Y-123883080D01*
X53033175Y-124145901D01*
X52988524Y-124293110D01*
X53109845Y-124523000D01*
X54303000Y-124523000D01*
X54303000Y-124503000D01*
X54557000Y-124503000D01*
X54557000Y-124523000D01*
X55750155Y-124523000D01*
X55871476Y-124293110D01*
X55826825Y-124145901D01*
X55701641Y-123883080D01*
X55527588Y-123649731D01*
X55443534Y-123573966D01*
X55524180Y-123549502D01*
X55634494Y-123490537D01*
X55731185Y-123411185D01*
X55810537Y-123314494D01*
X55869502Y-123204180D01*
X55905812Y-123084482D01*
X55918072Y-122960000D01*
X55918072Y-121260000D01*
X55905812Y-121135518D01*
X55869502Y-121015820D01*
X55810537Y-120905506D01*
X55731185Y-120808815D01*
X55634494Y-120729463D01*
X55524180Y-120670498D01*
X55404482Y-120634188D01*
X55280000Y-120621928D01*
X53580000Y-120621928D01*
X53455518Y-120634188D01*
X53335820Y-120670498D01*
X53225506Y-120729463D01*
X53128815Y-120808815D01*
X53049463Y-120905506D01*
X52990498Y-121015820D01*
X52954188Y-121135518D01*
X52941928Y-121260000D01*
X52941928Y-121350000D01*
X47875802Y-121350000D01*
X30790801Y-104265000D01*
X32189289Y-104265000D01*
X32233226Y-104308937D01*
X32402744Y-104422205D01*
X32591102Y-104500226D01*
X32791061Y-104540000D01*
X32994939Y-104540000D01*
X33194898Y-104500226D01*
X33383256Y-104422205D01*
X33552774Y-104308937D01*
X33696937Y-104164774D01*
X33810205Y-103995256D01*
X33888226Y-103806898D01*
X33928000Y-103606939D01*
X33928000Y-103403061D01*
X33888226Y-103203102D01*
X33810205Y-103014744D01*
X33696937Y-102845226D01*
X33552774Y-102701063D01*
X33383256Y-102587795D01*
X33194898Y-102509774D01*
X32994939Y-102470000D01*
X32791061Y-102470000D01*
X32591102Y-102509774D01*
X32402744Y-102587795D01*
X32233226Y-102701063D01*
X32189289Y-102745000D01*
X30444072Y-102745000D01*
X30444072Y-102655000D01*
X30431812Y-102530518D01*
X30395502Y-102410820D01*
X30336537Y-102300506D01*
X30257185Y-102203815D01*
X30160494Y-102124463D01*
X30050180Y-102065498D01*
X29969534Y-102041034D01*
X30053588Y-101965269D01*
X30227641Y-101731920D01*
X30352825Y-101469099D01*
X30397476Y-101321890D01*
X30276155Y-101092000D01*
X29083000Y-101092000D01*
X29083000Y-101112000D01*
X28829000Y-101112000D01*
X28829000Y-101092000D01*
X27635845Y-101092000D01*
X27514524Y-101321890D01*
X27559175Y-101469099D01*
X27684359Y-101731920D01*
X27858412Y-101965269D01*
X27942466Y-102041034D01*
X27861820Y-102065498D01*
X27751506Y-102124463D01*
X27654815Y-102203815D01*
X27575463Y-102300506D01*
X27516498Y-102410820D01*
X27480188Y-102530518D01*
X27467928Y-102655000D01*
X25320000Y-102655000D01*
X25320000Y-100608110D01*
X27514524Y-100608110D01*
X27635845Y-100838000D01*
X28829000Y-100838000D01*
X28829000Y-99644186D01*
X29083000Y-99644186D01*
X29083000Y-100838000D01*
X30276155Y-100838000D01*
X30397476Y-100608110D01*
X30352825Y-100460901D01*
X30227641Y-100198080D01*
X30053588Y-99964731D01*
X29837355Y-99769822D01*
X29587252Y-99620843D01*
X29312891Y-99523519D01*
X29083000Y-99644186D01*
X28829000Y-99644186D01*
X28599109Y-99523519D01*
X28324748Y-99620843D01*
X28074645Y-99769822D01*
X27858412Y-99964731D01*
X27684359Y-100198080D01*
X27559175Y-100460901D01*
X27514524Y-100608110D01*
X25320000Y-100608110D01*
X25320000Y-85355801D01*
X28542730Y-82133072D01*
X29806000Y-82133072D01*
X29930482Y-82120812D01*
X30050180Y-82084502D01*
X30160494Y-82025537D01*
X30257185Y-81946185D01*
X30336537Y-81849494D01*
X30395502Y-81739180D01*
X30431812Y-81619482D01*
X30444072Y-81495000D01*
X30444072Y-81405000D01*
X32246789Y-81405000D01*
X32306226Y-81464437D01*
X32475744Y-81577705D01*
X32664102Y-81655726D01*
X32864061Y-81695500D01*
X33067939Y-81695500D01*
X33267898Y-81655726D01*
X33456256Y-81577705D01*
X33625774Y-81464437D01*
X33769937Y-81320274D01*
X33883205Y-81150756D01*
X33961226Y-80962398D01*
X34001000Y-80762439D01*
X34001000Y-80558561D01*
X33961226Y-80358602D01*
X33883205Y-80170244D01*
X33769937Y-80000726D01*
X33625774Y-79856563D01*
X33456256Y-79743295D01*
X33267898Y-79665274D01*
X33067939Y-79625500D01*
X32864061Y-79625500D01*
X32664102Y-79665274D01*
X32475744Y-79743295D01*
X32306226Y-79856563D01*
X32277789Y-79885000D01*
X30444072Y-79885000D01*
X30444072Y-79795000D01*
X30431812Y-79670518D01*
X30395502Y-79550820D01*
X30336537Y-79440506D01*
X30257185Y-79343815D01*
X30160494Y-79264463D01*
X30050180Y-79205498D01*
X29969534Y-79181034D01*
X30053588Y-79105269D01*
X30227641Y-78871920D01*
X30352825Y-78609099D01*
X30397476Y-78461890D01*
X30276155Y-78232000D01*
X29083000Y-78232000D01*
X29083000Y-78252000D01*
X28829000Y-78252000D01*
X28829000Y-78232000D01*
X27635845Y-78232000D01*
X27514524Y-78461890D01*
X27559175Y-78609099D01*
X27684359Y-78871920D01*
X27858412Y-79105269D01*
X27942466Y-79181034D01*
X27861820Y-79205498D01*
X27751506Y-79264463D01*
X27654815Y-79343815D01*
X27575463Y-79440506D01*
X27516498Y-79550820D01*
X27480188Y-79670518D01*
X27467928Y-79795000D01*
X27467928Y-81058270D01*
X24048998Y-84477201D01*
X24020000Y-84500999D01*
X23996202Y-84529997D01*
X23996201Y-84529998D01*
X23925026Y-84616724D01*
X23854454Y-84748754D01*
X23810998Y-84892015D01*
X23796324Y-85041000D01*
X17907000Y-85041000D01*
X17907000Y-77748110D01*
X27514524Y-77748110D01*
X27635845Y-77978000D01*
X28829000Y-77978000D01*
X28829000Y-76784186D01*
X29083000Y-76784186D01*
X29083000Y-77978000D01*
X30276155Y-77978000D01*
X30397476Y-77748110D01*
X30352825Y-77600901D01*
X30227641Y-77338080D01*
X30053588Y-77104731D01*
X29837355Y-76909822D01*
X29587252Y-76760843D01*
X29329924Y-76669561D01*
X33128000Y-76669561D01*
X33128000Y-76873439D01*
X33167774Y-77073398D01*
X33245795Y-77261756D01*
X33359063Y-77431274D01*
X33503226Y-77575437D01*
X33672744Y-77688705D01*
X33861102Y-77766726D01*
X34061061Y-77806500D01*
X34123199Y-77806500D01*
X40329199Y-84012500D01*
X39819711Y-84012500D01*
X39775774Y-83968563D01*
X39606256Y-83855295D01*
X39417898Y-83777274D01*
X39217939Y-83737500D01*
X39014061Y-83737500D01*
X38814102Y-83777274D01*
X38625744Y-83855295D01*
X38456226Y-83968563D01*
X38312063Y-84112726D01*
X38198795Y-84282244D01*
X38120774Y-84470602D01*
X38081000Y-84670561D01*
X38081000Y-84874439D01*
X38120774Y-85074398D01*
X38198795Y-85262756D01*
X38312063Y-85432274D01*
X38456226Y-85576437D01*
X38625744Y-85689705D01*
X38814102Y-85767726D01*
X39014061Y-85807500D01*
X39217939Y-85807500D01*
X39417898Y-85767726D01*
X39606256Y-85689705D01*
X39775774Y-85576437D01*
X39819711Y-85532500D01*
X41212789Y-85532500D01*
X45018496Y-89338209D01*
X45018507Y-89338218D01*
X48679999Y-92999711D01*
X48679999Y-93020679D01*
X48676323Y-93058001D01*
X48679999Y-93095323D01*
X48679999Y-93095334D01*
X48690996Y-93206987D01*
X48734453Y-93350248D01*
X48805025Y-93482277D01*
X48899998Y-93598002D01*
X48929000Y-93621804D01*
X51639698Y-96332502D01*
X51663497Y-96361501D01*
X51779222Y-96456474D01*
X51911251Y-96527046D01*
X52054512Y-96570503D01*
X52166165Y-96581500D01*
X52166173Y-96581500D01*
X52203498Y-96585176D01*
X52240823Y-96581500D01*
X61589789Y-96581500D01*
X61633726Y-96625437D01*
X61803244Y-96738705D01*
X61991602Y-96816726D01*
X62191561Y-96856500D01*
X62395439Y-96856500D01*
X62595398Y-96816726D01*
X62783756Y-96738705D01*
X62848287Y-96695587D01*
X66069245Y-99916544D01*
X65998063Y-99987726D01*
X65884795Y-100157244D01*
X65806774Y-100345602D01*
X65767000Y-100545561D01*
X65767000Y-100749439D01*
X65806774Y-100949398D01*
X65884795Y-101137756D01*
X65998063Y-101307274D01*
X66042000Y-101351211D01*
X66042001Y-107577076D01*
X65803368Y-107736525D01*
X65596525Y-107943368D01*
X65434010Y-108186589D01*
X65322068Y-108456842D01*
X65265000Y-108743740D01*
X65265000Y-109036260D01*
X65322068Y-109323158D01*
X65434010Y-109593411D01*
X65596525Y-109836632D01*
X65728380Y-109968487D01*
X65655820Y-109990498D01*
X65545506Y-110049463D01*
X65448815Y-110128815D01*
X65369463Y-110225506D01*
X65310498Y-110335820D01*
X65274188Y-110455518D01*
X65261928Y-110580000D01*
X65261928Y-112280000D01*
X65274188Y-112404482D01*
X65310498Y-112524180D01*
X65369463Y-112634494D01*
X65448815Y-112731185D01*
X65545506Y-112810537D01*
X65655820Y-112869502D01*
X65775518Y-112905812D01*
X65900000Y-112918072D01*
X67600000Y-112918072D01*
X67724482Y-112905812D01*
X67844180Y-112869502D01*
X67954494Y-112810537D01*
X68051185Y-112731185D01*
X68130537Y-112634494D01*
X68189502Y-112524180D01*
X68225812Y-112404482D01*
X68238072Y-112280000D01*
X68238072Y-112190000D01*
X68262678Y-112190000D01*
X68300000Y-112193676D01*
X68337322Y-112190000D01*
X68337333Y-112190000D01*
X68448986Y-112179003D01*
X68592247Y-112135546D01*
X68724276Y-112064974D01*
X68840001Y-111970001D01*
X68863804Y-111940997D01*
X70261003Y-110543799D01*
X70290001Y-110520001D01*
X70384974Y-110404276D01*
X70455546Y-110272247D01*
X70499003Y-110128986D01*
X70510000Y-110017333D01*
X70510000Y-110017325D01*
X70513676Y-109980000D01*
X70510000Y-109942675D01*
X70510000Y-109363711D01*
X70553937Y-109319774D01*
X70667205Y-109150256D01*
X70745226Y-108961898D01*
X70785000Y-108761939D01*
X70785000Y-108558061D01*
X70745226Y-108358102D01*
X70667205Y-108169744D01*
X70553937Y-108000226D01*
X70409774Y-107856063D01*
X70240256Y-107742795D01*
X70051898Y-107664774D01*
X69851939Y-107625000D01*
X69648061Y-107625000D01*
X69448102Y-107664774D01*
X69259744Y-107742795D01*
X69090226Y-107856063D01*
X68946063Y-108000226D01*
X68832795Y-108169744D01*
X68754774Y-108358102D01*
X68715000Y-108558061D01*
X68715000Y-108761939D01*
X68754774Y-108961898D01*
X68832795Y-109150256D01*
X68946063Y-109319774D01*
X68990001Y-109363712D01*
X68990001Y-109665197D01*
X68219730Y-110435469D01*
X68189502Y-110335820D01*
X68130537Y-110225506D01*
X68051185Y-110128815D01*
X67954494Y-110049463D01*
X67844180Y-109990498D01*
X67771620Y-109968487D01*
X67903475Y-109836632D01*
X68065990Y-109593411D01*
X68177932Y-109323158D01*
X68235000Y-109036260D01*
X68235000Y-108743740D01*
X68177932Y-108456842D01*
X68065990Y-108186589D01*
X67903475Y-107943368D01*
X67696632Y-107736525D01*
X67562000Y-107646567D01*
X67562000Y-101409300D01*
X68180001Y-102027301D01*
X68180000Y-103192677D01*
X68176324Y-103230000D01*
X68180000Y-103267322D01*
X68180000Y-103267332D01*
X68190997Y-103378985D01*
X68222487Y-103482795D01*
X68234454Y-103522246D01*
X68286560Y-103619729D01*
X68166063Y-103740226D01*
X68052795Y-103909744D01*
X67974774Y-104098102D01*
X67935000Y-104298061D01*
X67935000Y-104501939D01*
X67974774Y-104701898D01*
X68052795Y-104890256D01*
X68166063Y-105059774D01*
X68310226Y-105203937D01*
X68479744Y-105317205D01*
X68668102Y-105395226D01*
X68868061Y-105435000D01*
X68930199Y-105435000D01*
X71385002Y-107889805D01*
X71385001Y-114105000D01*
X71318061Y-114105000D01*
X71118102Y-114144774D01*
X70929744Y-114222795D01*
X70760226Y-114336063D01*
X70616063Y-114480226D01*
X70502795Y-114649744D01*
X70424774Y-114838102D01*
X70385000Y-115038061D01*
X70385000Y-115100198D01*
X65365000Y-120120198D01*
X65365000Y-119998061D01*
X65325226Y-119798102D01*
X65247205Y-119609744D01*
X65133937Y-119440226D01*
X64989774Y-119296063D01*
X64820256Y-119182795D01*
X64631898Y-119104774D01*
X64431939Y-119065000D01*
X64369802Y-119065000D01*
X51410000Y-106105199D01*
X51410000Y-99617333D01*
X51413677Y-99580000D01*
X51399003Y-99431014D01*
X51355546Y-99287753D01*
X51284974Y-99155724D01*
X51213799Y-99068997D01*
X51190001Y-99039999D01*
X51161003Y-99016201D01*
X46925000Y-94780199D01*
X46925000Y-94718061D01*
X46885226Y-94518102D01*
X46807205Y-94329744D01*
X46693937Y-94160226D01*
X46549774Y-94016063D01*
X46380256Y-93902795D01*
X46191898Y-93824774D01*
X45991939Y-93785000D01*
X45788061Y-93785000D01*
X45588102Y-93824774D01*
X45399744Y-93902795D01*
X45230226Y-94016063D01*
X45086063Y-94160226D01*
X44972795Y-94329744D01*
X44894774Y-94518102D01*
X44855000Y-94718061D01*
X44855000Y-94921939D01*
X44894774Y-95121898D01*
X44972795Y-95310256D01*
X45086063Y-95479774D01*
X45230226Y-95623937D01*
X45399744Y-95737205D01*
X45588102Y-95815226D01*
X45788061Y-95855000D01*
X45850199Y-95855000D01*
X49890001Y-99894803D01*
X49890000Y-106382677D01*
X49886324Y-106420000D01*
X49890000Y-106457322D01*
X49890000Y-106457332D01*
X49900997Y-106568985D01*
X49927241Y-106655500D01*
X49944454Y-106712246D01*
X50015026Y-106844276D01*
X50039779Y-106874437D01*
X50109999Y-106960001D01*
X50139003Y-106983804D01*
X63295000Y-120139802D01*
X63295000Y-120201939D01*
X63334774Y-120401898D01*
X63412795Y-120590256D01*
X63526063Y-120759774D01*
X63670226Y-120903937D01*
X63839744Y-121017205D01*
X64028102Y-121095226D01*
X64228061Y-121135000D01*
X64350199Y-121135000D01*
X58345199Y-127140000D01*
X55157322Y-127140000D01*
X55119999Y-127136324D01*
X55082676Y-127140000D01*
X55082667Y-127140000D01*
X54971014Y-127150997D01*
X54827753Y-127194454D01*
X54695724Y-127265026D01*
X54579999Y-127359999D01*
X54556201Y-127388997D01*
X49395199Y-132550000D01*
X43608072Y-132550000D01*
X43608072Y-132460000D01*
X43595812Y-132335518D01*
X43559502Y-132215820D01*
X43500537Y-132105506D01*
X43421185Y-132008815D01*
X43324494Y-131929463D01*
X43214180Y-131870498D01*
X43094482Y-131834188D01*
X42970000Y-131821928D01*
X41270000Y-131821928D01*
X41145518Y-131834188D01*
X41025820Y-131870498D01*
X40915506Y-131929463D01*
X40818815Y-132008815D01*
X40739463Y-132105506D01*
X40680498Y-132215820D01*
X40644188Y-132335518D01*
X40631928Y-132460000D01*
X40631928Y-134160000D01*
X40644188Y-134284482D01*
X40680498Y-134404180D01*
X40739463Y-134514494D01*
X40818815Y-134611185D01*
X40915506Y-134690537D01*
X41025820Y-134749502D01*
X41106466Y-134773966D01*
X41022412Y-134849731D01*
X40848359Y-135083080D01*
X40723175Y-135345901D01*
X40678524Y-135493110D01*
X40799845Y-135723000D01*
X41993000Y-135723000D01*
X41993000Y-135703000D01*
X42247000Y-135703000D01*
X42247000Y-135723000D01*
X43440155Y-135723000D01*
X43561476Y-135493110D01*
X43516825Y-135345901D01*
X43391641Y-135083080D01*
X43217588Y-134849731D01*
X43133534Y-134773966D01*
X43214180Y-134749502D01*
X43324494Y-134690537D01*
X43421185Y-134611185D01*
X43500537Y-134514494D01*
X43559502Y-134404180D01*
X43595812Y-134284482D01*
X43608072Y-134160000D01*
X43608072Y-134070000D01*
X49672678Y-134070000D01*
X49710000Y-134073676D01*
X49747322Y-134070000D01*
X49747333Y-134070000D01*
X49858986Y-134059003D01*
X50002247Y-134015546D01*
X50134276Y-133944974D01*
X50250001Y-133850001D01*
X50273804Y-133820997D01*
X51654801Y-132440000D01*
X52941928Y-132440000D01*
X52941928Y-134140000D01*
X52954188Y-134264482D01*
X52990498Y-134384180D01*
X53049463Y-134494494D01*
X53128815Y-134591185D01*
X53225506Y-134670537D01*
X53335820Y-134729502D01*
X53416466Y-134753966D01*
X53332412Y-134829731D01*
X53158359Y-135063080D01*
X53033175Y-135325901D01*
X52988524Y-135473110D01*
X53109845Y-135703000D01*
X54303000Y-135703000D01*
X54303000Y-135683000D01*
X54557000Y-135683000D01*
X54557000Y-135703000D01*
X55750155Y-135703000D01*
X55871476Y-135473110D01*
X55826825Y-135325901D01*
X55701641Y-135063080D01*
X55527588Y-134829731D01*
X55443534Y-134753966D01*
X55524180Y-134729502D01*
X55634494Y-134670537D01*
X55731185Y-134591185D01*
X55810537Y-134494494D01*
X55869502Y-134384180D01*
X55905812Y-134264482D01*
X55918072Y-134140000D01*
X55918072Y-134050000D01*
X56262678Y-134050000D01*
X56300000Y-134053676D01*
X56337322Y-134050000D01*
X56337333Y-134050000D01*
X56448986Y-134039003D01*
X56592247Y-133995546D01*
X56724276Y-133924974D01*
X56840001Y-133830001D01*
X56863804Y-133800997D01*
X59827912Y-130836890D01*
X65468524Y-130836890D01*
X65513175Y-130984099D01*
X65638359Y-131246920D01*
X65812412Y-131480269D01*
X66028645Y-131675178D01*
X66278748Y-131824157D01*
X66553109Y-131921481D01*
X66783000Y-131800814D01*
X66783000Y-130607000D01*
X67037000Y-130607000D01*
X67037000Y-131800814D01*
X67266891Y-131921481D01*
X67541252Y-131824157D01*
X67791355Y-131675178D01*
X68007588Y-131480269D01*
X68181641Y-131246920D01*
X68306825Y-130984099D01*
X68351476Y-130836890D01*
X68230155Y-130607000D01*
X67037000Y-130607000D01*
X66783000Y-130607000D01*
X65589845Y-130607000D01*
X65468524Y-130836890D01*
X59827912Y-130836890D01*
X60349803Y-130315000D01*
X60411939Y-130315000D01*
X60611898Y-130275226D01*
X60800256Y-130197205D01*
X60969774Y-130083937D01*
X61113937Y-129939774D01*
X61227205Y-129770256D01*
X61305226Y-129581898D01*
X61345000Y-129381939D01*
X61345000Y-129178061D01*
X61305226Y-128978102D01*
X61227205Y-128789744D01*
X61113937Y-128620226D01*
X60969774Y-128476063D01*
X60800256Y-128362795D01*
X60611898Y-128284774D01*
X60411939Y-128245000D01*
X60208061Y-128245000D01*
X60008102Y-128284774D01*
X59819744Y-128362795D01*
X59650226Y-128476063D01*
X59506063Y-128620226D01*
X59392795Y-128789744D01*
X59314774Y-128978102D01*
X59275000Y-129178061D01*
X59275000Y-129240197D01*
X55985199Y-132530000D01*
X55918072Y-132530000D01*
X55918072Y-132440000D01*
X55905812Y-132315518D01*
X55869502Y-132195820D01*
X55810537Y-132085506D01*
X55731185Y-131988815D01*
X55634494Y-131909463D01*
X55524180Y-131850498D01*
X55404482Y-131814188D01*
X55280000Y-131801928D01*
X53580000Y-131801928D01*
X53455518Y-131814188D01*
X53335820Y-131850498D01*
X53225506Y-131909463D01*
X53128815Y-131988815D01*
X53049463Y-132085506D01*
X52990498Y-132195820D01*
X52954188Y-132315518D01*
X52941928Y-132440000D01*
X51654801Y-132440000D01*
X55434802Y-128660000D01*
X58622678Y-128660000D01*
X58660000Y-128663676D01*
X58697322Y-128660000D01*
X58697333Y-128660000D01*
X58808986Y-128649003D01*
X58952247Y-128605546D01*
X59084276Y-128534974D01*
X59200001Y-128440001D01*
X59223804Y-128410997D01*
X66150001Y-121484801D01*
X66150000Y-126451928D01*
X66060000Y-126451928D01*
X65935518Y-126464188D01*
X65815820Y-126500498D01*
X65705506Y-126559463D01*
X65608815Y-126638815D01*
X65529463Y-126735506D01*
X65470498Y-126845820D01*
X65434188Y-126965518D01*
X65421928Y-127090000D01*
X65421928Y-128790000D01*
X65434188Y-128914482D01*
X65470498Y-129034180D01*
X65529463Y-129144494D01*
X65608815Y-129241185D01*
X65705506Y-129320537D01*
X65815820Y-129379502D01*
X65896466Y-129403966D01*
X65812412Y-129479731D01*
X65638359Y-129713080D01*
X65513175Y-129975901D01*
X65468524Y-130123110D01*
X65589845Y-130353000D01*
X66783000Y-130353000D01*
X66783000Y-130333000D01*
X67037000Y-130333000D01*
X67037000Y-130353000D01*
X68230155Y-130353000D01*
X68351476Y-130123110D01*
X68306825Y-129975901D01*
X68181641Y-129713080D01*
X68007588Y-129479731D01*
X67923534Y-129403966D01*
X68004180Y-129379502D01*
X68114494Y-129320537D01*
X68211185Y-129241185D01*
X68290537Y-129144494D01*
X68349502Y-129034180D01*
X68385812Y-128914482D01*
X68398072Y-128790000D01*
X68398072Y-127140000D01*
X76961928Y-127140000D01*
X76961928Y-128840000D01*
X76974188Y-128964482D01*
X77010498Y-129084180D01*
X77069463Y-129194494D01*
X77148815Y-129291185D01*
X77245506Y-129370537D01*
X77355820Y-129429502D01*
X77428380Y-129451513D01*
X77296525Y-129583368D01*
X77134010Y-129826589D01*
X77022068Y-130096842D01*
X76965000Y-130383740D01*
X76965000Y-130676260D01*
X77022068Y-130963158D01*
X77134010Y-131233411D01*
X77296525Y-131476632D01*
X77503368Y-131683475D01*
X77746589Y-131845990D01*
X78016842Y-131957932D01*
X78303740Y-132015000D01*
X78596260Y-132015000D01*
X78883158Y-131957932D01*
X79153411Y-131845990D01*
X79396632Y-131683475D01*
X79603475Y-131476632D01*
X79728178Y-131290000D01*
X104255199Y-131290000D01*
X111505000Y-138539802D01*
X111505000Y-138601939D01*
X111544774Y-138801898D01*
X111622795Y-138990256D01*
X111736063Y-139159774D01*
X111880226Y-139303937D01*
X112049744Y-139417205D01*
X112238102Y-139495226D01*
X112438061Y-139535000D01*
X112641939Y-139535000D01*
X112841898Y-139495226D01*
X113030256Y-139417205D01*
X113199774Y-139303937D01*
X113343937Y-139159774D01*
X113457205Y-138990256D01*
X113535226Y-138801898D01*
X113575000Y-138601939D01*
X113575000Y-138398061D01*
X113535226Y-138198102D01*
X113457205Y-138009744D01*
X113343937Y-137840226D01*
X113199774Y-137696063D01*
X113030256Y-137582795D01*
X112841898Y-137504774D01*
X112641939Y-137465000D01*
X112579802Y-137465000D01*
X112484802Y-137370000D01*
X156535199Y-137370000D01*
X157801928Y-138636730D01*
X157801928Y-139900000D01*
X157814188Y-140024482D01*
X157850498Y-140144180D01*
X157909463Y-140254494D01*
X157988815Y-140351185D01*
X158085506Y-140430537D01*
X158195820Y-140489502D01*
X158276466Y-140513966D01*
X158192412Y-140589731D01*
X158018359Y-140823080D01*
X157893175Y-141085901D01*
X157848524Y-141233110D01*
X157969845Y-141463000D01*
X159163000Y-141463000D01*
X159163000Y-141443000D01*
X159417000Y-141443000D01*
X159417000Y-141463000D01*
X160610155Y-141463000D01*
X160731476Y-141233110D01*
X160686825Y-141085901D01*
X160561641Y-140823080D01*
X160387588Y-140589731D01*
X160303534Y-140513966D01*
X160384180Y-140489502D01*
X160494494Y-140430537D01*
X160591185Y-140351185D01*
X160670537Y-140254494D01*
X160729502Y-140144180D01*
X160765812Y-140024482D01*
X160778072Y-139900000D01*
X160778072Y-138200000D01*
X160765812Y-138075518D01*
X160729502Y-137955820D01*
X160670537Y-137845506D01*
X160591185Y-137748815D01*
X160494494Y-137669463D01*
X160384180Y-137610498D01*
X160264482Y-137574188D01*
X160140000Y-137561928D01*
X158876730Y-137561928D01*
X157413804Y-136099003D01*
X157390001Y-136069999D01*
X157274276Y-135975026D01*
X157142247Y-135904454D01*
X156998986Y-135860997D01*
X156887333Y-135850000D01*
X156887322Y-135850000D01*
X156850000Y-135846324D01*
X156812678Y-135850000D01*
X111601212Y-135850000D01*
X105320204Y-129568993D01*
X105296401Y-129539989D01*
X105180676Y-129445016D01*
X105048647Y-129374444D01*
X104905386Y-129330987D01*
X104793733Y-129319990D01*
X104793722Y-129319990D01*
X104756400Y-129316314D01*
X104719078Y-129319990D01*
X87724792Y-129319990D01*
X86375000Y-127970199D01*
X86375000Y-127908061D01*
X86335226Y-127708102D01*
X86257205Y-127519744D01*
X86143937Y-127350226D01*
X85999774Y-127206063D01*
X85830256Y-127092795D01*
X85641898Y-127014774D01*
X85441939Y-126975000D01*
X85238061Y-126975000D01*
X85038102Y-127014774D01*
X84849744Y-127092795D01*
X84680226Y-127206063D01*
X84636289Y-127250000D01*
X79938072Y-127250000D01*
X79938072Y-127140000D01*
X79925812Y-127015518D01*
X79889502Y-126895820D01*
X79830537Y-126785506D01*
X79751185Y-126688815D01*
X79654494Y-126609463D01*
X79544180Y-126550498D01*
X79424482Y-126514188D01*
X79300000Y-126501928D01*
X77600000Y-126501928D01*
X77475518Y-126514188D01*
X77355820Y-126550498D01*
X77245506Y-126609463D01*
X77148815Y-126688815D01*
X77069463Y-126785506D01*
X77010498Y-126895820D01*
X76974188Y-127015518D01*
X76961928Y-127140000D01*
X68398072Y-127140000D01*
X68398072Y-127090000D01*
X68385812Y-126965518D01*
X68349502Y-126845820D01*
X68290537Y-126735506D01*
X68211185Y-126638815D01*
X68114494Y-126559463D01*
X68004180Y-126500498D01*
X67884482Y-126464188D01*
X67760000Y-126451928D01*
X67670000Y-126451928D01*
X67670000Y-120601211D01*
X71433007Y-116838205D01*
X71517475Y-116838205D01*
X71554797Y-116841881D01*
X71592119Y-116838205D01*
X71592130Y-116838205D01*
X71703783Y-116827208D01*
X71847044Y-116783751D01*
X71979073Y-116713179D01*
X72094798Y-116618206D01*
X72118600Y-116589203D01*
X72436501Y-116271302D01*
X75135000Y-118969802D01*
X75135000Y-119031939D01*
X75174774Y-119231898D01*
X75252795Y-119420256D01*
X75366063Y-119589774D01*
X75510226Y-119733937D01*
X75679744Y-119847205D01*
X75868102Y-119925226D01*
X76068061Y-119965000D01*
X76271939Y-119965000D01*
X76471898Y-119925226D01*
X76660256Y-119847205D01*
X76829774Y-119733937D01*
X76973937Y-119589774D01*
X77087205Y-119420256D01*
X77165226Y-119231898D01*
X77205000Y-119031939D01*
X77205000Y-118828061D01*
X77165226Y-118628102D01*
X77087205Y-118439744D01*
X76973937Y-118270226D01*
X76829774Y-118126063D01*
X76660256Y-118012795D01*
X76471898Y-117934774D01*
X76271939Y-117895000D01*
X76209802Y-117895000D01*
X73355011Y-115040210D01*
X73355011Y-107172333D01*
X73358687Y-107135010D01*
X73355011Y-107097687D01*
X73355011Y-107097678D01*
X73344014Y-106986025D01*
X73300557Y-106842764D01*
X73229985Y-106710735D01*
X73167256Y-106634299D01*
X73158810Y-106624007D01*
X73158806Y-106624003D01*
X73135012Y-106595010D01*
X73106019Y-106571216D01*
X70452000Y-103917199D01*
X70451869Y-103915866D01*
X70548061Y-103935000D01*
X70610199Y-103935000D01*
X77166211Y-110491013D01*
X77190009Y-110520011D01*
X77305734Y-110614984D01*
X77437763Y-110685556D01*
X77581024Y-110729013D01*
X77692677Y-110740010D01*
X77692686Y-110740010D01*
X77730009Y-110743686D01*
X77767332Y-110740010D01*
X78364539Y-110740010D01*
X78311000Y-111009165D01*
X78311000Y-111291835D01*
X78366147Y-111569074D01*
X78474320Y-111830227D01*
X78631363Y-112065259D01*
X78831241Y-112265137D01*
X79066273Y-112422180D01*
X79327426Y-112530353D01*
X79604665Y-112585500D01*
X79887335Y-112585500D01*
X80069887Y-112549188D01*
X86791701Y-119271003D01*
X86815499Y-119300001D01*
X86844497Y-119323799D01*
X86931223Y-119394974D01*
X87015883Y-119440226D01*
X87063253Y-119465546D01*
X87206514Y-119509003D01*
X87318167Y-119520000D01*
X87318176Y-119520000D01*
X87355499Y-119523676D01*
X87392822Y-119520000D01*
X97212678Y-119520000D01*
X97250000Y-119523676D01*
X97287322Y-119520000D01*
X97287333Y-119520000D01*
X97398986Y-119509003D01*
X97542247Y-119465546D01*
X97674276Y-119394974D01*
X97790001Y-119300001D01*
X97813804Y-119270997D01*
X98395002Y-118689800D01*
X98395001Y-120767678D01*
X98391325Y-120805001D01*
X98395001Y-120842323D01*
X98395001Y-120842333D01*
X98405998Y-120953986D01*
X98430698Y-121035412D01*
X98449455Y-121097247D01*
X98520027Y-121229277D01*
X98545241Y-121260000D01*
X98615000Y-121345002D01*
X98644004Y-121368805D01*
X103046200Y-125771002D01*
X103069999Y-125800001D01*
X103098997Y-125823799D01*
X103185723Y-125894974D01*
X103279266Y-125944974D01*
X103317753Y-125965546D01*
X103461014Y-126009003D01*
X103572667Y-126020000D01*
X103572677Y-126020000D01*
X103609999Y-126023676D01*
X103647322Y-126020000D01*
X104266289Y-126020000D01*
X104360226Y-126113937D01*
X104529744Y-126227205D01*
X104718102Y-126305226D01*
X104918061Y-126345000D01*
X105121939Y-126345000D01*
X105321898Y-126305226D01*
X105510256Y-126227205D01*
X105679774Y-126113937D01*
X105823937Y-125969774D01*
X105937205Y-125800256D01*
X106015226Y-125611898D01*
X106055000Y-125411939D01*
X106055000Y-125208061D01*
X106015226Y-125008102D01*
X105937205Y-124819744D01*
X105823937Y-124650226D01*
X105679774Y-124506063D01*
X105510256Y-124392795D01*
X105321898Y-124314774D01*
X105121939Y-124275000D01*
X104918061Y-124275000D01*
X104718102Y-124314774D01*
X104529744Y-124392795D01*
X104369300Y-124500000D01*
X103924802Y-124500000D01*
X99915001Y-120490200D01*
X99915001Y-117269321D01*
X99918677Y-117231998D01*
X99915001Y-117194675D01*
X99915001Y-117194666D01*
X99904004Y-117083013D01*
X99860547Y-116939752D01*
X99789975Y-116807723D01*
X99695002Y-116691998D01*
X99666004Y-116668200D01*
X93737813Y-110740010D01*
X95955000Y-110740010D01*
X95955000Y-110811939D01*
X95994774Y-111011898D01*
X96072795Y-111200256D01*
X96186063Y-111369774D01*
X96330226Y-111513937D01*
X96499744Y-111627205D01*
X96688102Y-111705226D01*
X96888061Y-111745000D01*
X97091939Y-111745000D01*
X97291898Y-111705226D01*
X97480256Y-111627205D01*
X97649774Y-111513937D01*
X97793937Y-111369774D01*
X97907205Y-111200256D01*
X97911445Y-111190020D01*
X107486090Y-111190020D01*
X107523412Y-111193696D01*
X107560734Y-111190020D01*
X107560745Y-111190020D01*
X107672398Y-111179023D01*
X107815659Y-111135566D01*
X107947688Y-111064994D01*
X108063413Y-110970021D01*
X108087216Y-110941018D01*
X109766519Y-109261716D01*
X109828655Y-109261716D01*
X110028614Y-109221942D01*
X110216972Y-109143921D01*
X110386490Y-109030653D01*
X110530653Y-108886490D01*
X110643921Y-108716972D01*
X110721942Y-108528614D01*
X110761716Y-108328655D01*
X110761716Y-108124777D01*
X110721942Y-107924818D01*
X110643921Y-107736460D01*
X110530653Y-107566942D01*
X110483319Y-107519608D01*
X116458865Y-101544063D01*
X116521002Y-101544063D01*
X116720961Y-101504289D01*
X116909319Y-101426268D01*
X117078837Y-101313000D01*
X117223000Y-101168837D01*
X117336268Y-100999319D01*
X117414289Y-100810961D01*
X117454063Y-100611002D01*
X117454063Y-100407124D01*
X117414289Y-100207165D01*
X117336268Y-100018807D01*
X117223000Y-99849289D01*
X117175666Y-99801955D01*
X126047623Y-90930000D01*
X151696289Y-90930000D01*
X151740226Y-90973937D01*
X151909744Y-91087205D01*
X152098102Y-91165226D01*
X152298061Y-91205000D01*
X152501939Y-91205000D01*
X152701898Y-91165226D01*
X152890256Y-91087205D01*
X153059774Y-90973937D01*
X153203937Y-90829774D01*
X153317205Y-90660256D01*
X153395226Y-90471898D01*
X153435000Y-90271939D01*
X153435000Y-90068061D01*
X153395226Y-89868102D01*
X153317205Y-89679744D01*
X153203937Y-89510226D01*
X153059774Y-89366063D01*
X152890256Y-89252795D01*
X152701898Y-89174774D01*
X152501939Y-89135000D01*
X152298061Y-89135000D01*
X152098102Y-89174774D01*
X151909744Y-89252795D01*
X151740226Y-89366063D01*
X151696289Y-89410000D01*
X126931212Y-89410000D01*
X130491212Y-85850000D01*
X132646289Y-85850000D01*
X132690226Y-85893937D01*
X132859744Y-86007205D01*
X133048102Y-86085226D01*
X133248061Y-86125000D01*
X133451939Y-86125000D01*
X133651898Y-86085226D01*
X133840256Y-86007205D01*
X134009774Y-85893937D01*
X134153937Y-85749774D01*
X134267205Y-85580256D01*
X134345226Y-85391898D01*
X134385000Y-85191939D01*
X134385000Y-84988061D01*
X134345226Y-84788102D01*
X134267205Y-84599744D01*
X134254013Y-84580000D01*
X151696289Y-84580000D01*
X151740226Y-84623937D01*
X151909744Y-84737205D01*
X152098102Y-84815226D01*
X152298061Y-84855000D01*
X152501939Y-84855000D01*
X152701898Y-84815226D01*
X152890256Y-84737205D01*
X153059774Y-84623937D01*
X153203937Y-84479774D01*
X153317205Y-84310256D01*
X153395226Y-84121898D01*
X153435000Y-83921939D01*
X153435000Y-83718061D01*
X153395226Y-83518102D01*
X153317205Y-83329744D01*
X153203937Y-83160226D01*
X153059774Y-83016063D01*
X152890256Y-82902795D01*
X152701898Y-82824774D01*
X152501939Y-82785000D01*
X152298061Y-82785000D01*
X152098102Y-82824774D01*
X151909744Y-82902795D01*
X151740226Y-83016063D01*
X151696289Y-83060000D01*
X130847325Y-83060000D01*
X130810000Y-83056324D01*
X130772675Y-83060000D01*
X130772667Y-83060000D01*
X130661014Y-83070997D01*
X130517753Y-83114454D01*
X130385724Y-83185026D01*
X130269999Y-83279999D01*
X130246201Y-83308997D01*
X112199698Y-101355501D01*
X88756509Y-101355501D01*
X88801000Y-101131835D01*
X88801000Y-100849165D01*
X88745853Y-100571926D01*
X88637680Y-100310773D01*
X88480637Y-100075741D01*
X88280759Y-99875863D01*
X88048241Y-99720500D01*
X88280759Y-99565137D01*
X88480637Y-99365259D01*
X88533261Y-99286502D01*
X89304712Y-99286502D01*
X89344500Y-99290421D01*
X89384288Y-99286502D01*
X89384291Y-99286502D01*
X89503288Y-99274782D01*
X89655973Y-99228465D01*
X89796689Y-99153251D01*
X89920028Y-99052030D01*
X89945399Y-99021115D01*
X90848143Y-98118372D01*
X91037399Y-98080727D01*
X91225757Y-98002706D01*
X91395275Y-97889438D01*
X91539438Y-97745275D01*
X91652706Y-97575757D01*
X91730727Y-97387399D01*
X91770501Y-97187440D01*
X91770501Y-96983562D01*
X91730727Y-96783603D01*
X91652706Y-96595245D01*
X91539438Y-96425727D01*
X91395275Y-96281564D01*
X91225757Y-96168296D01*
X91037399Y-96090275D01*
X90837440Y-96050501D01*
X90633562Y-96050501D01*
X90433603Y-96090275D01*
X90245245Y-96168296D01*
X90084801Y-96275501D01*
X88753063Y-96275501D01*
X88757904Y-96259539D01*
X88635915Y-96037500D01*
X87493000Y-96037500D01*
X87493000Y-96057500D01*
X87239000Y-96057500D01*
X87239000Y-96037500D01*
X87219000Y-96037500D01*
X87219000Y-95783500D01*
X87239000Y-95783500D01*
X87239000Y-93497500D01*
X87493000Y-93497500D01*
X87493000Y-95783500D01*
X88635915Y-95783500D01*
X88757904Y-95561461D01*
X88717246Y-95427413D01*
X88597037Y-95173080D01*
X88429519Y-94947086D01*
X88221131Y-94758115D01*
X88025018Y-94640500D01*
X88221131Y-94522885D01*
X88429519Y-94333914D01*
X88597037Y-94107920D01*
X88717246Y-93853587D01*
X88757904Y-93719539D01*
X88635915Y-93497500D01*
X87493000Y-93497500D01*
X87239000Y-93497500D01*
X86096085Y-93497500D01*
X85974096Y-93719539D01*
X86014754Y-93853587D01*
X86134963Y-94107920D01*
X86302481Y-94333914D01*
X86510869Y-94522885D01*
X86706982Y-94640500D01*
X86510869Y-94758115D01*
X86302481Y-94947086D01*
X86134963Y-95173080D01*
X86014754Y-95427413D01*
X85974096Y-95561461D01*
X86034599Y-95671587D01*
X83653449Y-93290437D01*
X83665780Y-93249788D01*
X83677500Y-93130791D01*
X83677500Y-93130788D01*
X83681419Y-93091000D01*
X83677500Y-93051212D01*
X83677500Y-91179539D01*
X85974096Y-91179539D01*
X86014754Y-91313587D01*
X86134963Y-91567920D01*
X86302481Y-91793914D01*
X86510869Y-91982885D01*
X86706982Y-92100500D01*
X86510869Y-92218115D01*
X86302481Y-92407086D01*
X86134963Y-92633080D01*
X86014754Y-92887413D01*
X85974096Y-93021461D01*
X86096085Y-93243500D01*
X87239000Y-93243500D01*
X87239000Y-90957500D01*
X87493000Y-90957500D01*
X87493000Y-93243500D01*
X88635915Y-93243500D01*
X88757904Y-93021461D01*
X88717246Y-92887413D01*
X88597037Y-92633080D01*
X88429519Y-92407086D01*
X88221131Y-92218115D01*
X88025018Y-92100500D01*
X88221131Y-91982885D01*
X88429519Y-91793914D01*
X88597037Y-91567920D01*
X88717246Y-91313587D01*
X88757904Y-91179539D01*
X88635915Y-90957500D01*
X87493000Y-90957500D01*
X87239000Y-90957500D01*
X86096085Y-90957500D01*
X85974096Y-91179539D01*
X83677500Y-91179539D01*
X83677500Y-88951211D01*
X83795226Y-89068937D01*
X83964744Y-89182205D01*
X84153102Y-89260226D01*
X84353061Y-89300000D01*
X84556939Y-89300000D01*
X84756898Y-89260226D01*
X84945256Y-89182205D01*
X85114774Y-89068937D01*
X85158711Y-89025000D01*
X86130918Y-89025000D01*
X86251363Y-89205259D01*
X86451241Y-89405137D01*
X86686273Y-89562180D01*
X86696865Y-89566567D01*
X86510869Y-89678115D01*
X86302481Y-89867086D01*
X86134963Y-90093080D01*
X86014754Y-90347413D01*
X85974096Y-90481461D01*
X86096085Y-90703500D01*
X87239000Y-90703500D01*
X87239000Y-90683500D01*
X87493000Y-90683500D01*
X87493000Y-90703500D01*
X88635915Y-90703500D01*
X88757904Y-90481461D01*
X88717246Y-90347413D01*
X88597037Y-90093080D01*
X88429519Y-89867086D01*
X88221131Y-89678115D01*
X88035135Y-89566567D01*
X88045727Y-89562180D01*
X88280759Y-89405137D01*
X88480637Y-89205259D01*
X88637680Y-88970227D01*
X88745853Y-88709074D01*
X88801000Y-88431835D01*
X88801000Y-88149165D01*
X88745853Y-87871926D01*
X88637680Y-87610773D01*
X88480637Y-87375741D01*
X88280759Y-87175863D01*
X88045727Y-87018820D01*
X88035135Y-87014433D01*
X88221131Y-86902885D01*
X88429519Y-86713914D01*
X88597037Y-86487920D01*
X88717246Y-86233587D01*
X88757904Y-86099539D01*
X88635915Y-85877500D01*
X87493000Y-85877500D01*
X87493000Y-85897500D01*
X87239000Y-85897500D01*
X87239000Y-85877500D01*
X86096085Y-85877500D01*
X85974096Y-86099539D01*
X86014754Y-86233587D01*
X86134963Y-86487920D01*
X86302481Y-86713914D01*
X86510869Y-86902885D01*
X86696865Y-87014433D01*
X86686273Y-87018820D01*
X86451241Y-87175863D01*
X86251363Y-87375741D01*
X86164995Y-87505000D01*
X85158711Y-87505000D01*
X85114774Y-87461063D01*
X84945256Y-87347795D01*
X84756898Y-87269774D01*
X84556939Y-87230000D01*
X84353061Y-87230000D01*
X84153102Y-87269774D01*
X83964744Y-87347795D01*
X83795226Y-87461063D01*
X83677500Y-87578789D01*
X83677500Y-83559539D01*
X85974096Y-83559539D01*
X86014754Y-83693587D01*
X86134963Y-83947920D01*
X86302481Y-84173914D01*
X86510869Y-84362885D01*
X86706982Y-84480500D01*
X86510869Y-84598115D01*
X86302481Y-84787086D01*
X86134963Y-85013080D01*
X86014754Y-85267413D01*
X85974096Y-85401461D01*
X86096085Y-85623500D01*
X87239000Y-85623500D01*
X87239000Y-83337500D01*
X87493000Y-83337500D01*
X87493000Y-85623500D01*
X88635915Y-85623500D01*
X88757904Y-85401461D01*
X88717246Y-85267413D01*
X88597037Y-85013080D01*
X88429519Y-84787086D01*
X88221131Y-84598115D01*
X88025018Y-84480500D01*
X88221131Y-84362885D01*
X88429519Y-84173914D01*
X88597037Y-83947920D01*
X88717246Y-83693587D01*
X88757904Y-83559539D01*
X88635915Y-83337500D01*
X87493000Y-83337500D01*
X87239000Y-83337500D01*
X86096085Y-83337500D01*
X85974096Y-83559539D01*
X83677500Y-83559539D01*
X83677500Y-79266012D01*
X84954347Y-77989165D01*
X85931000Y-77989165D01*
X85931000Y-78271835D01*
X85986147Y-78549074D01*
X86094320Y-78810227D01*
X86251363Y-79045259D01*
X86451241Y-79245137D01*
X86683759Y-79400500D01*
X86451241Y-79555863D01*
X86251363Y-79755741D01*
X86094320Y-79990773D01*
X85986147Y-80251926D01*
X85931000Y-80529165D01*
X85931000Y-80811835D01*
X85986147Y-81089074D01*
X86094320Y-81350227D01*
X86251363Y-81585259D01*
X86451241Y-81785137D01*
X86686273Y-81942180D01*
X86696865Y-81946567D01*
X86510869Y-82058115D01*
X86302481Y-82247086D01*
X86134963Y-82473080D01*
X86014754Y-82727413D01*
X85974096Y-82861461D01*
X86096085Y-83083500D01*
X87239000Y-83083500D01*
X87239000Y-83063500D01*
X87493000Y-83063500D01*
X87493000Y-83083500D01*
X88635915Y-83083500D01*
X88757904Y-82861461D01*
X88717246Y-82727413D01*
X88597037Y-82473080D01*
X88429519Y-82247086D01*
X88221131Y-82058115D01*
X88035135Y-81946567D01*
X88045727Y-81942180D01*
X88280759Y-81785137D01*
X88480637Y-81585259D01*
X88637680Y-81350227D01*
X88745853Y-81089074D01*
X88801000Y-80811835D01*
X88801000Y-80529165D01*
X88745853Y-80251926D01*
X88637680Y-79990773D01*
X88480637Y-79755741D01*
X88280759Y-79555863D01*
X88048241Y-79400500D01*
X88280759Y-79245137D01*
X88480637Y-79045259D01*
X88584043Y-78890500D01*
X90761789Y-78890500D01*
X90780226Y-78908937D01*
X90949744Y-79022205D01*
X91138102Y-79100226D01*
X91338061Y-79140000D01*
X91541939Y-79140000D01*
X91741898Y-79100226D01*
X91930256Y-79022205D01*
X92099774Y-78908937D01*
X92243937Y-78764774D01*
X92357205Y-78595256D01*
X92435226Y-78406898D01*
X92475000Y-78206939D01*
X92475000Y-78003061D01*
X92435226Y-77803102D01*
X92357205Y-77614744D01*
X92243937Y-77445226D01*
X92099774Y-77301063D01*
X91930256Y-77187795D01*
X91741898Y-77109774D01*
X91541939Y-77070000D01*
X91338061Y-77070000D01*
X91138102Y-77109774D01*
X90949744Y-77187795D01*
X90780226Y-77301063D01*
X90710789Y-77370500D01*
X88584043Y-77370500D01*
X88480637Y-77215741D01*
X88280759Y-77015863D01*
X88045727Y-76858820D01*
X87784574Y-76750647D01*
X87507335Y-76695500D01*
X87224665Y-76695500D01*
X86947426Y-76750647D01*
X86686273Y-76858820D01*
X86451241Y-77015863D01*
X86251363Y-77215741D01*
X86094320Y-77450773D01*
X85986147Y-77711926D01*
X85931000Y-77989165D01*
X84954347Y-77989165D01*
X95712513Y-67231000D01*
X106745533Y-67231000D01*
X106886102Y-67289226D01*
X107086061Y-67329000D01*
X107289939Y-67329000D01*
X107489898Y-67289226D01*
X107678256Y-67211205D01*
X107847774Y-67097937D01*
X107918956Y-67026755D01*
X111000000Y-70107800D01*
X111000001Y-82509431D01*
X110943403Y-82594136D01*
X110865382Y-82782494D01*
X110825608Y-82982453D01*
X110825608Y-83186331D01*
X110865382Y-83386290D01*
X110943403Y-83574648D01*
X111056671Y-83744166D01*
X111200834Y-83888329D01*
X111370352Y-84001597D01*
X111558710Y-84079618D01*
X111758669Y-84119392D01*
X111962547Y-84119392D01*
X112162506Y-84079618D01*
X112350864Y-84001597D01*
X112520382Y-83888329D01*
X112664545Y-83744166D01*
X112777813Y-83574648D01*
X112855834Y-83386290D01*
X112895608Y-83186331D01*
X112895608Y-82982453D01*
X112855834Y-82782494D01*
X112777813Y-82594136D01*
X112664545Y-82424618D01*
X112520382Y-82280455D01*
X112520000Y-82280200D01*
X112520000Y-69830323D01*
X112523676Y-69792998D01*
X112520000Y-69755673D01*
X112520000Y-69755665D01*
X112509003Y-69644012D01*
X112465546Y-69500751D01*
X112394974Y-69368722D01*
X112300001Y-69252997D01*
X112271004Y-69229200D01*
X108099805Y-65058002D01*
X108076002Y-65028998D01*
X107960277Y-64934025D01*
X107828248Y-64863453D01*
X107684987Y-64819996D01*
X107573334Y-64808999D01*
X107573323Y-64808999D01*
X107536001Y-64805323D01*
X107498679Y-64808999D01*
X95559203Y-64808999D01*
X95521880Y-64805323D01*
X95484557Y-64808999D01*
X95484548Y-64808999D01*
X95372895Y-64819996D01*
X95257293Y-64855063D01*
X95229634Y-64863453D01*
X95097604Y-64934025D01*
X95018157Y-64999226D01*
X94981880Y-65028998D01*
X94958082Y-65057996D01*
X91807935Y-68208144D01*
X91840000Y-68046939D01*
X91840000Y-67843061D01*
X91800226Y-67643102D01*
X91722205Y-67454744D01*
X91608937Y-67285226D01*
X91464774Y-67141063D01*
X91295256Y-67027795D01*
X91106898Y-66949774D01*
X90906939Y-66910000D01*
X90703061Y-66910000D01*
X90503102Y-66949774D01*
X90314744Y-67027795D01*
X90145226Y-67141063D01*
X90101289Y-67185000D01*
X59369802Y-67185000D01*
X57741863Y-65557061D01*
X88182500Y-65557061D01*
X88182500Y-65760939D01*
X88222274Y-65960898D01*
X88300295Y-66149256D01*
X88413563Y-66318774D01*
X88557726Y-66462937D01*
X88727244Y-66576205D01*
X88915602Y-66654226D01*
X89115561Y-66694000D01*
X89319439Y-66694000D01*
X89519398Y-66654226D01*
X89707756Y-66576205D01*
X89877274Y-66462937D01*
X90021437Y-66318774D01*
X90134705Y-66149256D01*
X90212726Y-65960898D01*
X90252500Y-65760939D01*
X90252500Y-65557061D01*
X90212726Y-65357102D01*
X90134705Y-65168744D01*
X90021437Y-64999226D01*
X89977500Y-64955289D01*
X89977500Y-60004801D01*
X92686302Y-57296000D01*
X92748439Y-57296000D01*
X92948398Y-57256226D01*
X93136756Y-57178205D01*
X93306274Y-57064937D01*
X93450437Y-56920774D01*
X93486650Y-56866576D01*
X104559529Y-56866576D01*
X104597693Y-57082536D01*
X104806244Y-57175912D01*
X105029004Y-57226808D01*
X105257413Y-57233267D01*
X105482693Y-57195042D01*
X105696187Y-57113602D01*
X105754307Y-57082536D01*
X105792471Y-56866576D01*
X105176000Y-56250105D01*
X104559529Y-56866576D01*
X93486650Y-56866576D01*
X93563705Y-56751256D01*
X93641726Y-56562898D01*
X93681500Y-56362939D01*
X93681500Y-56159061D01*
X93680079Y-56151913D01*
X104013233Y-56151913D01*
X104051458Y-56377193D01*
X104132898Y-56590687D01*
X104163964Y-56648807D01*
X104379924Y-56686971D01*
X104996395Y-56070500D01*
X105355605Y-56070500D01*
X105972076Y-56686971D01*
X106188036Y-56648807D01*
X106281412Y-56440256D01*
X106332308Y-56217496D01*
X106338767Y-55989087D01*
X106300542Y-55763807D01*
X106219102Y-55550313D01*
X106216530Y-55545500D01*
X106512928Y-55545500D01*
X106512928Y-56595500D01*
X106525188Y-56719982D01*
X106561498Y-56839680D01*
X106620463Y-56949994D01*
X106699815Y-57046685D01*
X106796506Y-57126037D01*
X106906820Y-57185002D01*
X107026518Y-57221312D01*
X107151000Y-57233572D01*
X108201000Y-57233572D01*
X108325482Y-57221312D01*
X108445180Y-57185002D01*
X108555494Y-57126037D01*
X108652185Y-57046685D01*
X108731537Y-56949994D01*
X108766556Y-56884479D01*
X114951626Y-56884479D01*
X114992841Y-57102978D01*
X115205665Y-57198859D01*
X115433105Y-57251378D01*
X115666421Y-57258516D01*
X115896646Y-57220000D01*
X116114934Y-57137308D01*
X116179159Y-57102978D01*
X116220374Y-56884479D01*
X115586000Y-56250105D01*
X114951626Y-56884479D01*
X108766556Y-56884479D01*
X108790502Y-56839680D01*
X108826812Y-56719982D01*
X108839072Y-56595500D01*
X108839072Y-56150921D01*
X114397984Y-56150921D01*
X114436500Y-56381146D01*
X114519192Y-56599434D01*
X114553522Y-56663659D01*
X114772021Y-56704874D01*
X115406395Y-56070500D01*
X115765605Y-56070500D01*
X116399979Y-56704874D01*
X116406124Y-56703715D01*
X116410188Y-56744982D01*
X116446498Y-56864680D01*
X116505463Y-56974994D01*
X116584815Y-57071685D01*
X116681506Y-57151037D01*
X116791820Y-57210002D01*
X116911518Y-57246312D01*
X117036000Y-57258572D01*
X118136000Y-57258572D01*
X118260482Y-57246312D01*
X118380180Y-57210002D01*
X118490494Y-57151037D01*
X118587185Y-57071685D01*
X118666537Y-56974994D01*
X118725502Y-56864680D01*
X118761812Y-56744982D01*
X118774072Y-56620500D01*
X118774072Y-55520500D01*
X118761812Y-55396018D01*
X118725502Y-55276320D01*
X118666537Y-55166006D01*
X118587185Y-55069315D01*
X118490494Y-54989963D01*
X118380180Y-54930998D01*
X118346000Y-54920630D01*
X118346000Y-45614211D01*
X118389937Y-45570274D01*
X118503205Y-45400756D01*
X118581226Y-45212398D01*
X118621000Y-45012439D01*
X118621000Y-44808561D01*
X118581226Y-44608602D01*
X118503205Y-44420244D01*
X118389937Y-44250726D01*
X118245774Y-44106563D01*
X118076256Y-43993295D01*
X117887898Y-43915274D01*
X117687939Y-43875500D01*
X117484061Y-43875500D01*
X117284102Y-43915274D01*
X117095744Y-43993295D01*
X116926226Y-44106563D01*
X116782063Y-44250726D01*
X116668795Y-44420244D01*
X116590774Y-44608602D01*
X116551000Y-44808561D01*
X116551000Y-45012439D01*
X116590774Y-45212398D01*
X116668795Y-45400756D01*
X116782063Y-45570274D01*
X116826001Y-45614212D01*
X116826000Y-54920630D01*
X116791820Y-54930998D01*
X116681506Y-54989963D01*
X116584815Y-55069315D01*
X116505463Y-55166006D01*
X116446498Y-55276320D01*
X116410188Y-55396018D01*
X116406124Y-55437285D01*
X116399979Y-55436126D01*
X115765605Y-56070500D01*
X115406395Y-56070500D01*
X114772021Y-55436126D01*
X114553522Y-55477341D01*
X114457641Y-55690165D01*
X114405122Y-55917605D01*
X114397984Y-56150921D01*
X108839072Y-56150921D01*
X108839072Y-55545500D01*
X108826812Y-55421018D01*
X108790502Y-55301320D01*
X108766557Y-55256521D01*
X114951626Y-55256521D01*
X115586000Y-55890895D01*
X116220374Y-55256521D01*
X116179159Y-55038022D01*
X115966335Y-54942141D01*
X115738895Y-54889622D01*
X115505579Y-54882484D01*
X115275354Y-54921000D01*
X115057066Y-55003692D01*
X114992841Y-55038022D01*
X114951626Y-55256521D01*
X108766557Y-55256521D01*
X108731537Y-55191006D01*
X108652185Y-55094315D01*
X108555494Y-55014963D01*
X108445180Y-54955998D01*
X108436000Y-54953213D01*
X108436000Y-48785301D01*
X111545802Y-45675500D01*
X111607939Y-45675500D01*
X111807898Y-45635726D01*
X111996256Y-45557705D01*
X112165774Y-45444437D01*
X112309937Y-45300274D01*
X112423205Y-45130756D01*
X112501226Y-44942398D01*
X112541000Y-44742439D01*
X112541000Y-44538561D01*
X112501226Y-44338602D01*
X112423205Y-44150244D01*
X112309937Y-43980726D01*
X112165774Y-43836563D01*
X111996256Y-43723295D01*
X111807898Y-43645274D01*
X111607939Y-43605500D01*
X111404061Y-43605500D01*
X111204102Y-43645274D01*
X111015744Y-43723295D01*
X110846226Y-43836563D01*
X110702063Y-43980726D01*
X110588795Y-44150244D01*
X110510774Y-44338602D01*
X110471000Y-44538561D01*
X110471000Y-44600698D01*
X107164998Y-47906701D01*
X107136000Y-47930499D01*
X107112202Y-47959497D01*
X107112201Y-47959498D01*
X107041026Y-48046224D01*
X106970454Y-48178254D01*
X106951421Y-48241000D01*
X106926998Y-48321514D01*
X106925522Y-48336497D01*
X106912324Y-48470500D01*
X106916001Y-48507832D01*
X106916000Y-54953213D01*
X106906820Y-54955998D01*
X106796506Y-55014963D01*
X106699815Y-55094315D01*
X106620463Y-55191006D01*
X106561498Y-55301320D01*
X106525188Y-55421018D01*
X106512928Y-55545500D01*
X106216530Y-55545500D01*
X106188036Y-55492193D01*
X105972076Y-55454029D01*
X105355605Y-56070500D01*
X104996395Y-56070500D01*
X104379924Y-55454029D01*
X104163964Y-55492193D01*
X104070588Y-55700744D01*
X104019692Y-55923504D01*
X104013233Y-56151913D01*
X93680079Y-56151913D01*
X93641726Y-55959102D01*
X93563705Y-55770744D01*
X93450437Y-55601226D01*
X93306274Y-55457063D01*
X93136756Y-55343795D01*
X92969281Y-55274424D01*
X104559529Y-55274424D01*
X105176000Y-55890895D01*
X105792471Y-55274424D01*
X105754307Y-55058464D01*
X105545756Y-54965088D01*
X105322996Y-54914192D01*
X105094587Y-54907733D01*
X104869307Y-54945958D01*
X104655813Y-55027398D01*
X104597693Y-55058464D01*
X104559529Y-55274424D01*
X92969281Y-55274424D01*
X92948398Y-55265774D01*
X92748439Y-55226000D01*
X92544561Y-55226000D01*
X92344602Y-55265774D01*
X92156244Y-55343795D01*
X91986726Y-55457063D01*
X91842563Y-55601226D01*
X91729295Y-55770744D01*
X91651274Y-55959102D01*
X91611500Y-56159061D01*
X91611500Y-56221198D01*
X88706498Y-59126201D01*
X88677500Y-59149999D01*
X88653702Y-59178997D01*
X88653701Y-59178998D01*
X88582526Y-59265724D01*
X88511954Y-59397754D01*
X88468498Y-59541015D01*
X88453824Y-59690000D01*
X88457501Y-59727332D01*
X88457500Y-64955289D01*
X88413563Y-64999226D01*
X88300295Y-65168744D01*
X88222274Y-65357102D01*
X88182500Y-65557061D01*
X57741863Y-65557061D01*
X42670000Y-50485199D01*
X42670000Y-48983561D01*
X56432500Y-48983561D01*
X56432500Y-49187439D01*
X56472274Y-49387398D01*
X56550295Y-49575756D01*
X56663563Y-49745274D01*
X56807726Y-49889437D01*
X56977244Y-50002705D01*
X57165602Y-50080726D01*
X57365561Y-50120500D01*
X57569439Y-50120500D01*
X57769398Y-50080726D01*
X57957756Y-50002705D01*
X58127274Y-49889437D01*
X58171211Y-49845500D01*
X61332822Y-49845500D01*
X61457525Y-50032132D01*
X61664368Y-50238975D01*
X61838760Y-50355500D01*
X61664368Y-50472025D01*
X61457525Y-50678868D01*
X61295010Y-50922089D01*
X61183068Y-51192342D01*
X61126000Y-51479240D01*
X61126000Y-51771760D01*
X61183068Y-52058658D01*
X61295010Y-52328911D01*
X61457525Y-52572132D01*
X61664368Y-52778975D01*
X61907589Y-52941490D01*
X62177842Y-53053432D01*
X62464740Y-53110500D01*
X62757260Y-53110500D01*
X62977408Y-53066710D01*
X63222201Y-53311503D01*
X63246000Y-53340502D01*
X63361725Y-53435475D01*
X63493754Y-53506047D01*
X63637015Y-53549504D01*
X63748668Y-53560501D01*
X63748677Y-53560501D01*
X63786000Y-53564177D01*
X63823323Y-53560501D01*
X71846001Y-53560501D01*
X71846000Y-61276789D01*
X71802063Y-61320726D01*
X71688795Y-61490244D01*
X71610774Y-61678602D01*
X71571000Y-61878561D01*
X71571000Y-62082439D01*
X71610774Y-62282398D01*
X71688795Y-62470756D01*
X71802063Y-62640274D01*
X71946226Y-62784437D01*
X72115744Y-62897705D01*
X72304102Y-62975726D01*
X72504061Y-63015500D01*
X72707939Y-63015500D01*
X72907898Y-62975726D01*
X73096256Y-62897705D01*
X73265774Y-62784437D01*
X73409937Y-62640274D01*
X73523205Y-62470756D01*
X73601226Y-62282398D01*
X73641000Y-62082439D01*
X73641000Y-61878561D01*
X73601226Y-61678602D01*
X73523205Y-61490244D01*
X73409937Y-61320726D01*
X73366000Y-61276789D01*
X73366000Y-53560501D01*
X78740675Y-53560501D01*
X78777997Y-53564177D01*
X78815319Y-53560501D01*
X78815330Y-53560501D01*
X78926983Y-53549504D01*
X79070244Y-53506047D01*
X79202273Y-53435475D01*
X79317998Y-53340502D01*
X79341801Y-53311498D01*
X81537800Y-51115500D01*
X84798667Y-51115500D01*
X84836000Y-51119177D01*
X84873333Y-51115500D01*
X84984986Y-51104503D01*
X85128247Y-51061046D01*
X85260276Y-50990474D01*
X85376001Y-50895501D01*
X85470974Y-50779776D01*
X85541546Y-50647747D01*
X85585003Y-50504486D01*
X85599677Y-50355500D01*
X85596000Y-50318167D01*
X85596000Y-48519211D01*
X85639937Y-48475274D01*
X85753205Y-48305756D01*
X85831226Y-48117398D01*
X85871000Y-47917439D01*
X85871000Y-47713561D01*
X85831226Y-47513602D01*
X85753205Y-47325244D01*
X85639937Y-47155726D01*
X85495774Y-47011563D01*
X85326256Y-46898295D01*
X85137898Y-46820274D01*
X84937939Y-46780500D01*
X84734061Y-46780500D01*
X84534102Y-46820274D01*
X84345744Y-46898295D01*
X84176226Y-47011563D01*
X84032063Y-47155726D01*
X83918795Y-47325244D01*
X83840774Y-47513602D01*
X83801000Y-47713561D01*
X83801000Y-47917439D01*
X83840774Y-48117398D01*
X83918795Y-48305756D01*
X84032063Y-48475274D01*
X84076001Y-48519212D01*
X84076000Y-49595500D01*
X81260331Y-49595500D01*
X81222998Y-49591823D01*
X81185665Y-49595500D01*
X81074012Y-49606497D01*
X80930751Y-49649954D01*
X80798722Y-49720526D01*
X80682997Y-49815499D01*
X80659199Y-49844497D01*
X78463196Y-52040501D01*
X72823321Y-52040501D01*
X72785998Y-52036825D01*
X72748675Y-52040501D01*
X66574850Y-52040501D01*
X66592476Y-51982390D01*
X66471155Y-51752500D01*
X65278000Y-51752500D01*
X65278000Y-51772500D01*
X65024000Y-51772500D01*
X65024000Y-51752500D01*
X65004000Y-51752500D01*
X65004000Y-51498500D01*
X65024000Y-51498500D01*
X65024000Y-51478500D01*
X65278000Y-51478500D01*
X65278000Y-51498500D01*
X66471155Y-51498500D01*
X66592476Y-51268610D01*
X66547825Y-51121401D01*
X66422641Y-50858580D01*
X66248588Y-50625231D01*
X66032355Y-50430322D01*
X65915466Y-50360695D01*
X66097632Y-50238975D01*
X66304475Y-50032132D01*
X66466990Y-49788911D01*
X66578932Y-49518658D01*
X66636000Y-49231760D01*
X66636000Y-48939240D01*
X66578932Y-48652342D01*
X66466990Y-48382089D01*
X66304475Y-48138868D01*
X66097632Y-47932025D01*
X65923240Y-47815500D01*
X66097632Y-47698975D01*
X66304475Y-47492132D01*
X66466990Y-47248911D01*
X66578932Y-46978658D01*
X66636000Y-46691760D01*
X66636000Y-46399240D01*
X66603941Y-46238071D01*
X69931513Y-42910500D01*
X77299210Y-42910500D01*
X77338998Y-42914419D01*
X77378786Y-42910500D01*
X77378789Y-42910500D01*
X77497786Y-42898780D01*
X77650471Y-42852463D01*
X77791187Y-42777249D01*
X77914526Y-42676028D01*
X77939897Y-42645113D01*
X78830211Y-41754800D01*
X97317928Y-41754800D01*
X97317928Y-41794800D01*
X97330188Y-41919282D01*
X97366498Y-42038980D01*
X97425463Y-42149294D01*
X97504815Y-42245985D01*
X97601506Y-42325337D01*
X97711820Y-42384302D01*
X97784380Y-42406313D01*
X97652525Y-42538168D01*
X97490010Y-42781389D01*
X97378068Y-43051642D01*
X97321000Y-43338540D01*
X97321000Y-43631060D01*
X97378068Y-43917958D01*
X97490010Y-44188211D01*
X97652525Y-44431432D01*
X97859368Y-44638275D01*
X97996000Y-44729570D01*
X97996001Y-47799799D01*
X97888795Y-47960244D01*
X97810774Y-48148602D01*
X97771000Y-48348561D01*
X97771000Y-48552439D01*
X97810774Y-48752398D01*
X97888795Y-48940756D01*
X98002063Y-49110274D01*
X98146226Y-49254437D01*
X98315744Y-49367705D01*
X98504102Y-49445726D01*
X98704061Y-49485500D01*
X98907939Y-49485500D01*
X99107898Y-49445726D01*
X99296256Y-49367705D01*
X99465774Y-49254437D01*
X99609937Y-49110274D01*
X99723205Y-48940756D01*
X99801226Y-48752398D01*
X99841000Y-48552439D01*
X99841000Y-48348561D01*
X99801226Y-48148602D01*
X99723205Y-47960244D01*
X99616000Y-47799800D01*
X99616000Y-45440313D01*
X100630805Y-46455118D01*
X100656172Y-46486028D01*
X100687080Y-46511393D01*
X100779510Y-46587249D01*
X100829392Y-46613911D01*
X100920227Y-46662463D01*
X101072912Y-46708780D01*
X101191909Y-46720500D01*
X101191912Y-46720500D01*
X101231700Y-46724419D01*
X101271488Y-46720500D01*
X103339730Y-46720500D01*
X103431025Y-46857132D01*
X103637868Y-47063975D01*
X103881089Y-47226490D01*
X104151342Y-47338432D01*
X104438240Y-47395500D01*
X104730760Y-47395500D01*
X105017658Y-47338432D01*
X105287911Y-47226490D01*
X105531132Y-47063975D01*
X105737975Y-46857132D01*
X105900490Y-46613911D01*
X106012432Y-46343658D01*
X106069500Y-46056760D01*
X106069500Y-45764240D01*
X106012432Y-45477342D01*
X105900490Y-45207089D01*
X105737975Y-44963868D01*
X105531132Y-44757025D01*
X105348966Y-44635305D01*
X105465855Y-44565678D01*
X105682088Y-44370769D01*
X105856141Y-44137420D01*
X105981325Y-43874599D01*
X106025976Y-43727390D01*
X105904655Y-43497500D01*
X104711500Y-43497500D01*
X104711500Y-43517500D01*
X104457500Y-43517500D01*
X104457500Y-43497500D01*
X103264345Y-43497500D01*
X103143024Y-43727390D01*
X103187675Y-43874599D01*
X103312859Y-44137420D01*
X103486912Y-44370769D01*
X103703145Y-44565678D01*
X103820034Y-44635305D01*
X103637868Y-44757025D01*
X103431025Y-44963868D01*
X103339730Y-45100500D01*
X101567213Y-45100500D01*
X100258941Y-43792229D01*
X100291000Y-43631060D01*
X100291000Y-43338540D01*
X100233932Y-43051642D01*
X100121990Y-42781389D01*
X99959475Y-42538168D01*
X99827620Y-42406313D01*
X99900180Y-42384302D01*
X100010494Y-42325337D01*
X100107185Y-42245985D01*
X100186537Y-42149294D01*
X100245502Y-42038980D01*
X100281812Y-41919282D01*
X100294072Y-41794800D01*
X100294072Y-40602241D01*
X100580814Y-40315499D01*
X100750301Y-40315499D01*
X100910745Y-40422704D01*
X101099103Y-40500725D01*
X101299062Y-40540499D01*
X101502940Y-40540499D01*
X101702899Y-40500725D01*
X101891257Y-40422704D01*
X102060775Y-40309436D01*
X102204938Y-40165273D01*
X102318206Y-39995755D01*
X102324524Y-39980500D01*
X103096428Y-39980500D01*
X103096428Y-41680500D01*
X103108688Y-41804982D01*
X103144998Y-41924680D01*
X103203963Y-42034994D01*
X103283315Y-42131685D01*
X103380006Y-42211037D01*
X103490320Y-42270002D01*
X103570966Y-42294466D01*
X103486912Y-42370231D01*
X103312859Y-42603580D01*
X103187675Y-42866401D01*
X103143024Y-43013610D01*
X103264345Y-43243500D01*
X104457500Y-43243500D01*
X104457500Y-43223500D01*
X104711500Y-43223500D01*
X104711500Y-43243500D01*
X105904655Y-43243500D01*
X106025976Y-43013610D01*
X105981325Y-42866401D01*
X105856141Y-42603580D01*
X105682088Y-42370231D01*
X105598034Y-42294466D01*
X105678680Y-42270002D01*
X105788994Y-42211037D01*
X105885685Y-42131685D01*
X105965037Y-42034994D01*
X106024002Y-41924680D01*
X106060312Y-41804982D01*
X106072572Y-41680500D01*
X106072572Y-39980500D01*
X106060312Y-39856018D01*
X106024002Y-39736320D01*
X105965037Y-39626006D01*
X105885685Y-39529315D01*
X105788994Y-39449963D01*
X105678680Y-39390998D01*
X105558982Y-39354688D01*
X105434500Y-39342428D01*
X105394500Y-39342428D01*
X105394500Y-38737512D01*
X108236001Y-35896012D01*
X108236001Y-36425702D01*
X108232081Y-36465500D01*
X108247721Y-36624287D01*
X108294038Y-36776973D01*
X108369251Y-36917689D01*
X108424852Y-36985439D01*
X108470473Y-37041028D01*
X108501383Y-37066395D01*
X109838129Y-38403142D01*
X109875774Y-38592398D01*
X109953795Y-38780756D01*
X110067063Y-38950274D01*
X110211226Y-39094437D01*
X110380744Y-39207705D01*
X110569102Y-39285726D01*
X110769061Y-39325500D01*
X110972939Y-39325500D01*
X111172898Y-39285726D01*
X111361256Y-39207705D01*
X111530774Y-39094437D01*
X111674937Y-38950274D01*
X111788205Y-38780756D01*
X111866226Y-38592398D01*
X111906000Y-38392439D01*
X111906000Y-38188561D01*
X111866226Y-37988602D01*
X111788205Y-37800244D01*
X111674937Y-37630726D01*
X111530774Y-37486563D01*
X111361256Y-37373295D01*
X111172898Y-37295274D01*
X110983642Y-37257629D01*
X109856000Y-36129988D01*
X109856000Y-35272132D01*
X109874482Y-35270312D01*
X109994180Y-35234002D01*
X110104494Y-35175037D01*
X110201185Y-35095685D01*
X110280537Y-34998994D01*
X110339502Y-34888680D01*
X110375812Y-34768982D01*
X110388072Y-34644500D01*
X110388072Y-33808620D01*
X117707000Y-33808620D01*
X117707000Y-34072380D01*
X117758457Y-34331072D01*
X117859393Y-34574754D01*
X118005931Y-34794063D01*
X118192437Y-34980569D01*
X118411746Y-35127107D01*
X118655428Y-35228043D01*
X118914120Y-35279500D01*
X119177880Y-35279500D01*
X119436572Y-35228043D01*
X119680254Y-35127107D01*
X119899563Y-34980569D01*
X120086069Y-34794063D01*
X120232607Y-34574754D01*
X120333543Y-34331072D01*
X120385000Y-34072380D01*
X120385000Y-33808620D01*
X120333543Y-33549928D01*
X120232607Y-33306246D01*
X120086069Y-33086937D01*
X119899563Y-32900431D01*
X119680254Y-32753893D01*
X119436572Y-32652957D01*
X119177880Y-32601500D01*
X118914120Y-32601500D01*
X118655428Y-32652957D01*
X118411746Y-32753893D01*
X118192437Y-32900431D01*
X118005931Y-33086937D01*
X117859393Y-33306246D01*
X117758457Y-33549928D01*
X117707000Y-33808620D01*
X110388072Y-33808620D01*
X110388072Y-33236500D01*
X110375812Y-33112018D01*
X110339502Y-32992320D01*
X110280537Y-32882006D01*
X110201185Y-32785315D01*
X110104494Y-32705963D01*
X109994180Y-32646998D01*
X109874482Y-32610688D01*
X109750000Y-32598428D01*
X108342000Y-32598428D01*
X108217518Y-32610688D01*
X108097820Y-32646998D01*
X107987506Y-32705963D01*
X107890815Y-32785315D01*
X107811463Y-32882006D01*
X107752498Y-32992320D01*
X107716188Y-33112018D01*
X107703928Y-33236500D01*
X107703928Y-34137059D01*
X104039883Y-37801105D01*
X104008973Y-37826472D01*
X103983608Y-37857380D01*
X103907751Y-37949811D01*
X103832538Y-38090527D01*
X103802800Y-38188561D01*
X103786221Y-38243213D01*
X103770581Y-38402000D01*
X103774501Y-38441798D01*
X103774501Y-39342428D01*
X103734500Y-39342428D01*
X103610018Y-39354688D01*
X103490320Y-39390998D01*
X103380006Y-39449963D01*
X103283315Y-39529315D01*
X103203963Y-39626006D01*
X103144998Y-39736320D01*
X103108688Y-39856018D01*
X103096428Y-39980500D01*
X102324524Y-39980500D01*
X102396227Y-39807397D01*
X102436001Y-39607438D01*
X102436001Y-39403560D01*
X102396227Y-39203601D01*
X102318206Y-39015243D01*
X102204938Y-38845725D01*
X102060775Y-38701562D01*
X101891257Y-38588294D01*
X101702899Y-38510273D01*
X101502940Y-38470499D01*
X101299062Y-38470499D01*
X101099103Y-38510273D01*
X100910745Y-38588294D01*
X100750301Y-38695499D01*
X100285089Y-38695499D01*
X100245301Y-38691580D01*
X100205513Y-38695499D01*
X100205510Y-38695499D01*
X100086513Y-38707219D01*
X99933828Y-38753536D01*
X99882903Y-38780756D01*
X99793111Y-38828750D01*
X99747688Y-38866028D01*
X99669773Y-38929971D01*
X99644406Y-38960881D01*
X99148559Y-39456728D01*
X97956000Y-39456728D01*
X97831518Y-39468988D01*
X97711820Y-39505298D01*
X97601506Y-39564263D01*
X97504815Y-39643615D01*
X97425463Y-39740306D01*
X97366498Y-39850620D01*
X97330188Y-39970318D01*
X97317928Y-40094800D01*
X97317928Y-40134800D01*
X78534486Y-40134800D01*
X78494698Y-40130881D01*
X78454910Y-40134800D01*
X78454907Y-40134800D01*
X78335910Y-40146520D01*
X78218761Y-40182057D01*
X78183224Y-40192837D01*
X78062320Y-40257462D01*
X78042509Y-40268051D01*
X77919170Y-40369272D01*
X77893805Y-40400180D01*
X77003486Y-41290500D01*
X69635787Y-41290500D01*
X69595999Y-41286581D01*
X69556211Y-41290500D01*
X69556209Y-41290500D01*
X69437212Y-41302220D01*
X69284527Y-41348537D01*
X69219024Y-41383549D01*
X69143810Y-41423751D01*
X69088210Y-41469381D01*
X69020472Y-41524972D01*
X68995107Y-41555880D01*
X65458429Y-45092559D01*
X65297260Y-45060500D01*
X65004740Y-45060500D01*
X64717842Y-45117568D01*
X64447589Y-45229510D01*
X64204368Y-45392025D01*
X64072513Y-45523880D01*
X64050502Y-45451320D01*
X63991537Y-45341006D01*
X63912185Y-45244315D01*
X63815494Y-45164963D01*
X63705180Y-45105998D01*
X63585482Y-45069688D01*
X63461000Y-45057428D01*
X61761000Y-45057428D01*
X61636518Y-45069688D01*
X61516820Y-45105998D01*
X61406506Y-45164963D01*
X61309815Y-45244315D01*
X61230463Y-45341006D01*
X61171498Y-45451320D01*
X61135188Y-45571018D01*
X61122928Y-45695500D01*
X61122928Y-47395500D01*
X61135188Y-47519982D01*
X61171498Y-47639680D01*
X61230463Y-47749994D01*
X61309815Y-47846685D01*
X61406506Y-47926037D01*
X61516820Y-47985002D01*
X61589380Y-48007013D01*
X61457525Y-48138868D01*
X61332822Y-48325500D01*
X58171211Y-48325500D01*
X58127274Y-48281563D01*
X57957756Y-48168295D01*
X57769398Y-48090274D01*
X57569439Y-48050500D01*
X57365561Y-48050500D01*
X57165602Y-48090274D01*
X56977244Y-48168295D01*
X56807726Y-48281563D01*
X56663563Y-48425726D01*
X56550295Y-48595244D01*
X56472274Y-48783602D01*
X56432500Y-48983561D01*
X42670000Y-48983561D01*
X42670000Y-45788711D01*
X42713937Y-45744774D01*
X42827205Y-45575256D01*
X42905226Y-45386898D01*
X42945000Y-45186939D01*
X42945000Y-44983061D01*
X42905226Y-44783102D01*
X42827205Y-44594744D01*
X42713937Y-44425226D01*
X42569774Y-44281063D01*
X42400256Y-44167795D01*
X42211898Y-44089774D01*
X42011939Y-44050000D01*
X41808061Y-44050000D01*
X41608102Y-44089774D01*
X41419744Y-44167795D01*
X41250226Y-44281063D01*
X41106063Y-44425226D01*
X40992795Y-44594744D01*
X40914774Y-44783102D01*
X40875000Y-44983061D01*
X40875000Y-45186939D01*
X40914774Y-45386898D01*
X40992795Y-45575256D01*
X41106063Y-45744774D01*
X41150001Y-45788712D01*
X41150000Y-50762677D01*
X41146324Y-50800000D01*
X41150000Y-50837322D01*
X41150000Y-50837332D01*
X41160997Y-50948985D01*
X41202407Y-51085499D01*
X41204454Y-51092246D01*
X41275026Y-51224276D01*
X41311410Y-51268610D01*
X41369999Y-51340001D01*
X41399003Y-51363804D01*
X58491201Y-68456003D01*
X58514999Y-68485001D01*
X58543997Y-68508799D01*
X58630724Y-68579974D01*
X58762753Y-68650546D01*
X58906014Y-68694003D01*
X59055000Y-68708677D01*
X59092333Y-68705000D01*
X76706094Y-68705000D01*
X76698768Y-68741829D01*
X76698768Y-68945707D01*
X76738542Y-69145666D01*
X76816563Y-69334024D01*
X76929831Y-69503542D01*
X77004909Y-69578620D01*
X77007398Y-69603896D01*
X77009403Y-69624250D01*
X77041231Y-69729173D01*
X77041231Y-69886128D01*
X77037675Y-69922233D01*
X77051866Y-70066318D01*
X77057607Y-70085244D01*
X77093894Y-70204865D01*
X77162144Y-70332552D01*
X77253993Y-70444470D01*
X77282039Y-70467487D01*
X77594972Y-70780420D01*
X77617993Y-70808471D01*
X77729911Y-70900320D01*
X77778550Y-70926318D01*
X77857597Y-70968570D01*
X77996146Y-71010598D01*
X78140231Y-71024789D01*
X78176336Y-71021233D01*
X78221009Y-71021233D01*
X78221008Y-75839660D01*
X77701816Y-76358853D01*
X77673771Y-76381869D01*
X77581922Y-76493787D01*
X77549509Y-76554428D01*
X77513672Y-76621474D01*
X77471643Y-76760022D01*
X77457452Y-76904107D01*
X77461009Y-76940222D01*
X77461008Y-80712405D01*
X77457452Y-80748510D01*
X77463689Y-80811835D01*
X77471643Y-80892594D01*
X77513671Y-81031142D01*
X77581921Y-81158829D01*
X77673770Y-81270747D01*
X77701816Y-81293764D01*
X78561000Y-82152949D01*
X78561000Y-82401047D01*
X78474320Y-82530773D01*
X78366147Y-82791926D01*
X78311000Y-83069165D01*
X78311000Y-83351835D01*
X78366147Y-83629074D01*
X78474320Y-83890227D01*
X78631363Y-84125259D01*
X78831241Y-84325137D01*
X79063759Y-84480500D01*
X78831241Y-84635863D01*
X78631363Y-84835741D01*
X78527957Y-84990500D01*
X72222302Y-84990500D01*
X36468000Y-49236199D01*
X36468000Y-49174061D01*
X36428226Y-48974102D01*
X36350205Y-48785744D01*
X36236937Y-48616226D01*
X36092774Y-48472063D01*
X35923256Y-48358795D01*
X35734898Y-48280774D01*
X35534939Y-48241000D01*
X35331061Y-48241000D01*
X35131102Y-48280774D01*
X34942744Y-48358795D01*
X34773226Y-48472063D01*
X34629063Y-48616226D01*
X34515795Y-48785744D01*
X34437774Y-48974102D01*
X34398000Y-49174061D01*
X34398000Y-49377939D01*
X34437774Y-49577898D01*
X34515795Y-49766256D01*
X34629063Y-49935774D01*
X34773226Y-50079937D01*
X34942744Y-50193205D01*
X35131102Y-50271226D01*
X35331061Y-50311000D01*
X35393199Y-50311000D01*
X71343701Y-86261503D01*
X71367499Y-86290501D01*
X71396497Y-86314299D01*
X71483224Y-86385474D01*
X71615253Y-86456046D01*
X71758514Y-86499503D01*
X71907500Y-86514177D01*
X71944833Y-86510500D01*
X78527957Y-86510500D01*
X78631363Y-86665259D01*
X78831241Y-86865137D01*
X79063759Y-87020500D01*
X78831241Y-87175863D01*
X78631363Y-87375741D01*
X78474320Y-87610773D01*
X78366147Y-87871926D01*
X78311000Y-88149165D01*
X78311000Y-88431835D01*
X78366147Y-88709074D01*
X78474320Y-88970227D01*
X78631363Y-89205259D01*
X78831241Y-89405137D01*
X79063759Y-89560500D01*
X78831241Y-89715863D01*
X78631363Y-89915741D01*
X78474320Y-90150773D01*
X78366147Y-90411926D01*
X78311000Y-90689165D01*
X78311000Y-90971835D01*
X78347312Y-91154387D01*
X78110001Y-91391697D01*
X78080998Y-91415500D01*
X78025870Y-91482675D01*
X77986025Y-91531225D01*
X77966411Y-91567920D01*
X77915453Y-91663255D01*
X77871996Y-91806516D01*
X77860999Y-91918169D01*
X77860999Y-91918179D01*
X77857323Y-91955501D01*
X77860999Y-91992823D01*
X77861000Y-105650698D01*
X72261000Y-100050699D01*
X72261000Y-91413825D01*
X72264676Y-91376500D01*
X72261000Y-91339175D01*
X72261000Y-91339167D01*
X72250003Y-91227514D01*
X72206546Y-91084253D01*
X72135974Y-90952224D01*
X72041001Y-90836499D01*
X72012004Y-90812702D01*
X55708500Y-74509199D01*
X55708500Y-74447061D01*
X55668726Y-74247102D01*
X55590705Y-74058744D01*
X55477437Y-73889226D01*
X55333274Y-73745063D01*
X55163756Y-73631795D01*
X54975398Y-73553774D01*
X54775439Y-73514000D01*
X54571561Y-73514000D01*
X54371602Y-73553774D01*
X54183244Y-73631795D01*
X54013726Y-73745063D01*
X53869563Y-73889226D01*
X53756295Y-74058744D01*
X53678274Y-74247102D01*
X53638500Y-74447061D01*
X53638500Y-74650939D01*
X53678274Y-74850898D01*
X53756295Y-75039256D01*
X53869563Y-75208774D01*
X54013726Y-75352937D01*
X54183244Y-75466205D01*
X54371602Y-75544226D01*
X54571561Y-75584000D01*
X54633699Y-75584000D01*
X70741000Y-91691302D01*
X70741001Y-97096199D01*
X70585000Y-96940198D01*
X70585000Y-96878061D01*
X70545226Y-96678102D01*
X70467205Y-96489744D01*
X70353937Y-96320226D01*
X70209774Y-96176063D01*
X70040256Y-96062795D01*
X69851898Y-95984774D01*
X69651939Y-95945000D01*
X69448061Y-95945000D01*
X69248102Y-95984774D01*
X69059744Y-96062795D01*
X68890226Y-96176063D01*
X68746063Y-96320226D01*
X68632795Y-96489744D01*
X68554774Y-96678102D01*
X68515000Y-96878061D01*
X68515000Y-97081939D01*
X68554774Y-97281898D01*
X68632795Y-97470256D01*
X68746063Y-97639774D01*
X68890226Y-97783937D01*
X69059744Y-97897205D01*
X69248102Y-97975226D01*
X69448061Y-98015000D01*
X69510198Y-98015000D01*
X70290991Y-98795794D01*
X70290990Y-100514577D01*
X70287314Y-100551900D01*
X70290990Y-100589222D01*
X70290990Y-100589232D01*
X70301987Y-100700885D01*
X70331978Y-100799753D01*
X70345444Y-100844146D01*
X70416016Y-100976176D01*
X70452036Y-101020066D01*
X70510989Y-101091901D01*
X70539992Y-101115703D01*
X71735415Y-102311128D01*
X71642795Y-102449744D01*
X71613284Y-102520989D01*
X71567205Y-102409744D01*
X71453937Y-102240226D01*
X71309774Y-102096063D01*
X71140256Y-101982795D01*
X70951898Y-101904774D01*
X70751939Y-101865000D01*
X70548061Y-101865000D01*
X70348102Y-101904774D01*
X70159744Y-101982795D01*
X69990226Y-102096063D01*
X69846063Y-102240226D01*
X69732795Y-102409744D01*
X69700000Y-102488918D01*
X69700000Y-101749820D01*
X69703676Y-101712497D01*
X69700000Y-101675174D01*
X69700000Y-101675165D01*
X69689003Y-101563512D01*
X69645546Y-101420251D01*
X69574974Y-101288222D01*
X69480001Y-101172497D01*
X69451003Y-101148699D01*
X63612806Y-95310503D01*
X63589003Y-95281499D01*
X63473278Y-95186526D01*
X63341249Y-95115954D01*
X63197988Y-95072497D01*
X63086335Y-95061500D01*
X63086324Y-95061500D01*
X63049002Y-95057824D01*
X63011680Y-95061500D01*
X62997211Y-95061500D01*
X62953274Y-95017563D01*
X62783756Y-94904295D01*
X62595398Y-94826274D01*
X62395439Y-94786500D01*
X62191561Y-94786500D01*
X61991602Y-94826274D01*
X61803244Y-94904295D01*
X61633726Y-95017563D01*
X61589789Y-95061500D01*
X52518300Y-95061500D01*
X50897755Y-93440956D01*
X50968937Y-93369774D01*
X51082205Y-93200256D01*
X51160226Y-93011898D01*
X51200000Y-92811939D01*
X51200000Y-92608061D01*
X51160226Y-92408102D01*
X51082205Y-92219744D01*
X50968937Y-92050226D01*
X50824774Y-91906063D01*
X50655256Y-91792795D01*
X50466898Y-91714774D01*
X50266939Y-91675000D01*
X50141302Y-91675000D01*
X35198000Y-76731699D01*
X35198000Y-76669561D01*
X35158226Y-76469602D01*
X35080205Y-76281244D01*
X34966937Y-76111726D01*
X34822774Y-75967563D01*
X34653256Y-75854295D01*
X34464898Y-75776274D01*
X34264939Y-75736500D01*
X34061061Y-75736500D01*
X33861102Y-75776274D01*
X33672744Y-75854295D01*
X33503226Y-75967563D01*
X33359063Y-76111726D01*
X33245795Y-76281244D01*
X33167774Y-76469602D01*
X33128000Y-76669561D01*
X29329924Y-76669561D01*
X29312891Y-76663519D01*
X29083000Y-76784186D01*
X28829000Y-76784186D01*
X28599109Y-76663519D01*
X28324748Y-76760843D01*
X28074645Y-76909822D01*
X27858412Y-77104731D01*
X27684359Y-77338080D01*
X27559175Y-77600901D01*
X27514524Y-77748110D01*
X17907000Y-77748110D01*
X17907000Y-34861939D01*
X78765000Y-34861939D01*
X78765000Y-35115061D01*
X78814381Y-35363321D01*
X78911247Y-35597176D01*
X79051875Y-35807640D01*
X79230860Y-35986625D01*
X79441324Y-36127253D01*
X79675179Y-36224119D01*
X79923439Y-36273500D01*
X80176561Y-36273500D01*
X80424821Y-36224119D01*
X80658676Y-36127253D01*
X80869140Y-35986625D01*
X81048125Y-35807640D01*
X81188753Y-35597176D01*
X81285619Y-35363321D01*
X81335000Y-35115061D01*
X81335000Y-34861939D01*
X83765000Y-34861939D01*
X83765000Y-35115061D01*
X83814381Y-35363321D01*
X83911247Y-35597176D01*
X84051875Y-35807640D01*
X84230860Y-35986625D01*
X84441324Y-36127253D01*
X84675179Y-36224119D01*
X84923439Y-36273500D01*
X85176561Y-36273500D01*
X85424821Y-36224119D01*
X85658676Y-36127253D01*
X85869140Y-35986625D01*
X86048125Y-35807640D01*
X86188753Y-35597176D01*
X86285619Y-35363321D01*
X86335000Y-35115061D01*
X86335000Y-34861939D01*
X86285619Y-34613679D01*
X86188753Y-34379824D01*
X86048125Y-34169360D01*
X85869140Y-33990375D01*
X85658676Y-33849747D01*
X85424821Y-33752881D01*
X85176561Y-33703500D01*
X84923439Y-33703500D01*
X84675179Y-33752881D01*
X84441324Y-33849747D01*
X84230860Y-33990375D01*
X84051875Y-34169360D01*
X83911247Y-34379824D01*
X83814381Y-34613679D01*
X83765000Y-34861939D01*
X81335000Y-34861939D01*
X81285619Y-34613679D01*
X81188753Y-34379824D01*
X81048125Y-34169360D01*
X80869140Y-33990375D01*
X80658676Y-33849747D01*
X80424821Y-33752881D01*
X80176561Y-33703500D01*
X79923439Y-33703500D01*
X79675179Y-33752881D01*
X79441324Y-33849747D01*
X79230860Y-33990375D01*
X79051875Y-34169360D01*
X78911247Y-34379824D01*
X78814381Y-34613679D01*
X78765000Y-34861939D01*
X17907000Y-34861939D01*
X17907000Y-30208620D01*
X112707000Y-30208620D01*
X112707000Y-30472380D01*
X112758457Y-30731072D01*
X112859393Y-30974754D01*
X113005931Y-31194063D01*
X113192437Y-31380569D01*
X113411746Y-31527107D01*
X113655428Y-31628043D01*
X113914120Y-31679500D01*
X114177880Y-31679500D01*
X114436572Y-31628043D01*
X114680254Y-31527107D01*
X114899563Y-31380569D01*
X115086069Y-31194063D01*
X115148586Y-31100500D01*
X133071199Y-31100500D01*
X135643928Y-33673230D01*
X135643928Y-34644500D01*
X135656188Y-34768982D01*
X135692498Y-34888680D01*
X135751463Y-34998994D01*
X135830815Y-35095685D01*
X135927506Y-35175037D01*
X136037820Y-35234002D01*
X136157518Y-35270312D01*
X136282000Y-35282572D01*
X137690000Y-35282572D01*
X137814482Y-35270312D01*
X137934180Y-35234002D01*
X138044494Y-35175037D01*
X138141185Y-35095685D01*
X138220537Y-34998994D01*
X138279502Y-34888680D01*
X138315812Y-34768982D01*
X138328072Y-34644500D01*
X138328072Y-33808620D01*
X145647000Y-33808620D01*
X145647000Y-34072380D01*
X145698457Y-34331072D01*
X145799393Y-34574754D01*
X145945931Y-34794063D01*
X146132437Y-34980569D01*
X146351746Y-35127107D01*
X146595428Y-35228043D01*
X146854120Y-35279500D01*
X147117880Y-35279500D01*
X147376572Y-35228043D01*
X147620254Y-35127107D01*
X147839563Y-34980569D01*
X148026069Y-34794063D01*
X148172607Y-34574754D01*
X148273543Y-34331072D01*
X148325000Y-34072380D01*
X148325000Y-33808620D01*
X148273543Y-33549928D01*
X148172607Y-33306246D01*
X148026069Y-33086937D01*
X147839563Y-32900431D01*
X147620254Y-32753893D01*
X147376572Y-32652957D01*
X147117880Y-32601500D01*
X146854120Y-32601500D01*
X146595428Y-32652957D01*
X146351746Y-32753893D01*
X146132437Y-32900431D01*
X145945931Y-33086937D01*
X145799393Y-33306246D01*
X145698457Y-33549928D01*
X145647000Y-33808620D01*
X138328072Y-33808620D01*
X138328072Y-33236500D01*
X138315812Y-33112018D01*
X138279502Y-32992320D01*
X138220537Y-32882006D01*
X138141185Y-32785315D01*
X138044494Y-32705963D01*
X137934180Y-32646998D01*
X137814482Y-32610688D01*
X137690000Y-32598428D01*
X136718730Y-32598428D01*
X135384930Y-31264628D01*
X141241477Y-31264628D01*
X141301423Y-31498805D01*
X141540551Y-31610102D01*
X141796797Y-31672609D01*
X142060314Y-31683925D01*
X142320976Y-31643614D01*
X142568764Y-31553224D01*
X142670577Y-31498805D01*
X142730523Y-31264628D01*
X141986000Y-30520105D01*
X141241477Y-31264628D01*
X135384930Y-31264628D01*
X134535116Y-30414814D01*
X140642575Y-30414814D01*
X140682886Y-30675476D01*
X140773276Y-30923264D01*
X140827695Y-31025077D01*
X141061872Y-31085023D01*
X141806395Y-30340500D01*
X142165605Y-30340500D01*
X142910128Y-31085023D01*
X143144305Y-31025077D01*
X143255602Y-30785949D01*
X143318109Y-30529703D01*
X143329425Y-30266186D01*
X143289114Y-30005524D01*
X143198724Y-29757736D01*
X143144305Y-29655923D01*
X142910128Y-29595977D01*
X142165605Y-30340500D01*
X141806395Y-30340500D01*
X141061872Y-29595977D01*
X140827695Y-29655923D01*
X140716398Y-29895051D01*
X140653891Y-30151297D01*
X140642575Y-30414814D01*
X134535116Y-30414814D01*
X133949804Y-29829503D01*
X133926001Y-29800499D01*
X133810276Y-29705526D01*
X133678247Y-29634954D01*
X133534986Y-29591497D01*
X133423333Y-29580500D01*
X133423322Y-29580500D01*
X133386000Y-29576824D01*
X133348678Y-29580500D01*
X115148586Y-29580500D01*
X115086069Y-29486937D01*
X115015504Y-29416372D01*
X141241477Y-29416372D01*
X141986000Y-30160895D01*
X142730523Y-29416372D01*
X142670577Y-29182195D01*
X142431449Y-29070898D01*
X142175203Y-29008391D01*
X141911686Y-28997075D01*
X141651024Y-29037386D01*
X141403236Y-29127776D01*
X141301423Y-29182195D01*
X141241477Y-29416372D01*
X115015504Y-29416372D01*
X114899563Y-29300431D01*
X114680254Y-29153893D01*
X114436572Y-29052957D01*
X114177880Y-29001500D01*
X113914120Y-29001500D01*
X113655428Y-29052957D01*
X113411746Y-29153893D01*
X113192437Y-29300431D01*
X113005931Y-29486937D01*
X112859393Y-29706246D01*
X112758457Y-29949928D01*
X112707000Y-30208620D01*
X17907000Y-30208620D01*
X17907000Y-25182606D01*
X18832606Y-24257000D01*
X171667394Y-24257000D01*
X172593000Y-25182606D01*
G37*
G04 #@! TD.AperFunction*
D24*
X85702106Y-97630119D02*
X85727473Y-97661029D01*
X85850812Y-97762250D01*
X85991528Y-97837464D01*
X86058305Y-97857721D01*
X85986147Y-98031926D01*
X85931000Y-98309165D01*
X85931000Y-98480699D01*
X84735999Y-97285698D01*
X84735999Y-97223560D01*
X84696225Y-97023601D01*
X84618204Y-96835243D01*
X84504936Y-96665725D01*
X84360773Y-96521562D01*
X84191255Y-96408294D01*
X84002897Y-96330273D01*
X83802938Y-96290499D01*
X83599060Y-96290499D01*
X83399101Y-96330273D01*
X83210743Y-96408294D01*
X83041225Y-96521562D01*
X82897062Y-96665725D01*
X82783794Y-96835243D01*
X82705773Y-97023601D01*
X82665999Y-97223560D01*
X82665999Y-97427438D01*
X82705773Y-97627397D01*
X82783794Y-97815755D01*
X82897062Y-97985273D01*
X83041225Y-98129436D01*
X83210743Y-98242704D01*
X83399101Y-98320725D01*
X83599060Y-98360499D01*
X83661198Y-98360499D01*
X85967312Y-100666614D01*
X85931000Y-100849165D01*
X85931000Y-101131835D01*
X85986147Y-101409074D01*
X86094320Y-101670227D01*
X86251363Y-101905259D01*
X86251400Y-101905296D01*
X85386197Y-102770500D01*
X83491629Y-102770500D01*
X83601706Y-102605757D01*
X83679727Y-102417399D01*
X83719501Y-102217440D01*
X83719501Y-102013562D01*
X83679727Y-101813603D01*
X83601706Y-101625245D01*
X83488438Y-101455727D01*
X83344275Y-101311564D01*
X83174757Y-101198296D01*
X82986399Y-101120275D01*
X82786440Y-101080501D01*
X82724303Y-101080501D01*
X82544300Y-100900499D01*
X82671940Y-100900499D01*
X82871899Y-100860725D01*
X83060257Y-100782704D01*
X83229775Y-100669436D01*
X83373938Y-100525273D01*
X83487206Y-100355755D01*
X83565227Y-100167397D01*
X83605001Y-99967438D01*
X83605001Y-99763560D01*
X83565227Y-99563601D01*
X83487206Y-99375243D01*
X83373938Y-99205725D01*
X83229775Y-99061562D01*
X83060257Y-98948294D01*
X82871899Y-98870273D01*
X82671940Y-98830499D01*
X82468062Y-98830499D01*
X82268103Y-98870273D01*
X82079745Y-98948294D01*
X81910227Y-99061562D01*
X81866290Y-99105499D01*
X81475801Y-99105499D01*
X81144688Y-98774386D01*
X81181000Y-98591835D01*
X81181000Y-98309165D01*
X81125853Y-98031926D01*
X81017680Y-97770773D01*
X80860637Y-97535741D01*
X80660759Y-97335863D01*
X80425727Y-97178820D01*
X80415135Y-97174433D01*
X80601131Y-97062885D01*
X80809519Y-96873914D01*
X80977037Y-96647920D01*
X81097246Y-96393587D01*
X81137904Y-96259539D01*
X81015915Y-96037500D01*
X79873000Y-96037500D01*
X79873000Y-96057500D01*
X79619000Y-96057500D01*
X79619000Y-96037500D01*
X79599000Y-96037500D01*
X79599000Y-95783500D01*
X79619000Y-95783500D01*
X79619000Y-95763500D01*
X79873000Y-95763500D01*
X79873000Y-95783500D01*
X81015915Y-95783500D01*
X81137904Y-95561461D01*
X81097246Y-95427413D01*
X80977037Y-95173080D01*
X80809519Y-94947086D01*
X80601131Y-94758115D01*
X80415135Y-94646567D01*
X80425727Y-94642180D01*
X80660759Y-94485137D01*
X80860637Y-94285259D01*
X80930635Y-94180500D01*
X82252488Y-94180500D01*
X85702106Y-97630119D01*
G04 #@! TA.AperFunction,Conductor*
D25*
G36*
X85702106Y-97630119D02*
G01*
X85727473Y-97661029D01*
X85850812Y-97762250D01*
X85991528Y-97837464D01*
X86058305Y-97857721D01*
X85986147Y-98031926D01*
X85931000Y-98309165D01*
X85931000Y-98480699D01*
X84735999Y-97285698D01*
X84735999Y-97223560D01*
X84696225Y-97023601D01*
X84618204Y-96835243D01*
X84504936Y-96665725D01*
X84360773Y-96521562D01*
X84191255Y-96408294D01*
X84002897Y-96330273D01*
X83802938Y-96290499D01*
X83599060Y-96290499D01*
X83399101Y-96330273D01*
X83210743Y-96408294D01*
X83041225Y-96521562D01*
X82897062Y-96665725D01*
X82783794Y-96835243D01*
X82705773Y-97023601D01*
X82665999Y-97223560D01*
X82665999Y-97427438D01*
X82705773Y-97627397D01*
X82783794Y-97815755D01*
X82897062Y-97985273D01*
X83041225Y-98129436D01*
X83210743Y-98242704D01*
X83399101Y-98320725D01*
X83599060Y-98360499D01*
X83661198Y-98360499D01*
X85967312Y-100666614D01*
X85931000Y-100849165D01*
X85931000Y-101131835D01*
X85986147Y-101409074D01*
X86094320Y-101670227D01*
X86251363Y-101905259D01*
X86251400Y-101905296D01*
X85386197Y-102770500D01*
X83491629Y-102770500D01*
X83601706Y-102605757D01*
X83679727Y-102417399D01*
X83719501Y-102217440D01*
X83719501Y-102013562D01*
X83679727Y-101813603D01*
X83601706Y-101625245D01*
X83488438Y-101455727D01*
X83344275Y-101311564D01*
X83174757Y-101198296D01*
X82986399Y-101120275D01*
X82786440Y-101080501D01*
X82724303Y-101080501D01*
X82544300Y-100900499D01*
X82671940Y-100900499D01*
X82871899Y-100860725D01*
X83060257Y-100782704D01*
X83229775Y-100669436D01*
X83373938Y-100525273D01*
X83487206Y-100355755D01*
X83565227Y-100167397D01*
X83605001Y-99967438D01*
X83605001Y-99763560D01*
X83565227Y-99563601D01*
X83487206Y-99375243D01*
X83373938Y-99205725D01*
X83229775Y-99061562D01*
X83060257Y-98948294D01*
X82871899Y-98870273D01*
X82671940Y-98830499D01*
X82468062Y-98830499D01*
X82268103Y-98870273D01*
X82079745Y-98948294D01*
X81910227Y-99061562D01*
X81866290Y-99105499D01*
X81475801Y-99105499D01*
X81144688Y-98774386D01*
X81181000Y-98591835D01*
X81181000Y-98309165D01*
X81125853Y-98031926D01*
X81017680Y-97770773D01*
X80860637Y-97535741D01*
X80660759Y-97335863D01*
X80425727Y-97178820D01*
X80415135Y-97174433D01*
X80601131Y-97062885D01*
X80809519Y-96873914D01*
X80977037Y-96647920D01*
X81097246Y-96393587D01*
X81137904Y-96259539D01*
X81015915Y-96037500D01*
X79873000Y-96037500D01*
X79873000Y-96057500D01*
X79619000Y-96057500D01*
X79619000Y-96037500D01*
X79599000Y-96037500D01*
X79599000Y-95783500D01*
X79619000Y-95783500D01*
X79619000Y-95763500D01*
X79873000Y-95763500D01*
X79873000Y-95783500D01*
X81015915Y-95783500D01*
X81137904Y-95561461D01*
X81097246Y-95427413D01*
X80977037Y-95173080D01*
X80809519Y-94947086D01*
X80601131Y-94758115D01*
X80415135Y-94646567D01*
X80425727Y-94642180D01*
X80660759Y-94485137D01*
X80860637Y-94285259D01*
X80930635Y-94180500D01*
X82252488Y-94180500D01*
X85702106Y-97630119D01*
G37*
G04 #@! TD.AperFunction*
D24*
X90145226Y-68748937D02*
X90314744Y-68862205D01*
X90503102Y-68940226D01*
X90703061Y-68980000D01*
X90906939Y-68980000D01*
X91068144Y-68947935D01*
X81856488Y-78159591D01*
X81827490Y-78183389D01*
X81803692Y-78212387D01*
X81803691Y-78212388D01*
X81732516Y-78299114D01*
X81661944Y-78431144D01*
X81618488Y-78574405D01*
X81603814Y-78723390D01*
X81607491Y-78760722D01*
X81607490Y-85354208D01*
X81181000Y-85780698D01*
X81181000Y-85609165D01*
X81125853Y-85331926D01*
X81017680Y-85070773D01*
X80860637Y-84835741D01*
X80660759Y-84635863D01*
X80428241Y-84480500D01*
X80660759Y-84325137D01*
X80860637Y-84125259D01*
X81017680Y-83890227D01*
X81125853Y-83629074D01*
X81181000Y-83351835D01*
X81181000Y-83069165D01*
X81125853Y-82791926D01*
X81017680Y-82530773D01*
X80860637Y-82295741D01*
X80660759Y-82095863D01*
X80428241Y-81940500D01*
X80660759Y-81785137D01*
X80860637Y-81585259D01*
X81017680Y-81350227D01*
X81125853Y-81089074D01*
X81181000Y-80811835D01*
X81181000Y-80529165D01*
X81125853Y-80251926D01*
X81017680Y-79990773D01*
X80860637Y-79755741D01*
X80662039Y-79557143D01*
X80670482Y-79556312D01*
X80790180Y-79520002D01*
X80900494Y-79461037D01*
X80997185Y-79381685D01*
X81076537Y-79284994D01*
X81135502Y-79174680D01*
X81171812Y-79054982D01*
X81184072Y-78930500D01*
X81184072Y-77767229D01*
X85320802Y-73630500D01*
X85382939Y-73630500D01*
X85582898Y-73590726D01*
X85771256Y-73512705D01*
X85940774Y-73399437D01*
X86084937Y-73255274D01*
X86198205Y-73085756D01*
X86276226Y-72897398D01*
X86316000Y-72697439D01*
X86316000Y-72493561D01*
X86276226Y-72293602D01*
X86198205Y-72105244D01*
X86084937Y-71935726D01*
X85940774Y-71791563D01*
X85771256Y-71678295D01*
X85582898Y-71600274D01*
X85382939Y-71560500D01*
X85179061Y-71560500D01*
X84979102Y-71600274D01*
X84790744Y-71678295D01*
X84621226Y-71791563D01*
X84477063Y-71935726D01*
X84363795Y-72105244D01*
X84285774Y-72293602D01*
X84246000Y-72493561D01*
X84246000Y-72555698D01*
X80866000Y-75935699D01*
X80866000Y-74142211D01*
X80909937Y-74098274D01*
X81023205Y-73928756D01*
X81101226Y-73740398D01*
X81141000Y-73540439D01*
X81141000Y-73336561D01*
X81101226Y-73136602D01*
X81023205Y-72948244D01*
X80909937Y-72778726D01*
X80765774Y-72634563D01*
X80596256Y-72521295D01*
X80407898Y-72443274D01*
X80207939Y-72403500D01*
X80140999Y-72403500D01*
X80140999Y-70552095D01*
X80144554Y-70515998D01*
X80140999Y-70479901D01*
X80140999Y-70479894D01*
X80130364Y-70371914D01*
X80125779Y-70356797D01*
X80104373Y-70286233D01*
X80088336Y-70233366D01*
X80020086Y-70105679D01*
X79928237Y-69993761D01*
X79900192Y-69970745D01*
X79511232Y-69581785D01*
X79511232Y-69484293D01*
X79471458Y-69284334D01*
X79393437Y-69095976D01*
X79280169Y-68926458D01*
X79136006Y-68782295D01*
X79020326Y-68705000D01*
X90101289Y-68705000D01*
X90145226Y-68748937D01*
G04 #@! TA.AperFunction,Conductor*
D25*
G36*
X90145226Y-68748937D02*
G01*
X90314744Y-68862205D01*
X90503102Y-68940226D01*
X90703061Y-68980000D01*
X90906939Y-68980000D01*
X91068144Y-68947935D01*
X81856488Y-78159591D01*
X81827490Y-78183389D01*
X81803692Y-78212387D01*
X81803691Y-78212388D01*
X81732516Y-78299114D01*
X81661944Y-78431144D01*
X81618488Y-78574405D01*
X81603814Y-78723390D01*
X81607491Y-78760722D01*
X81607490Y-85354208D01*
X81181000Y-85780698D01*
X81181000Y-85609165D01*
X81125853Y-85331926D01*
X81017680Y-85070773D01*
X80860637Y-84835741D01*
X80660759Y-84635863D01*
X80428241Y-84480500D01*
X80660759Y-84325137D01*
X80860637Y-84125259D01*
X81017680Y-83890227D01*
X81125853Y-83629074D01*
X81181000Y-83351835D01*
X81181000Y-83069165D01*
X81125853Y-82791926D01*
X81017680Y-82530773D01*
X80860637Y-82295741D01*
X80660759Y-82095863D01*
X80428241Y-81940500D01*
X80660759Y-81785137D01*
X80860637Y-81585259D01*
X81017680Y-81350227D01*
X81125853Y-81089074D01*
X81181000Y-80811835D01*
X81181000Y-80529165D01*
X81125853Y-80251926D01*
X81017680Y-79990773D01*
X80860637Y-79755741D01*
X80662039Y-79557143D01*
X80670482Y-79556312D01*
X80790180Y-79520002D01*
X80900494Y-79461037D01*
X80997185Y-79381685D01*
X81076537Y-79284994D01*
X81135502Y-79174680D01*
X81171812Y-79054982D01*
X81184072Y-78930500D01*
X81184072Y-77767229D01*
X85320802Y-73630500D01*
X85382939Y-73630500D01*
X85582898Y-73590726D01*
X85771256Y-73512705D01*
X85940774Y-73399437D01*
X86084937Y-73255274D01*
X86198205Y-73085756D01*
X86276226Y-72897398D01*
X86316000Y-72697439D01*
X86316000Y-72493561D01*
X86276226Y-72293602D01*
X86198205Y-72105244D01*
X86084937Y-71935726D01*
X85940774Y-71791563D01*
X85771256Y-71678295D01*
X85582898Y-71600274D01*
X85382939Y-71560500D01*
X85179061Y-71560500D01*
X84979102Y-71600274D01*
X84790744Y-71678295D01*
X84621226Y-71791563D01*
X84477063Y-71935726D01*
X84363795Y-72105244D01*
X84285774Y-72293602D01*
X84246000Y-72493561D01*
X84246000Y-72555698D01*
X80866000Y-75935699D01*
X80866000Y-74142211D01*
X80909937Y-74098274D01*
X81023205Y-73928756D01*
X81101226Y-73740398D01*
X81141000Y-73540439D01*
X81141000Y-73336561D01*
X81101226Y-73136602D01*
X81023205Y-72948244D01*
X80909937Y-72778726D01*
X80765774Y-72634563D01*
X80596256Y-72521295D01*
X80407898Y-72443274D01*
X80207939Y-72403500D01*
X80140999Y-72403500D01*
X80140999Y-70552095D01*
X80144554Y-70515998D01*
X80140999Y-70479901D01*
X80140999Y-70479894D01*
X80130364Y-70371914D01*
X80125779Y-70356797D01*
X80104373Y-70286233D01*
X80088336Y-70233366D01*
X80020086Y-70105679D01*
X79928237Y-69993761D01*
X79900192Y-69970745D01*
X79511232Y-69581785D01*
X79511232Y-69484293D01*
X79471458Y-69284334D01*
X79393437Y-69095976D01*
X79280169Y-68926458D01*
X79136006Y-68782295D01*
X79020326Y-68705000D01*
X90101289Y-68705000D01*
X90145226Y-68748937D01*
G37*
G04 #@! TD.AperFunction*
M02*
