G04 #@! TF.GenerationSoftware,KiCad,Pcbnew,(5.1.12-1-10_14)*
G04 #@! TF.CreationDate,2021-12-30T10:25:41+00:00*
G04 #@! TF.ProjectId,TICAF_v1,54494341-465f-4763-912e-6b696361645f,rev?*
G04 #@! TF.SameCoordinates,Original*
G04 #@! TF.FileFunction,Paste,Top*
G04 #@! TF.FilePolarity,Positive*
%FSLAX46Y46*%
G04 Gerber Fmt 4.6, Leading zero omitted, Abs format (unit mm)*
G04 Created by KiCad (PCBNEW (5.1.12-1-10_14)) date 2021-12-30 10:25:41*
%MOMM*%
%LPD*%
G01*
G04 APERTURE LIST*
%ADD10C,0.010000*%
%ADD11R,0.600000X0.700000*%
%ADD12R,0.900000X0.800000*%
%ADD13R,1.500000X0.400000*%
%ADD14R,1.150000X1.150000*%
%ADD15R,1.600000X1.500000*%
%ADD16R,1.200000X1.200000*%
%ADD17R,0.500000X0.475000*%
%ADD18R,0.475000X0.500000*%
%ADD19R,1.524000X3.524000*%
%ADD20R,2.500000X5.000000*%
%ADD21R,0.700000X0.600000*%
%ADD22R,1.200000X0.850000*%
%ADD23R,2.300000X0.900000*%
%ADD24R,1.600000X2.500000*%
G04 APERTURE END LIST*
D10*
G36*
X85056000Y-69880500D02*
G01*
X85506000Y-69880500D01*
X85506000Y-70330500D01*
X85056000Y-70330500D01*
X85056000Y-69880500D01*
G37*
X85056000Y-69880500D02*
X85506000Y-69880500D01*
X85506000Y-70330500D01*
X85056000Y-70330500D01*
X85056000Y-69880500D01*
G36*
X85056000Y-70630500D02*
G01*
X85506000Y-70630500D01*
X85506000Y-71080500D01*
X85056000Y-71080500D01*
X85056000Y-70630500D01*
G37*
X85056000Y-70630500D02*
X85506000Y-70630500D01*
X85506000Y-71080500D01*
X85056000Y-71080500D01*
X85056000Y-70630500D01*
G36*
X87706000Y-69880500D02*
G01*
X88156000Y-69880500D01*
X88156000Y-70330500D01*
X87706000Y-70330500D01*
X87706000Y-69880500D01*
G37*
X87706000Y-69880500D02*
X88156000Y-69880500D01*
X88156000Y-70330500D01*
X87706000Y-70330500D01*
X87706000Y-69880500D01*
G36*
X87706000Y-70630500D02*
G01*
X88156000Y-70630500D01*
X88156000Y-71080500D01*
X87706000Y-71080500D01*
X87706000Y-70630500D01*
G37*
X87706000Y-70630500D02*
X88156000Y-70630500D01*
X88156000Y-71080500D01*
X87706000Y-71080500D01*
X87706000Y-70630500D01*
G36*
X130780400Y-43110500D02*
G01*
X132230400Y-43110500D01*
X132230400Y-44370500D01*
X130780400Y-44370500D01*
X130780400Y-43110500D01*
G37*
X130780400Y-43110500D02*
X132230400Y-43110500D01*
X132230400Y-44370500D01*
X130780400Y-44370500D01*
X130780400Y-43110500D01*
G36*
X130780400Y-41310500D02*
G01*
X132230400Y-41310500D01*
X132230400Y-42570500D01*
X130780400Y-42570500D01*
X130780400Y-41310500D01*
G37*
X130780400Y-41310500D02*
X132230400Y-41310500D01*
X132230400Y-42570500D01*
X130780400Y-42570500D01*
X130780400Y-41310500D01*
G36*
X130780400Y-39510500D02*
G01*
X132230400Y-39510500D01*
X132230400Y-40770500D01*
X130780400Y-40770500D01*
X130780400Y-39510500D01*
G37*
X130780400Y-39510500D02*
X132230400Y-39510500D01*
X132230400Y-40770500D01*
X130780400Y-40770500D01*
X130780400Y-39510500D01*
G36*
X130780400Y-44910500D02*
G01*
X132230400Y-44910500D01*
X132230400Y-46170500D01*
X130780400Y-46170500D01*
X130780400Y-44910500D01*
G37*
X130780400Y-44910500D02*
X132230400Y-44910500D01*
X132230400Y-46170500D01*
X130780400Y-46170500D01*
X130780400Y-44910500D01*
G36*
X130780400Y-46710500D02*
G01*
X132230400Y-46710500D01*
X132230400Y-47970500D01*
X130780400Y-47970500D01*
X130780400Y-46710500D01*
G37*
X130780400Y-46710500D02*
X132230400Y-46710500D01*
X132230400Y-47970500D01*
X130780400Y-47970500D01*
X130780400Y-46710500D01*
G36*
X130780400Y-48510500D02*
G01*
X132230400Y-48510500D01*
X132230400Y-49770500D01*
X130780400Y-49770500D01*
X130780400Y-48510500D01*
G37*
X130780400Y-48510500D02*
X132230400Y-48510500D01*
X132230400Y-49770500D01*
X130780400Y-49770500D01*
X130780400Y-48510500D01*
G36*
X133320400Y-43110500D02*
G01*
X134770400Y-43110500D01*
X134770400Y-44370500D01*
X133320400Y-44370500D01*
X133320400Y-43110500D01*
G37*
X133320400Y-43110500D02*
X134770400Y-43110500D01*
X134770400Y-44370500D01*
X133320400Y-44370500D01*
X133320400Y-43110500D01*
G36*
X133320400Y-41310500D02*
G01*
X134770400Y-41310500D01*
X134770400Y-42570500D01*
X133320400Y-42570500D01*
X133320400Y-41310500D01*
G37*
X133320400Y-41310500D02*
X134770400Y-41310500D01*
X134770400Y-42570500D01*
X133320400Y-42570500D01*
X133320400Y-41310500D01*
G36*
X133320400Y-39510500D02*
G01*
X134770400Y-39510500D01*
X134770400Y-40770500D01*
X133320400Y-40770500D01*
X133320400Y-39510500D01*
G37*
X133320400Y-39510500D02*
X134770400Y-39510500D01*
X134770400Y-40770500D01*
X133320400Y-40770500D01*
X133320400Y-39510500D01*
G36*
X133320400Y-44910500D02*
G01*
X134770400Y-44910500D01*
X134770400Y-46170500D01*
X133320400Y-46170500D01*
X133320400Y-44910500D01*
G37*
X133320400Y-44910500D02*
X134770400Y-44910500D01*
X134770400Y-46170500D01*
X133320400Y-46170500D01*
X133320400Y-44910500D01*
G36*
X133320400Y-46710500D02*
G01*
X134770400Y-46710500D01*
X134770400Y-47970500D01*
X133320400Y-47970500D01*
X133320400Y-46710500D01*
G37*
X133320400Y-46710500D02*
X134770400Y-46710500D01*
X134770400Y-47970500D01*
X133320400Y-47970500D01*
X133320400Y-46710500D01*
G36*
X133320400Y-48510500D02*
G01*
X134770400Y-48510500D01*
X134770400Y-49770500D01*
X133320400Y-49770500D01*
X133320400Y-48510500D01*
G37*
X133320400Y-48510500D02*
X134770400Y-48510500D01*
X134770400Y-49770500D01*
X133320400Y-49770500D01*
X133320400Y-48510500D01*
G36*
X128240400Y-43110500D02*
G01*
X129690400Y-43110500D01*
X129690400Y-44370500D01*
X128240400Y-44370500D01*
X128240400Y-43110500D01*
G37*
X128240400Y-43110500D02*
X129690400Y-43110500D01*
X129690400Y-44370500D01*
X128240400Y-44370500D01*
X128240400Y-43110500D01*
G36*
X128240400Y-41310500D02*
G01*
X129690400Y-41310500D01*
X129690400Y-42570500D01*
X128240400Y-42570500D01*
X128240400Y-41310500D01*
G37*
X128240400Y-41310500D02*
X129690400Y-41310500D01*
X129690400Y-42570500D01*
X128240400Y-42570500D01*
X128240400Y-41310500D01*
G36*
X128240400Y-39510500D02*
G01*
X129690400Y-39510500D01*
X129690400Y-40770500D01*
X128240400Y-40770500D01*
X128240400Y-39510500D01*
G37*
X128240400Y-39510500D02*
X129690400Y-39510500D01*
X129690400Y-40770500D01*
X128240400Y-40770500D01*
X128240400Y-39510500D01*
G36*
X128240400Y-44910500D02*
G01*
X129690400Y-44910500D01*
X129690400Y-46170500D01*
X128240400Y-46170500D01*
X128240400Y-44910500D01*
G37*
X128240400Y-44910500D02*
X129690400Y-44910500D01*
X129690400Y-46170500D01*
X128240400Y-46170500D01*
X128240400Y-44910500D01*
G36*
X128240400Y-46710500D02*
G01*
X129690400Y-46710500D01*
X129690400Y-47970500D01*
X128240400Y-47970500D01*
X128240400Y-46710500D01*
G37*
X128240400Y-46710500D02*
X129690400Y-46710500D01*
X129690400Y-47970500D01*
X128240400Y-47970500D01*
X128240400Y-46710500D01*
G36*
X128240400Y-48510500D02*
G01*
X129690400Y-48510500D01*
X129690400Y-49770500D01*
X128240400Y-49770500D01*
X128240400Y-48510500D01*
G37*
X128240400Y-48510500D02*
X129690400Y-48510500D01*
X129690400Y-49770500D01*
X128240400Y-49770500D01*
X128240400Y-48510500D01*
D11*
X113400000Y-47200000D03*
X114800000Y-47200000D03*
D12*
X122620000Y-103600000D03*
X120620000Y-104550000D03*
X120620000Y-102650000D03*
X122810000Y-128770000D03*
X120810000Y-129720000D03*
X120810000Y-127820000D03*
X122850000Y-115010000D03*
X120850000Y-115960000D03*
X120850000Y-114060000D03*
G36*
G01*
X104734000Y-92098600D02*
X104734000Y-91162400D01*
G75*
G02*
X105020900Y-90875500I286900J0D01*
G01*
X109457100Y-90875500D01*
G75*
G02*
X109744000Y-91162400I0J-286900D01*
G01*
X109744000Y-92098600D01*
G75*
G02*
X109457100Y-92385500I-286900J0D01*
G01*
X105020900Y-92385500D01*
G75*
G02*
X104734000Y-92098600I0J286900D01*
G01*
G37*
G36*
G01*
X95234000Y-92098600D02*
X95234000Y-91162400D01*
G75*
G02*
X95520900Y-90875500I286900J0D01*
G01*
X99957100Y-90875500D01*
G75*
G02*
X100244000Y-91162400I0J-286900D01*
G01*
X100244000Y-92098600D01*
G75*
G02*
X99957100Y-92385500I-286900J0D01*
G01*
X95520900Y-92385500D01*
G75*
G02*
X95234000Y-92098600I0J286900D01*
G01*
G37*
G36*
G01*
X58889000Y-93285500D02*
X58889000Y-92769500D01*
G75*
G02*
X58931000Y-92727500I42000J0D01*
G01*
X60817000Y-92727500D01*
G75*
G02*
X60859000Y-92769500I0J-42000D01*
G01*
X60859000Y-93285500D01*
G75*
G02*
X60817000Y-93327500I-42000J0D01*
G01*
X58931000Y-93327500D01*
G75*
G02*
X58889000Y-93285500I0J42000D01*
G01*
G37*
G36*
G01*
X58889000Y-94555500D02*
X58889000Y-94039500D01*
G75*
G02*
X58931000Y-93997500I42000J0D01*
G01*
X60817000Y-93997500D01*
G75*
G02*
X60859000Y-94039500I0J-42000D01*
G01*
X60859000Y-94555500D01*
G75*
G02*
X60817000Y-94597500I-42000J0D01*
G01*
X58931000Y-94597500D01*
G75*
G02*
X58889000Y-94555500I0J42000D01*
G01*
G37*
G36*
G01*
X58889000Y-95825500D02*
X58889000Y-95309500D01*
G75*
G02*
X58931000Y-95267500I42000J0D01*
G01*
X60817000Y-95267500D01*
G75*
G02*
X60859000Y-95309500I0J-42000D01*
G01*
X60859000Y-95825500D01*
G75*
G02*
X60817000Y-95867500I-42000J0D01*
G01*
X58931000Y-95867500D01*
G75*
G02*
X58889000Y-95825500I0J42000D01*
G01*
G37*
G36*
G01*
X58889000Y-97095500D02*
X58889000Y-96579500D01*
G75*
G02*
X58931000Y-96537500I42000J0D01*
G01*
X60817000Y-96537500D01*
G75*
G02*
X60859000Y-96579500I0J-42000D01*
G01*
X60859000Y-97095500D01*
G75*
G02*
X60817000Y-97137500I-42000J0D01*
G01*
X58931000Y-97137500D01*
G75*
G02*
X58889000Y-97095500I0J42000D01*
G01*
G37*
G36*
G01*
X53949000Y-97095500D02*
X53949000Y-96579500D01*
G75*
G02*
X53991000Y-96537500I42000J0D01*
G01*
X55877000Y-96537500D01*
G75*
G02*
X55919000Y-96579500I0J-42000D01*
G01*
X55919000Y-97095500D01*
G75*
G02*
X55877000Y-97137500I-42000J0D01*
G01*
X53991000Y-97137500D01*
G75*
G02*
X53949000Y-97095500I0J42000D01*
G01*
G37*
G36*
G01*
X53949000Y-95825500D02*
X53949000Y-95309500D01*
G75*
G02*
X53991000Y-95267500I42000J0D01*
G01*
X55877000Y-95267500D01*
G75*
G02*
X55919000Y-95309500I0J-42000D01*
G01*
X55919000Y-95825500D01*
G75*
G02*
X55877000Y-95867500I-42000J0D01*
G01*
X53991000Y-95867500D01*
G75*
G02*
X53949000Y-95825500I0J42000D01*
G01*
G37*
G36*
G01*
X53949000Y-94555500D02*
X53949000Y-94039500D01*
G75*
G02*
X53991000Y-93997500I42000J0D01*
G01*
X55877000Y-93997500D01*
G75*
G02*
X55919000Y-94039500I0J-42000D01*
G01*
X55919000Y-94555500D01*
G75*
G02*
X55877000Y-94597500I-42000J0D01*
G01*
X53991000Y-94597500D01*
G75*
G02*
X53949000Y-94555500I0J42000D01*
G01*
G37*
G36*
G01*
X53949000Y-93285500D02*
X53949000Y-92769500D01*
G75*
G02*
X53991000Y-92727500I42000J0D01*
G01*
X55877000Y-92727500D01*
G75*
G02*
X55919000Y-92769500I0J-42000D01*
G01*
X55919000Y-93285500D01*
G75*
G02*
X55877000Y-93327500I-42000J0D01*
G01*
X53991000Y-93327500D01*
G75*
G02*
X53949000Y-93285500I0J42000D01*
G01*
G37*
G36*
G01*
X33333500Y-49808500D02*
X33849500Y-49808500D01*
G75*
G02*
X33891500Y-49850500I0J-42000D01*
G01*
X33891500Y-51736500D01*
G75*
G02*
X33849500Y-51778500I-42000J0D01*
G01*
X33333500Y-51778500D01*
G75*
G02*
X33291500Y-51736500I0J42000D01*
G01*
X33291500Y-49850500D01*
G75*
G02*
X33333500Y-49808500I42000J0D01*
G01*
G37*
G36*
G01*
X32063500Y-49808500D02*
X32579500Y-49808500D01*
G75*
G02*
X32621500Y-49850500I0J-42000D01*
G01*
X32621500Y-51736500D01*
G75*
G02*
X32579500Y-51778500I-42000J0D01*
G01*
X32063500Y-51778500D01*
G75*
G02*
X32021500Y-51736500I0J42000D01*
G01*
X32021500Y-49850500D01*
G75*
G02*
X32063500Y-49808500I42000J0D01*
G01*
G37*
G36*
G01*
X30793500Y-49808500D02*
X31309500Y-49808500D01*
G75*
G02*
X31351500Y-49850500I0J-42000D01*
G01*
X31351500Y-51736500D01*
G75*
G02*
X31309500Y-51778500I-42000J0D01*
G01*
X30793500Y-51778500D01*
G75*
G02*
X30751500Y-51736500I0J42000D01*
G01*
X30751500Y-49850500D01*
G75*
G02*
X30793500Y-49808500I42000J0D01*
G01*
G37*
G36*
G01*
X29523500Y-49808500D02*
X30039500Y-49808500D01*
G75*
G02*
X30081500Y-49850500I0J-42000D01*
G01*
X30081500Y-51736500D01*
G75*
G02*
X30039500Y-51778500I-42000J0D01*
G01*
X29523500Y-51778500D01*
G75*
G02*
X29481500Y-51736500I0J42000D01*
G01*
X29481500Y-49850500D01*
G75*
G02*
X29523500Y-49808500I42000J0D01*
G01*
G37*
G36*
G01*
X29523500Y-44868500D02*
X30039500Y-44868500D01*
G75*
G02*
X30081500Y-44910500I0J-42000D01*
G01*
X30081500Y-46796500D01*
G75*
G02*
X30039500Y-46838500I-42000J0D01*
G01*
X29523500Y-46838500D01*
G75*
G02*
X29481500Y-46796500I0J42000D01*
G01*
X29481500Y-44910500D01*
G75*
G02*
X29523500Y-44868500I42000J0D01*
G01*
G37*
G36*
G01*
X30793500Y-44868500D02*
X31309500Y-44868500D01*
G75*
G02*
X31351500Y-44910500I0J-42000D01*
G01*
X31351500Y-46796500D01*
G75*
G02*
X31309500Y-46838500I-42000J0D01*
G01*
X30793500Y-46838500D01*
G75*
G02*
X30751500Y-46796500I0J42000D01*
G01*
X30751500Y-44910500D01*
G75*
G02*
X30793500Y-44868500I42000J0D01*
G01*
G37*
G36*
G01*
X32063500Y-44868500D02*
X32579500Y-44868500D01*
G75*
G02*
X32621500Y-44910500I0J-42000D01*
G01*
X32621500Y-46796500D01*
G75*
G02*
X32579500Y-46838500I-42000J0D01*
G01*
X32063500Y-46838500D01*
G75*
G02*
X32021500Y-46796500I0J42000D01*
G01*
X32021500Y-44910500D01*
G75*
G02*
X32063500Y-44868500I42000J0D01*
G01*
G37*
G36*
G01*
X33333500Y-44868500D02*
X33849500Y-44868500D01*
G75*
G02*
X33891500Y-44910500I0J-42000D01*
G01*
X33891500Y-46796500D01*
G75*
G02*
X33849500Y-46838500I-42000J0D01*
G01*
X33333500Y-46838500D01*
G75*
G02*
X33291500Y-46796500I0J42000D01*
G01*
X33291500Y-44910500D01*
G75*
G02*
X33333500Y-44868500I42000J0D01*
G01*
G37*
D13*
X82481000Y-53945500D03*
X82481000Y-53295500D03*
X82481000Y-52645500D03*
X82481000Y-51995500D03*
X82481000Y-51345500D03*
X82481000Y-50695500D03*
X82481000Y-50045500D03*
X82481000Y-49395500D03*
X82481000Y-48745500D03*
X82481000Y-48095500D03*
X82481000Y-47445500D03*
X82481000Y-46795500D03*
X82481000Y-46145500D03*
X82481000Y-45495500D03*
X89731000Y-45495500D03*
X89731000Y-46145500D03*
X89731000Y-46795500D03*
X89731000Y-47445500D03*
X89731000Y-48095500D03*
X89731000Y-48745500D03*
X89731000Y-49395500D03*
X89731000Y-50045500D03*
X89731000Y-50695500D03*
X89731000Y-51345500D03*
X89731000Y-51995500D03*
X89731000Y-52645500D03*
X89731000Y-53295500D03*
X89731000Y-53945500D03*
G36*
G01*
X118730400Y-47556700D02*
X118730400Y-46804300D01*
G75*
G02*
X118849200Y-46685500I118800J0D01*
G01*
X122401600Y-46685500D01*
G75*
G02*
X122520400Y-46804300I0J-118800D01*
G01*
X122520400Y-47556700D01*
G75*
G02*
X122401600Y-47675500I-118800J0D01*
G01*
X118849200Y-47675500D01*
G75*
G02*
X118730400Y-47556700I0J118800D01*
G01*
G37*
G36*
G01*
X118730400Y-45016700D02*
X118730400Y-44264300D01*
G75*
G02*
X118849200Y-44145500I118800J0D01*
G01*
X122401600Y-44145500D01*
G75*
G02*
X122520400Y-44264300I0J-118800D01*
G01*
X122520400Y-45016700D01*
G75*
G02*
X122401600Y-45135500I-118800J0D01*
G01*
X118849200Y-45135500D01*
G75*
G02*
X118730400Y-45016700I0J118800D01*
G01*
G37*
G36*
G01*
X118730400Y-42476700D02*
X118730400Y-41724300D01*
G75*
G02*
X118849200Y-41605500I118800J0D01*
G01*
X122401600Y-41605500D01*
G75*
G02*
X122520400Y-41724300I0J-118800D01*
G01*
X122520400Y-42476700D01*
G75*
G02*
X122401600Y-42595500I-118800J0D01*
G01*
X118849200Y-42595500D01*
G75*
G02*
X118730400Y-42476700I0J118800D01*
G01*
G37*
G36*
G01*
X27474500Y-41128000D02*
X28024500Y-41128000D01*
G75*
G02*
X28224500Y-41328000I0J-200000D01*
G01*
X28224500Y-41728000D01*
G75*
G02*
X28024500Y-41928000I-200000J0D01*
G01*
X27474500Y-41928000D01*
G75*
G02*
X27274500Y-41728000I0J200000D01*
G01*
X27274500Y-41328000D01*
G75*
G02*
X27474500Y-41128000I200000J0D01*
G01*
G37*
G36*
G01*
X27474500Y-39478000D02*
X28024500Y-39478000D01*
G75*
G02*
X28224500Y-39678000I0J-200000D01*
G01*
X28224500Y-40078000D01*
G75*
G02*
X28024500Y-40278000I-200000J0D01*
G01*
X27474500Y-40278000D01*
G75*
G02*
X27274500Y-40078000I0J200000D01*
G01*
X27274500Y-39678000D01*
G75*
G02*
X27474500Y-39478000I200000J0D01*
G01*
G37*
G36*
G01*
X122090000Y-99485000D02*
X122090000Y-98935000D01*
G75*
G02*
X122290000Y-98735000I200000J0D01*
G01*
X122690000Y-98735000D01*
G75*
G02*
X122890000Y-98935000I0J-200000D01*
G01*
X122890000Y-99485000D01*
G75*
G02*
X122690000Y-99685000I-200000J0D01*
G01*
X122290000Y-99685000D01*
G75*
G02*
X122090000Y-99485000I0J200000D01*
G01*
G37*
G36*
G01*
X120440000Y-99485000D02*
X120440000Y-98935000D01*
G75*
G02*
X120640000Y-98735000I200000J0D01*
G01*
X121040000Y-98735000D01*
G75*
G02*
X121240000Y-98935000I0J-200000D01*
G01*
X121240000Y-99485000D01*
G75*
G02*
X121040000Y-99685000I-200000J0D01*
G01*
X120640000Y-99685000D01*
G75*
G02*
X120440000Y-99485000I0J200000D01*
G01*
G37*
G36*
G01*
X89140000Y-128265000D02*
X89140000Y-127715000D01*
G75*
G02*
X89340000Y-127515000I200000J0D01*
G01*
X89740000Y-127515000D01*
G75*
G02*
X89940000Y-127715000I0J-200000D01*
G01*
X89940000Y-128265000D01*
G75*
G02*
X89740000Y-128465000I-200000J0D01*
G01*
X89340000Y-128465000D01*
G75*
G02*
X89140000Y-128265000I0J200000D01*
G01*
G37*
G36*
G01*
X87490000Y-128265000D02*
X87490000Y-127715000D01*
G75*
G02*
X87690000Y-127515000I200000J0D01*
G01*
X88090000Y-127515000D01*
G75*
G02*
X88290000Y-127715000I0J-200000D01*
G01*
X88290000Y-128265000D01*
G75*
G02*
X88090000Y-128465000I-200000J0D01*
G01*
X87690000Y-128465000D01*
G75*
G02*
X87490000Y-128265000I0J200000D01*
G01*
G37*
G36*
G01*
X122220000Y-110745000D02*
X122220000Y-110195000D01*
G75*
G02*
X122420000Y-109995000I200000J0D01*
G01*
X122820000Y-109995000D01*
G75*
G02*
X123020000Y-110195000I0J-200000D01*
G01*
X123020000Y-110745000D01*
G75*
G02*
X122820000Y-110945000I-200000J0D01*
G01*
X122420000Y-110945000D01*
G75*
G02*
X122220000Y-110745000I0J200000D01*
G01*
G37*
G36*
G01*
X120570000Y-110745000D02*
X120570000Y-110195000D01*
G75*
G02*
X120770000Y-109995000I200000J0D01*
G01*
X121170000Y-109995000D01*
G75*
G02*
X121370000Y-110195000I0J-200000D01*
G01*
X121370000Y-110745000D01*
G75*
G02*
X121170000Y-110945000I-200000J0D01*
G01*
X120770000Y-110945000D01*
G75*
G02*
X120570000Y-110745000I0J200000D01*
G01*
G37*
G36*
G01*
X122200000Y-124505000D02*
X122200000Y-123955000D01*
G75*
G02*
X122400000Y-123755000I200000J0D01*
G01*
X122800000Y-123755000D01*
G75*
G02*
X123000000Y-123955000I0J-200000D01*
G01*
X123000000Y-124505000D01*
G75*
G02*
X122800000Y-124705000I-200000J0D01*
G01*
X122400000Y-124705000D01*
G75*
G02*
X122200000Y-124505000I0J200000D01*
G01*
G37*
G36*
G01*
X120550000Y-124505000D02*
X120550000Y-123955000D01*
G75*
G02*
X120750000Y-123755000I200000J0D01*
G01*
X121150000Y-123755000D01*
G75*
G02*
X121350000Y-123955000I0J-200000D01*
G01*
X121350000Y-124505000D01*
G75*
G02*
X121150000Y-124705000I-200000J0D01*
G01*
X120750000Y-124705000D01*
G75*
G02*
X120550000Y-124505000I0J200000D01*
G01*
G37*
D14*
X42418000Y-76708000D03*
X42418000Y-74358000D03*
D15*
X37957000Y-73394500D03*
D16*
X38957000Y-76644500D03*
X36957000Y-76644500D03*
G36*
G01*
X40343500Y-81020500D02*
X39793500Y-81020500D01*
G75*
G02*
X39593500Y-80820500I0J200000D01*
G01*
X39593500Y-80420500D01*
G75*
G02*
X39793500Y-80220500I200000J0D01*
G01*
X40343500Y-80220500D01*
G75*
G02*
X40543500Y-80420500I0J-200000D01*
G01*
X40543500Y-80820500D01*
G75*
G02*
X40343500Y-81020500I-200000J0D01*
G01*
G37*
G36*
G01*
X40343500Y-82670500D02*
X39793500Y-82670500D01*
G75*
G02*
X39593500Y-82470500I0J200000D01*
G01*
X39593500Y-82070500D01*
G75*
G02*
X39793500Y-81870500I200000J0D01*
G01*
X40343500Y-81870500D01*
G75*
G02*
X40543500Y-82070500I0J-200000D01*
G01*
X40543500Y-82470500D01*
G75*
G02*
X40343500Y-82670500I-200000J0D01*
G01*
G37*
G36*
G01*
X32618000Y-114724500D02*
X33168000Y-114724500D01*
G75*
G02*
X33368000Y-114924500I0J-200000D01*
G01*
X33368000Y-115324500D01*
G75*
G02*
X33168000Y-115524500I-200000J0D01*
G01*
X32618000Y-115524500D01*
G75*
G02*
X32418000Y-115324500I0J200000D01*
G01*
X32418000Y-114924500D01*
G75*
G02*
X32618000Y-114724500I200000J0D01*
G01*
G37*
G36*
G01*
X32618000Y-113074500D02*
X33168000Y-113074500D01*
G75*
G02*
X33368000Y-113274500I0J-200000D01*
G01*
X33368000Y-113674500D01*
G75*
G02*
X33168000Y-113874500I-200000J0D01*
G01*
X32618000Y-113874500D01*
G75*
G02*
X32418000Y-113674500I0J200000D01*
G01*
X32418000Y-113274500D01*
G75*
G02*
X32618000Y-113074500I200000J0D01*
G01*
G37*
D14*
X44323000Y-104902000D03*
X44323000Y-102552000D03*
G36*
G01*
X35666000Y-114725500D02*
X36216000Y-114725500D01*
G75*
G02*
X36416000Y-114925500I0J-200000D01*
G01*
X36416000Y-115325500D01*
G75*
G02*
X36216000Y-115525500I-200000J0D01*
G01*
X35666000Y-115525500D01*
G75*
G02*
X35466000Y-115325500I0J200000D01*
G01*
X35466000Y-114925500D01*
G75*
G02*
X35666000Y-114725500I200000J0D01*
G01*
G37*
G36*
G01*
X35666000Y-113075500D02*
X36216000Y-113075500D01*
G75*
G02*
X36416000Y-113275500I0J-200000D01*
G01*
X36416000Y-113675500D01*
G75*
G02*
X36216000Y-113875500I-200000J0D01*
G01*
X35666000Y-113875500D01*
G75*
G02*
X35466000Y-113675500I0J200000D01*
G01*
X35466000Y-113275500D01*
G75*
G02*
X35666000Y-113075500I200000J0D01*
G01*
G37*
G36*
G01*
X33168000Y-94317500D02*
X32618000Y-94317500D01*
G75*
G02*
X32418000Y-94117500I0J200000D01*
G01*
X32418000Y-93717500D01*
G75*
G02*
X32618000Y-93517500I200000J0D01*
G01*
X33168000Y-93517500D01*
G75*
G02*
X33368000Y-93717500I0J-200000D01*
G01*
X33368000Y-94117500D01*
G75*
G02*
X33168000Y-94317500I-200000J0D01*
G01*
G37*
G36*
G01*
X33168000Y-95967500D02*
X32618000Y-95967500D01*
G75*
G02*
X32418000Y-95767500I0J200000D01*
G01*
X32418000Y-95367500D01*
G75*
G02*
X32618000Y-95167500I200000J0D01*
G01*
X33168000Y-95167500D01*
G75*
G02*
X33368000Y-95367500I0J-200000D01*
G01*
X33368000Y-95767500D01*
G75*
G02*
X33168000Y-95967500I-200000J0D01*
G01*
G37*
G36*
G01*
X36470000Y-94316500D02*
X35920000Y-94316500D01*
G75*
G02*
X35720000Y-94116500I0J200000D01*
G01*
X35720000Y-93716500D01*
G75*
G02*
X35920000Y-93516500I200000J0D01*
G01*
X36470000Y-93516500D01*
G75*
G02*
X36670000Y-93716500I0J-200000D01*
G01*
X36670000Y-94116500D01*
G75*
G02*
X36470000Y-94316500I-200000J0D01*
G01*
G37*
G36*
G01*
X36470000Y-95966500D02*
X35920000Y-95966500D01*
G75*
G02*
X35720000Y-95766500I0J200000D01*
G01*
X35720000Y-95366500D01*
G75*
G02*
X35920000Y-95166500I200000J0D01*
G01*
X36470000Y-95166500D01*
G75*
G02*
X36670000Y-95366500I0J-200000D01*
G01*
X36670000Y-95766500D01*
G75*
G02*
X36470000Y-95966500I-200000J0D01*
G01*
G37*
D15*
X40052500Y-101652000D03*
D16*
X41052500Y-104902000D03*
X39052500Y-104902000D03*
G36*
G01*
X164977500Y-96069998D02*
X164977500Y-96970002D01*
G75*
G02*
X164727502Y-97220000I-249998J0D01*
G01*
X164202498Y-97220000D01*
G75*
G02*
X163952500Y-96970002I0J249998D01*
G01*
X163952500Y-96069998D01*
G75*
G02*
X164202498Y-95820000I249998J0D01*
G01*
X164727502Y-95820000D01*
G75*
G02*
X164977500Y-96069998I0J-249998D01*
G01*
G37*
G36*
G01*
X166802500Y-96069998D02*
X166802500Y-96970002D01*
G75*
G02*
X166552502Y-97220000I-249998J0D01*
G01*
X166027498Y-97220000D01*
G75*
G02*
X165777500Y-96970002I0J249998D01*
G01*
X165777500Y-96069998D01*
G75*
G02*
X166027498Y-95820000I249998J0D01*
G01*
X166552502Y-95820000D01*
G75*
G02*
X166802500Y-96069998I0J-249998D01*
G01*
G37*
G36*
G01*
X164977500Y-89719998D02*
X164977500Y-90620002D01*
G75*
G02*
X164727502Y-90870000I-249998J0D01*
G01*
X164202498Y-90870000D01*
G75*
G02*
X163952500Y-90620002I0J249998D01*
G01*
X163952500Y-89719998D01*
G75*
G02*
X164202498Y-89470000I249998J0D01*
G01*
X164727502Y-89470000D01*
G75*
G02*
X164977500Y-89719998I0J-249998D01*
G01*
G37*
G36*
G01*
X166802500Y-89719998D02*
X166802500Y-90620002D01*
G75*
G02*
X166552502Y-90870000I-249998J0D01*
G01*
X166027498Y-90870000D01*
G75*
G02*
X165777500Y-90620002I0J249998D01*
G01*
X165777500Y-89719998D01*
G75*
G02*
X166027498Y-89470000I249998J0D01*
G01*
X166552502Y-89470000D01*
G75*
G02*
X166802500Y-89719998I0J-249998D01*
G01*
G37*
G36*
G01*
X164977500Y-83369998D02*
X164977500Y-84270002D01*
G75*
G02*
X164727502Y-84520000I-249998J0D01*
G01*
X164202498Y-84520000D01*
G75*
G02*
X163952500Y-84270002I0J249998D01*
G01*
X163952500Y-83369998D01*
G75*
G02*
X164202498Y-83120000I249998J0D01*
G01*
X164727502Y-83120000D01*
G75*
G02*
X164977500Y-83369998I0J-249998D01*
G01*
G37*
G36*
G01*
X166802500Y-83369998D02*
X166802500Y-84270002D01*
G75*
G02*
X166552502Y-84520000I-249998J0D01*
G01*
X166027498Y-84520000D01*
G75*
G02*
X165777500Y-84270002I0J249998D01*
G01*
X165777500Y-83369998D01*
G75*
G02*
X166027498Y-83120000I249998J0D01*
G01*
X166552502Y-83120000D01*
G75*
G02*
X166802500Y-83369998I0J-249998D01*
G01*
G37*
G36*
G01*
X165057500Y-77654998D02*
X165057500Y-78555002D01*
G75*
G02*
X164807502Y-78805000I-249998J0D01*
G01*
X164282498Y-78805000D01*
G75*
G02*
X164032500Y-78555002I0J249998D01*
G01*
X164032500Y-77654998D01*
G75*
G02*
X164282498Y-77405000I249998J0D01*
G01*
X164807502Y-77405000D01*
G75*
G02*
X165057500Y-77654998I0J-249998D01*
G01*
G37*
G36*
G01*
X166882500Y-77654998D02*
X166882500Y-78555002D01*
G75*
G02*
X166632502Y-78805000I-249998J0D01*
G01*
X166107498Y-78805000D01*
G75*
G02*
X165857500Y-78555002I0J249998D01*
G01*
X165857500Y-77654998D01*
G75*
G02*
X166107498Y-77405000I249998J0D01*
G01*
X166632502Y-77405000D01*
G75*
G02*
X166882500Y-77654998I0J-249998D01*
G01*
G37*
G36*
G01*
X164977500Y-71939998D02*
X164977500Y-72840002D01*
G75*
G02*
X164727502Y-73090000I-249998J0D01*
G01*
X164202498Y-73090000D01*
G75*
G02*
X163952500Y-72840002I0J249998D01*
G01*
X163952500Y-71939998D01*
G75*
G02*
X164202498Y-71690000I249998J0D01*
G01*
X164727502Y-71690000D01*
G75*
G02*
X164977500Y-71939998I0J-249998D01*
G01*
G37*
G36*
G01*
X166802500Y-71939998D02*
X166802500Y-72840002D01*
G75*
G02*
X166552502Y-73090000I-249998J0D01*
G01*
X166027498Y-73090000D01*
G75*
G02*
X165777500Y-72840002I0J249998D01*
G01*
X165777500Y-71939998D01*
G75*
G02*
X166027498Y-71690000I249998J0D01*
G01*
X166552502Y-71690000D01*
G75*
G02*
X166802500Y-71939998I0J-249998D01*
G01*
G37*
D17*
X54102000Y-53979000D03*
X54102000Y-52955000D03*
X74676000Y-45910500D03*
X74676000Y-44886500D03*
X77050900Y-44928600D03*
X77050900Y-45952600D03*
D18*
X143256000Y-45275500D03*
X142232000Y-45275500D03*
D14*
X82606000Y-71830500D03*
X82606000Y-69480500D03*
D19*
X116880000Y-145620000D03*
X114340000Y-145620000D03*
X111800000Y-145620000D03*
D20*
X75300000Y-36588500D03*
X89800000Y-36588500D03*
G36*
G01*
X82000000Y-37492500D02*
X82000000Y-40184500D01*
G75*
G02*
X81946000Y-40238500I-54000J0D01*
G01*
X81154000Y-40238500D01*
G75*
G02*
X81100000Y-40184500I0J54000D01*
G01*
X81100000Y-37492500D01*
G75*
G02*
X81154000Y-37438500I54000J0D01*
G01*
X81946000Y-37438500D01*
G75*
G02*
X82000000Y-37492500I0J-54000D01*
G01*
G37*
G36*
G01*
X86500000Y-37492500D02*
X86500000Y-40184500D01*
G75*
G02*
X86446000Y-40238500I-54000J0D01*
G01*
X85654000Y-40238500D01*
G75*
G02*
X85600000Y-40184500I0J54000D01*
G01*
X85600000Y-37492500D01*
G75*
G02*
X85654000Y-37438500I54000J0D01*
G01*
X86446000Y-37438500D01*
G75*
G02*
X86500000Y-37492500I0J-54000D01*
G01*
G37*
G36*
G01*
X84000000Y-37492500D02*
X84000000Y-40184500D01*
G75*
G02*
X83946000Y-40238500I-54000J0D01*
G01*
X83154000Y-40238500D01*
G75*
G02*
X83100000Y-40184500I0J54000D01*
G01*
X83100000Y-37492500D01*
G75*
G02*
X83154000Y-37438500I54000J0D01*
G01*
X83946000Y-37438500D01*
G75*
G02*
X84000000Y-37492500I0J-54000D01*
G01*
G37*
G36*
G01*
X79500000Y-37492500D02*
X79500000Y-40184500D01*
G75*
G02*
X79446000Y-40238500I-54000J0D01*
G01*
X78654000Y-40238500D01*
G75*
G02*
X78600000Y-40184500I0J54000D01*
G01*
X78600000Y-37492500D01*
G75*
G02*
X78654000Y-37438500I54000J0D01*
G01*
X79446000Y-37438500D01*
G75*
G02*
X79500000Y-37492500I0J-54000D01*
G01*
G37*
D11*
X130860000Y-104550000D03*
X129460000Y-104550000D03*
D21*
X66802000Y-96967500D03*
X66802000Y-95567500D03*
D11*
X92500000Y-127990000D03*
X93900000Y-127990000D03*
X132270000Y-129720000D03*
X130870000Y-129720000D03*
X132160000Y-116000000D03*
X130760000Y-116000000D03*
X32451500Y-71185000D03*
X31051500Y-71185000D03*
X26667000Y-71183500D03*
X28067000Y-71183500D03*
D21*
X35814000Y-100139500D03*
X35814000Y-101539500D03*
X35052000Y-104905000D03*
X35052000Y-103505000D03*
X32893000Y-100200000D03*
X32893000Y-101600000D03*
G36*
G01*
X157362500Y-96063750D02*
X157362500Y-96976250D01*
G75*
G02*
X157118750Y-97220000I-243750J0D01*
G01*
X156631250Y-97220000D01*
G75*
G02*
X156387500Y-96976250I0J243750D01*
G01*
X156387500Y-96063750D01*
G75*
G02*
X156631250Y-95820000I243750J0D01*
G01*
X157118750Y-95820000D01*
G75*
G02*
X157362500Y-96063750I0J-243750D01*
G01*
G37*
G36*
G01*
X159237500Y-96063750D02*
X159237500Y-96976250D01*
G75*
G02*
X158993750Y-97220000I-243750J0D01*
G01*
X158506250Y-97220000D01*
G75*
G02*
X158262500Y-96976250I0J243750D01*
G01*
X158262500Y-96063750D01*
G75*
G02*
X158506250Y-95820000I243750J0D01*
G01*
X158993750Y-95820000D01*
G75*
G02*
X159237500Y-96063750I0J-243750D01*
G01*
G37*
G36*
G01*
X157332500Y-89713750D02*
X157332500Y-90626250D01*
G75*
G02*
X157088750Y-90870000I-243750J0D01*
G01*
X156601250Y-90870000D01*
G75*
G02*
X156357500Y-90626250I0J243750D01*
G01*
X156357500Y-89713750D01*
G75*
G02*
X156601250Y-89470000I243750J0D01*
G01*
X157088750Y-89470000D01*
G75*
G02*
X157332500Y-89713750I0J-243750D01*
G01*
G37*
G36*
G01*
X159207500Y-89713750D02*
X159207500Y-90626250D01*
G75*
G02*
X158963750Y-90870000I-243750J0D01*
G01*
X158476250Y-90870000D01*
G75*
G02*
X158232500Y-90626250I0J243750D01*
G01*
X158232500Y-89713750D01*
G75*
G02*
X158476250Y-89470000I243750J0D01*
G01*
X158963750Y-89470000D01*
G75*
G02*
X159207500Y-89713750I0J-243750D01*
G01*
G37*
G36*
G01*
X157362500Y-83363750D02*
X157362500Y-84276250D01*
G75*
G02*
X157118750Y-84520000I-243750J0D01*
G01*
X156631250Y-84520000D01*
G75*
G02*
X156387500Y-84276250I0J243750D01*
G01*
X156387500Y-83363750D01*
G75*
G02*
X156631250Y-83120000I243750J0D01*
G01*
X157118750Y-83120000D01*
G75*
G02*
X157362500Y-83363750I0J-243750D01*
G01*
G37*
G36*
G01*
X159237500Y-83363750D02*
X159237500Y-84276250D01*
G75*
G02*
X158993750Y-84520000I-243750J0D01*
G01*
X158506250Y-84520000D01*
G75*
G02*
X158262500Y-84276250I0J243750D01*
G01*
X158262500Y-83363750D01*
G75*
G02*
X158506250Y-83120000I243750J0D01*
G01*
X158993750Y-83120000D01*
G75*
G02*
X159237500Y-83363750I0J-243750D01*
G01*
G37*
G36*
G01*
X157362500Y-77648750D02*
X157362500Y-78561250D01*
G75*
G02*
X157118750Y-78805000I-243750J0D01*
G01*
X156631250Y-78805000D01*
G75*
G02*
X156387500Y-78561250I0J243750D01*
G01*
X156387500Y-77648750D01*
G75*
G02*
X156631250Y-77405000I243750J0D01*
G01*
X157118750Y-77405000D01*
G75*
G02*
X157362500Y-77648750I0J-243750D01*
G01*
G37*
G36*
G01*
X159237500Y-77648750D02*
X159237500Y-78561250D01*
G75*
G02*
X158993750Y-78805000I-243750J0D01*
G01*
X158506250Y-78805000D01*
G75*
G02*
X158262500Y-78561250I0J243750D01*
G01*
X158262500Y-77648750D01*
G75*
G02*
X158506250Y-77405000I243750J0D01*
G01*
X158993750Y-77405000D01*
G75*
G02*
X159237500Y-77648750I0J-243750D01*
G01*
G37*
G36*
G01*
X157362500Y-71933750D02*
X157362500Y-72846250D01*
G75*
G02*
X157118750Y-73090000I-243750J0D01*
G01*
X156631250Y-73090000D01*
G75*
G02*
X156387500Y-72846250I0J243750D01*
G01*
X156387500Y-71933750D01*
G75*
G02*
X156631250Y-71690000I243750J0D01*
G01*
X157118750Y-71690000D01*
G75*
G02*
X157362500Y-71933750I0J-243750D01*
G01*
G37*
G36*
G01*
X159237500Y-71933750D02*
X159237500Y-72846250D01*
G75*
G02*
X158993750Y-73090000I-243750J0D01*
G01*
X158506250Y-73090000D01*
G75*
G02*
X158262500Y-72846250I0J243750D01*
G01*
X158262500Y-71933750D01*
G75*
G02*
X158506250Y-71690000I243750J0D01*
G01*
X158993750Y-71690000D01*
G75*
G02*
X159237500Y-71933750I0J-243750D01*
G01*
G37*
G36*
G01*
X54358250Y-49523000D02*
X53845750Y-49523000D01*
G75*
G02*
X53627000Y-49304250I0J218750D01*
G01*
X53627000Y-48866750D01*
G75*
G02*
X53845750Y-48648000I218750J0D01*
G01*
X54358250Y-48648000D01*
G75*
G02*
X54577000Y-48866750I0J-218750D01*
G01*
X54577000Y-49304250D01*
G75*
G02*
X54358250Y-49523000I-218750J0D01*
G01*
G37*
G36*
G01*
X54358250Y-51098000D02*
X53845750Y-51098000D01*
G75*
G02*
X53627000Y-50879250I0J218750D01*
G01*
X53627000Y-50441750D01*
G75*
G02*
X53845750Y-50223000I218750J0D01*
G01*
X54358250Y-50223000D01*
G75*
G02*
X54577000Y-50441750I0J-218750D01*
G01*
X54577000Y-50879250D01*
G75*
G02*
X54358250Y-51098000I-218750J0D01*
G01*
G37*
G36*
G01*
X80362250Y-70418000D02*
X79849750Y-70418000D01*
G75*
G02*
X79631000Y-70199250I0J218750D01*
G01*
X79631000Y-69761750D01*
G75*
G02*
X79849750Y-69543000I218750J0D01*
G01*
X80362250Y-69543000D01*
G75*
G02*
X80581000Y-69761750I0J-218750D01*
G01*
X80581000Y-70199250D01*
G75*
G02*
X80362250Y-70418000I-218750J0D01*
G01*
G37*
G36*
G01*
X80362250Y-71993000D02*
X79849750Y-71993000D01*
G75*
G02*
X79631000Y-71774250I0J218750D01*
G01*
X79631000Y-71336750D01*
G75*
G02*
X79849750Y-71118000I218750J0D01*
G01*
X80362250Y-71118000D01*
G75*
G02*
X80581000Y-71336750I0J-218750D01*
G01*
X80581000Y-71774250D01*
G75*
G02*
X80362250Y-71993000I-218750J0D01*
G01*
G37*
G36*
G01*
X74932250Y-48888000D02*
X74419750Y-48888000D01*
G75*
G02*
X74201000Y-48669250I0J218750D01*
G01*
X74201000Y-48231750D01*
G75*
G02*
X74419750Y-48013000I218750J0D01*
G01*
X74932250Y-48013000D01*
G75*
G02*
X75151000Y-48231750I0J-218750D01*
G01*
X75151000Y-48669250D01*
G75*
G02*
X74932250Y-48888000I-218750J0D01*
G01*
G37*
G36*
G01*
X74932250Y-50463000D02*
X74419750Y-50463000D01*
G75*
G02*
X74201000Y-50244250I0J218750D01*
G01*
X74201000Y-49806750D01*
G75*
G02*
X74419750Y-49588000I218750J0D01*
G01*
X74932250Y-49588000D01*
G75*
G02*
X75151000Y-49806750I0J-218750D01*
G01*
X75151000Y-50244250D01*
G75*
G02*
X74932250Y-50463000I-218750J0D01*
G01*
G37*
G36*
G01*
X78107250Y-48837100D02*
X77594750Y-48837100D01*
G75*
G02*
X77376000Y-48618350I0J218750D01*
G01*
X77376000Y-48180850D01*
G75*
G02*
X77594750Y-47962100I218750J0D01*
G01*
X78107250Y-47962100D01*
G75*
G02*
X78326000Y-48180850I0J-218750D01*
G01*
X78326000Y-48618350D01*
G75*
G02*
X78107250Y-48837100I-218750J0D01*
G01*
G37*
G36*
G01*
X78107250Y-50412100D02*
X77594750Y-50412100D01*
G75*
G02*
X77376000Y-50193350I0J218750D01*
G01*
X77376000Y-49755850D01*
G75*
G02*
X77594750Y-49537100I218750J0D01*
G01*
X78107250Y-49537100D01*
G75*
G02*
X78326000Y-49755850I0J-218750D01*
G01*
X78326000Y-50193350D01*
G75*
G02*
X78107250Y-50412100I-218750J0D01*
G01*
G37*
G36*
G01*
X146868500Y-45019250D02*
X146868500Y-45531750D01*
G75*
G02*
X146649750Y-45750500I-218750J0D01*
G01*
X146212250Y-45750500D01*
G75*
G02*
X145993500Y-45531750I0J218750D01*
G01*
X145993500Y-45019250D01*
G75*
G02*
X146212250Y-44800500I218750J0D01*
G01*
X146649750Y-44800500D01*
G75*
G02*
X146868500Y-45019250I0J-218750D01*
G01*
G37*
G36*
G01*
X148443500Y-45019250D02*
X148443500Y-45531750D01*
G75*
G02*
X148224750Y-45750500I-218750J0D01*
G01*
X147787250Y-45750500D01*
G75*
G02*
X147568500Y-45531750I0J218750D01*
G01*
X147568500Y-45019250D01*
G75*
G02*
X147787250Y-44800500I218750J0D01*
G01*
X148224750Y-44800500D01*
G75*
G02*
X148443500Y-45019250I0J-218750D01*
G01*
G37*
D22*
X114046000Y-44895500D03*
X114046000Y-41845500D03*
G36*
G01*
X36776000Y-81790500D02*
X37276000Y-81790500D01*
G75*
G02*
X37501000Y-82015500I0J-225000D01*
G01*
X37501000Y-82465500D01*
G75*
G02*
X37276000Y-82690500I-225000J0D01*
G01*
X36776000Y-82690500D01*
G75*
G02*
X36551000Y-82465500I0J225000D01*
G01*
X36551000Y-82015500D01*
G75*
G02*
X36776000Y-81790500I225000J0D01*
G01*
G37*
G36*
G01*
X36776000Y-80240500D02*
X37276000Y-80240500D01*
G75*
G02*
X37501000Y-80465500I0J-225000D01*
G01*
X37501000Y-80915500D01*
G75*
G02*
X37276000Y-81140500I-225000J0D01*
G01*
X36776000Y-81140500D01*
G75*
G02*
X36551000Y-80915500I0J225000D01*
G01*
X36551000Y-80465500D01*
G75*
G02*
X36776000Y-80240500I225000J0D01*
G01*
G37*
G36*
G01*
X32643000Y-109722500D02*
X33143000Y-109722500D01*
G75*
G02*
X33368000Y-109947500I0J-225000D01*
G01*
X33368000Y-110397500D01*
G75*
G02*
X33143000Y-110622500I-225000J0D01*
G01*
X32643000Y-110622500D01*
G75*
G02*
X32418000Y-110397500I0J225000D01*
G01*
X32418000Y-109947500D01*
G75*
G02*
X32643000Y-109722500I225000J0D01*
G01*
G37*
G36*
G01*
X32643000Y-108172500D02*
X33143000Y-108172500D01*
G75*
G02*
X33368000Y-108397500I0J-225000D01*
G01*
X33368000Y-108847500D01*
G75*
G02*
X33143000Y-109072500I-225000J0D01*
G01*
X32643000Y-109072500D01*
G75*
G02*
X32418000Y-108847500I0J225000D01*
G01*
X32418000Y-108397500D01*
G75*
G02*
X32643000Y-108172500I225000J0D01*
G01*
G37*
G36*
G01*
X35691000Y-109722500D02*
X36191000Y-109722500D01*
G75*
G02*
X36416000Y-109947500I0J-225000D01*
G01*
X36416000Y-110397500D01*
G75*
G02*
X36191000Y-110622500I-225000J0D01*
G01*
X35691000Y-110622500D01*
G75*
G02*
X35466000Y-110397500I0J225000D01*
G01*
X35466000Y-109947500D01*
G75*
G02*
X35691000Y-109722500I225000J0D01*
G01*
G37*
G36*
G01*
X35691000Y-108172500D02*
X36191000Y-108172500D01*
G75*
G02*
X36416000Y-108397500I0J-225000D01*
G01*
X36416000Y-108847500D01*
G75*
G02*
X36191000Y-109072500I-225000J0D01*
G01*
X35691000Y-109072500D01*
G75*
G02*
X35466000Y-108847500I0J225000D01*
G01*
X35466000Y-108397500D01*
G75*
G02*
X35691000Y-108172500I225000J0D01*
G01*
G37*
G36*
G01*
X92160000Y-53190000D02*
X92160000Y-53391000D01*
G75*
G02*
X92080500Y-53470500I-79500J0D01*
G01*
X91921500Y-53470500D01*
G75*
G02*
X91842000Y-53391000I0J79500D01*
G01*
X91842000Y-53190000D01*
G75*
G02*
X91921500Y-53110500I79500J0D01*
G01*
X92080500Y-53110500D01*
G75*
G02*
X92160000Y-53190000I0J-79500D01*
G01*
G37*
G36*
G01*
X92850000Y-53190000D02*
X92850000Y-53391000D01*
G75*
G02*
X92770500Y-53470500I-79500J0D01*
G01*
X92611500Y-53470500D01*
G75*
G02*
X92532000Y-53391000I0J79500D01*
G01*
X92532000Y-53190000D01*
G75*
G02*
X92611500Y-53110500I79500J0D01*
G01*
X92770500Y-53110500D01*
G75*
G02*
X92850000Y-53190000I0J-79500D01*
G01*
G37*
G36*
G01*
X92898500Y-98525500D02*
X92898500Y-98324500D01*
G75*
G02*
X92978000Y-98245000I79500J0D01*
G01*
X93137000Y-98245000D01*
G75*
G02*
X93216500Y-98324500I0J-79500D01*
G01*
X93216500Y-98525500D01*
G75*
G02*
X93137000Y-98605000I-79500J0D01*
G01*
X92978000Y-98605000D01*
G75*
G02*
X92898500Y-98525500I0J79500D01*
G01*
G37*
G36*
G01*
X92208500Y-98525500D02*
X92208500Y-98324500D01*
G75*
G02*
X92288000Y-98245000I79500J0D01*
G01*
X92447000Y-98245000D01*
G75*
G02*
X92526500Y-98324500I0J-79500D01*
G01*
X92526500Y-98525500D01*
G75*
G02*
X92447000Y-98605000I-79500J0D01*
G01*
X92288000Y-98605000D01*
G75*
G02*
X92208500Y-98525500I0J79500D01*
G01*
G37*
D23*
X77203300Y-54880500D03*
X77203300Y-52180500D03*
D24*
X64135000Y-39215000D03*
X64135000Y-35715000D03*
D23*
X69850000Y-38815000D03*
X69850000Y-36115000D03*
G36*
G01*
X107726500Y-96771000D02*
X106776500Y-96771000D01*
G75*
G02*
X106526500Y-96521000I0J250000D01*
G01*
X106526500Y-96021000D01*
G75*
G02*
X106776500Y-95771000I250000J0D01*
G01*
X107726500Y-95771000D01*
G75*
G02*
X107976500Y-96021000I0J-250000D01*
G01*
X107976500Y-96521000D01*
G75*
G02*
X107726500Y-96771000I-250000J0D01*
G01*
G37*
G36*
G01*
X107726500Y-98671000D02*
X106776500Y-98671000D01*
G75*
G02*
X106526500Y-98421000I0J250000D01*
G01*
X106526500Y-97921000D01*
G75*
G02*
X106776500Y-97671000I250000J0D01*
G01*
X107726500Y-97671000D01*
G75*
G02*
X107976500Y-97921000I0J-250000D01*
G01*
X107976500Y-98421000D01*
G75*
G02*
X107726500Y-98671000I-250000J0D01*
G01*
G37*
G36*
G01*
X98201500Y-96771000D02*
X97251500Y-96771000D01*
G75*
G02*
X97001500Y-96521000I0J250000D01*
G01*
X97001500Y-96021000D01*
G75*
G02*
X97251500Y-95771000I250000J0D01*
G01*
X98201500Y-95771000D01*
G75*
G02*
X98451500Y-96021000I0J-250000D01*
G01*
X98451500Y-96521000D01*
G75*
G02*
X98201500Y-96771000I-250000J0D01*
G01*
G37*
G36*
G01*
X98201500Y-98671000D02*
X97251500Y-98671000D01*
G75*
G02*
X97001500Y-98421000I0J250000D01*
G01*
X97001500Y-97921000D01*
G75*
G02*
X97251500Y-97671000I250000J0D01*
G01*
X98201500Y-97671000D01*
G75*
G02*
X98451500Y-97921000I0J-250000D01*
G01*
X98451500Y-98421000D01*
G75*
G02*
X98201500Y-98671000I-250000J0D01*
G01*
G37*
M02*
