G04 #@! TF.GenerationSoftware,KiCad,Pcbnew,(5.1.12-1-10_14)*
G04 #@! TF.CreationDate,2021-12-30T10:25:41+00:00*
G04 #@! TF.ProjectId,TICAF_v1,54494341-465f-4763-912e-6b696361645f,rev?*
G04 #@! TF.SameCoordinates,Original*
G04 #@! TF.FileFunction,Soldermask,Bot*
G04 #@! TF.FilePolarity,Negative*
%FSLAX46Y46*%
G04 Gerber Fmt 4.6, Leading zero omitted, Abs format (unit mm)*
G04 Created by KiCad (PCBNEW (5.1.12-1-10_14)) date 2021-12-30 10:25:41*
%MOMM*%
%LPD*%
G01*
G04 APERTURE LIST*
%ADD10O,1.700000X1.700000*%
%ADD11R,1.700000X1.700000*%
%ADD12O,1.600000X1.600000*%
%ADD13R,1.600000X1.600000*%
%ADD14C,1.408000*%
%ADD15R,1.408000X1.408000*%
%ADD16C,1.300000*%
%ADD17C,1.100000*%
%ADD18R,1.100000X1.100000*%
%ADD19C,1.050000*%
%ADD20R,1.050000X1.050000*%
G04 APERTURE END LIST*
D10*
X78450000Y-130530000D03*
D11*
X78450000Y-127990000D03*
D10*
X42120000Y-135850000D03*
D11*
X42120000Y-133310000D03*
D10*
X66910000Y-130480000D03*
D11*
X66910000Y-127940000D03*
D10*
X54430000Y-135830000D03*
D11*
X54430000Y-133290000D03*
D10*
X54430000Y-124650000D03*
D11*
X54430000Y-122110000D03*
D10*
X42110000Y-124640000D03*
D11*
X42110000Y-122100000D03*
D10*
X66750000Y-108890000D03*
D11*
X66750000Y-111430000D03*
D12*
X87366000Y-78130500D03*
X79746000Y-111150500D03*
X87366000Y-80670500D03*
X79746000Y-108610500D03*
X87366000Y-83210500D03*
X79746000Y-106070500D03*
X87366000Y-85750500D03*
X79746000Y-103530500D03*
X87366000Y-88290500D03*
X79746000Y-100990500D03*
X87366000Y-90830500D03*
X79746000Y-98450500D03*
X87366000Y-93370500D03*
X79746000Y-95910500D03*
X87366000Y-95910500D03*
X79746000Y-93370500D03*
X87366000Y-98450500D03*
X79746000Y-90830500D03*
X87366000Y-100990500D03*
X79746000Y-88290500D03*
X87366000Y-103530500D03*
X79746000Y-85750500D03*
X87366000Y-106070500D03*
X79746000Y-83210500D03*
X87366000Y-108610500D03*
X79746000Y-80670500D03*
X87366000Y-111150500D03*
D13*
X79746000Y-78130500D03*
D10*
X28956000Y-100965000D03*
D11*
X28956000Y-103505000D03*
D10*
X159290000Y-141590000D03*
D11*
X159290000Y-139050000D03*
D14*
X146986000Y-33940500D03*
X141986000Y-30340500D03*
D15*
X136986000Y-33940500D03*
D14*
X119046000Y-33940500D03*
X114046000Y-30340500D03*
D15*
X109046000Y-33940500D03*
D10*
X65151000Y-51625500D03*
X62611000Y-51625500D03*
X65151000Y-49085500D03*
X62611000Y-49085500D03*
X65151000Y-46545500D03*
D11*
X62611000Y-46545500D03*
D10*
X98806000Y-43484800D03*
D11*
X98806000Y-40944800D03*
D16*
X80050000Y-34988500D03*
X85050000Y-34988500D03*
D10*
X104584500Y-45910500D03*
X104584500Y-43370500D03*
D11*
X104584500Y-40830500D03*
D17*
X115586000Y-56070500D03*
D18*
X117586000Y-56070500D03*
D19*
X105176000Y-56070500D03*
D20*
X107676000Y-56070500D03*
D10*
X28956000Y-78105000D03*
D11*
X28956000Y-80645000D03*
M02*
