M48
INCH,TZ
T1C0.0157
T2C0.0276
T3C0.0295
T4C0.0315
T5C0.0354
T6C0.0394
%
G90
G05
T1
X10925Y-17150
X12950Y-35975
X12950Y-40750
X12979Y-31756
X13425Y-46025
X13450Y-30225
X13950Y-19400
X14950Y-28075
X15400Y-33375
X15775Y-31175
X15775Y-39100
X16500Y-17750
X18067Y-37331
X19750Y-36500
X20625Y-38125
X21300Y-21800
X21525Y-29350
X22625Y-19325
X23744Y-50898
X24525Y-37725
X25250Y-16500
X25327Y-47283
X26300Y-39625
X27154Y-41102
X27382Y-38181
X27461Y-42780
X27500Y-16000
X27815Y-40512
X28118Y-45331
X28567Y-40528
X28585Y-24402
X29988Y-46823
X30604Y-27104
X30896Y-27396
X30900Y-16575
X31538Y-28913
X31650Y-18575
X31650Y-19325
X31650Y-20575
X32500Y-37500
X32508Y-39317
X32553Y-40203
X32953Y-38317
X33250Y-34750
X33310Y-41760
X33400Y-18825
X33575Y-28581
X33598Y-50398
X35125Y-25850
X35276Y-27323
X35600Y-41075
X35723Y-38223
X35750Y-26750
X36000Y-30750
X36400Y-19575
X36475Y-22150
X36500Y-29000
X37125Y-38750
X37591Y-50394
X38185Y-43587
X38752Y-46291
X38900Y-19075
X39922Y-15553
X40300Y-36075
X41346Y-49335
X42016Y-42673
X42200Y-26100
X43199Y-42609
X43650Y-15075
X43900Y-17575
X44040Y-32710
X44307Y-54528
X45834Y-39570
X46294Y-17681
X47319Y-57346
X52500Y-33500
X59400Y-17825
X60000Y-33000
X60000Y-35500
X66500Y-28500
X66500Y-30750
X66500Y-33000
X66500Y-35500
X66500Y-38000
T2
X41408Y-22075
X42392Y-22075
T3
X45506Y-22075
X46294Y-22075
T4
X31396Y-30760
X31396Y-31760
X31396Y-32760
X31396Y-33760
X31396Y-34760
X31396Y-35760
X31396Y-36760
X31396Y-37760
X31396Y-38760
X31396Y-39760
X31396Y-40760
X31396Y-41760
X31396Y-42760
X31396Y-43760
X34396Y-30760
X34396Y-31760
X34396Y-32760
X34396Y-33760
X34396Y-34760
X34396Y-35760
X34396Y-36760
X34396Y-37760
X34396Y-38760
X34396Y-39760
X34396Y-40760
X34396Y-41760
X34396Y-42760
X34396Y-43760
T5
X42931Y-13362
X44900Y-11945
X46869Y-13362
X53931Y-13362
X55900Y-11945
X57869Y-13362
T6
X11400Y-30750
X11400Y-31750
X11400Y-39750
X11400Y-40750
X16579Y-48071
X16579Y-49071
X16583Y-52484
X16583Y-53484
X21429Y-48075
X21429Y-49075
X21429Y-52476
X21429Y-53476
X24650Y-18325
X24650Y-19325
X24650Y-20325
X25650Y-18325
X25650Y-19325
X25650Y-20325
X26280Y-42870
X26280Y-43870
X26343Y-50370
X26343Y-51370
X30886Y-50390
X30886Y-51390
X38900Y-16120
X38900Y-17120
X41175Y-16075
X41175Y-17075
X41175Y-18075
X62713Y-54744
X62713Y-55744
T0
M30
