G04 #@! TF.GenerationSoftware,KiCad,Pcbnew,(5.1.12-1-10_14)*
G04 #@! TF.CreationDate,2021-12-30T10:25:41+00:00*
G04 #@! TF.ProjectId,TICAF_v1,54494341-465f-4763-912e-6b696361645f,rev?*
G04 #@! TF.SameCoordinates,Original*
G04 #@! TF.FileFunction,Legend,Bot*
G04 #@! TF.FilePolarity,Positive*
%FSLAX46Y46*%
G04 Gerber Fmt 4.6, Leading zero omitted, Abs format (unit mm)*
G04 Created by KiCad (PCBNEW (5.1.12-1-10_14)) date 2021-12-30 10:25:41*
%MOMM*%
%LPD*%
G01*
G04 APERTURE LIST*
%ADD10C,0.300000*%
%ADD11C,0.010000*%
G04 APERTURE END LIST*
D10*
X168667857Y-108003571D02*
X168667857Y-109217857D01*
X168596428Y-109360714D01*
X168525000Y-109432142D01*
X168382142Y-109503571D01*
X168096428Y-109503571D01*
X167953571Y-109432142D01*
X167882142Y-109360714D01*
X167810714Y-109217857D01*
X167810714Y-108003571D01*
X167096428Y-108503571D02*
X167096428Y-109503571D01*
X167096428Y-108646428D02*
X167025000Y-108575000D01*
X166882142Y-108503571D01*
X166667857Y-108503571D01*
X166525000Y-108575000D01*
X166453571Y-108717857D01*
X166453571Y-109503571D01*
X165739285Y-109503571D02*
X165739285Y-108503571D01*
X165739285Y-108003571D02*
X165810714Y-108075000D01*
X165739285Y-108146428D01*
X165667857Y-108075000D01*
X165739285Y-108003571D01*
X165739285Y-108146428D01*
X165167857Y-108503571D02*
X164810714Y-109503571D01*
X164453571Y-108503571D01*
X163310714Y-109432142D02*
X163453571Y-109503571D01*
X163739285Y-109503571D01*
X163882142Y-109432142D01*
X163953571Y-109289285D01*
X163953571Y-108717857D01*
X163882142Y-108575000D01*
X163739285Y-108503571D01*
X163453571Y-108503571D01*
X163310714Y-108575000D01*
X163239285Y-108717857D01*
X163239285Y-108860714D01*
X163953571Y-109003571D01*
X162596428Y-109503571D02*
X162596428Y-108503571D01*
X162596428Y-108789285D02*
X162525000Y-108646428D01*
X162453571Y-108575000D01*
X162310714Y-108503571D01*
X162167857Y-108503571D01*
X161739285Y-109432142D02*
X161596428Y-109503571D01*
X161310714Y-109503571D01*
X161167857Y-109432142D01*
X161096428Y-109289285D01*
X161096428Y-109217857D01*
X161167857Y-109075000D01*
X161310714Y-109003571D01*
X161525000Y-109003571D01*
X161667857Y-108932142D01*
X161739285Y-108789285D01*
X161739285Y-108717857D01*
X161667857Y-108575000D01*
X161525000Y-108503571D01*
X161310714Y-108503571D01*
X161167857Y-108575000D01*
X160453571Y-109503571D02*
X160453571Y-108503571D01*
X160453571Y-108003571D02*
X160525000Y-108075000D01*
X160453571Y-108146428D01*
X160382142Y-108075000D01*
X160453571Y-108003571D01*
X160453571Y-108146428D01*
X159096428Y-109503571D02*
X159096428Y-108003571D01*
X159096428Y-109432142D02*
X159239285Y-109503571D01*
X159525000Y-109503571D01*
X159667857Y-109432142D01*
X159739285Y-109360714D01*
X159810714Y-109217857D01*
X159810714Y-108789285D01*
X159739285Y-108646428D01*
X159667857Y-108575000D01*
X159525000Y-108503571D01*
X159239285Y-108503571D01*
X159096428Y-108575000D01*
X157739285Y-109503571D02*
X157739285Y-108717857D01*
X157810714Y-108575000D01*
X157953571Y-108503571D01*
X158239285Y-108503571D01*
X158382142Y-108575000D01*
X157739285Y-109432142D02*
X157882142Y-109503571D01*
X158239285Y-109503571D01*
X158382142Y-109432142D01*
X158453571Y-109289285D01*
X158453571Y-109146428D01*
X158382142Y-109003571D01*
X158239285Y-108932142D01*
X157882142Y-108932142D01*
X157739285Y-108860714D01*
X156382142Y-109503571D02*
X156382142Y-108003571D01*
X156382142Y-109432142D02*
X156525000Y-109503571D01*
X156810714Y-109503571D01*
X156953571Y-109432142D01*
X157025000Y-109360714D01*
X157096428Y-109217857D01*
X157096428Y-108789285D01*
X157025000Y-108646428D01*
X156953571Y-108575000D01*
X156810714Y-108503571D01*
X156525000Y-108503571D01*
X156382142Y-108575000D01*
X155096428Y-109432142D02*
X155239285Y-109503571D01*
X155525000Y-109503571D01*
X155667857Y-109432142D01*
X155739285Y-109289285D01*
X155739285Y-108717857D01*
X155667857Y-108575000D01*
X155525000Y-108503571D01*
X155239285Y-108503571D01*
X155096428Y-108575000D01*
X155025000Y-108717857D01*
X155025000Y-108860714D01*
X155739285Y-109003571D01*
X152596428Y-109503571D02*
X152596428Y-108003571D01*
X152596428Y-109432142D02*
X152739285Y-109503571D01*
X153025000Y-109503571D01*
X153167857Y-109432142D01*
X153239285Y-109360714D01*
X153310714Y-109217857D01*
X153310714Y-108789285D01*
X153239285Y-108646428D01*
X153167857Y-108575000D01*
X153025000Y-108503571D01*
X152739285Y-108503571D01*
X152596428Y-108575000D01*
X151239285Y-109503571D02*
X151239285Y-108717857D01*
X151310714Y-108575000D01*
X151453571Y-108503571D01*
X151739285Y-108503571D01*
X151882142Y-108575000D01*
X151239285Y-109432142D02*
X151382142Y-109503571D01*
X151739285Y-109503571D01*
X151882142Y-109432142D01*
X151953571Y-109289285D01*
X151953571Y-109146428D01*
X151882142Y-109003571D01*
X151739285Y-108932142D01*
X151382142Y-108932142D01*
X151239285Y-108860714D01*
X148882142Y-108717857D02*
X148667857Y-108789285D01*
X148596428Y-108860714D01*
X148525000Y-109003571D01*
X148525000Y-109217857D01*
X148596428Y-109360714D01*
X148667857Y-109432142D01*
X148810714Y-109503571D01*
X149382142Y-109503571D01*
X149382142Y-108003571D01*
X148882142Y-108003571D01*
X148739285Y-108075000D01*
X148667857Y-108146428D01*
X148596428Y-108289285D01*
X148596428Y-108432142D01*
X148667857Y-108575000D01*
X148739285Y-108646428D01*
X148882142Y-108717857D01*
X149382142Y-108717857D01*
X147310714Y-109432142D02*
X147453571Y-109503571D01*
X147739285Y-109503571D01*
X147882142Y-109432142D01*
X147953571Y-109289285D01*
X147953571Y-108717857D01*
X147882142Y-108575000D01*
X147739285Y-108503571D01*
X147453571Y-108503571D01*
X147310714Y-108575000D01*
X147239285Y-108717857D01*
X147239285Y-108860714D01*
X147953571Y-109003571D01*
X146596428Y-109503571D02*
X146596428Y-108503571D01*
X146596428Y-108003571D02*
X146667857Y-108075000D01*
X146596428Y-108146428D01*
X146525000Y-108075000D01*
X146596428Y-108003571D01*
X146596428Y-108146428D01*
X145882142Y-109503571D02*
X145882142Y-108503571D01*
X145882142Y-108789285D02*
X145810714Y-108646428D01*
X145739285Y-108575000D01*
X145596428Y-108503571D01*
X145453571Y-108503571D01*
X144310714Y-109503571D02*
X144310714Y-108717857D01*
X144382142Y-108575000D01*
X144525000Y-108503571D01*
X144810714Y-108503571D01*
X144953571Y-108575000D01*
X144310714Y-109432142D02*
X144453571Y-109503571D01*
X144810714Y-109503571D01*
X144953571Y-109432142D01*
X145025000Y-109289285D01*
X145025000Y-109146428D01*
X144953571Y-109003571D01*
X144810714Y-108932142D01*
X144453571Y-108932142D01*
X144310714Y-108860714D01*
X142453571Y-109503571D02*
X142453571Y-108003571D01*
X141739285Y-108503571D02*
X141739285Y-109503571D01*
X141739285Y-108646428D02*
X141667857Y-108575000D01*
X141525000Y-108503571D01*
X141310714Y-108503571D01*
X141167857Y-108575000D01*
X141096428Y-108717857D01*
X141096428Y-109503571D01*
X140596428Y-108503571D02*
X140025000Y-108503571D01*
X140382142Y-108003571D02*
X140382142Y-109289285D01*
X140310714Y-109432142D01*
X140167857Y-109503571D01*
X140025000Y-109503571D01*
X138953571Y-109432142D02*
X139096428Y-109503571D01*
X139382142Y-109503571D01*
X139525000Y-109432142D01*
X139596428Y-109289285D01*
X139596428Y-108717857D01*
X139525000Y-108575000D01*
X139382142Y-108503571D01*
X139096428Y-108503571D01*
X138953571Y-108575000D01*
X138882142Y-108717857D01*
X138882142Y-108860714D01*
X139596428Y-109003571D01*
X138239285Y-109503571D02*
X138239285Y-108503571D01*
X138239285Y-108789285D02*
X138167857Y-108646428D01*
X138096428Y-108575000D01*
X137953571Y-108503571D01*
X137810714Y-108503571D01*
X137310714Y-109503571D02*
X137310714Y-108503571D01*
X137310714Y-108003571D02*
X137382142Y-108075000D01*
X137310714Y-108146428D01*
X137239285Y-108075000D01*
X137310714Y-108003571D01*
X137310714Y-108146428D01*
X136382142Y-109503571D02*
X136525000Y-109432142D01*
X136596428Y-109360714D01*
X136667857Y-109217857D01*
X136667857Y-108789285D01*
X136596428Y-108646428D01*
X136525000Y-108575000D01*
X136382142Y-108503571D01*
X136167857Y-108503571D01*
X136025000Y-108575000D01*
X135953571Y-108646428D01*
X135882142Y-108789285D01*
X135882142Y-109217857D01*
X135953571Y-109360714D01*
X136025000Y-109432142D01*
X136167857Y-109503571D01*
X136382142Y-109503571D01*
X135239285Y-109503571D02*
X135239285Y-108503571D01*
X135239285Y-108789285D02*
X135167857Y-108646428D01*
X135096428Y-108575000D01*
X134953571Y-108503571D01*
X134810714Y-108503571D01*
X168810714Y-111553571D02*
X167525000Y-111553571D01*
X167096428Y-111553571D02*
X165810714Y-111553571D01*
X165382142Y-111553571D02*
X164096428Y-111553571D01*
X163667857Y-111553571D02*
X162382142Y-111553571D01*
X161953571Y-111553571D02*
X160667857Y-111553571D01*
X160239285Y-111553571D02*
X158953571Y-111553571D01*
X158525000Y-111553571D02*
X157239285Y-111553571D01*
X156810714Y-111553571D02*
X155525000Y-111553571D01*
X155096428Y-111553571D02*
X153810714Y-111553571D01*
X153382142Y-111553571D02*
X152096428Y-111553571D01*
X151667857Y-111553571D02*
X150382142Y-111553571D01*
X149953571Y-111553571D02*
X148667857Y-111553571D01*
X148239285Y-111553571D02*
X146953571Y-111553571D01*
X146525000Y-111553571D02*
X145239285Y-111553571D01*
X144810714Y-111553571D02*
X143525000Y-111553571D01*
X143096428Y-111553571D02*
X141810714Y-111553571D01*
X141382142Y-111553571D02*
X140096428Y-111553571D01*
X139667857Y-111553571D02*
X138382142Y-111553571D01*
X137953571Y-111553571D02*
X136667857Y-111553571D01*
X136239285Y-111553571D02*
X134953571Y-111553571D01*
X134525000Y-111553571D02*
X133239285Y-111553571D01*
X132810714Y-111553571D02*
X131525000Y-111553571D01*
X131096428Y-111553571D02*
X129810714Y-111553571D01*
X129382142Y-111553571D02*
X128096428Y-111553571D01*
X168667857Y-114603571D02*
X168667857Y-113103571D01*
X168167857Y-114175000D01*
X167667857Y-113103571D01*
X167667857Y-114603571D01*
X166382142Y-114532142D02*
X166525000Y-114603571D01*
X166810714Y-114603571D01*
X166953571Y-114532142D01*
X167025000Y-114389285D01*
X167025000Y-113817857D01*
X166953571Y-113675000D01*
X166810714Y-113603571D01*
X166525000Y-113603571D01*
X166382142Y-113675000D01*
X166310714Y-113817857D01*
X166310714Y-113960714D01*
X167025000Y-114103571D01*
X165739285Y-114532142D02*
X165596428Y-114603571D01*
X165310714Y-114603571D01*
X165167857Y-114532142D01*
X165096428Y-114389285D01*
X165096428Y-114317857D01*
X165167857Y-114175000D01*
X165310714Y-114103571D01*
X165525000Y-114103571D01*
X165667857Y-114032142D01*
X165739285Y-113889285D01*
X165739285Y-113817857D01*
X165667857Y-113675000D01*
X165525000Y-113603571D01*
X165310714Y-113603571D01*
X165167857Y-113675000D01*
X164667857Y-113603571D02*
X164096428Y-113603571D01*
X164453571Y-113103571D02*
X164453571Y-114389285D01*
X164382142Y-114532142D01*
X164239285Y-114603571D01*
X164096428Y-114603571D01*
X163596428Y-114603571D02*
X163596428Y-113603571D01*
X163596428Y-113889285D02*
X163525000Y-113746428D01*
X163453571Y-113675000D01*
X163310714Y-113603571D01*
X163167857Y-113603571D01*
X162025000Y-114603571D02*
X162025000Y-113817857D01*
X162096428Y-113675000D01*
X162239285Y-113603571D01*
X162525000Y-113603571D01*
X162667857Y-113675000D01*
X162025000Y-114532142D02*
X162167857Y-114603571D01*
X162525000Y-114603571D01*
X162667857Y-114532142D01*
X162739285Y-114389285D01*
X162739285Y-114246428D01*
X162667857Y-114103571D01*
X162525000Y-114032142D01*
X162167857Y-114032142D01*
X162025000Y-113960714D01*
X160667857Y-114603571D02*
X160667857Y-113103571D01*
X160667857Y-114532142D02*
X160810714Y-114603571D01*
X161096428Y-114603571D01*
X161239285Y-114532142D01*
X161310714Y-114460714D01*
X161382142Y-114317857D01*
X161382142Y-113889285D01*
X161310714Y-113746428D01*
X161239285Y-113675000D01*
X161096428Y-113603571D01*
X160810714Y-113603571D01*
X160667857Y-113675000D01*
X159739285Y-114603571D02*
X159882142Y-114532142D01*
X159953571Y-114460714D01*
X160025000Y-114317857D01*
X160025000Y-113889285D01*
X159953571Y-113746428D01*
X159882142Y-113675000D01*
X159739285Y-113603571D01*
X159525000Y-113603571D01*
X159382142Y-113675000D01*
X159310714Y-113746428D01*
X159239285Y-113889285D01*
X159239285Y-114317857D01*
X159310714Y-114460714D01*
X159382142Y-114532142D01*
X159525000Y-114603571D01*
X159739285Y-114603571D01*
X156882142Y-114532142D02*
X157025000Y-114603571D01*
X157310714Y-114603571D01*
X157453571Y-114532142D01*
X157525000Y-114389285D01*
X157525000Y-113817857D01*
X157453571Y-113675000D01*
X157310714Y-113603571D01*
X157025000Y-113603571D01*
X156882142Y-113675000D01*
X156810714Y-113817857D01*
X156810714Y-113960714D01*
X157525000Y-114103571D01*
X156167857Y-114603571D02*
X156167857Y-113603571D01*
X156167857Y-113746428D02*
X156096428Y-113675000D01*
X155953571Y-113603571D01*
X155739285Y-113603571D01*
X155596428Y-113675000D01*
X155525000Y-113817857D01*
X155525000Y-114603571D01*
X155525000Y-113817857D02*
X155453571Y-113675000D01*
X155310714Y-113603571D01*
X155096428Y-113603571D01*
X154953571Y-113675000D01*
X154882142Y-113817857D01*
X154882142Y-114603571D01*
X153025000Y-113817857D02*
X152525000Y-113817857D01*
X152310714Y-114603571D02*
X153025000Y-114603571D01*
X153025000Y-113103571D01*
X152310714Y-113103571D01*
X151667857Y-113603571D02*
X151667857Y-114603571D01*
X151667857Y-113746428D02*
X151596428Y-113675000D01*
X151453571Y-113603571D01*
X151239285Y-113603571D01*
X151096428Y-113675000D01*
X151025000Y-113817857D01*
X151025000Y-114603571D01*
X150382142Y-114532142D02*
X150239285Y-114603571D01*
X149953571Y-114603571D01*
X149810714Y-114532142D01*
X149739285Y-114389285D01*
X149739285Y-114317857D01*
X149810714Y-114175000D01*
X149953571Y-114103571D01*
X150167857Y-114103571D01*
X150310714Y-114032142D01*
X150382142Y-113889285D01*
X150382142Y-113817857D01*
X150310714Y-113675000D01*
X150167857Y-113603571D01*
X149953571Y-113603571D01*
X149810714Y-113675000D01*
X149096428Y-114603571D02*
X149096428Y-113603571D01*
X149096428Y-113103571D02*
X149167857Y-113175000D01*
X149096428Y-113246428D01*
X149025000Y-113175000D01*
X149096428Y-113103571D01*
X149096428Y-113246428D01*
X148382142Y-113603571D02*
X148382142Y-114603571D01*
X148382142Y-113746428D02*
X148310714Y-113675000D01*
X148167857Y-113603571D01*
X147953571Y-113603571D01*
X147810714Y-113675000D01*
X147739285Y-113817857D01*
X147739285Y-114603571D01*
X146810714Y-114603571D02*
X146953571Y-114532142D01*
X147025000Y-114460714D01*
X147096428Y-114317857D01*
X147096428Y-113889285D01*
X147025000Y-113746428D01*
X146953571Y-113675000D01*
X146810714Y-113603571D01*
X146596428Y-113603571D01*
X146453571Y-113675000D01*
X146382142Y-113746428D01*
X146310714Y-113889285D01*
X146310714Y-114317857D01*
X146382142Y-114460714D01*
X146453571Y-114532142D01*
X146596428Y-114603571D01*
X146810714Y-114603571D01*
X143882142Y-114603571D02*
X143882142Y-113103571D01*
X143882142Y-114532142D02*
X144025000Y-114603571D01*
X144310714Y-114603571D01*
X144453571Y-114532142D01*
X144525000Y-114460714D01*
X144596428Y-114317857D01*
X144596428Y-113889285D01*
X144525000Y-113746428D01*
X144453571Y-113675000D01*
X144310714Y-113603571D01*
X144025000Y-113603571D01*
X143882142Y-113675000D01*
X142596428Y-114532142D02*
X142739285Y-114603571D01*
X143025000Y-114603571D01*
X143167857Y-114532142D01*
X143239285Y-114389285D01*
X143239285Y-113817857D01*
X143167857Y-113675000D01*
X143025000Y-113603571D01*
X142739285Y-113603571D01*
X142596428Y-113675000D01*
X142525000Y-113817857D01*
X142525000Y-113960714D01*
X143239285Y-114103571D01*
X140239285Y-113817857D02*
X140739285Y-113817857D01*
X140739285Y-114603571D02*
X140739285Y-113103571D01*
X140025000Y-113103571D01*
X139453571Y-114603571D02*
X139453571Y-113603571D01*
X139310714Y-113032142D02*
X139525000Y-113246428D01*
X138810714Y-114532142D02*
X138667857Y-114603571D01*
X138382142Y-114603571D01*
X138239285Y-114532142D01*
X138167857Y-114389285D01*
X138167857Y-114317857D01*
X138239285Y-114175000D01*
X138382142Y-114103571D01*
X138596428Y-114103571D01*
X138739285Y-114032142D01*
X138810714Y-113889285D01*
X138810714Y-113817857D01*
X138739285Y-113675000D01*
X138596428Y-113603571D01*
X138382142Y-113603571D01*
X138239285Y-113675000D01*
X137525000Y-114603571D02*
X137525000Y-113603571D01*
X137525000Y-113103571D02*
X137596428Y-113175000D01*
X137525000Y-113246428D01*
X137453571Y-113175000D01*
X137525000Y-113103571D01*
X137525000Y-113246428D01*
X136167857Y-114532142D02*
X136310714Y-114603571D01*
X136596428Y-114603571D01*
X136739285Y-114532142D01*
X136810714Y-114460714D01*
X136882142Y-114317857D01*
X136882142Y-113889285D01*
X136810714Y-113746428D01*
X136739285Y-113675000D01*
X136596428Y-113603571D01*
X136310714Y-113603571D01*
X136167857Y-113675000D01*
X134882142Y-114603571D02*
X134882142Y-113817857D01*
X134953571Y-113675000D01*
X135096428Y-113603571D01*
X135382142Y-113603571D01*
X135525000Y-113675000D01*
X134882142Y-114532142D02*
X135025000Y-114603571D01*
X135382142Y-114603571D01*
X135525000Y-114532142D01*
X135596428Y-114389285D01*
X135596428Y-114246428D01*
X135525000Y-114103571D01*
X135382142Y-114032142D01*
X135025000Y-114032142D01*
X134882142Y-113960714D01*
X132453571Y-114532142D02*
X132596428Y-114603571D01*
X132882142Y-114603571D01*
X133025000Y-114532142D01*
X133096428Y-114389285D01*
X133096428Y-113817857D01*
X133025000Y-113675000D01*
X132882142Y-113603571D01*
X132596428Y-113603571D01*
X132453571Y-113675000D01*
X132382142Y-113817857D01*
X132382142Y-113960714D01*
X133096428Y-114103571D01*
X129596428Y-114746428D02*
X129739285Y-114675000D01*
X129882142Y-114532142D01*
X130096428Y-114317857D01*
X130239285Y-114246428D01*
X130382142Y-114246428D01*
X130310714Y-114603571D02*
X130453571Y-114532142D01*
X130596428Y-114389285D01*
X130667857Y-114103571D01*
X130667857Y-113603571D01*
X130596428Y-113317857D01*
X130453571Y-113175000D01*
X130310714Y-113103571D01*
X130025000Y-113103571D01*
X129882142Y-113175000D01*
X129739285Y-113317857D01*
X129667857Y-113603571D01*
X129667857Y-114103571D01*
X129739285Y-114389285D01*
X129882142Y-114532142D01*
X130025000Y-114603571D01*
X130310714Y-114603571D01*
X128382142Y-113603571D02*
X128382142Y-114603571D01*
X129025000Y-113603571D02*
X129025000Y-114389285D01*
X128953571Y-114532142D01*
X128810714Y-114603571D01*
X128596428Y-114603571D01*
X128453571Y-114532142D01*
X128382142Y-114460714D01*
X127667857Y-114603571D02*
X127667857Y-113603571D01*
X127525000Y-113032142D02*
X127739285Y-113246428D01*
X126953571Y-114603571D02*
X126953571Y-113603571D01*
X126953571Y-113746428D02*
X126882142Y-113675000D01*
X126739285Y-113603571D01*
X126525000Y-113603571D01*
X126382142Y-113675000D01*
X126310714Y-113817857D01*
X126310714Y-114603571D01*
X126310714Y-113817857D02*
X126239285Y-113675000D01*
X126096428Y-113603571D01*
X125882142Y-113603571D01*
X125739285Y-113675000D01*
X125667857Y-113817857D01*
X125667857Y-114603571D01*
X124953571Y-114603571D02*
X124953571Y-113603571D01*
X124953571Y-113103571D02*
X125025000Y-113175000D01*
X124953571Y-113246428D01*
X124882142Y-113175000D01*
X124953571Y-113103571D01*
X124953571Y-113246428D01*
X123596428Y-114532142D02*
X123739285Y-114603571D01*
X124025000Y-114603571D01*
X124167857Y-114532142D01*
X124239285Y-114460714D01*
X124310714Y-114317857D01*
X124310714Y-113889285D01*
X124239285Y-113746428D01*
X124167857Y-113675000D01*
X124025000Y-113603571D01*
X123739285Y-113603571D01*
X123596428Y-113675000D01*
X122310714Y-114603571D02*
X122310714Y-113817857D01*
X122382142Y-113675000D01*
X122525000Y-113603571D01*
X122810714Y-113603571D01*
X122953571Y-113675000D01*
X122310714Y-114532142D02*
X122453571Y-114603571D01*
X122810714Y-114603571D01*
X122953571Y-114532142D01*
X123025000Y-114389285D01*
X123025000Y-114246428D01*
X122953571Y-114103571D01*
X122810714Y-114032142D01*
X122453571Y-114032142D01*
X122310714Y-113960714D01*
X168667857Y-117153571D02*
X168667857Y-115653571D01*
X168310714Y-115653571D01*
X168096428Y-115725000D01*
X167953571Y-115867857D01*
X167882142Y-116010714D01*
X167810714Y-116296428D01*
X167810714Y-116510714D01*
X167882142Y-116796428D01*
X167953571Y-116939285D01*
X168096428Y-117082142D01*
X168310714Y-117153571D01*
X168667857Y-117153571D01*
X167167857Y-117153571D02*
X167167857Y-116153571D01*
X167167857Y-115653571D02*
X167239285Y-115725000D01*
X167167857Y-115796428D01*
X167096428Y-115725000D01*
X167167857Y-115653571D01*
X167167857Y-115796428D01*
X166525000Y-117082142D02*
X166382142Y-117153571D01*
X166096428Y-117153571D01*
X165953571Y-117082142D01*
X165882142Y-116939285D01*
X165882142Y-116867857D01*
X165953571Y-116725000D01*
X166096428Y-116653571D01*
X166310714Y-116653571D01*
X166453571Y-116582142D01*
X166525000Y-116439285D01*
X166525000Y-116367857D01*
X166453571Y-116225000D01*
X166310714Y-116153571D01*
X166096428Y-116153571D01*
X165953571Y-116225000D01*
X164596428Y-117082142D02*
X164739285Y-117153571D01*
X165025000Y-117153571D01*
X165167857Y-117082142D01*
X165239285Y-117010714D01*
X165310714Y-116867857D01*
X165310714Y-116439285D01*
X165239285Y-116296428D01*
X165167857Y-116225000D01*
X165025000Y-116153571D01*
X164739285Y-116153571D01*
X164596428Y-116225000D01*
X163953571Y-117153571D02*
X163953571Y-116153571D01*
X163953571Y-115653571D02*
X164025000Y-115725000D01*
X163953571Y-115796428D01*
X163882142Y-115725000D01*
X163953571Y-115653571D01*
X163953571Y-115796428D01*
X163239285Y-116153571D02*
X163239285Y-117653571D01*
X163239285Y-116225000D02*
X163096428Y-116153571D01*
X162810714Y-116153571D01*
X162667857Y-116225000D01*
X162596428Y-116296428D01*
X162525000Y-116439285D01*
X162525000Y-116867857D01*
X162596428Y-117010714D01*
X162667857Y-117082142D01*
X162810714Y-117153571D01*
X163096428Y-117153571D01*
X163239285Y-117082142D01*
X161667857Y-117153571D02*
X161810714Y-117082142D01*
X161882142Y-116939285D01*
X161882142Y-115653571D01*
X161096428Y-117153571D02*
X161096428Y-116153571D01*
X161096428Y-115653571D02*
X161167857Y-115725000D01*
X161096428Y-115796428D01*
X161025000Y-115725000D01*
X161096428Y-115653571D01*
X161096428Y-115796428D01*
X160382142Y-116153571D02*
X160382142Y-117153571D01*
X160382142Y-116296428D02*
X160310714Y-116225000D01*
X160167857Y-116153571D01*
X159953571Y-116153571D01*
X159810714Y-116225000D01*
X159739285Y-116367857D01*
X159739285Y-117153571D01*
X158382142Y-117153571D02*
X158382142Y-116367857D01*
X158453571Y-116225000D01*
X158596428Y-116153571D01*
X158882142Y-116153571D01*
X159025000Y-116225000D01*
X158382142Y-117082142D02*
X158525000Y-117153571D01*
X158882142Y-117153571D01*
X159025000Y-117082142D01*
X159096428Y-116939285D01*
X159096428Y-116796428D01*
X159025000Y-116653571D01*
X158882142Y-116582142D01*
X158525000Y-116582142D01*
X158382142Y-116510714D01*
X157667857Y-117010714D02*
X157596428Y-117082142D01*
X157667857Y-117153571D01*
X157739285Y-117082142D01*
X157667857Y-117010714D01*
X157667857Y-117153571D01*
X157667857Y-116225000D02*
X157596428Y-116296428D01*
X157667857Y-116367857D01*
X157739285Y-116296428D01*
X157667857Y-116225000D01*
X157667857Y-116367857D01*
X156025000Y-115653571D02*
X155167857Y-115653571D01*
X155596428Y-117153571D02*
X155596428Y-115653571D01*
X154667857Y-117153571D02*
X154667857Y-115653571D01*
X153096428Y-117010714D02*
X153167857Y-117082142D01*
X153382142Y-117153571D01*
X153525000Y-117153571D01*
X153739285Y-117082142D01*
X153882142Y-116939285D01*
X153953571Y-116796428D01*
X154025000Y-116510714D01*
X154025000Y-116296428D01*
X153953571Y-116010714D01*
X153882142Y-115867857D01*
X153739285Y-115725000D01*
X153525000Y-115653571D01*
X153382142Y-115653571D01*
X153167857Y-115725000D01*
X153096428Y-115796428D01*
X151382142Y-116725000D02*
X150667857Y-116725000D01*
X151525000Y-117153571D02*
X151025000Y-115653571D01*
X150525000Y-117153571D01*
X150025000Y-116153571D02*
X150025000Y-117653571D01*
X150025000Y-116225000D02*
X149882142Y-116153571D01*
X149596428Y-116153571D01*
X149453571Y-116225000D01*
X149382142Y-116296428D01*
X149310714Y-116439285D01*
X149310714Y-116867857D01*
X149382142Y-117010714D01*
X149453571Y-117082142D01*
X149596428Y-117153571D01*
X149882142Y-117153571D01*
X150025000Y-117082142D01*
X148453571Y-117153571D02*
X148596428Y-117082142D01*
X148667857Y-116939285D01*
X148667857Y-115653571D01*
X147882142Y-117153571D02*
X147882142Y-116153571D01*
X147882142Y-115653571D02*
X147953571Y-115725000D01*
X147882142Y-115796428D01*
X147810714Y-115725000D01*
X147882142Y-115653571D01*
X147882142Y-115796428D01*
X146525000Y-117082142D02*
X146667857Y-117153571D01*
X146953571Y-117153571D01*
X147096428Y-117082142D01*
X147167857Y-117010714D01*
X147239285Y-116867857D01*
X147239285Y-116439285D01*
X147167857Y-116296428D01*
X147096428Y-116225000D01*
X146953571Y-116153571D01*
X146667857Y-116153571D01*
X146525000Y-116225000D01*
X145239285Y-117153571D02*
X145239285Y-116367857D01*
X145310714Y-116225000D01*
X145453571Y-116153571D01*
X145739285Y-116153571D01*
X145882142Y-116225000D01*
X145239285Y-117082142D02*
X145382142Y-117153571D01*
X145739285Y-117153571D01*
X145882142Y-117082142D01*
X145953571Y-116939285D01*
X145953571Y-116796428D01*
X145882142Y-116653571D01*
X145739285Y-116582142D01*
X145382142Y-116582142D01*
X145239285Y-116510714D01*
X143882142Y-117153571D02*
X143882142Y-115653571D01*
X143882142Y-117082142D02*
X144025000Y-117153571D01*
X144310714Y-117153571D01*
X144453571Y-117082142D01*
X144525000Y-117010714D01*
X144596428Y-116867857D01*
X144596428Y-116439285D01*
X144525000Y-116296428D01*
X144453571Y-116225000D01*
X144310714Y-116153571D01*
X144025000Y-116153571D01*
X143882142Y-116225000D01*
X142525000Y-117153571D02*
X142525000Y-116367857D01*
X142596428Y-116225000D01*
X142739285Y-116153571D01*
X143025000Y-116153571D01*
X143167857Y-116225000D01*
X142525000Y-117082142D02*
X142667857Y-117153571D01*
X143025000Y-117153571D01*
X143167857Y-117082142D01*
X143239285Y-116939285D01*
X143239285Y-116796428D01*
X143167857Y-116653571D01*
X143025000Y-116582142D01*
X142667857Y-116582142D01*
X142525000Y-116510714D01*
X140025000Y-117153571D02*
X140025000Y-116367857D01*
X140096428Y-116225000D01*
X140239285Y-116153571D01*
X140525000Y-116153571D01*
X140667857Y-116225000D01*
X140025000Y-117082142D02*
X140167857Y-117153571D01*
X140525000Y-117153571D01*
X140667857Y-117082142D01*
X140739285Y-116939285D01*
X140739285Y-116796428D01*
X140667857Y-116653571D01*
X140525000Y-116582142D01*
X140167857Y-116582142D01*
X140025000Y-116510714D01*
X140525000Y-115582142D02*
X140310714Y-115796428D01*
X137667857Y-116367857D02*
X138167857Y-116367857D01*
X138167857Y-117153571D02*
X138167857Y-115653571D01*
X137453571Y-115653571D01*
X136882142Y-117153571D02*
X136882142Y-116153571D01*
X136739285Y-115582142D02*
X136953571Y-115796428D01*
X136239285Y-117082142D02*
X136096428Y-117153571D01*
X135810714Y-117153571D01*
X135667857Y-117082142D01*
X135596428Y-116939285D01*
X135596428Y-116867857D01*
X135667857Y-116725000D01*
X135810714Y-116653571D01*
X136025000Y-116653571D01*
X136167857Y-116582142D01*
X136239285Y-116439285D01*
X136239285Y-116367857D01*
X136167857Y-116225000D01*
X136025000Y-116153571D01*
X135810714Y-116153571D01*
X135667857Y-116225000D01*
X134953571Y-117153571D02*
X134953571Y-116153571D01*
X134953571Y-115653571D02*
X135025000Y-115725000D01*
X134953571Y-115796428D01*
X134882142Y-115725000D01*
X134953571Y-115653571D01*
X134953571Y-115796428D01*
X133596428Y-117082142D02*
X133739285Y-117153571D01*
X134025000Y-117153571D01*
X134167857Y-117082142D01*
X134239285Y-117010714D01*
X134310714Y-116867857D01*
X134310714Y-116439285D01*
X134239285Y-116296428D01*
X134167857Y-116225000D01*
X134025000Y-116153571D01*
X133739285Y-116153571D01*
X133596428Y-116225000D01*
X132310714Y-117153571D02*
X132310714Y-116367857D01*
X132382142Y-116225000D01*
X132525000Y-116153571D01*
X132810714Y-116153571D01*
X132953571Y-116225000D01*
X132310714Y-117082142D02*
X132453571Y-117153571D01*
X132810714Y-117153571D01*
X132953571Y-117082142D01*
X133025000Y-116939285D01*
X133025000Y-116796428D01*
X132953571Y-116653571D01*
X132810714Y-116582142D01*
X132453571Y-116582142D01*
X132310714Y-116510714D01*
X168667857Y-119703571D02*
X168667857Y-118203571D01*
X168310714Y-118203571D01*
X168096428Y-118275000D01*
X167953571Y-118417857D01*
X167882142Y-118560714D01*
X167810714Y-118846428D01*
X167810714Y-119060714D01*
X167882142Y-119346428D01*
X167953571Y-119489285D01*
X168096428Y-119632142D01*
X168310714Y-119703571D01*
X168667857Y-119703571D01*
X166953571Y-119703571D02*
X167096428Y-119632142D01*
X167167857Y-119560714D01*
X167239285Y-119417857D01*
X167239285Y-118989285D01*
X167167857Y-118846428D01*
X167096428Y-118775000D01*
X166953571Y-118703571D01*
X166739285Y-118703571D01*
X166596428Y-118775000D01*
X166525000Y-118846428D01*
X166453571Y-118989285D01*
X166453571Y-119417857D01*
X166525000Y-119560714D01*
X166596428Y-119632142D01*
X166739285Y-119703571D01*
X166953571Y-119703571D01*
X165167857Y-119632142D02*
X165310714Y-119703571D01*
X165596428Y-119703571D01*
X165739285Y-119632142D01*
X165810714Y-119560714D01*
X165882142Y-119417857D01*
X165882142Y-118989285D01*
X165810714Y-118846428D01*
X165739285Y-118775000D01*
X165596428Y-118703571D01*
X165310714Y-118703571D01*
X165167857Y-118775000D01*
X163953571Y-119632142D02*
X164096428Y-119703571D01*
X164382142Y-119703571D01*
X164525000Y-119632142D01*
X164596428Y-119489285D01*
X164596428Y-118917857D01*
X164525000Y-118775000D01*
X164382142Y-118703571D01*
X164096428Y-118703571D01*
X163953571Y-118775000D01*
X163882142Y-118917857D01*
X163882142Y-119060714D01*
X164596428Y-119203571D01*
X163239285Y-118703571D02*
X163239285Y-119703571D01*
X163239285Y-118846428D02*
X163167857Y-118775000D01*
X163025000Y-118703571D01*
X162810714Y-118703571D01*
X162667857Y-118775000D01*
X162596428Y-118917857D01*
X162596428Y-119703571D01*
X162096428Y-118703571D02*
X161525000Y-118703571D01*
X161882142Y-118203571D02*
X161882142Y-119489285D01*
X161810714Y-119632142D01*
X161667857Y-119703571D01*
X161525000Y-119703571D01*
X160453571Y-119632142D02*
X160596428Y-119703571D01*
X160882142Y-119703571D01*
X161025000Y-119632142D01*
X161096428Y-119489285D01*
X161096428Y-118917857D01*
X161025000Y-118775000D01*
X160882142Y-118703571D01*
X160596428Y-118703571D01*
X160453571Y-118775000D01*
X160382142Y-118917857D01*
X160382142Y-119060714D01*
X161096428Y-119203571D01*
X159739285Y-119560714D02*
X159667857Y-119632142D01*
X159739285Y-119703571D01*
X159810714Y-119632142D01*
X159739285Y-119560714D01*
X159739285Y-119703571D01*
X159739285Y-118775000D02*
X159667857Y-118846428D01*
X159739285Y-118917857D01*
X159810714Y-118846428D01*
X159739285Y-118775000D01*
X159739285Y-118917857D01*
X157882142Y-119703571D02*
X157882142Y-118203571D01*
X157310714Y-118203571D01*
X157167857Y-118275000D01*
X157096428Y-118346428D01*
X157025000Y-118489285D01*
X157025000Y-118703571D01*
X157096428Y-118846428D01*
X157167857Y-118917857D01*
X157310714Y-118989285D01*
X157882142Y-118989285D01*
X156382142Y-119703571D02*
X156382142Y-118703571D01*
X156382142Y-118989285D02*
X156310714Y-118846428D01*
X156239285Y-118775000D01*
X156096428Y-118703571D01*
X155953571Y-118703571D01*
X155239285Y-119703571D02*
X155382142Y-119632142D01*
X155453571Y-119560714D01*
X155525000Y-119417857D01*
X155525000Y-118989285D01*
X155453571Y-118846428D01*
X155382142Y-118775000D01*
X155239285Y-118703571D01*
X155025000Y-118703571D01*
X154882142Y-118775000D01*
X154810714Y-118846428D01*
X154739285Y-118989285D01*
X154739285Y-119417857D01*
X154810714Y-119560714D01*
X154882142Y-119632142D01*
X155025000Y-119703571D01*
X155239285Y-119703571D01*
X154310714Y-118703571D02*
X153739285Y-118703571D01*
X154096428Y-119703571D02*
X154096428Y-118417857D01*
X154025000Y-118275000D01*
X153882142Y-118203571D01*
X153739285Y-118203571D01*
X153239285Y-119560714D02*
X153167857Y-119632142D01*
X153239285Y-119703571D01*
X153310714Y-119632142D01*
X153239285Y-119560714D01*
X153239285Y-119703571D01*
X151382142Y-119703571D02*
X151382142Y-118203571D01*
X151025000Y-118203571D01*
X150810714Y-118275000D01*
X150667857Y-118417857D01*
X150596428Y-118560714D01*
X150525000Y-118846428D01*
X150525000Y-119060714D01*
X150596428Y-119346428D01*
X150667857Y-119489285D01*
X150810714Y-119632142D01*
X151025000Y-119703571D01*
X151382142Y-119703571D01*
X149882142Y-119703571D02*
X149882142Y-118703571D01*
X149882142Y-118989285D02*
X149810714Y-118846428D01*
X149739285Y-118775000D01*
X149596428Y-118703571D01*
X149453571Y-118703571D01*
X148310714Y-119703571D02*
X148310714Y-118917857D01*
X148382142Y-118775000D01*
X148525000Y-118703571D01*
X148810714Y-118703571D01*
X148953571Y-118775000D01*
X148310714Y-119632142D02*
X148453571Y-119703571D01*
X148810714Y-119703571D01*
X148953571Y-119632142D01*
X149025000Y-119489285D01*
X149025000Y-119346428D01*
X148953571Y-119203571D01*
X148810714Y-119132142D01*
X148453571Y-119132142D01*
X148310714Y-119060714D01*
X147596428Y-119560714D02*
X147525000Y-119632142D01*
X147596428Y-119703571D01*
X147667857Y-119632142D01*
X147596428Y-119560714D01*
X147596428Y-119703571D01*
X145739285Y-118917857D02*
X145239285Y-118917857D01*
X145025000Y-119703571D02*
X145739285Y-119703571D01*
X145739285Y-118203571D01*
X145025000Y-118203571D01*
X144167857Y-119703571D02*
X144310714Y-119632142D01*
X144382142Y-119489285D01*
X144382142Y-118203571D01*
X143667857Y-119632142D02*
X143525000Y-119703571D01*
X143239285Y-119703571D01*
X143096428Y-119632142D01*
X143025000Y-119489285D01*
X143025000Y-119417857D01*
X143096428Y-119275000D01*
X143239285Y-119203571D01*
X143453571Y-119203571D01*
X143596428Y-119132142D01*
X143667857Y-118989285D01*
X143667857Y-118917857D01*
X143596428Y-118775000D01*
X143453571Y-118703571D01*
X143239285Y-118703571D01*
X143096428Y-118775000D01*
X141739285Y-119703571D02*
X141739285Y-118917857D01*
X141810714Y-118775000D01*
X141953571Y-118703571D01*
X142239285Y-118703571D01*
X142382142Y-118775000D01*
X141739285Y-119632142D02*
X141882142Y-119703571D01*
X142239285Y-119703571D01*
X142382142Y-119632142D01*
X142453571Y-119489285D01*
X142453571Y-119346428D01*
X142382142Y-119203571D01*
X142239285Y-119132142D01*
X141882142Y-119132142D01*
X141739285Y-119060714D01*
X139382142Y-118917857D02*
X139882142Y-118917857D01*
X139882142Y-119703571D02*
X139882142Y-118203571D01*
X139167857Y-118203571D01*
X138382142Y-119703571D02*
X138525000Y-119632142D01*
X138596428Y-119560714D01*
X138667857Y-119417857D01*
X138667857Y-118989285D01*
X138596428Y-118846428D01*
X138525000Y-118775000D01*
X138382142Y-118703571D01*
X138167857Y-118703571D01*
X138025000Y-118775000D01*
X137953571Y-118846428D01*
X137882142Y-118989285D01*
X137882142Y-119417857D01*
X137953571Y-119560714D01*
X138025000Y-119632142D01*
X138167857Y-119703571D01*
X138382142Y-119703571D01*
X137239285Y-118703571D02*
X137239285Y-119703571D01*
X137239285Y-118846428D02*
X137167857Y-118775000D01*
X137025000Y-118703571D01*
X136810714Y-118703571D01*
X136667857Y-118775000D01*
X136596428Y-118917857D01*
X136596428Y-119703571D01*
X135953571Y-119632142D02*
X135810714Y-119703571D01*
X135525000Y-119703571D01*
X135382142Y-119632142D01*
X135310714Y-119489285D01*
X135310714Y-119417857D01*
X135382142Y-119275000D01*
X135525000Y-119203571D01*
X135739285Y-119203571D01*
X135882142Y-119132142D01*
X135953571Y-118989285D01*
X135953571Y-118917857D01*
X135882142Y-118775000D01*
X135739285Y-118703571D01*
X135525000Y-118703571D01*
X135382142Y-118775000D01*
X134096428Y-119632142D02*
X134239285Y-119703571D01*
X134525000Y-119703571D01*
X134667857Y-119632142D01*
X134739285Y-119489285D01*
X134739285Y-118917857D01*
X134667857Y-118775000D01*
X134525000Y-118703571D01*
X134239285Y-118703571D01*
X134096428Y-118775000D01*
X134025000Y-118917857D01*
X134025000Y-119060714D01*
X134739285Y-119203571D01*
X132739285Y-119632142D02*
X132882142Y-119703571D01*
X133167857Y-119703571D01*
X133310714Y-119632142D01*
X133382142Y-119560714D01*
X133453571Y-119417857D01*
X133453571Y-118989285D01*
X133382142Y-118846428D01*
X133310714Y-118775000D01*
X133167857Y-118703571D01*
X132882142Y-118703571D01*
X132739285Y-118775000D01*
X131453571Y-119703571D02*
X131453571Y-118917857D01*
X131525000Y-118775000D01*
X131667857Y-118703571D01*
X131953571Y-118703571D01*
X132096428Y-118775000D01*
X131453571Y-119632142D02*
X131596428Y-119703571D01*
X131953571Y-119703571D01*
X132096428Y-119632142D01*
X132167857Y-119489285D01*
X132167857Y-119346428D01*
X132096428Y-119203571D01*
X131953571Y-119132142D01*
X131596428Y-119132142D01*
X131453571Y-119060714D01*
X168739285Y-121825000D02*
X168025000Y-121825000D01*
X168882142Y-122253571D02*
X168382142Y-120753571D01*
X167882142Y-122253571D01*
X167167857Y-122253571D02*
X167310714Y-122182142D01*
X167382142Y-122039285D01*
X167382142Y-120753571D01*
X165953571Y-121253571D02*
X165953571Y-122253571D01*
X166596428Y-121253571D02*
X166596428Y-122039285D01*
X166525000Y-122182142D01*
X166382142Y-122253571D01*
X166167857Y-122253571D01*
X166025000Y-122182142D01*
X165953571Y-122110714D01*
X165239285Y-121253571D02*
X165239285Y-122253571D01*
X165239285Y-121396428D02*
X165167857Y-121325000D01*
X165025000Y-121253571D01*
X164810714Y-121253571D01*
X164667857Y-121325000D01*
X164596428Y-121467857D01*
X164596428Y-122253571D01*
X163239285Y-122253571D02*
X163239285Y-121467857D01*
X163310714Y-121325000D01*
X163453571Y-121253571D01*
X163739285Y-121253571D01*
X163882142Y-121325000D01*
X163239285Y-122182142D02*
X163382142Y-122253571D01*
X163739285Y-122253571D01*
X163882142Y-122182142D01*
X163953571Y-122039285D01*
X163953571Y-121896428D01*
X163882142Y-121753571D01*
X163739285Y-121682142D01*
X163382142Y-121682142D01*
X163239285Y-121610714D01*
X162596428Y-122182142D02*
X162453571Y-122253571D01*
X162167857Y-122253571D01*
X162025000Y-122182142D01*
X161953571Y-122039285D01*
X161953571Y-121967857D01*
X162025000Y-121825000D01*
X162167857Y-121753571D01*
X162382142Y-121753571D01*
X162525000Y-121682142D01*
X162596428Y-121539285D01*
X162596428Y-121467857D01*
X162525000Y-121325000D01*
X162382142Y-121253571D01*
X162167857Y-121253571D01*
X162025000Y-121325000D01*
X161310714Y-122110714D02*
X161239285Y-122182142D01*
X161310714Y-122253571D01*
X161382142Y-122182142D01*
X161310714Y-122110714D01*
X161310714Y-122253571D01*
X161310714Y-121325000D02*
X161239285Y-121396428D01*
X161310714Y-121467857D01*
X161382142Y-121396428D01*
X161310714Y-121325000D01*
X161310714Y-121467857D01*
X158596428Y-122110714D02*
X158667857Y-122182142D01*
X158882142Y-122253571D01*
X159025000Y-122253571D01*
X159239285Y-122182142D01*
X159382142Y-122039285D01*
X159453571Y-121896428D01*
X159525000Y-121610714D01*
X159525000Y-121396428D01*
X159453571Y-121110714D01*
X159382142Y-120967857D01*
X159239285Y-120825000D01*
X159025000Y-120753571D01*
X158882142Y-120753571D01*
X158667857Y-120825000D01*
X158596428Y-120896428D01*
X157739285Y-122253571D02*
X157882142Y-122182142D01*
X157953571Y-122039285D01*
X157953571Y-120753571D01*
X156525000Y-122253571D02*
X156525000Y-121467857D01*
X156596428Y-121325000D01*
X156739285Y-121253571D01*
X157025000Y-121253571D01*
X157167857Y-121325000D01*
X156525000Y-122182142D02*
X156667857Y-122253571D01*
X157025000Y-122253571D01*
X157167857Y-122182142D01*
X157239285Y-122039285D01*
X157239285Y-121896428D01*
X157167857Y-121753571D01*
X157025000Y-121682142D01*
X156667857Y-121682142D01*
X156525000Y-121610714D01*
X156739285Y-120682142D02*
X156953571Y-120896428D01*
X155167857Y-121253571D02*
X155167857Y-122253571D01*
X155810714Y-121253571D02*
X155810714Y-122039285D01*
X155739285Y-122182142D01*
X155596428Y-122253571D01*
X155382142Y-122253571D01*
X155239285Y-122182142D01*
X155167857Y-122110714D01*
X153810714Y-122253571D02*
X153810714Y-120753571D01*
X153810714Y-122182142D02*
X153953571Y-122253571D01*
X154239285Y-122253571D01*
X154382142Y-122182142D01*
X154453571Y-122110714D01*
X154525000Y-121967857D01*
X154525000Y-121539285D01*
X154453571Y-121396428D01*
X154382142Y-121325000D01*
X154239285Y-121253571D01*
X153953571Y-121253571D01*
X153810714Y-121325000D01*
X153096428Y-122253571D02*
X153096428Y-121253571D01*
X153096428Y-120753571D02*
X153167857Y-120825000D01*
X153096428Y-120896428D01*
X153025000Y-120825000D01*
X153096428Y-120753571D01*
X153096428Y-120896428D01*
X151739285Y-122253571D02*
X151739285Y-121467857D01*
X151810714Y-121325000D01*
X151953571Y-121253571D01*
X152239285Y-121253571D01*
X152382142Y-121325000D01*
X151739285Y-122182142D02*
X151882142Y-122253571D01*
X152239285Y-122253571D01*
X152382142Y-122182142D01*
X152453571Y-122039285D01*
X152453571Y-121896428D01*
X152382142Y-121753571D01*
X152239285Y-121682142D01*
X151882142Y-121682142D01*
X151739285Y-121610714D01*
X149882142Y-122253571D02*
X149882142Y-120753571D01*
X149382142Y-121825000D01*
X148882142Y-120753571D01*
X148882142Y-122253571D01*
X147525000Y-122253571D02*
X147525000Y-121467857D01*
X147596428Y-121325000D01*
X147739285Y-121253571D01*
X148025000Y-121253571D01*
X148167857Y-121325000D01*
X147525000Y-122182142D02*
X147667857Y-122253571D01*
X148025000Y-122253571D01*
X148167857Y-122182142D01*
X148239285Y-122039285D01*
X148239285Y-121896428D01*
X148167857Y-121753571D01*
X148025000Y-121682142D01*
X147667857Y-121682142D01*
X147525000Y-121610714D01*
X146810714Y-122253571D02*
X146810714Y-121253571D01*
X146810714Y-121539285D02*
X146739285Y-121396428D01*
X146667857Y-121325000D01*
X146525000Y-121253571D01*
X146382142Y-121253571D01*
X145239285Y-121253571D02*
X145239285Y-122753571D01*
X145239285Y-122182142D02*
X145382142Y-122253571D01*
X145667857Y-122253571D01*
X145810714Y-122182142D01*
X145882142Y-122110714D01*
X145953571Y-121967857D01*
X145953571Y-121539285D01*
X145882142Y-121396428D01*
X145810714Y-121325000D01*
X145667857Y-121253571D01*
X145382142Y-121253571D01*
X145239285Y-121325000D01*
X143882142Y-121253571D02*
X143882142Y-122253571D01*
X144525000Y-121253571D02*
X144525000Y-122039285D01*
X144453571Y-122182142D01*
X144310714Y-122253571D01*
X144096428Y-122253571D01*
X143953571Y-122182142D01*
X143882142Y-122110714D01*
X142596428Y-122182142D02*
X142739285Y-122253571D01*
X143025000Y-122253571D01*
X143167857Y-122182142D01*
X143239285Y-122039285D01*
X143239285Y-121467857D01*
X143167857Y-121325000D01*
X143025000Y-121253571D01*
X142739285Y-121253571D01*
X142596428Y-121325000D01*
X142525000Y-121467857D01*
X142525000Y-121610714D01*
X143239285Y-121753571D01*
X141953571Y-122182142D02*
X141810714Y-122253571D01*
X141525000Y-122253571D01*
X141382142Y-122182142D01*
X141310714Y-122039285D01*
X141310714Y-121967857D01*
X141382142Y-121825000D01*
X141525000Y-121753571D01*
X141739285Y-121753571D01*
X141882142Y-121682142D01*
X141953571Y-121539285D01*
X141953571Y-121467857D01*
X141882142Y-121325000D01*
X141739285Y-121253571D01*
X141525000Y-121253571D01*
X141382142Y-121325000D01*
X140596428Y-122182142D02*
X140596428Y-122253571D01*
X140667857Y-122396428D01*
X140739285Y-122467857D01*
X138096428Y-122253571D02*
X138810714Y-122253571D01*
X138810714Y-120753571D01*
X137596428Y-122253571D02*
X137596428Y-121253571D01*
X137453571Y-120682142D02*
X137667857Y-120896428D01*
X136239285Y-121253571D02*
X136239285Y-122467857D01*
X136310714Y-122610714D01*
X136382142Y-122682142D01*
X136525000Y-122753571D01*
X136739285Y-122753571D01*
X136882142Y-122682142D01*
X136239285Y-122182142D02*
X136382142Y-122253571D01*
X136667857Y-122253571D01*
X136810714Y-122182142D01*
X136882142Y-122110714D01*
X136953571Y-121967857D01*
X136953571Y-121539285D01*
X136882142Y-121396428D01*
X136810714Y-121325000D01*
X136667857Y-121253571D01*
X136382142Y-121253571D01*
X136239285Y-121325000D01*
X135525000Y-122253571D02*
X135525000Y-121253571D01*
X135525000Y-120753571D02*
X135596428Y-120825000D01*
X135525000Y-120896428D01*
X135453571Y-120825000D01*
X135525000Y-120753571D01*
X135525000Y-120896428D01*
X134167857Y-122253571D02*
X134167857Y-121467857D01*
X134239285Y-121325000D01*
X134382142Y-121253571D01*
X134667857Y-121253571D01*
X134810714Y-121325000D01*
X134167857Y-122182142D02*
X134310714Y-122253571D01*
X134667857Y-122253571D01*
X134810714Y-122182142D01*
X134882142Y-122039285D01*
X134882142Y-121896428D01*
X134810714Y-121753571D01*
X134667857Y-121682142D01*
X134310714Y-121682142D01*
X134167857Y-121610714D01*
X131596428Y-122253571D02*
X132310714Y-122253571D01*
X132310714Y-120753571D01*
X130882142Y-122253571D02*
X131024999Y-122182142D01*
X131096428Y-122110714D01*
X131167857Y-121967857D01*
X131167857Y-121539285D01*
X131096428Y-121396428D01*
X131024999Y-121325000D01*
X130882142Y-121253571D01*
X130667857Y-121253571D01*
X130524999Y-121325000D01*
X130453571Y-121396428D01*
X130382142Y-121539285D01*
X130382142Y-121967857D01*
X130453571Y-122110714D01*
X130524999Y-122182142D01*
X130667857Y-122253571D01*
X130882142Y-122253571D01*
X129739285Y-121253571D02*
X129739285Y-122753571D01*
X129739285Y-121325000D02*
X129596428Y-121253571D01*
X129310714Y-121253571D01*
X129167857Y-121325000D01*
X129096428Y-121396428D01*
X129024999Y-121539285D01*
X129024999Y-121967857D01*
X129096428Y-122110714D01*
X129167857Y-122182142D01*
X129310714Y-122253571D01*
X129596428Y-122253571D01*
X129739285Y-122182142D01*
X127810714Y-122182142D02*
X127953571Y-122253571D01*
X128239285Y-122253571D01*
X128382142Y-122182142D01*
X128453571Y-122039285D01*
X128453571Y-121467857D01*
X128382142Y-121325000D01*
X128239285Y-121253571D01*
X127953571Y-121253571D01*
X127810714Y-121325000D01*
X127739285Y-121467857D01*
X127739285Y-121610714D01*
X128453571Y-121753571D01*
X127167857Y-122182142D02*
X127024999Y-122253571D01*
X126739285Y-122253571D01*
X126596428Y-122182142D01*
X126524999Y-122039285D01*
X126524999Y-121967857D01*
X126596428Y-121825000D01*
X126739285Y-121753571D01*
X126953571Y-121753571D01*
X127096428Y-121682142D01*
X127167857Y-121539285D01*
X127167857Y-121467857D01*
X127096428Y-121325000D01*
X126953571Y-121253571D01*
X126739285Y-121253571D01*
X126596428Y-121325000D01*
X124167857Y-122182142D02*
X124310714Y-122253571D01*
X124596428Y-122253571D01*
X124739285Y-122182142D01*
X124810714Y-122039285D01*
X124810714Y-121467857D01*
X124739285Y-121325000D01*
X124596428Y-121253571D01*
X124310714Y-121253571D01*
X124167857Y-121325000D01*
X124096428Y-121467857D01*
X124096428Y-121610714D01*
X124810714Y-121753571D01*
X122310714Y-122253571D02*
X122310714Y-120753571D01*
X121810714Y-121825000D01*
X121310714Y-120753571D01*
X121310714Y-122253571D01*
X119953571Y-122253571D02*
X119953571Y-121467857D01*
X120024999Y-121325000D01*
X120167857Y-121253571D01*
X120453571Y-121253571D01*
X120596428Y-121325000D01*
X119953571Y-122182142D02*
X120096428Y-122253571D01*
X120453571Y-122253571D01*
X120596428Y-122182142D01*
X120667857Y-122039285D01*
X120667857Y-121896428D01*
X120596428Y-121753571D01*
X120453571Y-121682142D01*
X120096428Y-121682142D01*
X119953571Y-121610714D01*
X119239285Y-122253571D02*
X119239285Y-121253571D01*
X119239285Y-121539285D02*
X119167857Y-121396428D01*
X119096428Y-121325000D01*
X118953571Y-121253571D01*
X118810714Y-121253571D01*
X117667857Y-121253571D02*
X117667857Y-122467857D01*
X117739285Y-122610714D01*
X117810714Y-122682142D01*
X117953571Y-122753571D01*
X118167857Y-122753571D01*
X118310714Y-122682142D01*
X117667857Y-122182142D02*
X117810714Y-122253571D01*
X118096428Y-122253571D01*
X118239285Y-122182142D01*
X118310714Y-122110714D01*
X118382142Y-121967857D01*
X118382142Y-121539285D01*
X118310714Y-121396428D01*
X118239285Y-121325000D01*
X118096428Y-121253571D01*
X117810714Y-121253571D01*
X117667857Y-121325000D01*
X116310714Y-122253571D02*
X116310714Y-121467857D01*
X116382142Y-121325000D01*
X116524999Y-121253571D01*
X116810714Y-121253571D01*
X116953571Y-121325000D01*
X116310714Y-122182142D02*
X116453571Y-122253571D01*
X116810714Y-122253571D01*
X116953571Y-122182142D01*
X117024999Y-122039285D01*
X117024999Y-121896428D01*
X116953571Y-121753571D01*
X116810714Y-121682142D01*
X116453571Y-121682142D01*
X116310714Y-121610714D01*
X115596428Y-122253571D02*
X115596428Y-121253571D01*
X115596428Y-121539285D02*
X115524999Y-121396428D01*
X115453571Y-121325000D01*
X115310714Y-121253571D01*
X115167857Y-121253571D01*
X114667857Y-122253571D02*
X114667857Y-121253571D01*
X114667857Y-120753571D02*
X114739285Y-120825000D01*
X114667857Y-120896428D01*
X114596428Y-120825000D01*
X114667857Y-120753571D01*
X114667857Y-120896428D01*
X113310714Y-122253571D02*
X113310714Y-120753571D01*
X113310714Y-122182142D02*
X113453571Y-122253571D01*
X113739285Y-122253571D01*
X113882142Y-122182142D01*
X113953571Y-122110714D01*
X114024999Y-121967857D01*
X114024999Y-121539285D01*
X113953571Y-121396428D01*
X113882142Y-121325000D01*
X113739285Y-121253571D01*
X113453571Y-121253571D01*
X113310714Y-121325000D01*
X111953571Y-122253571D02*
X111953571Y-121467857D01*
X112024999Y-121325000D01*
X112167857Y-121253571D01*
X112453571Y-121253571D01*
X112596428Y-121325000D01*
X111953571Y-122182142D02*
X112096428Y-122253571D01*
X112453571Y-122253571D01*
X112596428Y-122182142D01*
X112667857Y-122039285D01*
X112667857Y-121896428D01*
X112596428Y-121753571D01*
X112453571Y-121682142D01*
X112096428Y-121682142D01*
X111953571Y-121610714D01*
X110167857Y-122182142D02*
X109953571Y-122253571D01*
X109596428Y-122253571D01*
X109453571Y-122182142D01*
X109382142Y-122110714D01*
X109310714Y-121967857D01*
X109310714Y-121825000D01*
X109382142Y-121682142D01*
X109453571Y-121610714D01*
X109596428Y-121539285D01*
X109882142Y-121467857D01*
X110024999Y-121396428D01*
X110096428Y-121325000D01*
X110167857Y-121182142D01*
X110167857Y-121039285D01*
X110096428Y-120896428D01*
X110024999Y-120825000D01*
X109882142Y-120753571D01*
X109524999Y-120753571D01*
X109310714Y-120825000D01*
X108667857Y-122253571D02*
X108667857Y-121253571D01*
X108667857Y-120753571D02*
X108739285Y-120825000D01*
X108667857Y-120896428D01*
X108596428Y-120825000D01*
X108667857Y-120753571D01*
X108667857Y-120896428D01*
X107953571Y-122253571D02*
X107953571Y-121253571D01*
X107953571Y-121396428D02*
X107882142Y-121325000D01*
X107739285Y-121253571D01*
X107524999Y-121253571D01*
X107382142Y-121325000D01*
X107310714Y-121467857D01*
X107310714Y-122253571D01*
X107310714Y-121467857D02*
X107239285Y-121325000D01*
X107096428Y-121253571D01*
X106882142Y-121253571D01*
X106739285Y-121325000D01*
X106667857Y-121467857D01*
X106667857Y-122253571D01*
X105739285Y-122253571D02*
X105882142Y-122182142D01*
X105953571Y-122110714D01*
X106024999Y-121967857D01*
X106024999Y-121539285D01*
X105953571Y-121396428D01*
X105882142Y-121325000D01*
X105739285Y-121253571D01*
X105524999Y-121253571D01*
X105382142Y-121325000D01*
X105310714Y-121396428D01*
X105239285Y-121539285D01*
X105239285Y-121967857D01*
X105310714Y-122110714D01*
X105382142Y-122182142D01*
X105524999Y-122253571D01*
X105739285Y-122253571D01*
X105953571Y-120896428D02*
X105882142Y-120825000D01*
X105739285Y-120753571D01*
X105453571Y-120896428D01*
X105310714Y-120825000D01*
X105239285Y-120753571D01*
X104024999Y-122182142D02*
X104167857Y-122253571D01*
X104453571Y-122253571D01*
X104596428Y-122182142D01*
X104667857Y-122039285D01*
X104667857Y-121467857D01*
X104596428Y-121325000D01*
X104453571Y-121253571D01*
X104167857Y-121253571D01*
X104024999Y-121325000D01*
X103953571Y-121467857D01*
X103953571Y-121610714D01*
X104667857Y-121753571D01*
X103382142Y-122182142D02*
X103239285Y-122253571D01*
X102953571Y-122253571D01*
X102810714Y-122182142D01*
X102739285Y-122039285D01*
X102739285Y-121967857D01*
X102810714Y-121825000D01*
X102953571Y-121753571D01*
X103167857Y-121753571D01*
X103310714Y-121682142D01*
X103382142Y-121539285D01*
X103382142Y-121467857D01*
X103310714Y-121325000D01*
X103167857Y-121253571D01*
X102953571Y-121253571D01*
X102810714Y-121325000D01*
X168739285Y-126925000D02*
X168025000Y-126925000D01*
X168882142Y-127353571D02*
X168382142Y-125853571D01*
X167882142Y-127353571D01*
X167382142Y-126353571D02*
X167382142Y-127353571D01*
X167382142Y-126496428D02*
X167310714Y-126425000D01*
X167167857Y-126353571D01*
X166953571Y-126353571D01*
X166810714Y-126425000D01*
X166739285Y-126567857D01*
X166739285Y-127353571D01*
X165810714Y-127353571D02*
X165953571Y-127282142D01*
X166025000Y-127210714D01*
X166096428Y-127067857D01*
X166096428Y-126639285D01*
X166025000Y-126496428D01*
X165953571Y-126425000D01*
X165810714Y-126353571D01*
X165596428Y-126353571D01*
X165453571Y-126425000D01*
X165382142Y-126496428D01*
X165310714Y-126639285D01*
X165310714Y-127067857D01*
X165382142Y-127210714D01*
X165453571Y-127282142D01*
X165596428Y-127353571D01*
X165810714Y-127353571D01*
X162810714Y-127353571D02*
X163525000Y-127353571D01*
X163525000Y-125853571D01*
X161739285Y-127282142D02*
X161882142Y-127353571D01*
X162167857Y-127353571D01*
X162310714Y-127282142D01*
X162382142Y-127139285D01*
X162382142Y-126567857D01*
X162310714Y-126425000D01*
X162167857Y-126353571D01*
X161882142Y-126353571D01*
X161739285Y-126425000D01*
X161667857Y-126567857D01*
X161667857Y-126710714D01*
X162382142Y-126853571D01*
X161239285Y-126353571D02*
X160667857Y-126353571D01*
X161025000Y-125853571D02*
X161025000Y-127139285D01*
X160953571Y-127282142D01*
X160810714Y-127353571D01*
X160667857Y-127353571D01*
X160167857Y-127353571D02*
X160167857Y-126353571D01*
X160167857Y-125853571D02*
X160239285Y-125925000D01*
X160167857Y-125996428D01*
X160096428Y-125925000D01*
X160167857Y-125853571D01*
X160167857Y-125996428D01*
X159596428Y-126353571D02*
X159239285Y-127353571D01*
X158882142Y-126353571D01*
X158096428Y-127353571D02*
X158239285Y-127282142D01*
X158310714Y-127210714D01*
X158382142Y-127067857D01*
X158382142Y-126639285D01*
X158310714Y-126496428D01*
X158239285Y-126425000D01*
X158096428Y-126353571D01*
X157882142Y-126353571D01*
X157739285Y-126425000D01*
X157667857Y-126496428D01*
X157596428Y-126639285D01*
X157596428Y-127067857D01*
X157667857Y-127210714D01*
X157739285Y-127282142D01*
X157882142Y-127353571D01*
X158096428Y-127353571D01*
X156953571Y-127210714D02*
X156882142Y-127282142D01*
X156953571Y-127353571D01*
X157025000Y-127282142D01*
X156953571Y-127210714D01*
X156953571Y-127353571D01*
X156953571Y-126425000D02*
X156882142Y-126496428D01*
X156953571Y-126567857D01*
X157025000Y-126496428D01*
X156953571Y-126425000D01*
X156953571Y-126567857D01*
X155167857Y-125996428D02*
X155096428Y-125925000D01*
X154953571Y-125853571D01*
X154596428Y-125853571D01*
X154453571Y-125925000D01*
X154382142Y-125996428D01*
X154310714Y-126139285D01*
X154310714Y-126282142D01*
X154382142Y-126496428D01*
X155239285Y-127353571D01*
X154310714Y-127353571D01*
X153382142Y-125853571D02*
X153239285Y-125853571D01*
X153096428Y-125925000D01*
X153025000Y-125996428D01*
X152953571Y-126139285D01*
X152882142Y-126425000D01*
X152882142Y-126782142D01*
X152953571Y-127067857D01*
X153025000Y-127210714D01*
X153096428Y-127282142D01*
X153239285Y-127353571D01*
X153382142Y-127353571D01*
X153525000Y-127282142D01*
X153596428Y-127210714D01*
X153667857Y-127067857D01*
X153739285Y-126782142D01*
X153739285Y-126425000D01*
X153667857Y-126139285D01*
X153596428Y-125996428D01*
X153525000Y-125925000D01*
X153382142Y-125853571D01*
X152310714Y-125996428D02*
X152239285Y-125925000D01*
X152096428Y-125853571D01*
X151739285Y-125853571D01*
X151596428Y-125925000D01*
X151525000Y-125996428D01*
X151453571Y-126139285D01*
X151453571Y-126282142D01*
X151525000Y-126496428D01*
X152382142Y-127353571D01*
X151453571Y-127353571D01*
X150025000Y-127353571D02*
X150882142Y-127353571D01*
X150453571Y-127353571D02*
X150453571Y-125853571D01*
X150596428Y-126067857D01*
X150739285Y-126210714D01*
X150882142Y-126282142D01*
X148310714Y-125782142D02*
X149596428Y-127710714D01*
X147882142Y-125996428D02*
X147810714Y-125925000D01*
X147667857Y-125853571D01*
X147310714Y-125853571D01*
X147167857Y-125925000D01*
X147096428Y-125996428D01*
X147025000Y-126139285D01*
X147025000Y-126282142D01*
X147096428Y-126496428D01*
X147953571Y-127353571D01*
X147025000Y-127353571D01*
X146096428Y-125853571D02*
X145953571Y-125853571D01*
X145810714Y-125925000D01*
X145739285Y-125996428D01*
X145667857Y-126139285D01*
X145596428Y-126425000D01*
X145596428Y-126782142D01*
X145667857Y-127067857D01*
X145739285Y-127210714D01*
X145810714Y-127282142D01*
X145953571Y-127353571D01*
X146096428Y-127353571D01*
X146239285Y-127282142D01*
X146310714Y-127210714D01*
X146382142Y-127067857D01*
X146453571Y-126782142D01*
X146453571Y-126425000D01*
X146382142Y-126139285D01*
X146310714Y-125996428D01*
X146239285Y-125925000D01*
X146096428Y-125853571D01*
X145025000Y-125996428D02*
X144953571Y-125925000D01*
X144810714Y-125853571D01*
X144453571Y-125853571D01*
X144310714Y-125925000D01*
X144239285Y-125996428D01*
X144167857Y-126139285D01*
X144167857Y-126282142D01*
X144239285Y-126496428D01*
X145096428Y-127353571D01*
X144167857Y-127353571D01*
X143596428Y-125996428D02*
X143525000Y-125925000D01*
X143382142Y-125853571D01*
X143025000Y-125853571D01*
X142882142Y-125925000D01*
X142810714Y-125996428D01*
X142739285Y-126139285D01*
X142739285Y-126282142D01*
X142810714Y-126496428D01*
X143667857Y-127353571D01*
X142739285Y-127353571D01*
D11*
G36*
X116467851Y-60097617D02*
G01*
X116236637Y-60775981D01*
X116103500Y-61485672D01*
X116067392Y-62253325D01*
X116127264Y-63105574D01*
X116282064Y-64069054D01*
X116306546Y-64191334D01*
X116447580Y-64981728D01*
X116520897Y-65676862D01*
X116526714Y-66336582D01*
X116465248Y-67020735D01*
X116336717Y-67789169D01*
X116319907Y-67874334D01*
X116181699Y-68608842D01*
X116089300Y-69212622D01*
X116040684Y-69717379D01*
X116033824Y-70154821D01*
X116066691Y-70556653D01*
X116126253Y-70903043D01*
X116216090Y-71280287D01*
X116322045Y-71648299D01*
X116421879Y-71930163D01*
X116426137Y-71940210D01*
X116588649Y-72319334D01*
X117438324Y-72319334D01*
X117794427Y-72315578D01*
X118077123Y-72305448D01*
X118250635Y-72290653D01*
X118288000Y-72278783D01*
X118261870Y-72185530D01*
X118192353Y-71973028D01*
X118092755Y-71681587D01*
X118057421Y-71580283D01*
X117882061Y-70872984D01*
X117817118Y-70061834D01*
X117862623Y-69139282D01*
X118018603Y-68097776D01*
X118071909Y-67832000D01*
X118199374Y-67164836D01*
X118275133Y-66592630D01*
X118299229Y-66063259D01*
X118271706Y-65524600D01*
X118192605Y-64924529D01*
X118074823Y-64276000D01*
X117914955Y-63326462D01*
X117836024Y-62501138D01*
X117837940Y-61775553D01*
X117920609Y-61125233D01*
X118061005Y-60593000D01*
X118163999Y-60276001D01*
X118242455Y-60021747D01*
X118283656Y-59871942D01*
X118286919Y-59852167D01*
X118208716Y-59825499D01*
X117997005Y-59804347D01*
X117687585Y-59791405D01*
X117442469Y-59788667D01*
X116596939Y-59788667D01*
X116467851Y-60097617D01*
G37*
X116467851Y-60097617D02*
X116236637Y-60775981D01*
X116103500Y-61485672D01*
X116067392Y-62253325D01*
X116127264Y-63105574D01*
X116282064Y-64069054D01*
X116306546Y-64191334D01*
X116447580Y-64981728D01*
X116520897Y-65676862D01*
X116526714Y-66336582D01*
X116465248Y-67020735D01*
X116336717Y-67789169D01*
X116319907Y-67874334D01*
X116181699Y-68608842D01*
X116089300Y-69212622D01*
X116040684Y-69717379D01*
X116033824Y-70154821D01*
X116066691Y-70556653D01*
X116126253Y-70903043D01*
X116216090Y-71280287D01*
X116322045Y-71648299D01*
X116421879Y-71930163D01*
X116426137Y-71940210D01*
X116588649Y-72319334D01*
X117438324Y-72319334D01*
X117794427Y-72315578D01*
X118077123Y-72305448D01*
X118250635Y-72290653D01*
X118288000Y-72278783D01*
X118261870Y-72185530D01*
X118192353Y-71973028D01*
X118092755Y-71681587D01*
X118057421Y-71580283D01*
X117882061Y-70872984D01*
X117817118Y-70061834D01*
X117862623Y-69139282D01*
X118018603Y-68097776D01*
X118071909Y-67832000D01*
X118199374Y-67164836D01*
X118275133Y-66592630D01*
X118299229Y-66063259D01*
X118271706Y-65524600D01*
X118192605Y-64924529D01*
X118074823Y-64276000D01*
X117914955Y-63326462D01*
X117836024Y-62501138D01*
X117837940Y-61775553D01*
X117920609Y-61125233D01*
X118061005Y-60593000D01*
X118163999Y-60276001D01*
X118242455Y-60021747D01*
X118283656Y-59871942D01*
X118286919Y-59852167D01*
X118208716Y-59825499D01*
X117997005Y-59804347D01*
X117687585Y-59791405D01*
X117442469Y-59788667D01*
X116596939Y-59788667D01*
X116467851Y-60097617D01*
G36*
X124045333Y-64349249D02*
G01*
X124045207Y-65343594D01*
X124044481Y-66182597D01*
X124042634Y-66880251D01*
X124039146Y-67450545D01*
X124033497Y-67907472D01*
X124025166Y-68265024D01*
X124013632Y-68537192D01*
X123998375Y-68737968D01*
X123978875Y-68881342D01*
X123954610Y-68981308D01*
X123925060Y-69051855D01*
X123889704Y-69106977D01*
X123867231Y-69136251D01*
X123655866Y-69336080D01*
X123422731Y-69479429D01*
X123156333Y-69596187D01*
X123410333Y-69593817D01*
X123660904Y-69575261D01*
X123960834Y-69532312D01*
X124026493Y-69520075D01*
X124449061Y-69388574D01*
X124877383Y-69174987D01*
X125250009Y-68914666D01*
X125473681Y-68687499D01*
X125696333Y-68395658D01*
X125719744Y-64092162D01*
X125743155Y-59788667D01*
X124045333Y-59788667D01*
X124045333Y-64349249D01*
G37*
X124045333Y-64349249D02*
X124045207Y-65343594D01*
X124044481Y-66182597D01*
X124042634Y-66880251D01*
X124039146Y-67450545D01*
X124033497Y-67907472D01*
X124025166Y-68265024D01*
X124013632Y-68537192D01*
X123998375Y-68737968D01*
X123978875Y-68881342D01*
X123954610Y-68981308D01*
X123925060Y-69051855D01*
X123889704Y-69106977D01*
X123867231Y-69136251D01*
X123655866Y-69336080D01*
X123422731Y-69479429D01*
X123156333Y-69596187D01*
X123410333Y-69593817D01*
X123660904Y-69575261D01*
X123960834Y-69532312D01*
X124026493Y-69520075D01*
X124449061Y-69388574D01*
X124877383Y-69174987D01*
X125250009Y-68914666D01*
X125473681Y-68687499D01*
X125696333Y-68395658D01*
X125719744Y-64092162D01*
X125743155Y-59788667D01*
X124045333Y-59788667D01*
X124045333Y-64349249D01*
G36*
X120338794Y-62561500D02*
G01*
X120343593Y-63659277D01*
X120348163Y-64600641D01*
X120352965Y-65398514D01*
X120358459Y-66065813D01*
X120365106Y-66615461D01*
X120373369Y-67060376D01*
X120383706Y-67413478D01*
X120396581Y-67687687D01*
X120412453Y-67895923D01*
X120431783Y-68051106D01*
X120455033Y-68166156D01*
X120482664Y-68253992D01*
X120515136Y-68327535D01*
X120546702Y-68388109D01*
X120805394Y-68757470D01*
X121156171Y-69108937D01*
X121538559Y-69386436D01*
X121725454Y-69481076D01*
X121928709Y-69562941D01*
X122053242Y-69607358D01*
X122066006Y-69610000D01*
X122071181Y-69527530D01*
X122076095Y-69288903D01*
X122080684Y-68907297D01*
X122084878Y-68395888D01*
X122088610Y-67767855D01*
X122091815Y-67036372D01*
X122094423Y-66214618D01*
X122096368Y-65315770D01*
X122097583Y-64353004D01*
X122098000Y-63344667D01*
X122098000Y-57079334D01*
X121206627Y-57079333D01*
X120315254Y-57079333D01*
X120338794Y-62561500D01*
G37*
X120338794Y-62561500D02*
X120343593Y-63659277D01*
X120348163Y-64600641D01*
X120352965Y-65398514D01*
X120358459Y-66065813D01*
X120365106Y-66615461D01*
X120373369Y-67060376D01*
X120383706Y-67413478D01*
X120396581Y-67687687D01*
X120412453Y-67895923D01*
X120431783Y-68051106D01*
X120455033Y-68166156D01*
X120482664Y-68253992D01*
X120515136Y-68327535D01*
X120546702Y-68388109D01*
X120805394Y-68757470D01*
X121156171Y-69108937D01*
X121538559Y-69386436D01*
X121725454Y-69481076D01*
X121928709Y-69562941D01*
X122053242Y-69607358D01*
X122066006Y-69610000D01*
X122071181Y-69527530D01*
X122076095Y-69288903D01*
X122080684Y-68907297D01*
X122084878Y-68395888D01*
X122088610Y-67767855D01*
X122091815Y-67036372D01*
X122094423Y-66214618D01*
X122096368Y-65315770D01*
X122097583Y-64353004D01*
X122098000Y-63344667D01*
X122098000Y-57079334D01*
X121206627Y-57079333D01*
X120315254Y-57079333D01*
X120338794Y-62561500D01*
G36*
X112319000Y-59831000D02*
G01*
X112170935Y-60423667D01*
X111979733Y-61327079D01*
X111845399Y-62291843D01*
X111764543Y-63350757D01*
X111733774Y-64536619D01*
X111733333Y-64657000D01*
X111740077Y-65501228D01*
X111767102Y-66228779D01*
X111819328Y-66891608D01*
X111901674Y-67541673D01*
X112019059Y-68230930D01*
X112120096Y-68742167D01*
X112298740Y-69610000D01*
X114033109Y-69610000D01*
X113875489Y-68933084D01*
X113633308Y-67623096D01*
X113487785Y-66216951D01*
X113438931Y-64757533D01*
X113486755Y-63287727D01*
X113631270Y-61850419D01*
X113872485Y-60488495D01*
X113873402Y-60484349D01*
X114028640Y-59783030D01*
X112319000Y-59831000D01*
G37*
X112319000Y-59831000D02*
X112170935Y-60423667D01*
X111979733Y-61327079D01*
X111845399Y-62291843D01*
X111764543Y-63350757D01*
X111733774Y-64536619D01*
X111733333Y-64657000D01*
X111740077Y-65501228D01*
X111767102Y-66228779D01*
X111819328Y-66891608D01*
X111901674Y-67541673D01*
X112019059Y-68230930D01*
X112120096Y-68742167D01*
X112298740Y-69610000D01*
X114033109Y-69610000D01*
X113875489Y-68933084D01*
X113633308Y-67623096D01*
X113487785Y-66216951D01*
X113438931Y-64757533D01*
X113486755Y-63287727D01*
X113631270Y-61850419D01*
X113872485Y-60488495D01*
X113873402Y-60484349D01*
X114028640Y-59783030D01*
X112319000Y-59831000D01*
G36*
X108165313Y-65975528D02*
G01*
X107779013Y-65998066D01*
X107498307Y-66042877D01*
X107291487Y-66115893D01*
X107126842Y-66223044D01*
X107070870Y-66271967D01*
X106896779Y-66538887D01*
X106845286Y-66864908D01*
X106915994Y-67192738D01*
X107078905Y-67437147D01*
X107299809Y-67658052D01*
X107036571Y-67879553D01*
X106852539Y-68073863D01*
X106780573Y-68288877D01*
X106773333Y-68436398D01*
X106817952Y-68819414D01*
X106959850Y-69115221D01*
X107211088Y-69330078D01*
X107583726Y-69470244D01*
X108089824Y-69541975D01*
X108741445Y-69551530D01*
X108911166Y-69545674D01*
X109245121Y-69526795D01*
X109443346Y-69498493D01*
X109539447Y-69451415D01*
X109567027Y-69376208D01*
X109567333Y-69363022D01*
X109493023Y-69224962D01*
X109311175Y-69156602D01*
X109055016Y-69105370D01*
X109055074Y-69102000D01*
X108559070Y-69102000D01*
X108185620Y-69102000D01*
X107790511Y-69038555D01*
X107589085Y-68926522D01*
X107411452Y-68699363D01*
X107371145Y-68437976D01*
X107472151Y-68194426D01*
X107528420Y-68134590D01*
X107746271Y-68026301D01*
X108072341Y-67974480D01*
X108099920Y-67973301D01*
X108509000Y-67959000D01*
X108559070Y-69102000D01*
X109055074Y-69102000D01*
X109100926Y-66477334D01*
X108551333Y-66477334D01*
X108551333Y-67493334D01*
X108189172Y-67493334D01*
X107913556Y-67462615D01*
X107680739Y-67386342D01*
X107638839Y-67361533D01*
X107487406Y-67173658D01*
X107450666Y-66941178D01*
X107492437Y-66705795D01*
X107633307Y-66560497D01*
X107896610Y-66490127D01*
X108164767Y-66477334D01*
X108551333Y-66477334D01*
X109100926Y-66477334D01*
X109101666Y-66435000D01*
X109334500Y-66408210D01*
X109509504Y-66353619D01*
X109566087Y-66215995D01*
X109567333Y-66175376D01*
X109561858Y-66083252D01*
X109525200Y-66023728D01*
X109427008Y-65989684D01*
X109236930Y-65974002D01*
X108924616Y-65969563D01*
X108688916Y-65969334D01*
X108165313Y-65975528D01*
G37*
X108165313Y-65975528D02*
X107779013Y-65998066D01*
X107498307Y-66042877D01*
X107291487Y-66115893D01*
X107126842Y-66223044D01*
X107070870Y-66271967D01*
X106896779Y-66538887D01*
X106845286Y-66864908D01*
X106915994Y-67192738D01*
X107078905Y-67437147D01*
X107299809Y-67658052D01*
X107036571Y-67879553D01*
X106852539Y-68073863D01*
X106780573Y-68288877D01*
X106773333Y-68436398D01*
X106817952Y-68819414D01*
X106959850Y-69115221D01*
X107211088Y-69330078D01*
X107583726Y-69470244D01*
X108089824Y-69541975D01*
X108741445Y-69551530D01*
X108911166Y-69545674D01*
X109245121Y-69526795D01*
X109443346Y-69498493D01*
X109539447Y-69451415D01*
X109567027Y-69376208D01*
X109567333Y-69363022D01*
X109493023Y-69224962D01*
X109311175Y-69156602D01*
X109055016Y-69105370D01*
X109055074Y-69102000D01*
X108559070Y-69102000D01*
X108185620Y-69102000D01*
X107790511Y-69038555D01*
X107589085Y-68926522D01*
X107411452Y-68699363D01*
X107371145Y-68437976D01*
X107472151Y-68194426D01*
X107528420Y-68134590D01*
X107746271Y-68026301D01*
X108072341Y-67974480D01*
X108099920Y-67973301D01*
X108509000Y-67959000D01*
X108559070Y-69102000D01*
X109055074Y-69102000D01*
X109100926Y-66477334D01*
X108551333Y-66477334D01*
X108551333Y-67493334D01*
X108189172Y-67493334D01*
X107913556Y-67462615D01*
X107680739Y-67386342D01*
X107638839Y-67361533D01*
X107487406Y-67173658D01*
X107450666Y-66941178D01*
X107492437Y-66705795D01*
X107633307Y-66560497D01*
X107896610Y-66490127D01*
X108164767Y-66477334D01*
X108551333Y-66477334D01*
X109100926Y-66477334D01*
X109101666Y-66435000D01*
X109334500Y-66408210D01*
X109509504Y-66353619D01*
X109566087Y-66215995D01*
X109567333Y-66175376D01*
X109561858Y-66083252D01*
X109525200Y-66023728D01*
X109427008Y-65989684D01*
X109236930Y-65974002D01*
X108924616Y-65969563D01*
X108688916Y-65969334D01*
X108165313Y-65975528D01*
G36*
X73986493Y-66032211D02*
G01*
X73567286Y-66223345D01*
X73252573Y-66546486D01*
X73037218Y-67005383D01*
X73020444Y-67060622D01*
X72932768Y-67598765D01*
X72968946Y-68134349D01*
X73118206Y-68629987D01*
X73369780Y-69048295D01*
X73673281Y-69326771D01*
X74023115Y-69482755D01*
X74458867Y-69570657D01*
X74907766Y-69581482D01*
X75250643Y-69521735D01*
X75584257Y-69344239D01*
X75880941Y-69055522D01*
X76086038Y-68712770D01*
X76120514Y-68611667D01*
X76193069Y-68185547D01*
X76196563Y-67987371D01*
X75588701Y-67987371D01*
X75482362Y-68441140D01*
X75281125Y-68785990D01*
X75005680Y-69008584D01*
X74676711Y-69095581D01*
X74314908Y-69033645D01*
X74117277Y-68936095D01*
X73808694Y-68656738D01*
X73624332Y-68268136D01*
X73561719Y-67764909D01*
X73561805Y-67728040D01*
X73623894Y-67229936D01*
X73797144Y-66853741D01*
X74077270Y-66604540D01*
X74459985Y-66487420D01*
X74614670Y-66478582D01*
X74978403Y-66553081D01*
X75270773Y-66765801D01*
X75478272Y-67095817D01*
X75587394Y-67522207D01*
X75588701Y-67987371D01*
X76196563Y-67987371D01*
X76201366Y-67714981D01*
X76148440Y-67269968D01*
X76048150Y-66943000D01*
X75760106Y-66487477D01*
X75382787Y-66175596D01*
X74913024Y-66005346D01*
X74515333Y-65969334D01*
X73986493Y-66032211D01*
G37*
X73986493Y-66032211D02*
X73567286Y-66223345D01*
X73252573Y-66546486D01*
X73037218Y-67005383D01*
X73020444Y-67060622D01*
X72932768Y-67598765D01*
X72968946Y-68134349D01*
X73118206Y-68629987D01*
X73369780Y-69048295D01*
X73673281Y-69326771D01*
X74023115Y-69482755D01*
X74458867Y-69570657D01*
X74907766Y-69581482D01*
X75250643Y-69521735D01*
X75584257Y-69344239D01*
X75880941Y-69055522D01*
X76086038Y-68712770D01*
X76120514Y-68611667D01*
X76193069Y-68185547D01*
X76196563Y-67987371D01*
X75588701Y-67987371D01*
X75482362Y-68441140D01*
X75281125Y-68785990D01*
X75005680Y-69008584D01*
X74676711Y-69095581D01*
X74314908Y-69033645D01*
X74117277Y-68936095D01*
X73808694Y-68656738D01*
X73624332Y-68268136D01*
X73561719Y-67764909D01*
X73561805Y-67728040D01*
X73623894Y-67229936D01*
X73797144Y-66853741D01*
X74077270Y-66604540D01*
X74459985Y-66487420D01*
X74614670Y-66478582D01*
X74978403Y-66553081D01*
X75270773Y-66765801D01*
X75478272Y-67095817D01*
X75587394Y-67522207D01*
X75588701Y-67987371D01*
X76196563Y-67987371D01*
X76201366Y-67714981D01*
X76148440Y-67269968D01*
X76048150Y-66943000D01*
X75760106Y-66487477D01*
X75382787Y-66175596D01*
X74913024Y-66005346D01*
X74515333Y-65969334D01*
X73986493Y-66032211D01*
G36*
X105101166Y-65988111D02*
G01*
X103937000Y-66011667D01*
X103911194Y-66413834D01*
X103901962Y-66656196D01*
X103929857Y-66774355D01*
X104016811Y-66812754D01*
X104109621Y-66816000D01*
X104307890Y-66761876D01*
X104378134Y-66646667D01*
X104435180Y-66542063D01*
X104565301Y-66491320D01*
X104814626Y-66477373D01*
X104835875Y-66477334D01*
X105249333Y-66477334D01*
X105249333Y-67493334D01*
X104916372Y-67493334D01*
X104680535Y-67471599D01*
X104561067Y-67392083D01*
X104529666Y-67324000D01*
X104417408Y-67186378D01*
X104312294Y-67154667D01*
X104223559Y-67173374D01*
X104174079Y-67254255D01*
X104152812Y-67434450D01*
X104148666Y-67705000D01*
X104153588Y-68002173D01*
X104176447Y-68167816D01*
X104229390Y-68239634D01*
X104324560Y-68255332D01*
X104325926Y-68255334D01*
X104495332Y-68181864D01*
X104548632Y-68081547D01*
X104612778Y-67965068D01*
X104755345Y-67927458D01*
X104900539Y-67933381D01*
X105207000Y-67959000D01*
X105257070Y-69102000D01*
X104839047Y-69102000D01*
X104584943Y-69092704D01*
X104450301Y-69049988D01*
X104385616Y-68951614D01*
X104367899Y-68890334D01*
X104273150Y-68721786D01*
X104104720Y-68678667D01*
X103980031Y-68692619D01*
X103917826Y-68763325D01*
X103896631Y-68934060D01*
X103894666Y-69102000D01*
X103894666Y-69525334D01*
X105080000Y-69525334D01*
X105549460Y-69523947D01*
X105875549Y-69517400D01*
X106084222Y-69502115D01*
X106201433Y-69474513D01*
X106253138Y-69431014D01*
X106265292Y-69368040D01*
X106265333Y-69361889D01*
X106193945Y-69215105D01*
X106074833Y-69171389D01*
X106004037Y-69155936D01*
X105952877Y-69116348D01*
X105917587Y-69027896D01*
X105894397Y-68865853D01*
X105879542Y-68605493D01*
X105869252Y-68222086D01*
X105861069Y-67768500D01*
X105837805Y-66392667D01*
X106051569Y-66392667D01*
X106213541Y-66358683D01*
X106264180Y-66223464D01*
X106265333Y-66178611D01*
X106265333Y-65964555D01*
X105101166Y-65988111D01*
G37*
X105101166Y-65988111D02*
X103937000Y-66011667D01*
X103911194Y-66413834D01*
X103901962Y-66656196D01*
X103929857Y-66774355D01*
X104016811Y-66812754D01*
X104109621Y-66816000D01*
X104307890Y-66761876D01*
X104378134Y-66646667D01*
X104435180Y-66542063D01*
X104565301Y-66491320D01*
X104814626Y-66477373D01*
X104835875Y-66477334D01*
X105249333Y-66477334D01*
X105249333Y-67493334D01*
X104916372Y-67493334D01*
X104680535Y-67471599D01*
X104561067Y-67392083D01*
X104529666Y-67324000D01*
X104417408Y-67186378D01*
X104312294Y-67154667D01*
X104223559Y-67173374D01*
X104174079Y-67254255D01*
X104152812Y-67434450D01*
X104148666Y-67705000D01*
X104153588Y-68002173D01*
X104176447Y-68167816D01*
X104229390Y-68239634D01*
X104324560Y-68255332D01*
X104325926Y-68255334D01*
X104495332Y-68181864D01*
X104548632Y-68081547D01*
X104612778Y-67965068D01*
X104755345Y-67927458D01*
X104900539Y-67933381D01*
X105207000Y-67959000D01*
X105257070Y-69102000D01*
X104839047Y-69102000D01*
X104584943Y-69092704D01*
X104450301Y-69049988D01*
X104385616Y-68951614D01*
X104367899Y-68890334D01*
X104273150Y-68721786D01*
X104104720Y-68678667D01*
X103980031Y-68692619D01*
X103917826Y-68763325D01*
X103896631Y-68934060D01*
X103894666Y-69102000D01*
X103894666Y-69525334D01*
X105080000Y-69525334D01*
X105549460Y-69523947D01*
X105875549Y-69517400D01*
X106084222Y-69502115D01*
X106201433Y-69474513D01*
X106253138Y-69431014D01*
X106265292Y-69368040D01*
X106265333Y-69361889D01*
X106193945Y-69215105D01*
X106074833Y-69171389D01*
X106004037Y-69155936D01*
X105952877Y-69116348D01*
X105917587Y-69027896D01*
X105894397Y-68865853D01*
X105879542Y-68605493D01*
X105869252Y-68222086D01*
X105861069Y-67768500D01*
X105837805Y-66392667D01*
X106051569Y-66392667D01*
X106213541Y-66358683D01*
X106264180Y-66223464D01*
X106265333Y-66178611D01*
X106265333Y-65964555D01*
X105101166Y-65988111D01*
G36*
X102691087Y-65985712D02*
G01*
X102645833Y-65987204D01*
X102288895Y-66002420D01*
X102068875Y-66024801D01*
X101953359Y-66062660D01*
X101909935Y-66124307D01*
X101905000Y-66177183D01*
X101980702Y-66331725D01*
X102116666Y-66392667D01*
X102328333Y-66442635D01*
X102328333Y-69144334D01*
X102095500Y-69171124D01*
X101912245Y-69234511D01*
X101862666Y-69361624D01*
X101876748Y-69439510D01*
X101940383Y-69487918D01*
X102085661Y-69513744D01*
X102344670Y-69523880D01*
X102624666Y-69525334D01*
X102987192Y-69522308D01*
X103212514Y-69508637D01*
X103332721Y-69477425D01*
X103379900Y-69421779D01*
X103386666Y-69361624D01*
X103326505Y-69225851D01*
X103153833Y-69171124D01*
X102921000Y-69144334D01*
X102921000Y-66435000D01*
X103153833Y-66408210D01*
X103328477Y-66354026D01*
X103385243Y-66216548D01*
X103386666Y-66172080D01*
X103380857Y-66072086D01*
X103341416Y-66011692D01*
X103235321Y-65982659D01*
X103029552Y-65976746D01*
X102691087Y-65985712D01*
G37*
X102691087Y-65985712D02*
X102645833Y-65987204D01*
X102288895Y-66002420D01*
X102068875Y-66024801D01*
X101953359Y-66062660D01*
X101909935Y-66124307D01*
X101905000Y-66177183D01*
X101980702Y-66331725D01*
X102116666Y-66392667D01*
X102328333Y-66442635D01*
X102328333Y-69144334D01*
X102095500Y-69171124D01*
X101912245Y-69234511D01*
X101862666Y-69361624D01*
X101876748Y-69439510D01*
X101940383Y-69487918D01*
X102085661Y-69513744D01*
X102344670Y-69523880D01*
X102624666Y-69525334D01*
X102987192Y-69522308D01*
X103212514Y-69508637D01*
X103332721Y-69477425D01*
X103379900Y-69421779D01*
X103386666Y-69361624D01*
X103326505Y-69225851D01*
X103153833Y-69171124D01*
X102921000Y-69144334D01*
X102921000Y-66435000D01*
X103153833Y-66408210D01*
X103328477Y-66354026D01*
X103385243Y-66216548D01*
X103386666Y-66172080D01*
X103380857Y-66072086D01*
X103341416Y-66011692D01*
X103235321Y-65982659D01*
X103029552Y-65976746D01*
X102691087Y-65985712D01*
G36*
X100698500Y-65969806D02*
G01*
X100301144Y-65979041D01*
X99931780Y-66003370D01*
X99647564Y-66038397D01*
X99559351Y-66057389D01*
X99227738Y-66223093D01*
X99007608Y-66481007D01*
X98900339Y-66794692D01*
X98907307Y-67127711D01*
X99029887Y-67443626D01*
X99269456Y-67705998D01*
X99492321Y-67832133D01*
X99626691Y-67888361D01*
X99697260Y-67942566D01*
X99698496Y-68027354D01*
X99624866Y-68175332D01*
X99470835Y-68419104D01*
X99365000Y-68582371D01*
X99157394Y-68869377D01*
X98966215Y-69072974D01*
X98835833Y-69155551D01*
X98679677Y-69259058D01*
X98645333Y-69365179D01*
X98671022Y-69462321D01*
X98775374Y-69510359D01*
X98999317Y-69525022D01*
X99062106Y-69525334D01*
X99478878Y-69525334D01*
X99922258Y-68802329D01*
X100116653Y-68492152D01*
X100283099Y-68239094D01*
X100399213Y-68076517D01*
X100436819Y-68035332D01*
X100472429Y-68089381D01*
X100497957Y-68273238D01*
X100507994Y-68547444D01*
X100508000Y-68554597D01*
X100501782Y-68861290D01*
X100475694Y-69038887D01*
X100418584Y-69127402D01*
X100338666Y-69162135D01*
X100200314Y-69265655D01*
X100169333Y-69365875D01*
X100186062Y-69445564D01*
X100258725Y-69493344D01*
X100421037Y-69517154D01*
X100706716Y-69524930D01*
X100846666Y-69525334D01*
X101184699Y-69521565D01*
X101387341Y-69504811D01*
X101488468Y-69466896D01*
X101521956Y-69399647D01*
X101524000Y-69361889D01*
X101452612Y-69215105D01*
X101333500Y-69171389D01*
X101262703Y-69155936D01*
X101211544Y-69116348D01*
X101176253Y-69027896D01*
X101153064Y-68865853D01*
X101138208Y-68605493D01*
X101127918Y-68222086D01*
X101119736Y-67768500D01*
X101097904Y-66477334D01*
X100508000Y-66477334D01*
X100508000Y-67578000D01*
X100195957Y-67578000D01*
X99855131Y-67506868D01*
X99687957Y-67393908D01*
X99516117Y-67147497D01*
X99494970Y-66902799D01*
X99608228Y-66689659D01*
X99839602Y-66537922D01*
X100172805Y-66477433D01*
X100188172Y-66477334D01*
X100508000Y-66477334D01*
X101097904Y-66477334D01*
X101096472Y-66392667D01*
X101310236Y-66392667D01*
X101472421Y-66358484D01*
X101522941Y-66223276D01*
X101524000Y-66181000D01*
X101518649Y-66083963D01*
X101481725Y-66022334D01*
X101381917Y-65988105D01*
X101187915Y-65973263D01*
X100868411Y-65969799D01*
X100698500Y-65969806D01*
G37*
X100698500Y-65969806D02*
X100301144Y-65979041D01*
X99931780Y-66003370D01*
X99647564Y-66038397D01*
X99559351Y-66057389D01*
X99227738Y-66223093D01*
X99007608Y-66481007D01*
X98900339Y-66794692D01*
X98907307Y-67127711D01*
X99029887Y-67443626D01*
X99269456Y-67705998D01*
X99492321Y-67832133D01*
X99626691Y-67888361D01*
X99697260Y-67942566D01*
X99698496Y-68027354D01*
X99624866Y-68175332D01*
X99470835Y-68419104D01*
X99365000Y-68582371D01*
X99157394Y-68869377D01*
X98966215Y-69072974D01*
X98835833Y-69155551D01*
X98679677Y-69259058D01*
X98645333Y-69365179D01*
X98671022Y-69462321D01*
X98775374Y-69510359D01*
X98999317Y-69525022D01*
X99062106Y-69525334D01*
X99478878Y-69525334D01*
X99922258Y-68802329D01*
X100116653Y-68492152D01*
X100283099Y-68239094D01*
X100399213Y-68076517D01*
X100436819Y-68035332D01*
X100472429Y-68089381D01*
X100497957Y-68273238D01*
X100507994Y-68547444D01*
X100508000Y-68554597D01*
X100501782Y-68861290D01*
X100475694Y-69038887D01*
X100418584Y-69127402D01*
X100338666Y-69162135D01*
X100200314Y-69265655D01*
X100169333Y-69365875D01*
X100186062Y-69445564D01*
X100258725Y-69493344D01*
X100421037Y-69517154D01*
X100706716Y-69524930D01*
X100846666Y-69525334D01*
X101184699Y-69521565D01*
X101387341Y-69504811D01*
X101488468Y-69466896D01*
X101521956Y-69399647D01*
X101524000Y-69361889D01*
X101452612Y-69215105D01*
X101333500Y-69171389D01*
X101262703Y-69155936D01*
X101211544Y-69116348D01*
X101176253Y-69027896D01*
X101153064Y-68865853D01*
X101138208Y-68605493D01*
X101127918Y-68222086D01*
X101119736Y-67768500D01*
X101097904Y-66477334D01*
X100508000Y-66477334D01*
X100508000Y-67578000D01*
X100195957Y-67578000D01*
X99855131Y-67506868D01*
X99687957Y-67393908D01*
X99516117Y-67147497D01*
X99494970Y-66902799D01*
X99608228Y-66689659D01*
X99839602Y-66537922D01*
X100172805Y-66477433D01*
X100188172Y-66477334D01*
X100508000Y-66477334D01*
X101097904Y-66477334D01*
X101096472Y-66392667D01*
X101310236Y-66392667D01*
X101472421Y-66358484D01*
X101522941Y-66223276D01*
X101524000Y-66181000D01*
X101518649Y-66083963D01*
X101481725Y-66022334D01*
X101381917Y-65988105D01*
X101187915Y-65973263D01*
X100868411Y-65969799D01*
X100698500Y-65969806D01*
G36*
X96586654Y-65986169D02*
G01*
X96243299Y-66011667D01*
X95674991Y-67578000D01*
X95439990Y-68208579D01*
X95250524Y-68679043D01*
X95105420Y-68992045D01*
X95003510Y-69150235D01*
X94971008Y-69171708D01*
X94858439Y-69266767D01*
X94835333Y-69362208D01*
X94851931Y-69445770D01*
X94924967Y-69494812D01*
X95089307Y-69518290D01*
X95379817Y-69525160D01*
X95470333Y-69525334D01*
X95795001Y-69521334D01*
X95985496Y-69503097D01*
X96076912Y-69461266D01*
X96104337Y-69386481D01*
X96105333Y-69356000D01*
X96045465Y-69214496D01*
X95936000Y-69186667D01*
X95794719Y-69144465D01*
X95782517Y-69009203D01*
X95854312Y-68842434D01*
X95919436Y-68760731D01*
X96032296Y-68711397D01*
X96230427Y-68686694D01*
X96551366Y-68678887D01*
X96648771Y-68678667D01*
X96995971Y-68681877D01*
X97210149Y-68697586D01*
X97327581Y-68734912D01*
X97384544Y-68802975D01*
X97406636Y-68869167D01*
X97451257Y-69074356D01*
X97425079Y-69164875D01*
X97311374Y-69186522D01*
X97290666Y-69186667D01*
X97149162Y-69246535D01*
X97121333Y-69356000D01*
X97136331Y-69442578D01*
X97204719Y-69493377D01*
X97361588Y-69517754D01*
X97642029Y-69525068D01*
X97756333Y-69525334D01*
X98082059Y-69520901D01*
X98273255Y-69501795D01*
X98364619Y-69459302D01*
X98390849Y-69384709D01*
X98391333Y-69365875D01*
X98320568Y-69214394D01*
X98234012Y-69165276D01*
X98122175Y-69070464D01*
X97990031Y-68832958D01*
X97831694Y-68441839D01*
X97806394Y-68372234D01*
X97710787Y-68107167D01*
X97119046Y-68107167D01*
X97043399Y-68140645D01*
X96844456Y-68163653D01*
X96613333Y-68170667D01*
X96345359Y-68165781D01*
X96161279Y-68153084D01*
X96105333Y-68138414D01*
X96115129Y-68099109D01*
X96149580Y-67996742D01*
X96216279Y-67810241D01*
X96322821Y-67518539D01*
X96476798Y-67100565D01*
X96581950Y-66816000D01*
X96624033Y-66843776D01*
X96705561Y-66991066D01*
X96809797Y-67217639D01*
X96920008Y-67483266D01*
X97019459Y-67747717D01*
X97091415Y-67970763D01*
X97119046Y-68107167D01*
X97710787Y-68107167D01*
X97649626Y-67937602D01*
X97466457Y-67431951D01*
X97288773Y-66943252D01*
X97233053Y-66790503D01*
X96930010Y-65960672D01*
X96586654Y-65986169D01*
G37*
X96586654Y-65986169D02*
X96243299Y-66011667D01*
X95674991Y-67578000D01*
X95439990Y-68208579D01*
X95250524Y-68679043D01*
X95105420Y-68992045D01*
X95003510Y-69150235D01*
X94971008Y-69171708D01*
X94858439Y-69266767D01*
X94835333Y-69362208D01*
X94851931Y-69445770D01*
X94924967Y-69494812D01*
X95089307Y-69518290D01*
X95379817Y-69525160D01*
X95470333Y-69525334D01*
X95795001Y-69521334D01*
X95985496Y-69503097D01*
X96076912Y-69461266D01*
X96104337Y-69386481D01*
X96105333Y-69356000D01*
X96045465Y-69214496D01*
X95936000Y-69186667D01*
X95794719Y-69144465D01*
X95782517Y-69009203D01*
X95854312Y-68842434D01*
X95919436Y-68760731D01*
X96032296Y-68711397D01*
X96230427Y-68686694D01*
X96551366Y-68678887D01*
X96648771Y-68678667D01*
X96995971Y-68681877D01*
X97210149Y-68697586D01*
X97327581Y-68734912D01*
X97384544Y-68802975D01*
X97406636Y-68869167D01*
X97451257Y-69074356D01*
X97425079Y-69164875D01*
X97311374Y-69186522D01*
X97290666Y-69186667D01*
X97149162Y-69246535D01*
X97121333Y-69356000D01*
X97136331Y-69442578D01*
X97204719Y-69493377D01*
X97361588Y-69517754D01*
X97642029Y-69525068D01*
X97756333Y-69525334D01*
X98082059Y-69520901D01*
X98273255Y-69501795D01*
X98364619Y-69459302D01*
X98390849Y-69384709D01*
X98391333Y-69365875D01*
X98320568Y-69214394D01*
X98234012Y-69165276D01*
X98122175Y-69070464D01*
X97990031Y-68832958D01*
X97831694Y-68441839D01*
X97806394Y-68372234D01*
X97710787Y-68107167D01*
X97119046Y-68107167D01*
X97043399Y-68140645D01*
X96844456Y-68163653D01*
X96613333Y-68170667D01*
X96345359Y-68165781D01*
X96161279Y-68153084D01*
X96105333Y-68138414D01*
X96115129Y-68099109D01*
X96149580Y-67996742D01*
X96216279Y-67810241D01*
X96322821Y-67518539D01*
X96476798Y-67100565D01*
X96581950Y-66816000D01*
X96624033Y-66843776D01*
X96705561Y-66991066D01*
X96809797Y-67217639D01*
X96920008Y-67483266D01*
X97019459Y-67747717D01*
X97091415Y-67970763D01*
X97119046Y-68107167D01*
X97710787Y-68107167D01*
X97649626Y-67937602D01*
X97466457Y-67431951D01*
X97288773Y-66943252D01*
X97233053Y-66790503D01*
X96930010Y-65960672D01*
X96586654Y-65986169D01*
G36*
X92615754Y-65985712D02*
G01*
X92570500Y-65987204D01*
X92213562Y-66002420D01*
X91993541Y-66024801D01*
X91878025Y-66062660D01*
X91834601Y-66124307D01*
X91829666Y-66177183D01*
X91905368Y-66331725D01*
X92041333Y-66392667D01*
X92253000Y-66442635D01*
X92253000Y-69144334D01*
X92020166Y-69171124D01*
X91836911Y-69234511D01*
X91787333Y-69361624D01*
X91801414Y-69439510D01*
X91865050Y-69487918D01*
X92010328Y-69513744D01*
X92269337Y-69523880D01*
X92549333Y-69525334D01*
X92911859Y-69522308D01*
X93137181Y-69508637D01*
X93257387Y-69477425D01*
X93304567Y-69421779D01*
X93311333Y-69361624D01*
X93251172Y-69225851D01*
X93078500Y-69171124D01*
X92845666Y-69144334D01*
X92845666Y-66435000D01*
X93078500Y-66408210D01*
X93253143Y-66354026D01*
X93309910Y-66216548D01*
X93311333Y-66172080D01*
X93305524Y-66072086D01*
X93266083Y-66011692D01*
X93159988Y-65982659D01*
X92954219Y-65976746D01*
X92615754Y-65985712D01*
G37*
X92615754Y-65985712D02*
X92570500Y-65987204D01*
X92213562Y-66002420D01*
X91993541Y-66024801D01*
X91878025Y-66062660D01*
X91834601Y-66124307D01*
X91829666Y-66177183D01*
X91905368Y-66331725D01*
X92041333Y-66392667D01*
X92253000Y-66442635D01*
X92253000Y-69144334D01*
X92020166Y-69171124D01*
X91836911Y-69234511D01*
X91787333Y-69361624D01*
X91801414Y-69439510D01*
X91865050Y-69487918D01*
X92010328Y-69513744D01*
X92269337Y-69523880D01*
X92549333Y-69525334D01*
X92911859Y-69522308D01*
X93137181Y-69508637D01*
X93257387Y-69477425D01*
X93304567Y-69421779D01*
X93311333Y-69361624D01*
X93251172Y-69225851D01*
X93078500Y-69171124D01*
X92845666Y-69144334D01*
X92845666Y-66435000D01*
X93078500Y-66408210D01*
X93253143Y-66354026D01*
X93309910Y-66216548D01*
X93311333Y-66172080D01*
X93305524Y-66072086D01*
X93266083Y-66011692D01*
X93159988Y-65982659D01*
X92954219Y-65976746D01*
X92615754Y-65985712D01*
G36*
X87854946Y-65983078D02*
G01*
X87758783Y-66016596D01*
X87726594Y-66087325D01*
X87723333Y-66177439D01*
X87761631Y-66345200D01*
X87892666Y-66392667D01*
X87952159Y-66399735D01*
X87995797Y-66436058D01*
X88026033Y-66524316D01*
X88045318Y-66687188D01*
X88056104Y-66947354D01*
X88060843Y-67327492D01*
X88061987Y-67850283D01*
X88062000Y-67959000D01*
X88062000Y-69525334D01*
X88464783Y-69525334D01*
X88712598Y-69514824D01*
X88866262Y-69457470D01*
X88992796Y-69314530D01*
X89087281Y-69165500D01*
X89218032Y-68951166D01*
X89410689Y-68635105D01*
X89639102Y-68260225D01*
X89872499Y-67877025D01*
X90438002Y-66948384D01*
X90414167Y-68046359D01*
X90403195Y-68494840D01*
X90389691Y-68801814D01*
X90368359Y-68995087D01*
X90333901Y-69102460D01*
X90281021Y-69151740D01*
X90204421Y-69170730D01*
X90199833Y-69171389D01*
X90040569Y-69255257D01*
X90009333Y-69361889D01*
X90024169Y-69441482D01*
X90090640Y-69490112D01*
X90241691Y-69515260D01*
X90510266Y-69524409D01*
X90729000Y-69525334D01*
X91079458Y-69521964D01*
X91293581Y-69506868D01*
X91404312Y-69472562D01*
X91444597Y-69411566D01*
X91448666Y-69361889D01*
X91377279Y-69215105D01*
X91258166Y-69171389D01*
X91187370Y-69155936D01*
X91136210Y-69116348D01*
X91100920Y-69027896D01*
X91077731Y-68865853D01*
X91062875Y-68605493D01*
X91052585Y-68222086D01*
X91044403Y-67768500D01*
X91021139Y-66392667D01*
X91234903Y-66392667D01*
X91396543Y-66358958D01*
X91447408Y-66224456D01*
X91448666Y-66177291D01*
X91441693Y-66066389D01*
X91396534Y-66003926D01*
X91276829Y-65978551D01*
X91046220Y-65978909D01*
X90838564Y-65986791D01*
X90228461Y-66011667D01*
X89441564Y-67311815D01*
X88654666Y-68611964D01*
X88654666Y-67508204D01*
X88655772Y-67058491D01*
X88662203Y-66750368D01*
X88678634Y-66556092D01*
X88709739Y-66447919D01*
X88760191Y-66398107D01*
X88834663Y-66378914D01*
X88845166Y-66377389D01*
X89004450Y-66293279D01*
X89035666Y-66181000D01*
X89019540Y-66094774D01*
X88948241Y-66041294D01*
X88787388Y-66010393D01*
X88502602Y-65991902D01*
X88379500Y-65986939D01*
X88050160Y-65976587D01*
X87854946Y-65983078D01*
G37*
X87854946Y-65983078D02*
X87758783Y-66016596D01*
X87726594Y-66087325D01*
X87723333Y-66177439D01*
X87761631Y-66345200D01*
X87892666Y-66392667D01*
X87952159Y-66399735D01*
X87995797Y-66436058D01*
X88026033Y-66524316D01*
X88045318Y-66687188D01*
X88056104Y-66947354D01*
X88060843Y-67327492D01*
X88061987Y-67850283D01*
X88062000Y-67959000D01*
X88062000Y-69525334D01*
X88464783Y-69525334D01*
X88712598Y-69514824D01*
X88866262Y-69457470D01*
X88992796Y-69314530D01*
X89087281Y-69165500D01*
X89218032Y-68951166D01*
X89410689Y-68635105D01*
X89639102Y-68260225D01*
X89872499Y-67877025D01*
X90438002Y-66948384D01*
X90414167Y-68046359D01*
X90403195Y-68494840D01*
X90389691Y-68801814D01*
X90368359Y-68995087D01*
X90333901Y-69102460D01*
X90281021Y-69151740D01*
X90204421Y-69170730D01*
X90199833Y-69171389D01*
X90040569Y-69255257D01*
X90009333Y-69361889D01*
X90024169Y-69441482D01*
X90090640Y-69490112D01*
X90241691Y-69515260D01*
X90510266Y-69524409D01*
X90729000Y-69525334D01*
X91079458Y-69521964D01*
X91293581Y-69506868D01*
X91404312Y-69472562D01*
X91444597Y-69411566D01*
X91448666Y-69361889D01*
X91377279Y-69215105D01*
X91258166Y-69171389D01*
X91187370Y-69155936D01*
X91136210Y-69116348D01*
X91100920Y-69027896D01*
X91077731Y-68865853D01*
X91062875Y-68605493D01*
X91052585Y-68222086D01*
X91044403Y-67768500D01*
X91021139Y-66392667D01*
X91234903Y-66392667D01*
X91396543Y-66358958D01*
X91447408Y-66224456D01*
X91448666Y-66177291D01*
X91441693Y-66066389D01*
X91396534Y-66003926D01*
X91276829Y-65978551D01*
X91046220Y-65978909D01*
X90838564Y-65986791D01*
X90228461Y-66011667D01*
X89441564Y-67311815D01*
X88654666Y-68611964D01*
X88654666Y-67508204D01*
X88655772Y-67058491D01*
X88662203Y-66750368D01*
X88678634Y-66556092D01*
X88709739Y-66447919D01*
X88760191Y-66398107D01*
X88834663Y-66378914D01*
X88845166Y-66377389D01*
X89004450Y-66293279D01*
X89035666Y-66181000D01*
X89019540Y-66094774D01*
X88948241Y-66041294D01*
X88787388Y-66010393D01*
X88502602Y-65991902D01*
X88379500Y-65986939D01*
X88050160Y-65976587D01*
X87854946Y-65983078D01*
G36*
X84590666Y-66435000D02*
G01*
X84596216Y-66701738D01*
X84625321Y-66840630D01*
X84696663Y-66893091D01*
X84800720Y-66900667D01*
X84981247Y-66847818D01*
X85063899Y-66689000D01*
X85133459Y-66540569D01*
X85278049Y-66483256D01*
X85406328Y-66477334D01*
X85695633Y-66477334D01*
X85672316Y-67810834D01*
X85662742Y-68312517D01*
X85651745Y-68670017D01*
X85635376Y-68908466D01*
X85609684Y-69052996D01*
X85570721Y-69128738D01*
X85514537Y-69160824D01*
X85458500Y-69171389D01*
X85299236Y-69255257D01*
X85268000Y-69361889D01*
X85282149Y-69439654D01*
X85345982Y-69487989D01*
X85491580Y-69513773D01*
X85751024Y-69523889D01*
X86030000Y-69525334D01*
X86392525Y-69522308D01*
X86617847Y-69508637D01*
X86738054Y-69477425D01*
X86785233Y-69421779D01*
X86792000Y-69361624D01*
X86731838Y-69225851D01*
X86559166Y-69171124D01*
X86326333Y-69144334D01*
X86303017Y-67810834D01*
X86279700Y-66477334D01*
X86620517Y-66477334D01*
X86839593Y-66488717D01*
X86937318Y-66542528D01*
X86961178Y-66668259D01*
X86961333Y-66689000D01*
X86996303Y-66850122D01*
X87133993Y-66899773D01*
X87173000Y-66900667D01*
X87294226Y-66888579D01*
X87357347Y-66824690D01*
X87381199Y-66667563D01*
X87384666Y-66435000D01*
X87384666Y-65969334D01*
X84590666Y-65969334D01*
X84590666Y-66435000D01*
G37*
X84590666Y-66435000D02*
X84596216Y-66701738D01*
X84625321Y-66840630D01*
X84696663Y-66893091D01*
X84800720Y-66900667D01*
X84981247Y-66847818D01*
X85063899Y-66689000D01*
X85133459Y-66540569D01*
X85278049Y-66483256D01*
X85406328Y-66477334D01*
X85695633Y-66477334D01*
X85672316Y-67810834D01*
X85662742Y-68312517D01*
X85651745Y-68670017D01*
X85635376Y-68908466D01*
X85609684Y-69052996D01*
X85570721Y-69128738D01*
X85514537Y-69160824D01*
X85458500Y-69171389D01*
X85299236Y-69255257D01*
X85268000Y-69361889D01*
X85282149Y-69439654D01*
X85345982Y-69487989D01*
X85491580Y-69513773D01*
X85751024Y-69523889D01*
X86030000Y-69525334D01*
X86392525Y-69522308D01*
X86617847Y-69508637D01*
X86738054Y-69477425D01*
X86785233Y-69421779D01*
X86792000Y-69361624D01*
X86731838Y-69225851D01*
X86559166Y-69171124D01*
X86326333Y-69144334D01*
X86303017Y-67810834D01*
X86279700Y-66477334D01*
X86620517Y-66477334D01*
X86839593Y-66488717D01*
X86937318Y-66542528D01*
X86961178Y-66668259D01*
X86961333Y-66689000D01*
X86996303Y-66850122D01*
X87133993Y-66899773D01*
X87173000Y-66900667D01*
X87294226Y-66888579D01*
X87357347Y-66824690D01*
X87381199Y-66667563D01*
X87384666Y-66435000D01*
X87384666Y-65969334D01*
X84590666Y-65969334D01*
X84590666Y-66435000D01*
G36*
X81966000Y-66392667D02*
G01*
X81972862Y-66643911D01*
X82007885Y-66769251D01*
X82092720Y-66811990D01*
X82177666Y-66816000D01*
X82343648Y-66776313D01*
X82389333Y-66646667D01*
X82411621Y-66545100D01*
X82506224Y-66494445D01*
X82714750Y-66478058D01*
X82812666Y-66477334D01*
X83236000Y-66477334D01*
X83236000Y-67493334D01*
X82907208Y-67493334D01*
X82676517Y-67472472D01*
X82563172Y-67395223D01*
X82534134Y-67324000D01*
X82420663Y-67180666D01*
X82312593Y-67154667D01*
X82216875Y-67169945D01*
X82163522Y-67240917D01*
X82140390Y-67405286D01*
X82135334Y-67700758D01*
X82135333Y-67705000D01*
X82139350Y-68001049D01*
X82160732Y-68165970D01*
X82213474Y-68237934D01*
X82311574Y-68255113D01*
X82337125Y-68255334D01*
X82523332Y-68191507D01*
X82583199Y-68086000D01*
X82660108Y-67965649D01*
X82836220Y-67919548D01*
X82931740Y-67916667D01*
X83236000Y-67916667D01*
X83236000Y-69102000D01*
X82812666Y-69102000D01*
X82561422Y-69095138D01*
X82436083Y-69060115D01*
X82393343Y-68975280D01*
X82389333Y-68890334D01*
X82361996Y-68739061D01*
X82245788Y-68683722D01*
X82135333Y-68678667D01*
X81984971Y-68687916D01*
X81909991Y-68744783D01*
X81884185Y-68892948D01*
X81881333Y-69102000D01*
X81881333Y-69525334D01*
X83066666Y-69525334D01*
X83536127Y-69523947D01*
X83862215Y-69517400D01*
X84070888Y-69502115D01*
X84188100Y-69474513D01*
X84239805Y-69431014D01*
X84251959Y-69368040D01*
X84252000Y-69361889D01*
X84180612Y-69215105D01*
X84061500Y-69171389D01*
X83990703Y-69155936D01*
X83939544Y-69116348D01*
X83904253Y-69027896D01*
X83881064Y-68865853D01*
X83866208Y-68605493D01*
X83855918Y-68222086D01*
X83847736Y-67768500D01*
X83824472Y-66392667D01*
X84038236Y-66392667D01*
X84200421Y-66358484D01*
X84250941Y-66223276D01*
X84252000Y-66181000D01*
X84252000Y-65969334D01*
X81966000Y-65969334D01*
X81966000Y-66392667D01*
G37*
X81966000Y-66392667D02*
X81972862Y-66643911D01*
X82007885Y-66769251D01*
X82092720Y-66811990D01*
X82177666Y-66816000D01*
X82343648Y-66776313D01*
X82389333Y-66646667D01*
X82411621Y-66545100D01*
X82506224Y-66494445D01*
X82714750Y-66478058D01*
X82812666Y-66477334D01*
X83236000Y-66477334D01*
X83236000Y-67493334D01*
X82907208Y-67493334D01*
X82676517Y-67472472D01*
X82563172Y-67395223D01*
X82534134Y-67324000D01*
X82420663Y-67180666D01*
X82312593Y-67154667D01*
X82216875Y-67169945D01*
X82163522Y-67240917D01*
X82140390Y-67405286D01*
X82135334Y-67700758D01*
X82135333Y-67705000D01*
X82139350Y-68001049D01*
X82160732Y-68165970D01*
X82213474Y-68237934D01*
X82311574Y-68255113D01*
X82337125Y-68255334D01*
X82523332Y-68191507D01*
X82583199Y-68086000D01*
X82660108Y-67965649D01*
X82836220Y-67919548D01*
X82931740Y-67916667D01*
X83236000Y-67916667D01*
X83236000Y-69102000D01*
X82812666Y-69102000D01*
X82561422Y-69095138D01*
X82436083Y-69060115D01*
X82393343Y-68975280D01*
X82389333Y-68890334D01*
X82361996Y-68739061D01*
X82245788Y-68683722D01*
X82135333Y-68678667D01*
X81984971Y-68687916D01*
X81909991Y-68744783D01*
X81884185Y-68892948D01*
X81881333Y-69102000D01*
X81881333Y-69525334D01*
X83066666Y-69525334D01*
X83536127Y-69523947D01*
X83862215Y-69517400D01*
X84070888Y-69502115D01*
X84188100Y-69474513D01*
X84239805Y-69431014D01*
X84251959Y-69368040D01*
X84252000Y-69361889D01*
X84180612Y-69215105D01*
X84061500Y-69171389D01*
X83990703Y-69155936D01*
X83939544Y-69116348D01*
X83904253Y-69027896D01*
X83881064Y-68865853D01*
X83866208Y-68605493D01*
X83855918Y-68222086D01*
X83847736Y-67768500D01*
X83824472Y-66392667D01*
X84038236Y-66392667D01*
X84200421Y-66358484D01*
X84250941Y-66223276D01*
X84252000Y-66181000D01*
X84252000Y-65969334D01*
X81966000Y-65969334D01*
X81966000Y-66392667D01*
G36*
X80547833Y-65969806D02*
G01*
X80150477Y-65979041D01*
X79781113Y-66003370D01*
X79496897Y-66038397D01*
X79408684Y-66057389D01*
X79077071Y-66223093D01*
X78856942Y-66481007D01*
X78749673Y-66794692D01*
X78756640Y-67127711D01*
X78879220Y-67443626D01*
X79118789Y-67705998D01*
X79341655Y-67832133D01*
X79476024Y-67888361D01*
X79546594Y-67942566D01*
X79547830Y-68027354D01*
X79474199Y-68175332D01*
X79320168Y-68419104D01*
X79214333Y-68582371D01*
X79006727Y-68869377D01*
X78815548Y-69072974D01*
X78685166Y-69155551D01*
X78529010Y-69259058D01*
X78494666Y-69365179D01*
X78520345Y-69462305D01*
X78624662Y-69510346D01*
X78848541Y-69525019D01*
X78911608Y-69525334D01*
X79328549Y-69525334D01*
X79811611Y-68763334D01*
X80011707Y-68452033D01*
X80177557Y-68202154D01*
X80289239Y-68043207D01*
X80326003Y-68001334D01*
X80341861Y-68078637D01*
X80353129Y-68281122D01*
X80357333Y-68559593D01*
X80350999Y-68864740D01*
X80324465Y-69040981D01*
X80266436Y-69128512D01*
X80188000Y-69162135D01*
X80049647Y-69265655D01*
X80018666Y-69365875D01*
X80035395Y-69445564D01*
X80108058Y-69493344D01*
X80270371Y-69517154D01*
X80556049Y-69524930D01*
X80696000Y-69525334D01*
X81034032Y-69521565D01*
X81236674Y-69504811D01*
X81337802Y-69466896D01*
X81371289Y-69399647D01*
X81373333Y-69361889D01*
X81301945Y-69215105D01*
X81182833Y-69171389D01*
X81112037Y-69155936D01*
X81060877Y-69116348D01*
X81025587Y-69027896D01*
X81002397Y-68865853D01*
X80987542Y-68605493D01*
X80977252Y-68222086D01*
X80969069Y-67768500D01*
X80947237Y-66477334D01*
X80357333Y-66477334D01*
X80357333Y-67578000D01*
X80072418Y-67578000D01*
X79787927Y-67521021D01*
X79564418Y-67402522D01*
X79382778Y-67179516D01*
X79346970Y-66942075D01*
X79440468Y-66723858D01*
X79646744Y-66558527D01*
X79949272Y-66479743D01*
X80018666Y-66477334D01*
X80357333Y-66477334D01*
X80947237Y-66477334D01*
X80945805Y-66392667D01*
X81159569Y-66392667D01*
X81321755Y-66358484D01*
X81372275Y-66223276D01*
X81373333Y-66181000D01*
X81367983Y-66083963D01*
X81331058Y-66022334D01*
X81231250Y-65988105D01*
X81037248Y-65973263D01*
X80717744Y-65969799D01*
X80547833Y-65969806D01*
G37*
X80547833Y-65969806D02*
X80150477Y-65979041D01*
X79781113Y-66003370D01*
X79496897Y-66038397D01*
X79408684Y-66057389D01*
X79077071Y-66223093D01*
X78856942Y-66481007D01*
X78749673Y-66794692D01*
X78756640Y-67127711D01*
X78879220Y-67443626D01*
X79118789Y-67705998D01*
X79341655Y-67832133D01*
X79476024Y-67888361D01*
X79546594Y-67942566D01*
X79547830Y-68027354D01*
X79474199Y-68175332D01*
X79320168Y-68419104D01*
X79214333Y-68582371D01*
X79006727Y-68869377D01*
X78815548Y-69072974D01*
X78685166Y-69155551D01*
X78529010Y-69259058D01*
X78494666Y-69365179D01*
X78520345Y-69462305D01*
X78624662Y-69510346D01*
X78848541Y-69525019D01*
X78911608Y-69525334D01*
X79328549Y-69525334D01*
X79811611Y-68763334D01*
X80011707Y-68452033D01*
X80177557Y-68202154D01*
X80289239Y-68043207D01*
X80326003Y-68001334D01*
X80341861Y-68078637D01*
X80353129Y-68281122D01*
X80357333Y-68559593D01*
X80350999Y-68864740D01*
X80324465Y-69040981D01*
X80266436Y-69128512D01*
X80188000Y-69162135D01*
X80049647Y-69265655D01*
X80018666Y-69365875D01*
X80035395Y-69445564D01*
X80108058Y-69493344D01*
X80270371Y-69517154D01*
X80556049Y-69524930D01*
X80696000Y-69525334D01*
X81034032Y-69521565D01*
X81236674Y-69504811D01*
X81337802Y-69466896D01*
X81371289Y-69399647D01*
X81373333Y-69361889D01*
X81301945Y-69215105D01*
X81182833Y-69171389D01*
X81112037Y-69155936D01*
X81060877Y-69116348D01*
X81025587Y-69027896D01*
X81002397Y-68865853D01*
X80987542Y-68605493D01*
X80977252Y-68222086D01*
X80969069Y-67768500D01*
X80947237Y-66477334D01*
X80357333Y-66477334D01*
X80357333Y-67578000D01*
X80072418Y-67578000D01*
X79787927Y-67521021D01*
X79564418Y-67402522D01*
X79382778Y-67179516D01*
X79346970Y-66942075D01*
X79440468Y-66723858D01*
X79646744Y-66558527D01*
X79949272Y-66479743D01*
X80018666Y-66477334D01*
X80357333Y-66477334D01*
X80947237Y-66477334D01*
X80945805Y-66392667D01*
X81159569Y-66392667D01*
X81321755Y-66358484D01*
X81372275Y-66223276D01*
X81373333Y-66181000D01*
X81367983Y-66083963D01*
X81331058Y-66022334D01*
X81231250Y-65988105D01*
X81037248Y-65973263D01*
X80717744Y-65969799D01*
X80547833Y-65969806D01*
G36*
X77460420Y-65985712D02*
G01*
X77415166Y-65987204D01*
X77058229Y-66002420D01*
X76838208Y-66024801D01*
X76722692Y-66062660D01*
X76679268Y-66124307D01*
X76674333Y-66177183D01*
X76750035Y-66331725D01*
X76886000Y-66392667D01*
X77097666Y-66442635D01*
X77097666Y-69144334D01*
X76864833Y-69171124D01*
X76681578Y-69234511D01*
X76632000Y-69361624D01*
X76646081Y-69439510D01*
X76709717Y-69487918D01*
X76854995Y-69513744D01*
X77114004Y-69523880D01*
X77394000Y-69525334D01*
X77756525Y-69522308D01*
X77981847Y-69508637D01*
X78102054Y-69477425D01*
X78149233Y-69421779D01*
X78156000Y-69361624D01*
X78095838Y-69225851D01*
X77923166Y-69171124D01*
X77690333Y-69144334D01*
X77690333Y-66435000D01*
X77923166Y-66408210D01*
X78097810Y-66354026D01*
X78154577Y-66216548D01*
X78156000Y-66172080D01*
X78150191Y-66072086D01*
X78110749Y-66011692D01*
X78004655Y-65982659D01*
X77798885Y-65976746D01*
X77460420Y-65985712D01*
G37*
X77460420Y-65985712D02*
X77415166Y-65987204D01*
X77058229Y-66002420D01*
X76838208Y-66024801D01*
X76722692Y-66062660D01*
X76679268Y-66124307D01*
X76674333Y-66177183D01*
X76750035Y-66331725D01*
X76886000Y-66392667D01*
X77097666Y-66442635D01*
X77097666Y-69144334D01*
X76864833Y-69171124D01*
X76681578Y-69234511D01*
X76632000Y-69361624D01*
X76646081Y-69439510D01*
X76709717Y-69487918D01*
X76854995Y-69513744D01*
X77114004Y-69523880D01*
X77394000Y-69525334D01*
X77756525Y-69522308D01*
X77981847Y-69508637D01*
X78102054Y-69477425D01*
X78149233Y-69421779D01*
X78156000Y-69361624D01*
X78095838Y-69225851D01*
X77923166Y-69171124D01*
X77690333Y-69144334D01*
X77690333Y-66435000D01*
X77923166Y-66408210D01*
X78097810Y-66354026D01*
X78154577Y-66216548D01*
X78156000Y-66172080D01*
X78150191Y-66072086D01*
X78110749Y-66011692D01*
X78004655Y-65982659D01*
X77798885Y-65976746D01*
X77460420Y-65985712D01*
G36*
X71657833Y-65969806D02*
G01*
X71088556Y-65985363D01*
X70660666Y-66035432D01*
X70348600Y-66126220D01*
X70126795Y-66263935D01*
X70031851Y-66364668D01*
X69883992Y-66678030D01*
X69869694Y-67030661D01*
X69977117Y-67375046D01*
X70194419Y-67663665D01*
X70389266Y-67799001D01*
X70576364Y-67896543D01*
X70683817Y-67957087D01*
X70690125Y-67961615D01*
X70673528Y-68048900D01*
X70572978Y-68226029D01*
X70416421Y-68455752D01*
X70231803Y-68700823D01*
X70047070Y-68923992D01*
X69890168Y-69088012D01*
X69795166Y-69154458D01*
X69637677Y-69261225D01*
X69604666Y-69369603D01*
X69624618Y-69465542D01*
X69711927Y-69509712D01*
X69907774Y-69515211D01*
X70041728Y-69508591D01*
X70478790Y-69483000D01*
X70909967Y-68791150D01*
X71102368Y-68486193D01*
X71264848Y-68235590D01*
X71374448Y-68074408D01*
X71404238Y-68036206D01*
X71435484Y-68080575D01*
X71458050Y-68256837D01*
X71467302Y-68527602D01*
X71467333Y-68545482D01*
X71461320Y-68854985D01*
X71436015Y-69035051D01*
X71380519Y-69125367D01*
X71298000Y-69162135D01*
X71159647Y-69265655D01*
X71128666Y-69365875D01*
X71145395Y-69445564D01*
X71218058Y-69493344D01*
X71380371Y-69517154D01*
X71666049Y-69524930D01*
X71806000Y-69525334D01*
X72144032Y-69521565D01*
X72346674Y-69504811D01*
X72447802Y-69466896D01*
X72481289Y-69399647D01*
X72483333Y-69361889D01*
X72411945Y-69215105D01*
X72292833Y-69171389D01*
X72222037Y-69155936D01*
X72170877Y-69116348D01*
X72135587Y-69027896D01*
X72112397Y-68865853D01*
X72097542Y-68605493D01*
X72087252Y-68222086D01*
X72079069Y-67768500D01*
X72057237Y-66477334D01*
X71467333Y-66477334D01*
X71467333Y-67578000D01*
X71182418Y-67578000D01*
X70897927Y-67521021D01*
X70674418Y-67402522D01*
X70492778Y-67179516D01*
X70456970Y-66942075D01*
X70550468Y-66723858D01*
X70756744Y-66558527D01*
X71059272Y-66479743D01*
X71128666Y-66477334D01*
X71467333Y-66477334D01*
X72057237Y-66477334D01*
X72055805Y-66392667D01*
X72269569Y-66392667D01*
X72431755Y-66358484D01*
X72482275Y-66223276D01*
X72483333Y-66181000D01*
X72477983Y-66083963D01*
X72441058Y-66022334D01*
X72341250Y-65988105D01*
X72147248Y-65973263D01*
X71827744Y-65969799D01*
X71657833Y-65969806D01*
G37*
X71657833Y-65969806D02*
X71088556Y-65985363D01*
X70660666Y-66035432D01*
X70348600Y-66126220D01*
X70126795Y-66263935D01*
X70031851Y-66364668D01*
X69883992Y-66678030D01*
X69869694Y-67030661D01*
X69977117Y-67375046D01*
X70194419Y-67663665D01*
X70389266Y-67799001D01*
X70576364Y-67896543D01*
X70683817Y-67957087D01*
X70690125Y-67961615D01*
X70673528Y-68048900D01*
X70572978Y-68226029D01*
X70416421Y-68455752D01*
X70231803Y-68700823D01*
X70047070Y-68923992D01*
X69890168Y-69088012D01*
X69795166Y-69154458D01*
X69637677Y-69261225D01*
X69604666Y-69369603D01*
X69624618Y-69465542D01*
X69711927Y-69509712D01*
X69907774Y-69515211D01*
X70041728Y-69508591D01*
X70478790Y-69483000D01*
X70909967Y-68791150D01*
X71102368Y-68486193D01*
X71264848Y-68235590D01*
X71374448Y-68074408D01*
X71404238Y-68036206D01*
X71435484Y-68080575D01*
X71458050Y-68256837D01*
X71467302Y-68527602D01*
X71467333Y-68545482D01*
X71461320Y-68854985D01*
X71436015Y-69035051D01*
X71380519Y-69125367D01*
X71298000Y-69162135D01*
X71159647Y-69265655D01*
X71128666Y-69365875D01*
X71145395Y-69445564D01*
X71218058Y-69493344D01*
X71380371Y-69517154D01*
X71666049Y-69524930D01*
X71806000Y-69525334D01*
X72144032Y-69521565D01*
X72346674Y-69504811D01*
X72447802Y-69466896D01*
X72481289Y-69399647D01*
X72483333Y-69361889D01*
X72411945Y-69215105D01*
X72292833Y-69171389D01*
X72222037Y-69155936D01*
X72170877Y-69116348D01*
X72135587Y-69027896D01*
X72112397Y-68865853D01*
X72097542Y-68605493D01*
X72087252Y-68222086D01*
X72079069Y-67768500D01*
X72057237Y-66477334D01*
X71467333Y-66477334D01*
X71467333Y-67578000D01*
X71182418Y-67578000D01*
X70897927Y-67521021D01*
X70674418Y-67402522D01*
X70492778Y-67179516D01*
X70456970Y-66942075D01*
X70550468Y-66723858D01*
X70756744Y-66558527D01*
X71059272Y-66479743D01*
X71128666Y-66477334D01*
X71467333Y-66477334D01*
X72057237Y-66477334D01*
X72055805Y-66392667D01*
X72269569Y-66392667D01*
X72431755Y-66358484D01*
X72482275Y-66223276D01*
X72483333Y-66181000D01*
X72477983Y-66083963D01*
X72441058Y-66022334D01*
X72341250Y-65988105D01*
X72147248Y-65973263D01*
X71827744Y-65969799D01*
X71657833Y-65969806D01*
G36*
X106355021Y-59885868D02*
G01*
X106150110Y-59921623D01*
X106096000Y-59965927D01*
X106166420Y-60060685D01*
X106257561Y-60100769D01*
X106321848Y-60130675D01*
X106367744Y-60199003D01*
X106399340Y-60332383D01*
X106420722Y-60557444D01*
X106435979Y-60900817D01*
X106448061Y-61341676D01*
X106471707Y-61930590D01*
X106516404Y-62377037D01*
X106591244Y-62707459D01*
X106705320Y-62948298D01*
X106867723Y-63125999D01*
X107087546Y-63267004D01*
X107114880Y-63281035D01*
X107397055Y-63370043D01*
X107761717Y-63417885D01*
X108125687Y-63418451D01*
X108382000Y-63374125D01*
X108642436Y-63274936D01*
X108836189Y-63156389D01*
X108972953Y-62993463D01*
X109062421Y-62761138D01*
X109114289Y-62434393D01*
X109138250Y-61988209D01*
X109144000Y-61407427D01*
X109144929Y-60919872D01*
X109150158Y-60575855D01*
X109163348Y-60349583D01*
X109188159Y-60215262D01*
X109228254Y-60147097D01*
X109287293Y-60119296D01*
X109327868Y-60112055D01*
X109489740Y-60047323D01*
X109546590Y-59979167D01*
X109517694Y-59922417D01*
X109371003Y-59888734D01*
X109085186Y-59874444D01*
X108932333Y-59873334D01*
X108586821Y-59881092D01*
X108388707Y-59906818D01*
X108316660Y-59954186D01*
X108318076Y-59979167D01*
X108420778Y-60075181D01*
X108536798Y-60112055D01*
X108607738Y-60128969D01*
X108657599Y-60172645D01*
X108690094Y-60269002D01*
X108708935Y-60443959D01*
X108717835Y-60723434D01*
X108720506Y-61133347D01*
X108720666Y-61395696D01*
X108720666Y-62652281D01*
X108460170Y-62871474D01*
X108127738Y-63046826D01*
X107729836Y-63092905D01*
X107333233Y-63009638D01*
X107157934Y-62912979D01*
X107029764Y-62760111D01*
X106942228Y-62527401D01*
X106888832Y-62191216D01*
X106863080Y-61727923D01*
X106858000Y-61280427D01*
X106859156Y-60821665D01*
X106865483Y-60504987D01*
X106881270Y-60303143D01*
X106910804Y-60188888D01*
X106958373Y-60134971D01*
X107028265Y-60114146D01*
X107041868Y-60112055D01*
X107203740Y-60047323D01*
X107260590Y-59979167D01*
X107230815Y-59920503D01*
X107079685Y-59886692D01*
X106786034Y-59873768D01*
X106695722Y-59873334D01*
X106355021Y-59885868D01*
G37*
X106355021Y-59885868D02*
X106150110Y-59921623D01*
X106096000Y-59965927D01*
X106166420Y-60060685D01*
X106257561Y-60100769D01*
X106321848Y-60130675D01*
X106367744Y-60199003D01*
X106399340Y-60332383D01*
X106420722Y-60557444D01*
X106435979Y-60900817D01*
X106448061Y-61341676D01*
X106471707Y-61930590D01*
X106516404Y-62377037D01*
X106591244Y-62707459D01*
X106705320Y-62948298D01*
X106867723Y-63125999D01*
X107087546Y-63267004D01*
X107114880Y-63281035D01*
X107397055Y-63370043D01*
X107761717Y-63417885D01*
X108125687Y-63418451D01*
X108382000Y-63374125D01*
X108642436Y-63274936D01*
X108836189Y-63156389D01*
X108972953Y-62993463D01*
X109062421Y-62761138D01*
X109114289Y-62434393D01*
X109138250Y-61988209D01*
X109144000Y-61407427D01*
X109144929Y-60919872D01*
X109150158Y-60575855D01*
X109163348Y-60349583D01*
X109188159Y-60215262D01*
X109228254Y-60147097D01*
X109287293Y-60119296D01*
X109327868Y-60112055D01*
X109489740Y-60047323D01*
X109546590Y-59979167D01*
X109517694Y-59922417D01*
X109371003Y-59888734D01*
X109085186Y-59874444D01*
X108932333Y-59873334D01*
X108586821Y-59881092D01*
X108388707Y-59906818D01*
X108316660Y-59954186D01*
X108318076Y-59979167D01*
X108420778Y-60075181D01*
X108536798Y-60112055D01*
X108607738Y-60128969D01*
X108657599Y-60172645D01*
X108690094Y-60269002D01*
X108708935Y-60443959D01*
X108717835Y-60723434D01*
X108720506Y-61133347D01*
X108720666Y-61395696D01*
X108720666Y-62652281D01*
X108460170Y-62871474D01*
X108127738Y-63046826D01*
X107729836Y-63092905D01*
X107333233Y-63009638D01*
X107157934Y-62912979D01*
X107029764Y-62760111D01*
X106942228Y-62527401D01*
X106888832Y-62191216D01*
X106863080Y-61727923D01*
X106858000Y-61280427D01*
X106859156Y-60821665D01*
X106865483Y-60504987D01*
X106881270Y-60303143D01*
X106910804Y-60188888D01*
X106958373Y-60134971D01*
X107028265Y-60114146D01*
X107041868Y-60112055D01*
X107203740Y-60047323D01*
X107260590Y-59979167D01*
X107230815Y-59920503D01*
X107079685Y-59886692D01*
X106786034Y-59873768D01*
X106695722Y-59873334D01*
X106355021Y-59885868D01*
G36*
X88632656Y-59801219D02*
G01*
X88438884Y-59855710D01*
X88345036Y-59977395D01*
X88316818Y-60191527D01*
X88316000Y-60263392D01*
X88328111Y-60498818D01*
X88376972Y-60608564D01*
X88479709Y-60635334D01*
X88615708Y-60574921D01*
X88670209Y-60403224D01*
X88734491Y-60222201D01*
X88890457Y-60138887D01*
X89163496Y-60143692D01*
X89298762Y-60165787D01*
X89582399Y-60287173D01*
X89765203Y-60502575D01*
X89817270Y-60771256D01*
X89803611Y-60853458D01*
X89735773Y-60989216D01*
X89584919Y-61119606D01*
X89319925Y-61268041D01*
X89135509Y-61356062D01*
X88823033Y-61512268D01*
X88557335Y-61666312D01*
X88388672Y-61788649D01*
X88373279Y-61804152D01*
X88210109Y-62099251D01*
X88181038Y-62439325D01*
X88275419Y-62781470D01*
X88482607Y-63082782D01*
X88738012Y-63273987D01*
X88994475Y-63359544D01*
X89335749Y-63412505D01*
X89689768Y-63427511D01*
X89984467Y-63399201D01*
X90072833Y-63373260D01*
X90141654Y-63264170D01*
X90176570Y-63034430D01*
X90178666Y-62950403D01*
X90167507Y-62714188D01*
X90123868Y-62609248D01*
X90034212Y-62598070D01*
X89906348Y-62693643D01*
X89838607Y-62837111D01*
X89789576Y-62964839D01*
X89690812Y-63026032D01*
X89492472Y-63042878D01*
X89377809Y-63042225D01*
X89096810Y-63018758D01*
X88910473Y-62940006D01*
X88769081Y-62804670D01*
X88633991Y-62602571D01*
X88570662Y-62419113D01*
X88570000Y-62404569D01*
X88646527Y-62198093D01*
X88851231Y-61988665D01*
X89146798Y-61809195D01*
X89325621Y-61738105D01*
X89623493Y-61603743D01*
X89909260Y-61421043D01*
X89942963Y-61394009D01*
X90123637Y-61215847D01*
X90203699Y-61032453D01*
X90221000Y-60780502D01*
X90147383Y-60395838D01*
X89934996Y-60096874D01*
X89596533Y-59893601D01*
X89144691Y-59796008D01*
X88960644Y-59788667D01*
X88632656Y-59801219D01*
G37*
X88632656Y-59801219D02*
X88438884Y-59855710D01*
X88345036Y-59977395D01*
X88316818Y-60191527D01*
X88316000Y-60263392D01*
X88328111Y-60498818D01*
X88376972Y-60608564D01*
X88479709Y-60635334D01*
X88615708Y-60574921D01*
X88670209Y-60403224D01*
X88734491Y-60222201D01*
X88890457Y-60138887D01*
X89163496Y-60143692D01*
X89298762Y-60165787D01*
X89582399Y-60287173D01*
X89765203Y-60502575D01*
X89817270Y-60771256D01*
X89803611Y-60853458D01*
X89735773Y-60989216D01*
X89584919Y-61119606D01*
X89319925Y-61268041D01*
X89135509Y-61356062D01*
X88823033Y-61512268D01*
X88557335Y-61666312D01*
X88388672Y-61788649D01*
X88373279Y-61804152D01*
X88210109Y-62099251D01*
X88181038Y-62439325D01*
X88275419Y-62781470D01*
X88482607Y-63082782D01*
X88738012Y-63273987D01*
X88994475Y-63359544D01*
X89335749Y-63412505D01*
X89689768Y-63427511D01*
X89984467Y-63399201D01*
X90072833Y-63373260D01*
X90141654Y-63264170D01*
X90176570Y-63034430D01*
X90178666Y-62950403D01*
X90167507Y-62714188D01*
X90123868Y-62609248D01*
X90034212Y-62598070D01*
X89906348Y-62693643D01*
X89838607Y-62837111D01*
X89789576Y-62964839D01*
X89690812Y-63026032D01*
X89492472Y-63042878D01*
X89377809Y-63042225D01*
X89096810Y-63018758D01*
X88910473Y-62940006D01*
X88769081Y-62804670D01*
X88633991Y-62602571D01*
X88570662Y-62419113D01*
X88570000Y-62404569D01*
X88646527Y-62198093D01*
X88851231Y-61988665D01*
X89146798Y-61809195D01*
X89325621Y-61738105D01*
X89623493Y-61603743D01*
X89909260Y-61421043D01*
X89942963Y-61394009D01*
X90123637Y-61215847D01*
X90203699Y-61032453D01*
X90221000Y-60780502D01*
X90147383Y-60395838D01*
X89934996Y-60096874D01*
X89596533Y-59893601D01*
X89144691Y-59796008D01*
X88960644Y-59788667D01*
X88632656Y-59801219D01*
G36*
X83931632Y-59870377D02*
G01*
X83470719Y-60013091D01*
X83118526Y-60246699D01*
X82861016Y-60575848D01*
X82828692Y-60635682D01*
X82722710Y-60874833D01*
X82667682Y-61110140D01*
X82652821Y-61406698D01*
X82659359Y-61657524D01*
X82735010Y-62219567D01*
X82916666Y-62661534D01*
X83213277Y-62991362D01*
X83633790Y-63216988D01*
X84187157Y-63346350D01*
X84603535Y-63381805D01*
X84980575Y-63391395D01*
X85334801Y-63389403D01*
X85599303Y-63376411D01*
X85633081Y-63372845D01*
X85851685Y-63314059D01*
X85920179Y-63228720D01*
X85835307Y-63147227D01*
X85661663Y-63106019D01*
X85433384Y-63079038D01*
X85448777Y-62113847D01*
X85085511Y-62113847D01*
X85080987Y-62517717D01*
X85064973Y-62791375D01*
X85036345Y-62954254D01*
X84995002Y-63025105D01*
X84822994Y-63068977D01*
X84549531Y-63066126D01*
X84233569Y-63024070D01*
X83934066Y-62950324D01*
X83728197Y-62863591D01*
X83405314Y-62615593D01*
X83202898Y-62303284D01*
X83099750Y-61888666D01*
X83082828Y-61706945D01*
X83104744Y-61169239D01*
X83247857Y-60749605D01*
X83514090Y-60445972D01*
X83905364Y-60256275D01*
X84423603Y-60178446D01*
X84506000Y-60176364D01*
X85056333Y-60169667D01*
X85079668Y-61560330D01*
X85085511Y-62113847D01*
X85448777Y-62113847D01*
X85479666Y-60177148D01*
X85685056Y-60128739D01*
X85884724Y-60060290D01*
X85922587Y-59991578D01*
X85806096Y-59927407D01*
X85542703Y-59872582D01*
X85235776Y-59839047D01*
X84515305Y-59813911D01*
X83931632Y-59870377D01*
G37*
X83931632Y-59870377D02*
X83470719Y-60013091D01*
X83118526Y-60246699D01*
X82861016Y-60575848D01*
X82828692Y-60635682D01*
X82722710Y-60874833D01*
X82667682Y-61110140D01*
X82652821Y-61406698D01*
X82659359Y-61657524D01*
X82735010Y-62219567D01*
X82916666Y-62661534D01*
X83213277Y-62991362D01*
X83633790Y-63216988D01*
X84187157Y-63346350D01*
X84603535Y-63381805D01*
X84980575Y-63391395D01*
X85334801Y-63389403D01*
X85599303Y-63376411D01*
X85633081Y-63372845D01*
X85851685Y-63314059D01*
X85920179Y-63228720D01*
X85835307Y-63147227D01*
X85661663Y-63106019D01*
X85433384Y-63079038D01*
X85448777Y-62113847D01*
X85085511Y-62113847D01*
X85080987Y-62517717D01*
X85064973Y-62791375D01*
X85036345Y-62954254D01*
X84995002Y-63025105D01*
X84822994Y-63068977D01*
X84549531Y-63066126D01*
X84233569Y-63024070D01*
X83934066Y-62950324D01*
X83728197Y-62863591D01*
X83405314Y-62615593D01*
X83202898Y-62303284D01*
X83099750Y-61888666D01*
X83082828Y-61706945D01*
X83104744Y-61169239D01*
X83247857Y-60749605D01*
X83514090Y-60445972D01*
X83905364Y-60256275D01*
X84423603Y-60178446D01*
X84506000Y-60176364D01*
X85056333Y-60169667D01*
X85079668Y-61560330D01*
X85085511Y-62113847D01*
X85448777Y-62113847D01*
X85479666Y-60177148D01*
X85685056Y-60128739D01*
X85884724Y-60060290D01*
X85922587Y-59991578D01*
X85806096Y-59927407D01*
X85542703Y-59872582D01*
X85235776Y-59839047D01*
X84515305Y-59813911D01*
X83931632Y-59870377D01*
G36*
X76781239Y-59831389D02*
G01*
X76477115Y-59863438D01*
X76401424Y-59877259D01*
X75941791Y-60047977D01*
X75579731Y-60330873D01*
X75317359Y-60698260D01*
X75156790Y-61122454D01*
X75100139Y-61575769D01*
X75149521Y-62030520D01*
X75307051Y-62459022D01*
X75574843Y-62833589D01*
X75955014Y-63126535D01*
X76146244Y-63217585D01*
X76450204Y-63300303D01*
X76864296Y-63360590D01*
X77330258Y-63393817D01*
X77789826Y-63395356D01*
X78097747Y-63372631D01*
X78310497Y-63314935D01*
X78386500Y-63229342D01*
X78317343Y-63146686D01*
X78170535Y-63105945D01*
X78104182Y-63090717D01*
X78056083Y-63051602D01*
X78023302Y-62964706D01*
X78002906Y-62806132D01*
X77991958Y-62551986D01*
X77987524Y-62178370D01*
X77986668Y-61661391D01*
X77986666Y-61609000D01*
X77986729Y-61559611D01*
X77563333Y-61559611D01*
X77559764Y-62126174D01*
X77548244Y-62540552D01*
X77527556Y-62819761D01*
X77496484Y-62980816D01*
X77457500Y-63039340D01*
X77277379Y-63065927D01*
X76996943Y-63053212D01*
X76678407Y-63009396D01*
X76383991Y-62942679D01*
X76197630Y-62873293D01*
X75902217Y-62631745D01*
X75694386Y-62283813D01*
X75578605Y-61870642D01*
X75559343Y-61433382D01*
X75641067Y-61013178D01*
X75828246Y-60651178D01*
X75942476Y-60523462D01*
X76275743Y-60309968D01*
X76720731Y-60173348D01*
X77203500Y-60127806D01*
X77563333Y-60127334D01*
X77563333Y-61559611D01*
X77986729Y-61559611D01*
X77987350Y-61078457D01*
X77991358Y-60693351D01*
X78001624Y-60429787D01*
X78021085Y-60263869D01*
X78052674Y-60171701D01*
X78099328Y-60129388D01*
X78163981Y-60113034D01*
X78170535Y-60112055D01*
X78330579Y-60052080D01*
X78385530Y-59990348D01*
X78327463Y-59932473D01*
X78136851Y-59884369D01*
X77850308Y-59848121D01*
X77504449Y-59825818D01*
X77135888Y-59819545D01*
X76781239Y-59831389D01*
G37*
X76781239Y-59831389D02*
X76477115Y-59863438D01*
X76401424Y-59877259D01*
X75941791Y-60047977D01*
X75579731Y-60330873D01*
X75317359Y-60698260D01*
X75156790Y-61122454D01*
X75100139Y-61575769D01*
X75149521Y-62030520D01*
X75307051Y-62459022D01*
X75574843Y-62833589D01*
X75955014Y-63126535D01*
X76146244Y-63217585D01*
X76450204Y-63300303D01*
X76864296Y-63360590D01*
X77330258Y-63393817D01*
X77789826Y-63395356D01*
X78097747Y-63372631D01*
X78310497Y-63314935D01*
X78386500Y-63229342D01*
X78317343Y-63146686D01*
X78170535Y-63105945D01*
X78104182Y-63090717D01*
X78056083Y-63051602D01*
X78023302Y-62964706D01*
X78002906Y-62806132D01*
X77991958Y-62551986D01*
X77987524Y-62178370D01*
X77986668Y-61661391D01*
X77986666Y-61609000D01*
X77986729Y-61559611D01*
X77563333Y-61559611D01*
X77559764Y-62126174D01*
X77548244Y-62540552D01*
X77527556Y-62819761D01*
X77496484Y-62980816D01*
X77457500Y-63039340D01*
X77277379Y-63065927D01*
X76996943Y-63053212D01*
X76678407Y-63009396D01*
X76383991Y-62942679D01*
X76197630Y-62873293D01*
X75902217Y-62631745D01*
X75694386Y-62283813D01*
X75578605Y-61870642D01*
X75559343Y-61433382D01*
X75641067Y-61013178D01*
X75828246Y-60651178D01*
X75942476Y-60523462D01*
X76275743Y-60309968D01*
X76720731Y-60173348D01*
X77203500Y-60127806D01*
X77563333Y-60127334D01*
X77563333Y-61559611D01*
X77986729Y-61559611D01*
X77987350Y-61078457D01*
X77991358Y-60693351D01*
X78001624Y-60429787D01*
X78021085Y-60263869D01*
X78052674Y-60171701D01*
X78099328Y-60129388D01*
X78163981Y-60113034D01*
X78170535Y-60112055D01*
X78330579Y-60052080D01*
X78385530Y-59990348D01*
X78327463Y-59932473D01*
X78136851Y-59884369D01*
X77850308Y-59848121D01*
X77504449Y-59825818D01*
X77135888Y-59819545D01*
X76781239Y-59831389D01*
G36*
X103761697Y-61314317D02*
G01*
X103485607Y-61749797D01*
X103241183Y-62130194D01*
X103042197Y-62434497D01*
X102902421Y-62641696D01*
X102835628Y-62730777D01*
X102832136Y-62732484D01*
X102827526Y-62644515D01*
X102829092Y-62417078D01*
X102836276Y-62079903D01*
X102848519Y-61662722D01*
X102856743Y-61422797D01*
X102875753Y-60930039D01*
X102894433Y-60581110D01*
X102917006Y-60350571D01*
X102947699Y-60212978D01*
X102990736Y-60142889D01*
X103050342Y-60114864D01*
X103074681Y-60110464D01*
X103231098Y-60043629D01*
X103281257Y-59979167D01*
X103251482Y-59920503D01*
X103100352Y-59886692D01*
X102806701Y-59873768D01*
X102716389Y-59873334D01*
X102392201Y-59880654D01*
X102205828Y-59907002D01*
X102126208Y-59958954D01*
X102116666Y-60000334D01*
X102187253Y-60103762D01*
X102286000Y-60127334D01*
X102344811Y-60134259D01*
X102388153Y-60169956D01*
X102418383Y-60256806D01*
X102437857Y-60417191D01*
X102448930Y-60673493D01*
X102453958Y-61048094D01*
X102455298Y-61563375D01*
X102455333Y-61736000D01*
X102455333Y-63344667D01*
X102737801Y-63344667D01*
X102840653Y-63338866D01*
X102932320Y-63308583D01*
X103028941Y-63234502D01*
X103146652Y-63097304D01*
X103301590Y-62877671D01*
X103509893Y-62556285D01*
X103787699Y-62113828D01*
X103851736Y-62011167D01*
X104120769Y-61582058D01*
X104363741Y-61198950D01*
X104564724Y-60886608D01*
X104707788Y-60669795D01*
X104775768Y-60574613D01*
X104812243Y-60583646D01*
X104836096Y-60714973D01*
X104848038Y-60981249D01*
X104848777Y-61395127D01*
X104843080Y-61775760D01*
X104832439Y-62271535D01*
X104820223Y-62623376D01*
X104802521Y-62856666D01*
X104775423Y-62996787D01*
X104735017Y-63069123D01*
X104677393Y-63099056D01*
X104638045Y-63106480D01*
X104477993Y-63171882D01*
X104423409Y-63238834D01*
X104452305Y-63295584D01*
X104598997Y-63329266D01*
X104884814Y-63343556D01*
X105037666Y-63344667D01*
X105383179Y-63336908D01*
X105581293Y-63311183D01*
X105653340Y-63263815D01*
X105651924Y-63238834D01*
X105549222Y-63142820D01*
X105433201Y-63105945D01*
X105366848Y-63090717D01*
X105318749Y-63051602D01*
X105285969Y-62964706D01*
X105265573Y-62806132D01*
X105254625Y-62551986D01*
X105250191Y-62178370D01*
X105249335Y-61661391D01*
X105249333Y-61609000D01*
X105250017Y-61078457D01*
X105254024Y-60693351D01*
X105264291Y-60429787D01*
X105283751Y-60263869D01*
X105315341Y-60171701D01*
X105361995Y-60129388D01*
X105426648Y-60113034D01*
X105433201Y-60112055D01*
X105595074Y-60047323D01*
X105651924Y-59979167D01*
X105619927Y-59916333D01*
X105458548Y-59882578D01*
X105178214Y-59873334D01*
X104669649Y-59873334D01*
X103761697Y-61314317D01*
G37*
X103761697Y-61314317D02*
X103485607Y-61749797D01*
X103241183Y-62130194D01*
X103042197Y-62434497D01*
X102902421Y-62641696D01*
X102835628Y-62730777D01*
X102832136Y-62732484D01*
X102827526Y-62644515D01*
X102829092Y-62417078D01*
X102836276Y-62079903D01*
X102848519Y-61662722D01*
X102856743Y-61422797D01*
X102875753Y-60930039D01*
X102894433Y-60581110D01*
X102917006Y-60350571D01*
X102947699Y-60212978D01*
X102990736Y-60142889D01*
X103050342Y-60114864D01*
X103074681Y-60110464D01*
X103231098Y-60043629D01*
X103281257Y-59979167D01*
X103251482Y-59920503D01*
X103100352Y-59886692D01*
X102806701Y-59873768D01*
X102716389Y-59873334D01*
X102392201Y-59880654D01*
X102205828Y-59907002D01*
X102126208Y-59958954D01*
X102116666Y-60000334D01*
X102187253Y-60103762D01*
X102286000Y-60127334D01*
X102344811Y-60134259D01*
X102388153Y-60169956D01*
X102418383Y-60256806D01*
X102437857Y-60417191D01*
X102448930Y-60673493D01*
X102453958Y-61048094D01*
X102455298Y-61563375D01*
X102455333Y-61736000D01*
X102455333Y-63344667D01*
X102737801Y-63344667D01*
X102840653Y-63338866D01*
X102932320Y-63308583D01*
X103028941Y-63234502D01*
X103146652Y-63097304D01*
X103301590Y-62877671D01*
X103509893Y-62556285D01*
X103787699Y-62113828D01*
X103851736Y-62011167D01*
X104120769Y-61582058D01*
X104363741Y-61198950D01*
X104564724Y-60886608D01*
X104707788Y-60669795D01*
X104775768Y-60574613D01*
X104812243Y-60583646D01*
X104836096Y-60714973D01*
X104848038Y-60981249D01*
X104848777Y-61395127D01*
X104843080Y-61775760D01*
X104832439Y-62271535D01*
X104820223Y-62623376D01*
X104802521Y-62856666D01*
X104775423Y-62996787D01*
X104735017Y-63069123D01*
X104677393Y-63099056D01*
X104638045Y-63106480D01*
X104477993Y-63171882D01*
X104423409Y-63238834D01*
X104452305Y-63295584D01*
X104598997Y-63329266D01*
X104884814Y-63343556D01*
X105037666Y-63344667D01*
X105383179Y-63336908D01*
X105581293Y-63311183D01*
X105653340Y-63263815D01*
X105651924Y-63238834D01*
X105549222Y-63142820D01*
X105433201Y-63105945D01*
X105366848Y-63090717D01*
X105318749Y-63051602D01*
X105285969Y-62964706D01*
X105265573Y-62806132D01*
X105254625Y-62551986D01*
X105250191Y-62178370D01*
X105249335Y-61661391D01*
X105249333Y-61609000D01*
X105250017Y-61078457D01*
X105254024Y-60693351D01*
X105264291Y-60429787D01*
X105283751Y-60263869D01*
X105315341Y-60171701D01*
X105361995Y-60129388D01*
X105426648Y-60113034D01*
X105433201Y-60112055D01*
X105595074Y-60047323D01*
X105651924Y-59979167D01*
X105619927Y-59916333D01*
X105458548Y-59882578D01*
X105178214Y-59873334D01*
X104669649Y-59873334D01*
X103761697Y-61314317D01*
G36*
X100654355Y-59880851D02*
G01*
X100441976Y-59905448D01*
X100359380Y-59950196D01*
X100359055Y-59976831D01*
X100460143Y-60074027D01*
X100598944Y-60128739D01*
X100804333Y-60177148D01*
X100827452Y-61622934D01*
X100850571Y-63068719D01*
X100594619Y-63119910D01*
X100383653Y-63180308D01*
X100329168Y-63239656D01*
X100418409Y-63291262D01*
X100638617Y-63328434D01*
X100977036Y-63344479D01*
X101023055Y-63344667D01*
X101379624Y-63337449D01*
X101588727Y-63313478D01*
X101671713Y-63269275D01*
X101672693Y-63238834D01*
X101571418Y-63151439D01*
X101409663Y-63106019D01*
X101181384Y-63079038D01*
X101227666Y-60177148D01*
X101433056Y-60128739D01*
X101603591Y-60053931D01*
X101672945Y-59976831D01*
X101640895Y-59922324D01*
X101487569Y-59889307D01*
X101193482Y-59874711D01*
X101016000Y-59873334D01*
X100654355Y-59880851D01*
G37*
X100654355Y-59880851D02*
X100441976Y-59905448D01*
X100359380Y-59950196D01*
X100359055Y-59976831D01*
X100460143Y-60074027D01*
X100598944Y-60128739D01*
X100804333Y-60177148D01*
X100827452Y-61622934D01*
X100850571Y-63068719D01*
X100594619Y-63119910D01*
X100383653Y-63180308D01*
X100329168Y-63239656D01*
X100418409Y-63291262D01*
X100638617Y-63328434D01*
X100977036Y-63344479D01*
X101023055Y-63344667D01*
X101379624Y-63337449D01*
X101588727Y-63313478D01*
X101671713Y-63269275D01*
X101672693Y-63238834D01*
X101571418Y-63151439D01*
X101409663Y-63106019D01*
X101181384Y-63079038D01*
X101227666Y-60177148D01*
X101433056Y-60128739D01*
X101603591Y-60053931D01*
X101672945Y-59976831D01*
X101640895Y-59922324D01*
X101487569Y-59889307D01*
X101193482Y-59874711D01*
X101016000Y-59873334D01*
X100654355Y-59880851D01*
G36*
X96872355Y-59885868D02*
G01*
X96667443Y-59921623D01*
X96613333Y-59965927D01*
X96683800Y-60060489D01*
X96776219Y-60101115D01*
X96850899Y-60157638D01*
X96944612Y-60302634D01*
X97064830Y-60552318D01*
X97219029Y-60922906D01*
X97414682Y-61430614D01*
X97523754Y-61723022D01*
X97723714Y-62260975D01*
X97876333Y-62660868D01*
X97992568Y-62943622D01*
X98083375Y-63130161D01*
X98159708Y-63241406D01*
X98232525Y-63298279D01*
X98312780Y-63321702D01*
X98364159Y-63327917D01*
X98619915Y-63353500D01*
X99191362Y-61748094D01*
X99402680Y-61164739D01*
X99570605Y-60726630D01*
X99702399Y-60417433D01*
X99805324Y-60220814D01*
X99886639Y-60120439D01*
X99923737Y-60100604D01*
X100056598Y-60025355D01*
X100084666Y-59965927D01*
X100003482Y-59913325D01*
X99771900Y-59881688D01*
X99484944Y-59873334D01*
X99152555Y-59882479D01*
X98969674Y-59912229D01*
X98917346Y-59966055D01*
X98919721Y-59976831D01*
X99021783Y-60080145D01*
X99128928Y-60124998D01*
X99190307Y-60148370D01*
X99223738Y-60196220D01*
X99224292Y-60291683D01*
X99187040Y-60457897D01*
X99107054Y-60717998D01*
X98979403Y-61095123D01*
X98832125Y-61518155D01*
X98649095Y-62030593D01*
X98509796Y-62393484D01*
X98408601Y-62619259D01*
X98339881Y-62720351D01*
X98298008Y-62709192D01*
X98295515Y-62703488D01*
X98243467Y-62564933D01*
X98147601Y-62302495D01*
X98020854Y-61951831D01*
X97876163Y-61548597D01*
X97852360Y-61482000D01*
X97707010Y-61076214D01*
X97578596Y-60719763D01*
X97479697Y-60447418D01*
X97422891Y-60293949D01*
X97418346Y-60282237D01*
X97420050Y-60163938D01*
X97552728Y-60112904D01*
X97717453Y-60049158D01*
X97777924Y-59979167D01*
X97748149Y-59920503D01*
X97597019Y-59886692D01*
X97303368Y-59873768D01*
X97213055Y-59873334D01*
X96872355Y-59885868D01*
G37*
X96872355Y-59885868D02*
X96667443Y-59921623D01*
X96613333Y-59965927D01*
X96683800Y-60060489D01*
X96776219Y-60101115D01*
X96850899Y-60157638D01*
X96944612Y-60302634D01*
X97064830Y-60552318D01*
X97219029Y-60922906D01*
X97414682Y-61430614D01*
X97523754Y-61723022D01*
X97723714Y-62260975D01*
X97876333Y-62660868D01*
X97992568Y-62943622D01*
X98083375Y-63130161D01*
X98159708Y-63241406D01*
X98232525Y-63298279D01*
X98312780Y-63321702D01*
X98364159Y-63327917D01*
X98619915Y-63353500D01*
X99191362Y-61748094D01*
X99402680Y-61164739D01*
X99570605Y-60726630D01*
X99702399Y-60417433D01*
X99805324Y-60220814D01*
X99886639Y-60120439D01*
X99923737Y-60100604D01*
X100056598Y-60025355D01*
X100084666Y-59965927D01*
X100003482Y-59913325D01*
X99771900Y-59881688D01*
X99484944Y-59873334D01*
X99152555Y-59882479D01*
X98969674Y-59912229D01*
X98917346Y-59966055D01*
X98919721Y-59976831D01*
X99021783Y-60080145D01*
X99128928Y-60124998D01*
X99190307Y-60148370D01*
X99223738Y-60196220D01*
X99224292Y-60291683D01*
X99187040Y-60457897D01*
X99107054Y-60717998D01*
X98979403Y-61095123D01*
X98832125Y-61518155D01*
X98649095Y-62030593D01*
X98509796Y-62393484D01*
X98408601Y-62619259D01*
X98339881Y-62720351D01*
X98298008Y-62709192D01*
X98295515Y-62703488D01*
X98243467Y-62564933D01*
X98147601Y-62302495D01*
X98020854Y-61951831D01*
X97876163Y-61548597D01*
X97852360Y-61482000D01*
X97707010Y-61076214D01*
X97578596Y-60719763D01*
X97479697Y-60447418D01*
X97422891Y-60293949D01*
X97418346Y-60282237D01*
X97420050Y-60163938D01*
X97552728Y-60112904D01*
X97717453Y-60049158D01*
X97777924Y-59979167D01*
X97748149Y-59920503D01*
X97597019Y-59886692D01*
X97303368Y-59873768D01*
X97213055Y-59873334D01*
X96872355Y-59885868D01*
G36*
X94073333Y-60254334D02*
G01*
X94084858Y-60493219D01*
X94131589Y-60606062D01*
X94231761Y-60635303D01*
X94237043Y-60635334D01*
X94372815Y-60575172D01*
X94427543Y-60402500D01*
X94452045Y-60273445D01*
X94515641Y-60203829D01*
X94660381Y-60175343D01*
X94928315Y-60169682D01*
X94962333Y-60169667D01*
X95470333Y-60169667D01*
X95495209Y-60783500D01*
X95520085Y-61397334D01*
X95102917Y-61397334D01*
X94843101Y-61385417D01*
X94705665Y-61338420D01*
X94644638Y-61239473D01*
X94641468Y-61228000D01*
X94548822Y-61090300D01*
X94462260Y-61058667D01*
X94384939Y-61091634D01*
X94343269Y-61213528D01*
X94328091Y-61458835D01*
X94327333Y-61566667D01*
X94336089Y-61857781D01*
X94368465Y-62014668D01*
X94433619Y-62071812D01*
X94462260Y-62074667D01*
X94590568Y-62003588D01*
X94641468Y-61905334D01*
X94698092Y-61801120D01*
X94827199Y-61750324D01*
X95074766Y-61736068D01*
X95102769Y-61736000D01*
X95519789Y-61736000D01*
X95470333Y-63048334D01*
X94962333Y-63048334D01*
X94680250Y-63043909D01*
X94525428Y-63018432D01*
X94455818Y-62953595D01*
X94429371Y-62831091D01*
X94427543Y-62815500D01*
X94364156Y-62632245D01*
X94237043Y-62582667D01*
X94134398Y-62609488D01*
X94085911Y-62718245D01*
X94073346Y-62951376D01*
X94073333Y-62963667D01*
X94073333Y-63344667D01*
X95223389Y-63344667D01*
X95705378Y-63341008D01*
X96037604Y-63328800D01*
X96239504Y-63306201D01*
X96330514Y-63271364D01*
X96338693Y-63238834D01*
X96237418Y-63151439D01*
X96075663Y-63106019D01*
X95847384Y-63079038D01*
X95893666Y-60177148D01*
X96099056Y-60128739D01*
X96269591Y-60053931D01*
X96338945Y-59976831D01*
X96310416Y-59933027D01*
X96178597Y-59902533D01*
X95925162Y-59883647D01*
X95531789Y-59874670D01*
X95223389Y-59873334D01*
X94073333Y-59873334D01*
X94073333Y-60254334D01*
G37*
X94073333Y-60254334D02*
X94084858Y-60493219D01*
X94131589Y-60606062D01*
X94231761Y-60635303D01*
X94237043Y-60635334D01*
X94372815Y-60575172D01*
X94427543Y-60402500D01*
X94452045Y-60273445D01*
X94515641Y-60203829D01*
X94660381Y-60175343D01*
X94928315Y-60169682D01*
X94962333Y-60169667D01*
X95470333Y-60169667D01*
X95495209Y-60783500D01*
X95520085Y-61397334D01*
X95102917Y-61397334D01*
X94843101Y-61385417D01*
X94705665Y-61338420D01*
X94644638Y-61239473D01*
X94641468Y-61228000D01*
X94548822Y-61090300D01*
X94462260Y-61058667D01*
X94384939Y-61091634D01*
X94343269Y-61213528D01*
X94328091Y-61458835D01*
X94327333Y-61566667D01*
X94336089Y-61857781D01*
X94368465Y-62014668D01*
X94433619Y-62071812D01*
X94462260Y-62074667D01*
X94590568Y-62003588D01*
X94641468Y-61905334D01*
X94698092Y-61801120D01*
X94827199Y-61750324D01*
X95074766Y-61736068D01*
X95102769Y-61736000D01*
X95519789Y-61736000D01*
X95470333Y-63048334D01*
X94962333Y-63048334D01*
X94680250Y-63043909D01*
X94525428Y-63018432D01*
X94455818Y-62953595D01*
X94429371Y-62831091D01*
X94427543Y-62815500D01*
X94364156Y-62632245D01*
X94237043Y-62582667D01*
X94134398Y-62609488D01*
X94085911Y-62718245D01*
X94073346Y-62951376D01*
X94073333Y-62963667D01*
X94073333Y-63344667D01*
X95223389Y-63344667D01*
X95705378Y-63341008D01*
X96037604Y-63328800D01*
X96239504Y-63306201D01*
X96330514Y-63271364D01*
X96338693Y-63238834D01*
X96237418Y-63151439D01*
X96075663Y-63106019D01*
X95847384Y-63079038D01*
X95893666Y-60177148D01*
X96099056Y-60128739D01*
X96269591Y-60053931D01*
X96338945Y-59976831D01*
X96310416Y-59933027D01*
X96178597Y-59902533D01*
X95925162Y-59883647D01*
X95531789Y-59874670D01*
X95223389Y-59873334D01*
X94073333Y-59873334D01*
X94073333Y-60254334D01*
G36*
X91972333Y-59834053D02*
G01*
X91787333Y-59862752D01*
X91400563Y-60016754D01*
X91145680Y-60268769D01*
X91031117Y-60609329D01*
X91025333Y-60718225D01*
X91099980Y-61063049D01*
X91297495Y-61368177D01*
X91578237Y-61580851D01*
X91710083Y-61629565D01*
X91888575Y-61700001D01*
X91968600Y-61778334D01*
X91928801Y-61882471D01*
X91813005Y-62087659D01*
X91642871Y-62356611D01*
X91566037Y-62471366D01*
X91316066Y-62813294D01*
X91120954Y-63018381D01*
X90964341Y-63103411D01*
X90947196Y-63106366D01*
X90776107Y-63165680D01*
X90707307Y-63238834D01*
X90742826Y-63306894D01*
X90918142Y-63339810D01*
X91091757Y-63344667D01*
X91510959Y-63344667D01*
X92041333Y-62540334D01*
X92254115Y-62221533D01*
X92431895Y-61962490D01*
X92554974Y-61791425D01*
X92602854Y-61736000D01*
X92617376Y-61813954D01*
X92628285Y-62020984D01*
X92633715Y-62316842D01*
X92634000Y-62407445D01*
X92630528Y-62743570D01*
X92613805Y-62946340D01*
X92574371Y-63051693D01*
X92502768Y-63095565D01*
X92450132Y-63105945D01*
X92288259Y-63170678D01*
X92231409Y-63238834D01*
X92260305Y-63295584D01*
X92406997Y-63329266D01*
X92692814Y-63343556D01*
X92845666Y-63344667D01*
X93191179Y-63336908D01*
X93389293Y-63311183D01*
X93461340Y-63263815D01*
X93459924Y-63238834D01*
X93357222Y-63142820D01*
X93241201Y-63105945D01*
X93174848Y-63090717D01*
X93126749Y-63051602D01*
X93093969Y-62964706D01*
X93073573Y-62806132D01*
X93062625Y-62551986D01*
X93058191Y-62178370D01*
X93057335Y-61661391D01*
X93057333Y-61609000D01*
X93058017Y-61078457D01*
X93062024Y-60693351D01*
X93072291Y-60429787D01*
X93091751Y-60263869D01*
X93123341Y-60171701D01*
X93169995Y-60129388D01*
X93178115Y-60127334D01*
X92634000Y-60127334D01*
X92634000Y-60748222D01*
X92626056Y-61058952D01*
X92605114Y-61300927D01*
X92575504Y-61426538D01*
X92571850Y-61431261D01*
X92442616Y-61461879D01*
X92220664Y-61438256D01*
X91968900Y-61372892D01*
X91750231Y-61278291D01*
X91725177Y-61262999D01*
X91534898Y-61053661D01*
X91468073Y-60787767D01*
X91519237Y-60518135D01*
X91682921Y-60297584D01*
X91834138Y-60210300D01*
X92078114Y-60150988D01*
X92343178Y-60127334D01*
X92634000Y-60127334D01*
X93178115Y-60127334D01*
X93234648Y-60113034D01*
X93241201Y-60112055D01*
X93401575Y-60051225D01*
X93456868Y-59988333D01*
X93399307Y-59929893D01*
X93212498Y-59880534D01*
X92936419Y-59843264D01*
X92611047Y-59821089D01*
X92276359Y-59817016D01*
X91972333Y-59834053D01*
G37*
X91972333Y-59834053D02*
X91787333Y-59862752D01*
X91400563Y-60016754D01*
X91145680Y-60268769D01*
X91031117Y-60609329D01*
X91025333Y-60718225D01*
X91099980Y-61063049D01*
X91297495Y-61368177D01*
X91578237Y-61580851D01*
X91710083Y-61629565D01*
X91888575Y-61700001D01*
X91968600Y-61778334D01*
X91928801Y-61882471D01*
X91813005Y-62087659D01*
X91642871Y-62356611D01*
X91566037Y-62471366D01*
X91316066Y-62813294D01*
X91120954Y-63018381D01*
X90964341Y-63103411D01*
X90947196Y-63106366D01*
X90776107Y-63165680D01*
X90707307Y-63238834D01*
X90742826Y-63306894D01*
X90918142Y-63339810D01*
X91091757Y-63344667D01*
X91510959Y-63344667D01*
X92041333Y-62540334D01*
X92254115Y-62221533D01*
X92431895Y-61962490D01*
X92554974Y-61791425D01*
X92602854Y-61736000D01*
X92617376Y-61813954D01*
X92628285Y-62020984D01*
X92633715Y-62316842D01*
X92634000Y-62407445D01*
X92630528Y-62743570D01*
X92613805Y-62946340D01*
X92574371Y-63051693D01*
X92502768Y-63095565D01*
X92450132Y-63105945D01*
X92288259Y-63170678D01*
X92231409Y-63238834D01*
X92260305Y-63295584D01*
X92406997Y-63329266D01*
X92692814Y-63343556D01*
X92845666Y-63344667D01*
X93191179Y-63336908D01*
X93389293Y-63311183D01*
X93461340Y-63263815D01*
X93459924Y-63238834D01*
X93357222Y-63142820D01*
X93241201Y-63105945D01*
X93174848Y-63090717D01*
X93126749Y-63051602D01*
X93093969Y-62964706D01*
X93073573Y-62806132D01*
X93062625Y-62551986D01*
X93058191Y-62178370D01*
X93057335Y-61661391D01*
X93057333Y-61609000D01*
X93058017Y-61078457D01*
X93062024Y-60693351D01*
X93072291Y-60429787D01*
X93091751Y-60263869D01*
X93123341Y-60171701D01*
X93169995Y-60129388D01*
X93178115Y-60127334D01*
X92634000Y-60127334D01*
X92634000Y-60748222D01*
X92626056Y-61058952D01*
X92605114Y-61300927D01*
X92575504Y-61426538D01*
X92571850Y-61431261D01*
X92442616Y-61461879D01*
X92220664Y-61438256D01*
X91968900Y-61372892D01*
X91750231Y-61278291D01*
X91725177Y-61262999D01*
X91534898Y-61053661D01*
X91468073Y-60787767D01*
X91519237Y-60518135D01*
X91682921Y-60297584D01*
X91834138Y-60210300D01*
X92078114Y-60150988D01*
X92343178Y-60127334D01*
X92634000Y-60127334D01*
X93178115Y-60127334D01*
X93234648Y-60113034D01*
X93241201Y-60112055D01*
X93401575Y-60051225D01*
X93456868Y-59988333D01*
X93399307Y-59929893D01*
X93212498Y-59880534D01*
X92936419Y-59843264D01*
X92611047Y-59821089D01*
X92276359Y-59817016D01*
X91972333Y-59834053D01*
G36*
X86602595Y-59880451D02*
G01*
X86391339Y-59904095D01*
X86306221Y-59947706D01*
X86304640Y-59979167D01*
X86405970Y-60066834D01*
X86565696Y-60111791D01*
X86792000Y-60138581D01*
X86792000Y-63069500D01*
X86538000Y-63120300D01*
X86327962Y-63180541D01*
X86274293Y-63239787D01*
X86364129Y-63291332D01*
X86584600Y-63328466D01*
X86922841Y-63344482D01*
X86968389Y-63344667D01*
X87324921Y-63337454D01*
X87533994Y-63313494D01*
X87616961Y-63269309D01*
X87617924Y-63238834D01*
X87515222Y-63142820D01*
X87399201Y-63105945D01*
X87332848Y-63090717D01*
X87284749Y-63051602D01*
X87251969Y-62964706D01*
X87231573Y-62806132D01*
X87220625Y-62551986D01*
X87216191Y-62178370D01*
X87215335Y-61661391D01*
X87215333Y-61609000D01*
X87216017Y-61078457D01*
X87220024Y-60693351D01*
X87230291Y-60429787D01*
X87249751Y-60263869D01*
X87281341Y-60171701D01*
X87327995Y-60129388D01*
X87392648Y-60113034D01*
X87399201Y-60112055D01*
X87561074Y-60047323D01*
X87617924Y-59979167D01*
X87589653Y-59923905D01*
X87446293Y-59890383D01*
X87166493Y-59875160D01*
X86961333Y-59873334D01*
X86602595Y-59880451D01*
G37*
X86602595Y-59880451D02*
X86391339Y-59904095D01*
X86306221Y-59947706D01*
X86304640Y-59979167D01*
X86405970Y-60066834D01*
X86565696Y-60111791D01*
X86792000Y-60138581D01*
X86792000Y-63069500D01*
X86538000Y-63120300D01*
X86327962Y-63180541D01*
X86274293Y-63239787D01*
X86364129Y-63291332D01*
X86584600Y-63328466D01*
X86922841Y-63344482D01*
X86968389Y-63344667D01*
X87324921Y-63337454D01*
X87533994Y-63313494D01*
X87616961Y-63269309D01*
X87617924Y-63238834D01*
X87515222Y-63142820D01*
X87399201Y-63105945D01*
X87332848Y-63090717D01*
X87284749Y-63051602D01*
X87251969Y-62964706D01*
X87231573Y-62806132D01*
X87220625Y-62551986D01*
X87216191Y-62178370D01*
X87215335Y-61661391D01*
X87215333Y-61609000D01*
X87216017Y-61078457D01*
X87220024Y-60693351D01*
X87230291Y-60429787D01*
X87249751Y-60263869D01*
X87281341Y-60171701D01*
X87327995Y-60129388D01*
X87392648Y-60113034D01*
X87399201Y-60112055D01*
X87561074Y-60047323D01*
X87617924Y-59979167D01*
X87589653Y-59923905D01*
X87446293Y-59890383D01*
X87166493Y-59875160D01*
X86961333Y-59873334D01*
X86602595Y-59880451D01*
G36*
X80392931Y-59877089D02*
G01*
X80319274Y-59901278D01*
X80249429Y-59966635D01*
X80172615Y-60093584D01*
X80078049Y-60302546D01*
X79954952Y-60613947D01*
X79792541Y-61048208D01*
X79634514Y-61477523D01*
X79421653Y-62048180D01*
X79253954Y-62475761D01*
X79123274Y-62777915D01*
X79021467Y-62972288D01*
X78940388Y-63076530D01*
X78882298Y-63107357D01*
X78730030Y-63177134D01*
X78684743Y-63238834D01*
X78713639Y-63295584D01*
X78860330Y-63329266D01*
X79146147Y-63343556D01*
X79299000Y-63344667D01*
X79644512Y-63336908D01*
X79842626Y-63311183D01*
X79914673Y-63263815D01*
X79913257Y-63238834D01*
X79810555Y-63142820D01*
X79694535Y-63105945D01*
X79565735Y-63084509D01*
X79522531Y-63037837D01*
X79551255Y-62914628D01*
X79603616Y-62764634D01*
X79696565Y-62498000D01*
X80479025Y-62498000D01*
X80847495Y-62500324D01*
X81083012Y-62513232D01*
X81221947Y-62545630D01*
X81300674Y-62606425D01*
X81355564Y-62704522D01*
X81359743Y-62713651D01*
X81442493Y-62929389D01*
X81426216Y-63046345D01*
X81297953Y-63111565D01*
X81246333Y-63125435D01*
X81064776Y-63192271D01*
X81039105Y-63255132D01*
X81155914Y-63306304D01*
X81401797Y-63338074D01*
X81627333Y-63344667D01*
X81964934Y-63331998D01*
X82167548Y-63295921D01*
X82220000Y-63252074D01*
X82149963Y-63155737D01*
X82068788Y-63119938D01*
X81991931Y-63050586D01*
X81886520Y-62868233D01*
X81747165Y-62560926D01*
X81568476Y-62116711D01*
X81556294Y-62084370D01*
X81119333Y-62084370D01*
X81041559Y-62120058D01*
X80835694Y-62146527D01*
X80542923Y-62158956D01*
X80478628Y-62159334D01*
X80154887Y-62156963D01*
X79968392Y-62142838D01*
X79887061Y-62106438D01*
X79878811Y-62037242D01*
X79897711Y-61968834D01*
X79954296Y-61804829D01*
X80053586Y-61531909D01*
X80177596Y-61199242D01*
X80226690Y-61069420D01*
X80495879Y-60360506D01*
X80807606Y-61184957D01*
X80937134Y-61534349D01*
X81040353Y-61825751D01*
X81104502Y-62022344D01*
X81119333Y-62084370D01*
X81556294Y-62084370D01*
X81345063Y-61523637D01*
X81327954Y-61477175D01*
X81127977Y-60934988D01*
X80975606Y-60531311D01*
X80860049Y-60245708D01*
X80770516Y-60057744D01*
X80696216Y-59946985D01*
X80626356Y-59892995D01*
X80550147Y-59875338D01*
X80481181Y-59873645D01*
X80392931Y-59877089D01*
G37*
X80392931Y-59877089D02*
X80319274Y-59901278D01*
X80249429Y-59966635D01*
X80172615Y-60093584D01*
X80078049Y-60302546D01*
X79954952Y-60613947D01*
X79792541Y-61048208D01*
X79634514Y-61477523D01*
X79421653Y-62048180D01*
X79253954Y-62475761D01*
X79123274Y-62777915D01*
X79021467Y-62972288D01*
X78940388Y-63076530D01*
X78882298Y-63107357D01*
X78730030Y-63177134D01*
X78684743Y-63238834D01*
X78713639Y-63295584D01*
X78860330Y-63329266D01*
X79146147Y-63343556D01*
X79299000Y-63344667D01*
X79644512Y-63336908D01*
X79842626Y-63311183D01*
X79914673Y-63263815D01*
X79913257Y-63238834D01*
X79810555Y-63142820D01*
X79694535Y-63105945D01*
X79565735Y-63084509D01*
X79522531Y-63037837D01*
X79551255Y-62914628D01*
X79603616Y-62764634D01*
X79696565Y-62498000D01*
X80479025Y-62498000D01*
X80847495Y-62500324D01*
X81083012Y-62513232D01*
X81221947Y-62545630D01*
X81300674Y-62606425D01*
X81355564Y-62704522D01*
X81359743Y-62713651D01*
X81442493Y-62929389D01*
X81426216Y-63046345D01*
X81297953Y-63111565D01*
X81246333Y-63125435D01*
X81064776Y-63192271D01*
X81039105Y-63255132D01*
X81155914Y-63306304D01*
X81401797Y-63338074D01*
X81627333Y-63344667D01*
X81964934Y-63331998D01*
X82167548Y-63295921D01*
X82220000Y-63252074D01*
X82149963Y-63155737D01*
X82068788Y-63119938D01*
X81991931Y-63050586D01*
X81886520Y-62868233D01*
X81747165Y-62560926D01*
X81568476Y-62116711D01*
X81556294Y-62084370D01*
X81119333Y-62084370D01*
X81041559Y-62120058D01*
X80835694Y-62146527D01*
X80542923Y-62158956D01*
X80478628Y-62159334D01*
X80154887Y-62156963D01*
X79968392Y-62142838D01*
X79887061Y-62106438D01*
X79878811Y-62037242D01*
X79897711Y-61968834D01*
X79954296Y-61804829D01*
X80053586Y-61531909D01*
X80177596Y-61199242D01*
X80226690Y-61069420D01*
X80495879Y-60360506D01*
X80807606Y-61184957D01*
X80937134Y-61534349D01*
X81040353Y-61825751D01*
X81104502Y-62022344D01*
X81119333Y-62084370D01*
X81556294Y-62084370D01*
X81345063Y-61523637D01*
X81327954Y-61477175D01*
X81127977Y-60934988D01*
X80975606Y-60531311D01*
X80860049Y-60245708D01*
X80770516Y-60057744D01*
X80696216Y-59946985D01*
X80626356Y-59892995D01*
X80550147Y-59875338D01*
X80481181Y-59873645D01*
X80392931Y-59877089D01*
G36*
X72398666Y-60254334D02*
G01*
X72430064Y-60508830D01*
X72506309Y-60637018D01*
X72600483Y-60627835D01*
X72685666Y-60470218D01*
X72707700Y-60381334D01*
X72745061Y-60239435D01*
X72814144Y-60163575D01*
X72959532Y-60133096D01*
X73225807Y-60127344D01*
X73255916Y-60127334D01*
X73753333Y-60127334D01*
X73753333Y-61397334D01*
X73364407Y-61397334D01*
X73113939Y-61383346D01*
X72984268Y-61329103D01*
X72931199Y-61228000D01*
X72846151Y-61090403D01*
X72769792Y-61058667D01*
X72700057Y-61108424D01*
X72663034Y-61275137D01*
X72652666Y-61566667D01*
X72662420Y-61861639D01*
X72696995Y-62020009D01*
X72764364Y-62073665D01*
X72779666Y-62074667D01*
X72883095Y-62004081D01*
X72906666Y-61905334D01*
X72928955Y-61803767D01*
X73023557Y-61753111D01*
X73232083Y-61736725D01*
X73330000Y-61736000D01*
X73753333Y-61736000D01*
X73753333Y-63090667D01*
X73255916Y-63090667D01*
X72977115Y-63086081D01*
X72823049Y-63058551D01*
X72749137Y-62987423D01*
X72710796Y-62852041D01*
X72707700Y-62836667D01*
X72631654Y-62626326D01*
X72537509Y-62568161D01*
X72452184Y-62651110D01*
X72402600Y-62864110D01*
X72398666Y-62963667D01*
X72398666Y-63344667D01*
X73506389Y-63344667D01*
X73978131Y-63340832D01*
X74300339Y-63328037D01*
X74492665Y-63304341D01*
X74574761Y-63267807D01*
X74579257Y-63238834D01*
X74476555Y-63142820D01*
X74360535Y-63105945D01*
X74294182Y-63090717D01*
X74246083Y-63051602D01*
X74213302Y-62964706D01*
X74192906Y-62806132D01*
X74181958Y-62551986D01*
X74177524Y-62178370D01*
X74176668Y-61661391D01*
X74176666Y-61609000D01*
X74177350Y-61078457D01*
X74181358Y-60693351D01*
X74191624Y-60429787D01*
X74211085Y-60263869D01*
X74242674Y-60171701D01*
X74289328Y-60129388D01*
X74353981Y-60113034D01*
X74360535Y-60112055D01*
X74522407Y-60047323D01*
X74579257Y-59979167D01*
X74554007Y-59933975D01*
X74430350Y-59902788D01*
X74188635Y-59883668D01*
X73809208Y-59874675D01*
X73506389Y-59873334D01*
X72398666Y-59873334D01*
X72398666Y-60254334D01*
G37*
X72398666Y-60254334D02*
X72430064Y-60508830D01*
X72506309Y-60637018D01*
X72600483Y-60627835D01*
X72685666Y-60470218D01*
X72707700Y-60381334D01*
X72745061Y-60239435D01*
X72814144Y-60163575D01*
X72959532Y-60133096D01*
X73225807Y-60127344D01*
X73255916Y-60127334D01*
X73753333Y-60127334D01*
X73753333Y-61397334D01*
X73364407Y-61397334D01*
X73113939Y-61383346D01*
X72984268Y-61329103D01*
X72931199Y-61228000D01*
X72846151Y-61090403D01*
X72769792Y-61058667D01*
X72700057Y-61108424D01*
X72663034Y-61275137D01*
X72652666Y-61566667D01*
X72662420Y-61861639D01*
X72696995Y-62020009D01*
X72764364Y-62073665D01*
X72779666Y-62074667D01*
X72883095Y-62004081D01*
X72906666Y-61905334D01*
X72928955Y-61803767D01*
X73023557Y-61753111D01*
X73232083Y-61736725D01*
X73330000Y-61736000D01*
X73753333Y-61736000D01*
X73753333Y-63090667D01*
X73255916Y-63090667D01*
X72977115Y-63086081D01*
X72823049Y-63058551D01*
X72749137Y-62987423D01*
X72710796Y-62852041D01*
X72707700Y-62836667D01*
X72631654Y-62626326D01*
X72537509Y-62568161D01*
X72452184Y-62651110D01*
X72402600Y-62864110D01*
X72398666Y-62963667D01*
X72398666Y-63344667D01*
X73506389Y-63344667D01*
X73978131Y-63340832D01*
X74300339Y-63328037D01*
X74492665Y-63304341D01*
X74574761Y-63267807D01*
X74579257Y-63238834D01*
X74476555Y-63142820D01*
X74360535Y-63105945D01*
X74294182Y-63090717D01*
X74246083Y-63051602D01*
X74213302Y-62964706D01*
X74192906Y-62806132D01*
X74181958Y-62551986D01*
X74177524Y-62178370D01*
X74176668Y-61661391D01*
X74176666Y-61609000D01*
X74177350Y-61078457D01*
X74181358Y-60693351D01*
X74191624Y-60429787D01*
X74211085Y-60263869D01*
X74242674Y-60171701D01*
X74289328Y-60129388D01*
X74353981Y-60113034D01*
X74360535Y-60112055D01*
X74522407Y-60047323D01*
X74579257Y-59979167D01*
X74554007Y-59933975D01*
X74430350Y-59902788D01*
X74188635Y-59883668D01*
X73809208Y-59874675D01*
X73506389Y-59873334D01*
X72398666Y-59873334D01*
X72398666Y-60254334D01*
M02*
