M48
; DRILL file {KiCad (5.1.12-1-10_14)} date 2021 December 30, Thursday 00:25:36
; FORMAT={-:-/ absolute / inch / decimal}
; #@! TF.CreationDate,2021-12-30T00:25:36+00:00
; #@! TF.GenerationSoftware,Kicad,Pcbnew,(5.1.12-1-10_14)
; #@! TF.FileFunction,Plated,1,2,PTH
FMAT,2
INCH
T1C0.0157
T2C0.0276
T3C0.0295
T4C0.0315
T5C0.0354
T6C0.0394
%
G90
G05
T1
X1.0925Y-1.715
X1.295Y-3.5975
X1.295Y-4.075
X1.2979Y-3.1756
X1.3425Y-4.6025
X1.345Y-3.0225
X1.395Y-1.94
X1.495Y-2.8075
X1.54Y-3.3375
X1.5775Y-3.1175
X1.5775Y-3.91
X1.65Y-1.775
X1.8067Y-3.7331
X1.975Y-3.65
X2.0625Y-3.8125
X2.13Y-2.18
X2.1525Y-2.935
X2.2625Y-1.9325
X2.3744Y-5.0898
X2.4525Y-3.7725
X2.525Y-1.65
X2.5327Y-4.7283
X2.63Y-3.9625
X2.7154Y-4.1102
X2.7382Y-3.8181
X2.7461Y-4.278
X2.75Y-1.6
X2.7815Y-4.0512
X2.8118Y-4.5331
X2.8567Y-4.0528
X2.8585Y-2.4402
X2.9988Y-4.6823
X3.0604Y-2.7104
X3.0896Y-2.7396
X3.09Y-1.6575
X3.1538Y-2.8913
X3.165Y-1.8575
X3.165Y-1.9325
X3.165Y-2.0575
X3.25Y-3.75
X3.2508Y-3.9317
X3.2553Y-4.0203
X3.2953Y-3.8317
X3.325Y-3.475
X3.331Y-4.176
X3.34Y-1.8825
X3.3575Y-2.8581
X3.3598Y-5.0398
X3.5125Y-2.585
X3.5276Y-2.7323
X3.56Y-4.1075
X3.5723Y-3.8223
X3.575Y-2.675
X3.6Y-3.075
X3.64Y-1.9575
X3.6475Y-2.215
X3.65Y-2.9
X3.7125Y-3.875
X3.7591Y-5.0394
X3.8185Y-4.3587
X3.8752Y-4.6291
X3.89Y-1.9075
X3.9922Y-1.5553
X4.03Y-3.6075
X4.1346Y-4.9335
X4.2016Y-4.2673
X4.22Y-2.61
X4.3199Y-4.2609
X4.365Y-1.5075
X4.39Y-1.7575
X4.404Y-3.271
X4.4307Y-5.4528
X4.5834Y-3.957
X4.6294Y-1.7681
X4.7319Y-5.7346
X5.25Y-3.35
X5.94Y-1.7825
X6.0Y-3.3
X6.0Y-3.55
X6.65Y-2.85
X6.65Y-3.075
X6.65Y-3.3
X6.65Y-3.55
X6.65Y-3.8
T2
X4.1408Y-2.2075
X4.2392Y-2.2075
T3
X4.5506Y-2.2075
X4.6294Y-2.2075
T4
X3.1396Y-3.076
X3.1396Y-3.176
X3.1396Y-3.276
X3.1396Y-3.376
X3.1396Y-3.476
X3.1396Y-3.576
X3.1396Y-3.676
X3.1396Y-3.776
X3.1396Y-3.876
X3.1396Y-3.976
X3.1396Y-4.076
X3.1396Y-4.176
X3.1396Y-4.276
X3.1396Y-4.376
X3.4396Y-3.076
X3.4396Y-3.176
X3.4396Y-3.276
X3.4396Y-3.376
X3.4396Y-3.476
X3.4396Y-3.576
X3.4396Y-3.676
X3.4396Y-3.776
X3.4396Y-3.876
X3.4396Y-3.976
X3.4396Y-4.076
X3.4396Y-4.176
X3.4396Y-4.276
X3.4396Y-4.376
T5
X4.2931Y-1.3362
X4.49Y-1.1945
X4.6869Y-1.3362
X5.3931Y-1.3362
X5.59Y-1.1945
X5.7869Y-1.3362
T6
X1.14Y-3.075
X1.14Y-3.175
X1.14Y-3.975
X1.14Y-4.075
X1.6579Y-4.8071
X1.6579Y-4.9071
X1.6583Y-5.2484
X1.6583Y-5.3484
X2.1429Y-4.8075
X2.1429Y-4.9075
X2.1429Y-5.2476
X2.1429Y-5.3476
X2.465Y-1.8325
X2.465Y-1.9325
X2.465Y-2.0325
X2.565Y-1.8325
X2.565Y-1.9325
X2.565Y-2.0325
X2.628Y-4.287
X2.628Y-4.387
X2.6343Y-5.037
X2.6343Y-5.137
X3.0886Y-5.039
X3.0886Y-5.139
X3.89Y-1.612
X3.89Y-1.712
X4.1175Y-1.6075
X4.1175Y-1.7075
X4.1175Y-1.8075
X6.2713Y-5.4744
X6.2713Y-5.5744
T0
M30
