%FSLAX45Y45*%
G04 Gerber Fmt 4.5, Leading zero omitted, Abs format (unit mm)*
G04 Created by KiCad (PCBNEW (5.1.12-1-10_14)) date 2021-12-30 00:25:39*
%MOMM*%
%LPD*%
G01*
G04 APERTURE LIST*
%ADD10C,0.200000*%
%ADD11C,0.300000*%
G04 APERTURE END LIST*
D10*
X2754950Y-4336100D02*
X2794950Y-4376100D01*
X2794950Y-4336100D02*
X2754950Y-4376100D01*
X3269300Y-9117650D02*
X3309300Y-9157650D01*
X3309300Y-9117650D02*
X3269300Y-9157650D01*
X3269300Y-10330500D02*
X3309300Y-10370500D01*
X3309300Y-10330500D02*
X3269300Y-10370500D01*
X3276600Y-8046050D02*
X3316600Y-8086050D01*
X3316600Y-8046050D02*
X3276600Y-8086050D01*
X3389950Y-11670350D02*
X3429950Y-11710350D01*
X3429950Y-11670350D02*
X3389950Y-11710350D01*
X3396300Y-7657150D02*
X3436300Y-7697150D01*
X3436300Y-7657150D02*
X3396300Y-7697150D01*
X3523300Y-4907600D02*
X3563300Y-4947600D01*
X3563300Y-4907600D02*
X3523300Y-4947600D01*
X3777300Y-7111050D02*
X3817300Y-7151050D01*
X3817300Y-7111050D02*
X3777300Y-7151050D01*
X3891600Y-8457250D02*
X3931600Y-8497250D01*
X3931600Y-8457250D02*
X3891600Y-8497250D01*
X3986850Y-7898450D02*
X4026850Y-7938450D01*
X4026850Y-7898450D02*
X3986850Y-7938450D01*
X3986850Y-9911400D02*
X4026850Y-9951400D01*
X4026850Y-9911400D02*
X3986850Y-9951400D01*
X4171000Y-4488500D02*
X4211000Y-4528500D01*
X4211000Y-4488500D02*
X4171000Y-4528500D01*
X4569000Y-9462000D02*
X4609000Y-9502000D01*
X4609000Y-9462000D02*
X4569000Y-9502000D01*
X4996500Y-9251000D02*
X5036500Y-9291000D01*
X5036500Y-9251000D02*
X4996500Y-9291000D01*
X5218750Y-9663750D02*
X5258750Y-9703750D01*
X5258750Y-9663750D02*
X5218750Y-9703750D01*
X5390200Y-5517200D02*
X5430200Y-5557200D01*
X5430200Y-5517200D02*
X5390200Y-5557200D01*
X5447350Y-7434900D02*
X5487350Y-7474900D01*
X5487350Y-7434900D02*
X5447350Y-7474900D01*
X5726750Y-4888550D02*
X5766750Y-4928550D01*
X5766750Y-4888550D02*
X5726750Y-4928550D01*
X6011000Y-12908000D02*
X6051000Y-12948000D01*
X6051000Y-12908000D02*
X6011000Y-12948000D01*
X6209350Y-9562150D02*
X6249350Y-9602150D01*
X6249350Y-9562150D02*
X6209350Y-9602150D01*
X6393500Y-4171000D02*
X6433500Y-4211000D01*
X6433500Y-4171000D02*
X6393500Y-4211000D01*
X6413000Y-11990000D02*
X6453000Y-12030000D01*
X6453000Y-11990000D02*
X6413000Y-12030000D01*
X6660200Y-10044750D02*
X6700200Y-10084750D01*
X6700200Y-10044750D02*
X6660200Y-10084750D01*
X6877000Y-10420000D02*
X6917000Y-10460000D01*
X6917000Y-10420000D02*
X6877000Y-10460000D01*
X6935000Y-9678000D02*
X6975000Y-9718000D01*
X6975000Y-9678000D02*
X6935000Y-9718000D01*
X6955000Y-10846000D02*
X6995000Y-10886000D01*
X6995000Y-10846000D02*
X6955000Y-10886000D01*
X6965000Y-4044000D02*
X7005000Y-4084000D01*
X7005000Y-4044000D02*
X6965000Y-4084000D01*
X7045000Y-10270000D02*
X7085000Y-10310000D01*
X7085000Y-10270000D02*
X7045000Y-10310000D01*
X7122000Y-11494000D02*
X7162000Y-11534000D01*
X7162000Y-11494000D02*
X7122000Y-11534000D01*
X7236000Y-10274000D02*
X7276000Y-10314000D01*
X7276000Y-10274000D02*
X7236000Y-10314000D01*
X7240600Y-6178050D02*
X7280600Y-6218050D01*
X7280600Y-6178050D02*
X7240600Y-6218050D01*
X7597000Y-11873000D02*
X7637000Y-11913000D01*
X7637000Y-11873000D02*
X7597000Y-11913000D01*
X7753377Y-6864377D02*
X7793377Y-6904377D01*
X7793377Y-6864377D02*
X7753377Y-6904377D01*
X7827623Y-6938623D02*
X7867623Y-6978623D01*
X7867623Y-6938623D02*
X7827623Y-6978623D01*
X7828600Y-4190050D02*
X7868600Y-4230050D01*
X7868600Y-4190050D02*
X7828600Y-4230050D01*
X7990600Y-7323850D02*
X8030600Y-7363850D01*
X8030600Y-7323850D02*
X7990600Y-7363850D01*
X8019100Y-4698050D02*
X8059100Y-4738050D01*
X8059100Y-4698050D02*
X8019100Y-4738050D01*
X8019100Y-4888550D02*
X8059100Y-4928550D01*
X8059100Y-4888550D02*
X8019100Y-4928550D01*
X8019100Y-5206050D02*
X8059100Y-5246050D01*
X8059100Y-5206050D02*
X8019100Y-5246050D01*
X8235000Y-9505000D02*
X8275000Y-9545000D01*
X8275000Y-9505000D02*
X8235000Y-9545000D01*
X8237000Y-9966550D02*
X8277000Y-10006550D01*
X8277000Y-9966550D02*
X8237000Y-10006550D01*
X8248450Y-10191550D02*
X8288450Y-10231550D01*
X8288450Y-10191550D02*
X8248450Y-10231550D01*
X8350100Y-9712550D02*
X8390100Y-9752550D01*
X8390100Y-9712550D02*
X8350100Y-9752550D01*
X8425500Y-8806500D02*
X8465500Y-8846500D01*
X8465500Y-8806500D02*
X8425500Y-8846500D01*
X8440750Y-10587050D02*
X8480750Y-10627050D01*
X8480750Y-10587050D02*
X8440750Y-10627050D01*
X8463600Y-4761550D02*
X8503600Y-4801550D01*
X8503600Y-4761550D02*
X8463600Y-4801550D01*
X8508100Y-7239550D02*
X8548100Y-7279550D01*
X8548100Y-7239550D02*
X8508100Y-7279550D01*
X8514000Y-12781000D02*
X8554000Y-12821000D01*
X8554000Y-12781000D02*
X8514000Y-12821000D01*
X8901750Y-6545900D02*
X8941750Y-6585900D01*
X8941750Y-6545900D02*
X8901750Y-6585900D01*
X8940000Y-6920000D02*
X8980000Y-6960000D01*
X8980000Y-6920000D02*
X8940000Y-6960000D01*
X9022400Y-10413050D02*
X9062400Y-10453050D01*
X9062400Y-10413050D02*
X9022400Y-10453050D01*
X9053550Y-9688550D02*
X9093550Y-9728550D01*
X9093550Y-9688550D02*
X9053550Y-9728550D01*
X9060500Y-6774500D02*
X9100500Y-6814500D01*
X9100500Y-6774500D02*
X9060500Y-6814500D01*
X9124000Y-7790500D02*
X9164000Y-7830500D01*
X9164000Y-7790500D02*
X9124000Y-7830500D01*
X9225600Y-4952050D02*
X9265600Y-4992050D01*
X9265600Y-4952050D02*
X9225600Y-4992050D01*
X9244650Y-5606100D02*
X9284650Y-5646100D01*
X9284650Y-5606100D02*
X9244650Y-5646100D01*
X9251000Y-7346000D02*
X9291000Y-7386000D01*
X9291000Y-7346000D02*
X9251000Y-7386000D01*
X9409750Y-9822500D02*
X9449750Y-9862500D01*
X9449750Y-9822500D02*
X9409750Y-9862500D01*
X9528000Y-12780000D02*
X9568000Y-12820000D01*
X9568000Y-12780000D02*
X9528000Y-12820000D01*
X9679000Y-11051000D02*
X9719000Y-11091000D01*
X9719000Y-11051000D02*
X9679000Y-11091000D01*
X9823000Y-11738000D02*
X9863000Y-11778000D01*
X9863000Y-11738000D02*
X9823000Y-11778000D01*
X9860600Y-4825050D02*
X9900600Y-4865050D01*
X9900600Y-4825050D02*
X9860600Y-4865050D01*
X10120100Y-3930550D02*
X10160100Y-3970550D01*
X10160100Y-3930550D02*
X10120100Y-3970550D01*
X10216200Y-9143050D02*
X10256200Y-9183050D01*
X10256200Y-9143050D02*
X10216200Y-9183050D01*
X10482000Y-12511000D02*
X10522000Y-12551000D01*
X10522000Y-12511000D02*
X10482000Y-12551000D01*
X10652000Y-10819000D02*
X10692000Y-10859000D01*
X10692000Y-10819000D02*
X10652000Y-10859000D01*
X10698800Y-6609400D02*
X10738800Y-6649400D01*
X10738800Y-6609400D02*
X10698800Y-6649400D01*
X10952672Y-10802672D02*
X10992672Y-10842672D01*
X10992672Y-10802672D02*
X10952672Y-10842672D01*
X11067100Y-3809050D02*
X11107100Y-3849050D01*
X11107100Y-3809050D02*
X11067100Y-3849050D01*
X11130600Y-4444050D02*
X11170600Y-4484050D01*
X11170600Y-4444050D02*
X11130600Y-4484050D01*
X11166061Y-8288439D02*
X11206061Y-8328439D01*
X11206061Y-8288439D02*
X11166061Y-8328439D01*
X11234000Y-13830000D02*
X11274000Y-13870000D01*
X11274000Y-13830000D02*
X11234000Y-13870000D01*
X11621906Y-10030906D02*
X11661906Y-10070906D01*
X11661906Y-10030906D02*
X11621906Y-10070906D01*
X11738600Y-4471050D02*
X11778600Y-4511050D01*
X11778600Y-4471050D02*
X11738600Y-4511050D01*
X11999000Y-14546000D02*
X12039000Y-14586000D01*
X12039000Y-14546000D02*
X11999000Y-14586000D01*
X13315000Y-8489000D02*
X13355000Y-8529000D01*
X13355000Y-8489000D02*
X13315000Y-8529000D01*
X15067600Y-4507550D02*
X15107600Y-4547550D01*
X15107600Y-4507550D02*
X15067600Y-4547550D01*
X15220000Y-8362000D02*
X15260000Y-8402000D01*
X15260000Y-8362000D02*
X15220000Y-8402000D01*
X15220000Y-8997000D02*
X15260000Y-9037000D01*
X15260000Y-8997000D02*
X15220000Y-9037000D01*
X16871000Y-7219000D02*
X16911000Y-7259000D01*
X16911000Y-7219000D02*
X16871000Y-7259000D01*
X16871000Y-7790500D02*
X16911000Y-7830500D01*
X16911000Y-7790500D02*
X16871000Y-7830500D01*
X16871000Y-8362000D02*
X16911000Y-8402000D01*
X16911000Y-8362000D02*
X16871000Y-8402000D01*
X16871000Y-8997000D02*
X16911000Y-9037000D01*
X16911000Y-8997000D02*
X16871000Y-9037000D01*
X16871000Y-9632000D02*
X16911000Y-9672000D01*
X16911000Y-9632000D02*
X16871000Y-9672000D01*
X10552600Y-5607050D02*
G75*
G03*
X10552600Y-5607050I-35000J0D01*
G01*
X10802600Y-5607050D02*
G75*
G03*
X10802600Y-5607050I-35000J0D01*
G01*
X11558600Y-5569550D02*
X11558600Y-5644550D01*
X11521100Y-5607050D02*
X11596100Y-5607050D01*
X11758600Y-5569550D02*
X11758600Y-5644550D01*
X11721100Y-5607050D02*
X11796100Y-5607050D01*
X8002884Y-7841334D02*
X8002884Y-7784765D01*
X7946315Y-7784765D01*
X7946315Y-7841334D01*
X8002884Y-7841334D01*
X8002884Y-8095334D02*
X8002884Y-8038765D01*
X7946315Y-8038765D01*
X7946315Y-8095334D01*
X8002884Y-8095334D01*
X8002884Y-8349334D02*
X8002884Y-8292765D01*
X7946315Y-8292765D01*
X7946315Y-8349334D01*
X8002884Y-8349334D01*
X8002884Y-8603335D02*
X8002884Y-8546766D01*
X7946315Y-8546766D01*
X7946315Y-8603335D01*
X8002884Y-8603335D01*
X8002884Y-8857335D02*
X8002884Y-8800766D01*
X7946315Y-8800766D01*
X7946315Y-8857335D01*
X8002884Y-8857335D01*
X8002884Y-9111335D02*
X8002884Y-9054766D01*
X7946315Y-9054766D01*
X7946315Y-9111335D01*
X8002884Y-9111335D01*
X8002884Y-9365335D02*
X8002884Y-9308766D01*
X7946315Y-9308766D01*
X7946315Y-9365335D01*
X8002884Y-9365335D01*
X8002884Y-9619335D02*
X8002884Y-9562766D01*
X7946315Y-9562766D01*
X7946315Y-9619335D01*
X8002884Y-9619335D01*
X8002884Y-9873335D02*
X8002884Y-9816766D01*
X7946315Y-9816766D01*
X7946315Y-9873335D01*
X8002884Y-9873335D01*
X8002884Y-10127335D02*
X8002884Y-10070766D01*
X7946315Y-10070766D01*
X7946315Y-10127335D01*
X8002884Y-10127335D01*
X8002884Y-10381335D02*
X8002884Y-10324766D01*
X7946315Y-10324766D01*
X7946315Y-10381335D01*
X8002884Y-10381335D01*
X8002884Y-10635335D02*
X8002884Y-10578766D01*
X7946315Y-10578766D01*
X7946315Y-10635335D01*
X8002884Y-10635335D01*
X8002884Y-10889335D02*
X8002884Y-10832766D01*
X7946315Y-10832766D01*
X7946315Y-10889335D01*
X8002884Y-10889335D01*
X8002884Y-11143335D02*
X8002884Y-11086766D01*
X7946315Y-11086766D01*
X7946315Y-11143335D01*
X8002884Y-11143335D01*
X8764885Y-7841334D02*
X8764885Y-7784765D01*
X8708316Y-7784765D01*
X8708316Y-7841334D01*
X8764885Y-7841334D01*
X8764885Y-8095334D02*
X8764885Y-8038765D01*
X8708316Y-8038765D01*
X8708316Y-8095334D01*
X8764885Y-8095334D01*
X8764885Y-8349334D02*
X8764885Y-8292765D01*
X8708316Y-8292765D01*
X8708316Y-8349334D01*
X8764885Y-8349334D01*
X8764885Y-8603335D02*
X8764885Y-8546766D01*
X8708316Y-8546766D01*
X8708316Y-8603335D01*
X8764885Y-8603335D01*
X8764885Y-8857335D02*
X8764885Y-8800766D01*
X8708316Y-8800766D01*
X8708316Y-8857335D01*
X8764885Y-8857335D01*
X8764885Y-9111335D02*
X8764885Y-9054766D01*
X8708316Y-9054766D01*
X8708316Y-9111335D01*
X8764885Y-9111335D01*
X8764885Y-9365335D02*
X8764885Y-9308766D01*
X8708316Y-9308766D01*
X8708316Y-9365335D01*
X8764885Y-9365335D01*
X8764885Y-9619335D02*
X8764885Y-9562766D01*
X8708316Y-9562766D01*
X8708316Y-9619335D01*
X8764885Y-9619335D01*
X8764885Y-9873335D02*
X8764885Y-9816766D01*
X8708316Y-9816766D01*
X8708316Y-9873335D01*
X8764885Y-9873335D01*
X8764885Y-10127335D02*
X8764885Y-10070766D01*
X8708316Y-10070766D01*
X8708316Y-10127335D01*
X8764885Y-10127335D01*
X8764885Y-10381335D02*
X8764885Y-10324766D01*
X8708316Y-10324766D01*
X8708316Y-10381335D01*
X8764885Y-10381335D01*
X8764885Y-10635335D02*
X8764885Y-10578766D01*
X8708316Y-10578766D01*
X8708316Y-10635335D01*
X8764885Y-10635335D01*
X8764885Y-10889335D02*
X8764885Y-10832766D01*
X8708316Y-10832766D01*
X8708316Y-10889335D01*
X8764885Y-10889335D01*
X8764885Y-11143335D02*
X8764885Y-11086766D01*
X8708316Y-11086766D01*
X8708316Y-11143335D01*
X8764885Y-11143335D01*
X10904600Y-3439050D02*
X10949600Y-3394050D01*
X10904600Y-3349050D01*
X10859600Y-3394050D01*
X10904600Y-3439050D01*
X11404600Y-3079050D02*
X11449600Y-3034050D01*
X11404600Y-2989050D01*
X11359600Y-3034050D01*
X11404600Y-3079050D01*
X11904600Y-3439050D02*
X11949600Y-3394050D01*
X11904600Y-3349050D01*
X11859600Y-3394050D01*
X11904600Y-3439050D01*
X13698600Y-3439050D02*
X13743600Y-3394050D01*
X13698600Y-3349050D01*
X13653600Y-3394050D01*
X13698600Y-3439050D01*
X14198600Y-3079050D02*
X14243600Y-3034050D01*
X14198600Y-2989050D01*
X14153600Y-3034050D01*
X14198600Y-3079050D01*
X14698600Y-3439050D02*
X14743600Y-3394050D01*
X14698600Y-3349050D01*
X14653600Y-3394050D01*
X14698600Y-3439050D01*
X2845600Y-7760500D02*
X2945600Y-7860500D01*
X2945600Y-7760500D02*
X2845600Y-7860500D01*
X2945600Y-7810500D02*
G75*
G03*
X2945600Y-7810500I-50000J0D01*
G01*
X2845600Y-8014500D02*
X2945600Y-8114500D01*
X2945600Y-8014500D02*
X2845600Y-8114500D01*
X2945600Y-8064500D02*
G75*
G03*
X2945600Y-8064500I-50000J0D01*
G01*
X2845600Y-10046500D02*
X2945600Y-10146500D01*
X2945600Y-10046500D02*
X2845600Y-10146500D01*
X2945600Y-10096500D02*
G75*
G03*
X2945600Y-10096500I-50000J0D01*
G01*
X2845600Y-10300500D02*
X2945600Y-10400500D01*
X2945600Y-10300500D02*
X2845600Y-10400500D01*
X2945600Y-10350500D02*
G75*
G03*
X2945600Y-10350500I-50000J0D01*
G01*
X4161000Y-12160000D02*
X4261000Y-12260000D01*
X4261000Y-12160000D02*
X4161000Y-12260000D01*
X4261000Y-12210000D02*
G75*
G03*
X4261000Y-12210000I-50000J0D01*
G01*
X4161000Y-12414000D02*
X4261000Y-12514000D01*
X4261000Y-12414000D02*
X4161000Y-12514000D01*
X4261000Y-12464000D02*
G75*
G03*
X4261000Y-12464000I-50000J0D01*
G01*
X4162000Y-13281000D02*
X4262000Y-13381000D01*
X4262000Y-13281000D02*
X4162000Y-13381000D01*
X4262000Y-13331000D02*
G75*
G03*
X4262000Y-13331000I-50000J0D01*
G01*
X4162000Y-13535000D02*
X4262000Y-13635000D01*
X4262000Y-13535000D02*
X4162000Y-13635000D01*
X4262000Y-13585000D02*
G75*
G03*
X4262000Y-13585000I-50000J0D01*
G01*
X5393000Y-12161000D02*
X5493000Y-12261000D01*
X5493000Y-12161000D02*
X5393000Y-12261000D01*
X5493000Y-12211000D02*
G75*
G03*
X5493000Y-12211000I-50000J0D01*
G01*
X5393000Y-12415000D02*
X5493000Y-12515000D01*
X5493000Y-12415000D02*
X5393000Y-12515000D01*
X5493000Y-12465000D02*
G75*
G03*
X5493000Y-12465000I-50000J0D01*
G01*
X5393000Y-13279000D02*
X5493000Y-13379000D01*
X5493000Y-13279000D02*
X5393000Y-13379000D01*
X5493000Y-13329000D02*
G75*
G03*
X5493000Y-13329000I-50000J0D01*
G01*
X5393000Y-13533000D02*
X5493000Y-13633000D01*
X5493000Y-13533000D02*
X5393000Y-13633000D01*
X5493000Y-13583000D02*
G75*
G03*
X5493000Y-13583000I-50000J0D01*
G01*
X6211100Y-4604550D02*
X6311100Y-4704550D01*
X6311100Y-4604550D02*
X6211100Y-4704550D01*
X6311100Y-4654550D02*
G75*
G03*
X6311100Y-4654550I-50000J0D01*
G01*
X6211100Y-4858550D02*
X6311100Y-4958550D01*
X6311100Y-4858550D02*
X6211100Y-4958550D01*
X6311100Y-4908550D02*
G75*
G03*
X6311100Y-4908550I-50000J0D01*
G01*
X6211100Y-5112550D02*
X6311100Y-5212550D01*
X6311100Y-5112550D02*
X6211100Y-5212550D01*
X6311100Y-5162550D02*
G75*
G03*
X6311100Y-5162550I-50000J0D01*
G01*
X6465100Y-4604550D02*
X6565100Y-4704550D01*
X6565100Y-4604550D02*
X6465100Y-4704550D01*
X6565100Y-4654550D02*
G75*
G03*
X6565100Y-4654550I-50000J0D01*
G01*
X6465100Y-4858550D02*
X6565100Y-4958550D01*
X6565100Y-4858550D02*
X6465100Y-4958550D01*
X6565100Y-4908550D02*
G75*
G03*
X6565100Y-4908550I-50000J0D01*
G01*
X6465100Y-5112550D02*
X6565100Y-5212550D01*
X6565100Y-5112550D02*
X6465100Y-5212550D01*
X6565100Y-5162550D02*
G75*
G03*
X6565100Y-5162550I-50000J0D01*
G01*
X6625000Y-10839000D02*
X6725000Y-10939000D01*
X6725000Y-10839000D02*
X6625000Y-10939000D01*
X6725000Y-10889000D02*
G75*
G03*
X6725000Y-10889000I-50000J0D01*
G01*
X6625000Y-11093000D02*
X6725000Y-11193000D01*
X6725000Y-11093000D02*
X6625000Y-11193000D01*
X6725000Y-11143000D02*
G75*
G03*
X6725000Y-11143000I-50000J0D01*
G01*
X6641000Y-12744000D02*
X6741000Y-12844000D01*
X6741000Y-12744000D02*
X6641000Y-12844000D01*
X6741000Y-12794000D02*
G75*
G03*
X6741000Y-12794000I-50000J0D01*
G01*
X6641000Y-12998000D02*
X6741000Y-13098000D01*
X6741000Y-12998000D02*
X6641000Y-13098000D01*
X6741000Y-13048000D02*
G75*
G03*
X6741000Y-13048000I-50000J0D01*
G01*
X7795000Y-12749000D02*
X7895000Y-12849000D01*
X7895000Y-12749000D02*
X7795000Y-12849000D01*
X7895000Y-12799000D02*
G75*
G03*
X7895000Y-12799000I-50000J0D01*
G01*
X7795000Y-13003000D02*
X7895000Y-13103000D01*
X7895000Y-13003000D02*
X7795000Y-13103000D01*
X7895000Y-13053000D02*
G75*
G03*
X7895000Y-13053000I-50000J0D01*
G01*
X9830600Y-4044480D02*
X9930600Y-4144480D01*
X9930600Y-4044480D02*
X9830600Y-4144480D01*
X9930600Y-4094480D02*
G75*
G03*
X9930600Y-4094480I-50000J0D01*
G01*
X9830600Y-4298480D02*
X9930600Y-4398480D01*
X9930600Y-4298480D02*
X9830600Y-4398480D01*
X9930600Y-4348480D02*
G75*
G03*
X9930600Y-4348480I-50000J0D01*
G01*
X10408450Y-4033050D02*
X10508450Y-4133050D01*
X10508450Y-4033050D02*
X10408450Y-4133050D01*
X10508450Y-4083050D02*
G75*
G03*
X10508450Y-4083050I-50000J0D01*
G01*
X10408450Y-4287050D02*
X10508450Y-4387050D01*
X10508450Y-4287050D02*
X10408450Y-4387050D01*
X10508450Y-4337050D02*
G75*
G03*
X10508450Y-4337050I-50000J0D01*
G01*
X10408450Y-4541050D02*
X10508450Y-4641050D01*
X10508450Y-4541050D02*
X10408450Y-4641050D01*
X10508450Y-4591050D02*
G75*
G03*
X10508450Y-4591050I-50000J0D01*
G01*
X15879000Y-13855000D02*
X15979000Y-13955000D01*
X15979000Y-13855000D02*
X15879000Y-13955000D01*
X15979000Y-13905000D02*
G75*
G03*
X15979000Y-13905000I-50000J0D01*
G01*
X15879000Y-14109000D02*
X15979000Y-14209000D01*
X15979000Y-14109000D02*
X15879000Y-14209000D01*
X15979000Y-14159000D02*
G75*
G03*
X15979000Y-14159000I-50000J0D01*
G01*
D11*
X286429Y-465714D02*
X286429Y-165714D01*
X357857Y-165714D01*
X400714Y-180000D01*
X429286Y-208571D01*
X443571Y-237143D01*
X457857Y-294286D01*
X457857Y-337143D01*
X443571Y-394286D01*
X429286Y-422857D01*
X400714Y-451428D01*
X357857Y-465714D01*
X286429Y-465714D01*
X586429Y-465714D02*
X586429Y-265714D01*
X586429Y-322857D02*
X600714Y-294286D01*
X615000Y-280000D01*
X643571Y-265714D01*
X672143Y-265714D01*
X772143Y-465714D02*
X772143Y-265714D01*
X772143Y-165714D02*
X757857Y-180000D01*
X772143Y-194286D01*
X786428Y-180000D01*
X772143Y-165714D01*
X772143Y-194286D01*
X957857Y-465714D02*
X929286Y-451428D01*
X915000Y-422857D01*
X915000Y-165714D01*
X1115000Y-465714D02*
X1086429Y-451428D01*
X1072143Y-422857D01*
X1072143Y-165714D01*
X1457857Y-465714D02*
X1457857Y-165714D01*
X1557857Y-380000D01*
X1657857Y-165714D01*
X1657857Y-465714D01*
X1929286Y-465714D02*
X1929286Y-308571D01*
X1915000Y-280000D01*
X1886428Y-265714D01*
X1829286Y-265714D01*
X1800714Y-280000D01*
X1929286Y-451428D02*
X1900714Y-465714D01*
X1829286Y-465714D01*
X1800714Y-451428D01*
X1786428Y-422857D01*
X1786428Y-394286D01*
X1800714Y-365714D01*
X1829286Y-351428D01*
X1900714Y-351428D01*
X1929286Y-337143D01*
X2072143Y-265714D02*
X2072143Y-565714D01*
X2072143Y-280000D02*
X2100714Y-265714D01*
X2157857Y-265714D01*
X2186429Y-280000D01*
X2200714Y-294286D01*
X2215000Y-322857D01*
X2215000Y-408571D01*
X2200714Y-437143D01*
X2186429Y-451428D01*
X2157857Y-465714D01*
X2100714Y-465714D01*
X2072143Y-451428D01*
X2343571Y-437143D02*
X2357857Y-451428D01*
X2343571Y-465714D01*
X2329286Y-451428D01*
X2343571Y-437143D01*
X2343571Y-465714D01*
X2343571Y-280000D02*
X2357857Y-294286D01*
X2343571Y-308571D01*
X2329286Y-294286D01*
X2343571Y-280000D01*
X2343571Y-308571D01*
X-40000Y-940000D02*
X0Y-980000D01*
X0Y-940000D02*
X-40000Y-980000D01*
X343571Y-795714D02*
X372143Y-795714D01*
X400714Y-810000D01*
X415000Y-824286D01*
X429286Y-852857D01*
X443571Y-910000D01*
X443571Y-981428D01*
X429286Y-1038571D01*
X415000Y-1067143D01*
X400714Y-1081429D01*
X372143Y-1095714D01*
X343571Y-1095714D01*
X315000Y-1081429D01*
X300714Y-1067143D01*
X286429Y-1038571D01*
X272143Y-981428D01*
X272143Y-910000D01*
X286429Y-852857D01*
X300714Y-824286D01*
X315000Y-810000D01*
X343571Y-795714D01*
X572143Y-1067143D02*
X586429Y-1081429D01*
X572143Y-1095714D01*
X557857Y-1081429D01*
X572143Y-1067143D01*
X572143Y-1095714D01*
X843571Y-895714D02*
X843571Y-1095714D01*
X772143Y-781428D02*
X700714Y-995714D01*
X886428Y-995714D01*
X1057857Y-795714D02*
X1086429Y-795714D01*
X1115000Y-810000D01*
X1129286Y-824286D01*
X1143571Y-852857D01*
X1157857Y-910000D01*
X1157857Y-981428D01*
X1143571Y-1038571D01*
X1129286Y-1067143D01*
X1115000Y-1081429D01*
X1086429Y-1095714D01*
X1057857Y-1095714D01*
X1029286Y-1081429D01*
X1015000Y-1067143D01*
X1000714Y-1038571D01*
X986428Y-981428D01*
X986428Y-910000D01*
X1000714Y-852857D01*
X1015000Y-824286D01*
X1029286Y-810000D01*
X1057857Y-795714D01*
X1343571Y-795714D02*
X1372143Y-795714D01*
X1400714Y-810000D01*
X1415000Y-824286D01*
X1429286Y-852857D01*
X1443571Y-910000D01*
X1443571Y-981428D01*
X1429286Y-1038571D01*
X1415000Y-1067143D01*
X1400714Y-1081429D01*
X1372143Y-1095714D01*
X1343571Y-1095714D01*
X1315000Y-1081429D01*
X1300714Y-1067143D01*
X1286429Y-1038571D01*
X1272143Y-981428D01*
X1272143Y-910000D01*
X1286429Y-852857D01*
X1300714Y-824286D01*
X1315000Y-810000D01*
X1343571Y-795714D01*
X1572143Y-1095714D02*
X1572143Y-895714D01*
X1572143Y-924286D02*
X1586428Y-910000D01*
X1615000Y-895714D01*
X1657857Y-895714D01*
X1686428Y-910000D01*
X1700714Y-938571D01*
X1700714Y-1095714D01*
X1700714Y-938571D02*
X1715000Y-910000D01*
X1743571Y-895714D01*
X1786428Y-895714D01*
X1815000Y-910000D01*
X1829286Y-938571D01*
X1829286Y-1095714D01*
X1972143Y-1095714D02*
X1972143Y-895714D01*
X1972143Y-924286D02*
X1986428Y-910000D01*
X2015000Y-895714D01*
X2057857Y-895714D01*
X2086428Y-910000D01*
X2100714Y-938571D01*
X2100714Y-1095714D01*
X2100714Y-938571D02*
X2115000Y-910000D01*
X2143571Y-895714D01*
X2186429Y-895714D01*
X2215000Y-910000D01*
X2229286Y-938571D01*
X2229286Y-1095714D01*
X2815000Y-781428D02*
X2557857Y-1167143D01*
X3200714Y-795714D02*
X3229286Y-795714D01*
X3257857Y-810000D01*
X3272143Y-824286D01*
X3286428Y-852857D01*
X3300714Y-910000D01*
X3300714Y-981428D01*
X3286428Y-1038571D01*
X3272143Y-1067143D01*
X3257857Y-1081429D01*
X3229286Y-1095714D01*
X3200714Y-1095714D01*
X3172143Y-1081429D01*
X3157857Y-1067143D01*
X3143571Y-1038571D01*
X3129286Y-981428D01*
X3129286Y-910000D01*
X3143571Y-852857D01*
X3157857Y-824286D01*
X3172143Y-810000D01*
X3200714Y-795714D01*
X3429286Y-1067143D02*
X3443571Y-1081429D01*
X3429286Y-1095714D01*
X3415000Y-1081429D01*
X3429286Y-1067143D01*
X3429286Y-1095714D01*
X3629286Y-795714D02*
X3657857Y-795714D01*
X3686428Y-810000D01*
X3700714Y-824286D01*
X3715000Y-852857D01*
X3729286Y-910000D01*
X3729286Y-981428D01*
X3715000Y-1038571D01*
X3700714Y-1067143D01*
X3686428Y-1081429D01*
X3657857Y-1095714D01*
X3629286Y-1095714D01*
X3600714Y-1081429D01*
X3586428Y-1067143D01*
X3572143Y-1038571D01*
X3557857Y-981428D01*
X3557857Y-910000D01*
X3572143Y-852857D01*
X3586428Y-824286D01*
X3600714Y-810000D01*
X3629286Y-795714D01*
X4015000Y-1095714D02*
X3843571Y-1095714D01*
X3929286Y-1095714D02*
X3929286Y-795714D01*
X3900714Y-838571D01*
X3872143Y-867143D01*
X3843571Y-881428D01*
X4286429Y-795714D02*
X4143571Y-795714D01*
X4129286Y-938571D01*
X4143571Y-924286D01*
X4172143Y-910000D01*
X4243571Y-910000D01*
X4272143Y-924286D01*
X4286429Y-938571D01*
X4300714Y-967143D01*
X4300714Y-1038571D01*
X4286429Y-1067143D01*
X4272143Y-1081429D01*
X4243571Y-1095714D01*
X4172143Y-1095714D01*
X4143571Y-1081429D01*
X4129286Y-1067143D01*
X4400714Y-795714D02*
X4600714Y-795714D01*
X4472143Y-1095714D01*
X4700714Y-795714D02*
X4700714Y-852857D01*
X4815000Y-795714D02*
X4815000Y-852857D01*
X5257857Y-1210000D02*
X5243571Y-1195714D01*
X5215000Y-1152857D01*
X5200714Y-1124286D01*
X5186429Y-1081429D01*
X5172143Y-1010000D01*
X5172143Y-952857D01*
X5186429Y-881428D01*
X5200714Y-838571D01*
X5215000Y-810000D01*
X5243571Y-767143D01*
X5257857Y-752857D01*
X5415000Y-924286D02*
X5386429Y-910000D01*
X5372143Y-895714D01*
X5357857Y-867143D01*
X5357857Y-852857D01*
X5372143Y-824286D01*
X5386429Y-810000D01*
X5415000Y-795714D01*
X5472143Y-795714D01*
X5500714Y-810000D01*
X5515000Y-824286D01*
X5529286Y-852857D01*
X5529286Y-867143D01*
X5515000Y-895714D01*
X5500714Y-910000D01*
X5472143Y-924286D01*
X5415000Y-924286D01*
X5386429Y-938571D01*
X5372143Y-952857D01*
X5357857Y-981428D01*
X5357857Y-1038571D01*
X5372143Y-1067143D01*
X5386429Y-1081429D01*
X5415000Y-1095714D01*
X5472143Y-1095714D01*
X5500714Y-1081429D01*
X5515000Y-1067143D01*
X5529286Y-1038571D01*
X5529286Y-981428D01*
X5515000Y-952857D01*
X5500714Y-938571D01*
X5472143Y-924286D01*
X5786428Y-895714D02*
X5786428Y-1095714D01*
X5715000Y-781428D02*
X5643571Y-995714D01*
X5829286Y-995714D01*
X6172143Y-1095714D02*
X6172143Y-795714D01*
X6300714Y-1095714D02*
X6300714Y-938571D01*
X6286428Y-910000D01*
X6257857Y-895714D01*
X6215000Y-895714D01*
X6186428Y-910000D01*
X6172143Y-924286D01*
X6486428Y-1095714D02*
X6457857Y-1081429D01*
X6443571Y-1067143D01*
X6429286Y-1038571D01*
X6429286Y-952857D01*
X6443571Y-924286D01*
X6457857Y-910000D01*
X6486428Y-895714D01*
X6529286Y-895714D01*
X6557857Y-910000D01*
X6572143Y-924286D01*
X6586428Y-952857D01*
X6586428Y-1038571D01*
X6572143Y-1067143D01*
X6557857Y-1081429D01*
X6529286Y-1095714D01*
X6486428Y-1095714D01*
X6757857Y-1095714D02*
X6729286Y-1081429D01*
X6715000Y-1052857D01*
X6715000Y-795714D01*
X6986428Y-1081429D02*
X6957857Y-1095714D01*
X6900714Y-1095714D01*
X6872143Y-1081429D01*
X6857857Y-1052857D01*
X6857857Y-938571D01*
X6872143Y-910000D01*
X6900714Y-895714D01*
X6957857Y-895714D01*
X6986428Y-910000D01*
X7000714Y-938571D01*
X7000714Y-967143D01*
X6857857Y-995714D01*
X7115000Y-1081429D02*
X7143571Y-1095714D01*
X7200714Y-1095714D01*
X7229286Y-1081429D01*
X7243571Y-1052857D01*
X7243571Y-1038571D01*
X7229286Y-1010000D01*
X7200714Y-995714D01*
X7157857Y-995714D01*
X7129286Y-981428D01*
X7115000Y-952857D01*
X7115000Y-938571D01*
X7129286Y-910000D01*
X7157857Y-895714D01*
X7200714Y-895714D01*
X7229286Y-910000D01*
X7343571Y-1210000D02*
X7357857Y-1195714D01*
X7386428Y-1152857D01*
X7400714Y-1124286D01*
X7415000Y-1081429D01*
X7429286Y-1010000D01*
X7429286Y-952857D01*
X7415000Y-881428D01*
X7400714Y-838571D01*
X7386428Y-810000D01*
X7357857Y-767143D01*
X7343571Y-752857D01*
X0Y-1356000D02*
G75*
G03*
X0Y-1356000I-35000J0D01*
G01*
X343571Y-1191714D02*
X372143Y-1191714D01*
X400714Y-1206000D01*
X415000Y-1220286D01*
X429286Y-1248857D01*
X443571Y-1306000D01*
X443571Y-1377429D01*
X429286Y-1434571D01*
X415000Y-1463143D01*
X400714Y-1477428D01*
X372143Y-1491714D01*
X343571Y-1491714D01*
X315000Y-1477428D01*
X300714Y-1463143D01*
X286429Y-1434571D01*
X272143Y-1377429D01*
X272143Y-1306000D01*
X286429Y-1248857D01*
X300714Y-1220286D01*
X315000Y-1206000D01*
X343571Y-1191714D01*
X572143Y-1463143D02*
X586429Y-1477428D01*
X572143Y-1491714D01*
X557857Y-1477428D01*
X572143Y-1463143D01*
X572143Y-1491714D01*
X686429Y-1191714D02*
X886428Y-1191714D01*
X757857Y-1491714D01*
X1057857Y-1191714D02*
X1086429Y-1191714D01*
X1115000Y-1206000D01*
X1129286Y-1220286D01*
X1143571Y-1248857D01*
X1157857Y-1306000D01*
X1157857Y-1377429D01*
X1143571Y-1434571D01*
X1129286Y-1463143D01*
X1115000Y-1477428D01*
X1086429Y-1491714D01*
X1057857Y-1491714D01*
X1029286Y-1477428D01*
X1015000Y-1463143D01*
X1000714Y-1434571D01*
X986428Y-1377429D01*
X986428Y-1306000D01*
X1000714Y-1248857D01*
X1015000Y-1220286D01*
X1029286Y-1206000D01*
X1057857Y-1191714D01*
X1343571Y-1191714D02*
X1372143Y-1191714D01*
X1400714Y-1206000D01*
X1415000Y-1220286D01*
X1429286Y-1248857D01*
X1443571Y-1306000D01*
X1443571Y-1377429D01*
X1429286Y-1434571D01*
X1415000Y-1463143D01*
X1400714Y-1477428D01*
X1372143Y-1491714D01*
X1343571Y-1491714D01*
X1315000Y-1477428D01*
X1300714Y-1463143D01*
X1286429Y-1434571D01*
X1272143Y-1377429D01*
X1272143Y-1306000D01*
X1286429Y-1248857D01*
X1300714Y-1220286D01*
X1315000Y-1206000D01*
X1343571Y-1191714D01*
X1572143Y-1491714D02*
X1572143Y-1291714D01*
X1572143Y-1320286D02*
X1586428Y-1306000D01*
X1615000Y-1291714D01*
X1657857Y-1291714D01*
X1686428Y-1306000D01*
X1700714Y-1334571D01*
X1700714Y-1491714D01*
X1700714Y-1334571D02*
X1715000Y-1306000D01*
X1743571Y-1291714D01*
X1786428Y-1291714D01*
X1815000Y-1306000D01*
X1829286Y-1334571D01*
X1829286Y-1491714D01*
X1972143Y-1491714D02*
X1972143Y-1291714D01*
X1972143Y-1320286D02*
X1986428Y-1306000D01*
X2015000Y-1291714D01*
X2057857Y-1291714D01*
X2086428Y-1306000D01*
X2100714Y-1334571D01*
X2100714Y-1491714D01*
X2100714Y-1334571D02*
X2115000Y-1306000D01*
X2143571Y-1291714D01*
X2186429Y-1291714D01*
X2215000Y-1306000D01*
X2229286Y-1334571D01*
X2229286Y-1491714D01*
X2815000Y-1177429D02*
X2557857Y-1563143D01*
X3200714Y-1191714D02*
X3229286Y-1191714D01*
X3257857Y-1206000D01*
X3272143Y-1220286D01*
X3286428Y-1248857D01*
X3300714Y-1306000D01*
X3300714Y-1377429D01*
X3286428Y-1434571D01*
X3272143Y-1463143D01*
X3257857Y-1477428D01*
X3229286Y-1491714D01*
X3200714Y-1491714D01*
X3172143Y-1477428D01*
X3157857Y-1463143D01*
X3143571Y-1434571D01*
X3129286Y-1377429D01*
X3129286Y-1306000D01*
X3143571Y-1248857D01*
X3157857Y-1220286D01*
X3172143Y-1206000D01*
X3200714Y-1191714D01*
X3429286Y-1463143D02*
X3443571Y-1477428D01*
X3429286Y-1491714D01*
X3415000Y-1477428D01*
X3429286Y-1463143D01*
X3429286Y-1491714D01*
X3629286Y-1191714D02*
X3657857Y-1191714D01*
X3686428Y-1206000D01*
X3700714Y-1220286D01*
X3715000Y-1248857D01*
X3729286Y-1306000D01*
X3729286Y-1377429D01*
X3715000Y-1434571D01*
X3700714Y-1463143D01*
X3686428Y-1477428D01*
X3657857Y-1491714D01*
X3629286Y-1491714D01*
X3600714Y-1477428D01*
X3586428Y-1463143D01*
X3572143Y-1434571D01*
X3557857Y-1377429D01*
X3557857Y-1306000D01*
X3572143Y-1248857D01*
X3586428Y-1220286D01*
X3600714Y-1206000D01*
X3629286Y-1191714D01*
X3843571Y-1220286D02*
X3857857Y-1206000D01*
X3886428Y-1191714D01*
X3957857Y-1191714D01*
X3986428Y-1206000D01*
X4000714Y-1220286D01*
X4015000Y-1248857D01*
X4015000Y-1277429D01*
X4000714Y-1320286D01*
X3829286Y-1491714D01*
X4015000Y-1491714D01*
X4115000Y-1191714D02*
X4315000Y-1191714D01*
X4186428Y-1491714D01*
X4557857Y-1191714D02*
X4500714Y-1191714D01*
X4472143Y-1206000D01*
X4457857Y-1220286D01*
X4429286Y-1263143D01*
X4415000Y-1320286D01*
X4415000Y-1434571D01*
X4429286Y-1463143D01*
X4443571Y-1477428D01*
X4472143Y-1491714D01*
X4529286Y-1491714D01*
X4557857Y-1477428D01*
X4572143Y-1463143D01*
X4586429Y-1434571D01*
X4586429Y-1363143D01*
X4572143Y-1334571D01*
X4557857Y-1320286D01*
X4529286Y-1306000D01*
X4472143Y-1306000D01*
X4443571Y-1320286D01*
X4429286Y-1334571D01*
X4415000Y-1363143D01*
X4700714Y-1191714D02*
X4700714Y-1248857D01*
X4815000Y-1191714D02*
X4815000Y-1248857D01*
X5257857Y-1606000D02*
X5243571Y-1591714D01*
X5215000Y-1548857D01*
X5200714Y-1520286D01*
X5186429Y-1477428D01*
X5172143Y-1406000D01*
X5172143Y-1348857D01*
X5186429Y-1277429D01*
X5200714Y-1234571D01*
X5215000Y-1206000D01*
X5243571Y-1163143D01*
X5257857Y-1148857D01*
X5357857Y-1220286D02*
X5372143Y-1206000D01*
X5400714Y-1191714D01*
X5472143Y-1191714D01*
X5500714Y-1206000D01*
X5515000Y-1220286D01*
X5529286Y-1248857D01*
X5529286Y-1277429D01*
X5515000Y-1320286D01*
X5343571Y-1491714D01*
X5529286Y-1491714D01*
X5886428Y-1491714D02*
X5886428Y-1191714D01*
X6015000Y-1491714D02*
X6015000Y-1334571D01*
X6000714Y-1306000D01*
X5972143Y-1291714D01*
X5929286Y-1291714D01*
X5900714Y-1306000D01*
X5886428Y-1320286D01*
X6200714Y-1491714D02*
X6172143Y-1477428D01*
X6157857Y-1463143D01*
X6143571Y-1434571D01*
X6143571Y-1348857D01*
X6157857Y-1320286D01*
X6172143Y-1306000D01*
X6200714Y-1291714D01*
X6243571Y-1291714D01*
X6272143Y-1306000D01*
X6286428Y-1320286D01*
X6300714Y-1348857D01*
X6300714Y-1434571D01*
X6286428Y-1463143D01*
X6272143Y-1477428D01*
X6243571Y-1491714D01*
X6200714Y-1491714D01*
X6472143Y-1491714D02*
X6443571Y-1477428D01*
X6429286Y-1448857D01*
X6429286Y-1191714D01*
X6700714Y-1477428D02*
X6672143Y-1491714D01*
X6615000Y-1491714D01*
X6586428Y-1477428D01*
X6572143Y-1448857D01*
X6572143Y-1334571D01*
X6586428Y-1306000D01*
X6615000Y-1291714D01*
X6672143Y-1291714D01*
X6700714Y-1306000D01*
X6715000Y-1334571D01*
X6715000Y-1363143D01*
X6572143Y-1391714D01*
X6829286Y-1477428D02*
X6857857Y-1491714D01*
X6915000Y-1491714D01*
X6943571Y-1477428D01*
X6957857Y-1448857D01*
X6957857Y-1434571D01*
X6943571Y-1406000D01*
X6915000Y-1391714D01*
X6872143Y-1391714D01*
X6843571Y-1377429D01*
X6829286Y-1348857D01*
X6829286Y-1334571D01*
X6843571Y-1306000D01*
X6872143Y-1291714D01*
X6915000Y-1291714D01*
X6943571Y-1306000D01*
X7057857Y-1606000D02*
X7072143Y-1591714D01*
X7100714Y-1548857D01*
X7115000Y-1520286D01*
X7129286Y-1477428D01*
X7143571Y-1406000D01*
X7143571Y-1348857D01*
X7129286Y-1277429D01*
X7115000Y-1234571D01*
X7100714Y-1206000D01*
X7072143Y-1163143D01*
X7057857Y-1148857D01*
X-37500Y-1714500D02*
X-37500Y-1789500D01*
X-75000Y-1752000D02*
X0Y-1752000D01*
X343571Y-1587714D02*
X372143Y-1587714D01*
X400714Y-1602000D01*
X415000Y-1616286D01*
X429286Y-1644857D01*
X443571Y-1702000D01*
X443571Y-1773428D01*
X429286Y-1830571D01*
X415000Y-1859143D01*
X400714Y-1873428D01*
X372143Y-1887714D01*
X343571Y-1887714D01*
X315000Y-1873428D01*
X300714Y-1859143D01*
X286429Y-1830571D01*
X272143Y-1773428D01*
X272143Y-1702000D01*
X286429Y-1644857D01*
X300714Y-1616286D01*
X315000Y-1602000D01*
X343571Y-1587714D01*
X572143Y-1859143D02*
X586429Y-1873428D01*
X572143Y-1887714D01*
X557857Y-1873428D01*
X572143Y-1859143D01*
X572143Y-1887714D01*
X686429Y-1587714D02*
X886428Y-1587714D01*
X757857Y-1887714D01*
X1143571Y-1587714D02*
X1000714Y-1587714D01*
X986428Y-1730571D01*
X1000714Y-1716286D01*
X1029286Y-1702000D01*
X1100714Y-1702000D01*
X1129286Y-1716286D01*
X1143571Y-1730571D01*
X1157857Y-1759143D01*
X1157857Y-1830571D01*
X1143571Y-1859143D01*
X1129286Y-1873428D01*
X1100714Y-1887714D01*
X1029286Y-1887714D01*
X1000714Y-1873428D01*
X986428Y-1859143D01*
X1343571Y-1587714D02*
X1372143Y-1587714D01*
X1400714Y-1602000D01*
X1415000Y-1616286D01*
X1429286Y-1644857D01*
X1443571Y-1702000D01*
X1443571Y-1773428D01*
X1429286Y-1830571D01*
X1415000Y-1859143D01*
X1400714Y-1873428D01*
X1372143Y-1887714D01*
X1343571Y-1887714D01*
X1315000Y-1873428D01*
X1300714Y-1859143D01*
X1286429Y-1830571D01*
X1272143Y-1773428D01*
X1272143Y-1702000D01*
X1286429Y-1644857D01*
X1300714Y-1616286D01*
X1315000Y-1602000D01*
X1343571Y-1587714D01*
X1572143Y-1887714D02*
X1572143Y-1687714D01*
X1572143Y-1716286D02*
X1586428Y-1702000D01*
X1615000Y-1687714D01*
X1657857Y-1687714D01*
X1686428Y-1702000D01*
X1700714Y-1730571D01*
X1700714Y-1887714D01*
X1700714Y-1730571D02*
X1715000Y-1702000D01*
X1743571Y-1687714D01*
X1786428Y-1687714D01*
X1815000Y-1702000D01*
X1829286Y-1730571D01*
X1829286Y-1887714D01*
X1972143Y-1887714D02*
X1972143Y-1687714D01*
X1972143Y-1716286D02*
X1986428Y-1702000D01*
X2015000Y-1687714D01*
X2057857Y-1687714D01*
X2086428Y-1702000D01*
X2100714Y-1730571D01*
X2100714Y-1887714D01*
X2100714Y-1730571D02*
X2115000Y-1702000D01*
X2143571Y-1687714D01*
X2186429Y-1687714D01*
X2215000Y-1702000D01*
X2229286Y-1730571D01*
X2229286Y-1887714D01*
X2815000Y-1573428D02*
X2557857Y-1959143D01*
X3200714Y-1587714D02*
X3229286Y-1587714D01*
X3257857Y-1602000D01*
X3272143Y-1616286D01*
X3286428Y-1644857D01*
X3300714Y-1702000D01*
X3300714Y-1773428D01*
X3286428Y-1830571D01*
X3272143Y-1859143D01*
X3257857Y-1873428D01*
X3229286Y-1887714D01*
X3200714Y-1887714D01*
X3172143Y-1873428D01*
X3157857Y-1859143D01*
X3143571Y-1830571D01*
X3129286Y-1773428D01*
X3129286Y-1702000D01*
X3143571Y-1644857D01*
X3157857Y-1616286D01*
X3172143Y-1602000D01*
X3200714Y-1587714D01*
X3429286Y-1859143D02*
X3443571Y-1873428D01*
X3429286Y-1887714D01*
X3415000Y-1873428D01*
X3429286Y-1859143D01*
X3429286Y-1887714D01*
X3629286Y-1587714D02*
X3657857Y-1587714D01*
X3686428Y-1602000D01*
X3700714Y-1616286D01*
X3715000Y-1644857D01*
X3729286Y-1702000D01*
X3729286Y-1773428D01*
X3715000Y-1830571D01*
X3700714Y-1859143D01*
X3686428Y-1873428D01*
X3657857Y-1887714D01*
X3629286Y-1887714D01*
X3600714Y-1873428D01*
X3586428Y-1859143D01*
X3572143Y-1830571D01*
X3557857Y-1773428D01*
X3557857Y-1702000D01*
X3572143Y-1644857D01*
X3586428Y-1616286D01*
X3600714Y-1602000D01*
X3629286Y-1587714D01*
X3843571Y-1616286D02*
X3857857Y-1602000D01*
X3886428Y-1587714D01*
X3957857Y-1587714D01*
X3986428Y-1602000D01*
X4000714Y-1616286D01*
X4015000Y-1644857D01*
X4015000Y-1673428D01*
X4000714Y-1716286D01*
X3829286Y-1887714D01*
X4015000Y-1887714D01*
X4157857Y-1887714D02*
X4215000Y-1887714D01*
X4243571Y-1873428D01*
X4257857Y-1859143D01*
X4286429Y-1816286D01*
X4300714Y-1759143D01*
X4300714Y-1644857D01*
X4286429Y-1616286D01*
X4272143Y-1602000D01*
X4243571Y-1587714D01*
X4186428Y-1587714D01*
X4157857Y-1602000D01*
X4143571Y-1616286D01*
X4129286Y-1644857D01*
X4129286Y-1716286D01*
X4143571Y-1744857D01*
X4157857Y-1759143D01*
X4186428Y-1773428D01*
X4243571Y-1773428D01*
X4272143Y-1759143D01*
X4286429Y-1744857D01*
X4300714Y-1716286D01*
X4572143Y-1587714D02*
X4429286Y-1587714D01*
X4415000Y-1730571D01*
X4429286Y-1716286D01*
X4457857Y-1702000D01*
X4529286Y-1702000D01*
X4557857Y-1716286D01*
X4572143Y-1730571D01*
X4586429Y-1759143D01*
X4586429Y-1830571D01*
X4572143Y-1859143D01*
X4557857Y-1873428D01*
X4529286Y-1887714D01*
X4457857Y-1887714D01*
X4429286Y-1873428D01*
X4415000Y-1859143D01*
X4700714Y-1587714D02*
X4700714Y-1644857D01*
X4815000Y-1587714D02*
X4815000Y-1644857D01*
X5257857Y-2002000D02*
X5243571Y-1987714D01*
X5215000Y-1944857D01*
X5200714Y-1916286D01*
X5186429Y-1873428D01*
X5172143Y-1802000D01*
X5172143Y-1744857D01*
X5186429Y-1673428D01*
X5200714Y-1630571D01*
X5215000Y-1602000D01*
X5243571Y-1559143D01*
X5257857Y-1544857D01*
X5357857Y-1616286D02*
X5372143Y-1602000D01*
X5400714Y-1587714D01*
X5472143Y-1587714D01*
X5500714Y-1602000D01*
X5515000Y-1616286D01*
X5529286Y-1644857D01*
X5529286Y-1673428D01*
X5515000Y-1716286D01*
X5343571Y-1887714D01*
X5529286Y-1887714D01*
X5886428Y-1887714D02*
X5886428Y-1587714D01*
X6015000Y-1887714D02*
X6015000Y-1730571D01*
X6000714Y-1702000D01*
X5972143Y-1687714D01*
X5929286Y-1687714D01*
X5900714Y-1702000D01*
X5886428Y-1716286D01*
X6200714Y-1887714D02*
X6172143Y-1873428D01*
X6157857Y-1859143D01*
X6143571Y-1830571D01*
X6143571Y-1744857D01*
X6157857Y-1716286D01*
X6172143Y-1702000D01*
X6200714Y-1687714D01*
X6243571Y-1687714D01*
X6272143Y-1702000D01*
X6286428Y-1716286D01*
X6300714Y-1744857D01*
X6300714Y-1830571D01*
X6286428Y-1859143D01*
X6272143Y-1873428D01*
X6243571Y-1887714D01*
X6200714Y-1887714D01*
X6472143Y-1887714D02*
X6443571Y-1873428D01*
X6429286Y-1844857D01*
X6429286Y-1587714D01*
X6700714Y-1873428D02*
X6672143Y-1887714D01*
X6615000Y-1887714D01*
X6586428Y-1873428D01*
X6572143Y-1844857D01*
X6572143Y-1730571D01*
X6586428Y-1702000D01*
X6615000Y-1687714D01*
X6672143Y-1687714D01*
X6700714Y-1702000D01*
X6715000Y-1730571D01*
X6715000Y-1759143D01*
X6572143Y-1787714D01*
X6829286Y-1873428D02*
X6857857Y-1887714D01*
X6915000Y-1887714D01*
X6943571Y-1873428D01*
X6957857Y-1844857D01*
X6957857Y-1830571D01*
X6943571Y-1802000D01*
X6915000Y-1787714D01*
X6872143Y-1787714D01*
X6843571Y-1773428D01*
X6829286Y-1744857D01*
X6829286Y-1730571D01*
X6843571Y-1702000D01*
X6872143Y-1687714D01*
X6915000Y-1687714D01*
X6943571Y-1702000D01*
X7057857Y-2002000D02*
X7072143Y-1987714D01*
X7100714Y-1944857D01*
X7115000Y-1916286D01*
X7129286Y-1873428D01*
X7143571Y-1802000D01*
X7143571Y-1744857D01*
X7129286Y-1673428D01*
X7115000Y-1630571D01*
X7100714Y-1602000D01*
X7072143Y-1559143D01*
X7057857Y-1544857D01*
X-11715Y-2176285D02*
X-11715Y-2119716D01*
X-68285Y-2119716D01*
X-68285Y-2176285D01*
X-11715Y-2176285D01*
X343571Y-1983714D02*
X372143Y-1983714D01*
X400714Y-1998000D01*
X415000Y-2012286D01*
X429286Y-2040857D01*
X443571Y-2098000D01*
X443571Y-2169429D01*
X429286Y-2226571D01*
X415000Y-2255143D01*
X400714Y-2269429D01*
X372143Y-2283714D01*
X343571Y-2283714D01*
X315000Y-2269429D01*
X300714Y-2255143D01*
X286429Y-2226571D01*
X272143Y-2169429D01*
X272143Y-2098000D01*
X286429Y-2040857D01*
X300714Y-2012286D01*
X315000Y-1998000D01*
X343571Y-1983714D01*
X572143Y-2255143D02*
X586429Y-2269429D01*
X572143Y-2283714D01*
X557857Y-2269429D01*
X572143Y-2255143D01*
X572143Y-2283714D01*
X757857Y-2112286D02*
X729286Y-2098000D01*
X715000Y-2083714D01*
X700714Y-2055143D01*
X700714Y-2040857D01*
X715000Y-2012286D01*
X729286Y-1998000D01*
X757857Y-1983714D01*
X815000Y-1983714D01*
X843571Y-1998000D01*
X857857Y-2012286D01*
X872143Y-2040857D01*
X872143Y-2055143D01*
X857857Y-2083714D01*
X843571Y-2098000D01*
X815000Y-2112286D01*
X757857Y-2112286D01*
X729286Y-2126571D01*
X715000Y-2140857D01*
X700714Y-2169429D01*
X700714Y-2226571D01*
X715000Y-2255143D01*
X729286Y-2269429D01*
X757857Y-2283714D01*
X815000Y-2283714D01*
X843571Y-2269429D01*
X857857Y-2255143D01*
X872143Y-2226571D01*
X872143Y-2169429D01*
X857857Y-2140857D01*
X843571Y-2126571D01*
X815000Y-2112286D01*
X1057857Y-1983714D02*
X1086429Y-1983714D01*
X1115000Y-1998000D01*
X1129286Y-2012286D01*
X1143571Y-2040857D01*
X1157857Y-2098000D01*
X1157857Y-2169429D01*
X1143571Y-2226571D01*
X1129286Y-2255143D01*
X1115000Y-2269429D01*
X1086429Y-2283714D01*
X1057857Y-2283714D01*
X1029286Y-2269429D01*
X1015000Y-2255143D01*
X1000714Y-2226571D01*
X986428Y-2169429D01*
X986428Y-2098000D01*
X1000714Y-2040857D01*
X1015000Y-2012286D01*
X1029286Y-1998000D01*
X1057857Y-1983714D01*
X1343571Y-1983714D02*
X1372143Y-1983714D01*
X1400714Y-1998000D01*
X1415000Y-2012286D01*
X1429286Y-2040857D01*
X1443571Y-2098000D01*
X1443571Y-2169429D01*
X1429286Y-2226571D01*
X1415000Y-2255143D01*
X1400714Y-2269429D01*
X1372143Y-2283714D01*
X1343571Y-2283714D01*
X1315000Y-2269429D01*
X1300714Y-2255143D01*
X1286429Y-2226571D01*
X1272143Y-2169429D01*
X1272143Y-2098000D01*
X1286429Y-2040857D01*
X1300714Y-2012286D01*
X1315000Y-1998000D01*
X1343571Y-1983714D01*
X1572143Y-2283714D02*
X1572143Y-2083714D01*
X1572143Y-2112286D02*
X1586428Y-2098000D01*
X1615000Y-2083714D01*
X1657857Y-2083714D01*
X1686428Y-2098000D01*
X1700714Y-2126571D01*
X1700714Y-2283714D01*
X1700714Y-2126571D02*
X1715000Y-2098000D01*
X1743571Y-2083714D01*
X1786428Y-2083714D01*
X1815000Y-2098000D01*
X1829286Y-2126571D01*
X1829286Y-2283714D01*
X1972143Y-2283714D02*
X1972143Y-2083714D01*
X1972143Y-2112286D02*
X1986428Y-2098000D01*
X2015000Y-2083714D01*
X2057857Y-2083714D01*
X2086428Y-2098000D01*
X2100714Y-2126571D01*
X2100714Y-2283714D01*
X2100714Y-2126571D02*
X2115000Y-2098000D01*
X2143571Y-2083714D01*
X2186429Y-2083714D01*
X2215000Y-2098000D01*
X2229286Y-2126571D01*
X2229286Y-2283714D01*
X2815000Y-1969428D02*
X2557857Y-2355143D01*
X3200714Y-1983714D02*
X3229286Y-1983714D01*
X3257857Y-1998000D01*
X3272143Y-2012286D01*
X3286428Y-2040857D01*
X3300714Y-2098000D01*
X3300714Y-2169429D01*
X3286428Y-2226571D01*
X3272143Y-2255143D01*
X3257857Y-2269429D01*
X3229286Y-2283714D01*
X3200714Y-2283714D01*
X3172143Y-2269429D01*
X3157857Y-2255143D01*
X3143571Y-2226571D01*
X3129286Y-2169429D01*
X3129286Y-2098000D01*
X3143571Y-2040857D01*
X3157857Y-2012286D01*
X3172143Y-1998000D01*
X3200714Y-1983714D01*
X3429286Y-2255143D02*
X3443571Y-2269429D01*
X3429286Y-2283714D01*
X3415000Y-2269429D01*
X3429286Y-2255143D01*
X3429286Y-2283714D01*
X3629286Y-1983714D02*
X3657857Y-1983714D01*
X3686428Y-1998000D01*
X3700714Y-2012286D01*
X3715000Y-2040857D01*
X3729286Y-2098000D01*
X3729286Y-2169429D01*
X3715000Y-2226571D01*
X3700714Y-2255143D01*
X3686428Y-2269429D01*
X3657857Y-2283714D01*
X3629286Y-2283714D01*
X3600714Y-2269429D01*
X3586428Y-2255143D01*
X3572143Y-2226571D01*
X3557857Y-2169429D01*
X3557857Y-2098000D01*
X3572143Y-2040857D01*
X3586428Y-2012286D01*
X3600714Y-1998000D01*
X3629286Y-1983714D01*
X3829286Y-1983714D02*
X4015000Y-1983714D01*
X3915000Y-2098000D01*
X3957857Y-2098000D01*
X3986428Y-2112286D01*
X4000714Y-2126571D01*
X4015000Y-2155143D01*
X4015000Y-2226571D01*
X4000714Y-2255143D01*
X3986428Y-2269429D01*
X3957857Y-2283714D01*
X3872143Y-2283714D01*
X3843571Y-2269429D01*
X3829286Y-2255143D01*
X4300714Y-2283714D02*
X4129286Y-2283714D01*
X4215000Y-2283714D02*
X4215000Y-1983714D01*
X4186428Y-2026571D01*
X4157857Y-2055143D01*
X4129286Y-2069428D01*
X4572143Y-1983714D02*
X4429286Y-1983714D01*
X4415000Y-2126571D01*
X4429286Y-2112286D01*
X4457857Y-2098000D01*
X4529286Y-2098000D01*
X4557857Y-2112286D01*
X4572143Y-2126571D01*
X4586429Y-2155143D01*
X4586429Y-2226571D01*
X4572143Y-2255143D01*
X4557857Y-2269429D01*
X4529286Y-2283714D01*
X4457857Y-2283714D01*
X4429286Y-2269429D01*
X4415000Y-2255143D01*
X4700714Y-1983714D02*
X4700714Y-2040857D01*
X4815000Y-1983714D02*
X4815000Y-2040857D01*
X5257857Y-2398000D02*
X5243571Y-2383714D01*
X5215000Y-2340857D01*
X5200714Y-2312286D01*
X5186429Y-2269429D01*
X5172143Y-2198000D01*
X5172143Y-2140857D01*
X5186429Y-2069428D01*
X5200714Y-2026571D01*
X5215000Y-1998000D01*
X5243571Y-1955143D01*
X5257857Y-1940857D01*
X5357857Y-2012286D02*
X5372143Y-1998000D01*
X5400714Y-1983714D01*
X5472143Y-1983714D01*
X5500714Y-1998000D01*
X5515000Y-2012286D01*
X5529286Y-2040857D01*
X5529286Y-2069428D01*
X5515000Y-2112286D01*
X5343571Y-2283714D01*
X5529286Y-2283714D01*
X5700714Y-2112286D02*
X5672143Y-2098000D01*
X5657857Y-2083714D01*
X5643571Y-2055143D01*
X5643571Y-2040857D01*
X5657857Y-2012286D01*
X5672143Y-1998000D01*
X5700714Y-1983714D01*
X5757857Y-1983714D01*
X5786428Y-1998000D01*
X5800714Y-2012286D01*
X5815000Y-2040857D01*
X5815000Y-2055143D01*
X5800714Y-2083714D01*
X5786428Y-2098000D01*
X5757857Y-2112286D01*
X5700714Y-2112286D01*
X5672143Y-2126571D01*
X5657857Y-2140857D01*
X5643571Y-2169429D01*
X5643571Y-2226571D01*
X5657857Y-2255143D01*
X5672143Y-2269429D01*
X5700714Y-2283714D01*
X5757857Y-2283714D01*
X5786428Y-2269429D01*
X5800714Y-2255143D01*
X5815000Y-2226571D01*
X5815000Y-2169429D01*
X5800714Y-2140857D01*
X5786428Y-2126571D01*
X5757857Y-2112286D01*
X6172143Y-2283714D02*
X6172143Y-1983714D01*
X6300714Y-2283714D02*
X6300714Y-2126571D01*
X6286428Y-2098000D01*
X6257857Y-2083714D01*
X6215000Y-2083714D01*
X6186428Y-2098000D01*
X6172143Y-2112286D01*
X6486428Y-2283714D02*
X6457857Y-2269429D01*
X6443571Y-2255143D01*
X6429286Y-2226571D01*
X6429286Y-2140857D01*
X6443571Y-2112286D01*
X6457857Y-2098000D01*
X6486428Y-2083714D01*
X6529286Y-2083714D01*
X6557857Y-2098000D01*
X6572143Y-2112286D01*
X6586428Y-2140857D01*
X6586428Y-2226571D01*
X6572143Y-2255143D01*
X6557857Y-2269429D01*
X6529286Y-2283714D01*
X6486428Y-2283714D01*
X6757857Y-2283714D02*
X6729286Y-2269429D01*
X6715000Y-2240857D01*
X6715000Y-1983714D01*
X6986428Y-2269429D02*
X6957857Y-2283714D01*
X6900714Y-2283714D01*
X6872143Y-2269429D01*
X6857857Y-2240857D01*
X6857857Y-2126571D01*
X6872143Y-2098000D01*
X6900714Y-2083714D01*
X6957857Y-2083714D01*
X6986428Y-2098000D01*
X7000714Y-2126571D01*
X7000714Y-2155143D01*
X6857857Y-2183714D01*
X7115000Y-2269429D02*
X7143571Y-2283714D01*
X7200714Y-2283714D01*
X7229286Y-2269429D01*
X7243571Y-2240857D01*
X7243571Y-2226571D01*
X7229286Y-2198000D01*
X7200714Y-2183714D01*
X7157857Y-2183714D01*
X7129286Y-2169429D01*
X7115000Y-2140857D01*
X7115000Y-2126571D01*
X7129286Y-2098000D01*
X7157857Y-2083714D01*
X7200714Y-2083714D01*
X7229286Y-2098000D01*
X7343571Y-2398000D02*
X7357857Y-2383714D01*
X7386428Y-2340857D01*
X7400714Y-2312286D01*
X7415000Y-2269429D01*
X7429286Y-2198000D01*
X7429286Y-2140857D01*
X7415000Y-2069428D01*
X7400714Y-2026571D01*
X7386428Y-1998000D01*
X7357857Y-1955143D01*
X7343571Y-1940857D01*
X-45000Y-2589000D02*
X0Y-2544000D01*
X-45000Y-2499000D01*
X-90000Y-2544000D01*
X-45000Y-2589000D01*
X343571Y-2379714D02*
X372143Y-2379714D01*
X400714Y-2394000D01*
X415000Y-2408286D01*
X429286Y-2436857D01*
X443571Y-2494000D01*
X443571Y-2565429D01*
X429286Y-2622571D01*
X415000Y-2651143D01*
X400714Y-2665429D01*
X372143Y-2679714D01*
X343571Y-2679714D01*
X315000Y-2665429D01*
X300714Y-2651143D01*
X286429Y-2622571D01*
X272143Y-2565429D01*
X272143Y-2494000D01*
X286429Y-2436857D01*
X300714Y-2408286D01*
X315000Y-2394000D01*
X343571Y-2379714D01*
X572143Y-2651143D02*
X586429Y-2665429D01*
X572143Y-2679714D01*
X557857Y-2665429D01*
X572143Y-2651143D01*
X572143Y-2679714D01*
X729286Y-2679714D02*
X786428Y-2679714D01*
X815000Y-2665429D01*
X829286Y-2651143D01*
X857857Y-2608286D01*
X872143Y-2551143D01*
X872143Y-2436857D01*
X857857Y-2408286D01*
X843571Y-2394000D01*
X815000Y-2379714D01*
X757857Y-2379714D01*
X729286Y-2394000D01*
X715000Y-2408286D01*
X700714Y-2436857D01*
X700714Y-2508286D01*
X715000Y-2536857D01*
X729286Y-2551143D01*
X757857Y-2565429D01*
X815000Y-2565429D01*
X843571Y-2551143D01*
X857857Y-2536857D01*
X872143Y-2508286D01*
X1057857Y-2379714D02*
X1086429Y-2379714D01*
X1115000Y-2394000D01*
X1129286Y-2408286D01*
X1143571Y-2436857D01*
X1157857Y-2494000D01*
X1157857Y-2565429D01*
X1143571Y-2622571D01*
X1129286Y-2651143D01*
X1115000Y-2665429D01*
X1086429Y-2679714D01*
X1057857Y-2679714D01*
X1029286Y-2665429D01*
X1015000Y-2651143D01*
X1000714Y-2622571D01*
X986428Y-2565429D01*
X986428Y-2494000D01*
X1000714Y-2436857D01*
X1015000Y-2408286D01*
X1029286Y-2394000D01*
X1057857Y-2379714D01*
X1343571Y-2379714D02*
X1372143Y-2379714D01*
X1400714Y-2394000D01*
X1415000Y-2408286D01*
X1429286Y-2436857D01*
X1443571Y-2494000D01*
X1443571Y-2565429D01*
X1429286Y-2622571D01*
X1415000Y-2651143D01*
X1400714Y-2665429D01*
X1372143Y-2679714D01*
X1343571Y-2679714D01*
X1315000Y-2665429D01*
X1300714Y-2651143D01*
X1286429Y-2622571D01*
X1272143Y-2565429D01*
X1272143Y-2494000D01*
X1286429Y-2436857D01*
X1300714Y-2408286D01*
X1315000Y-2394000D01*
X1343571Y-2379714D01*
X1572143Y-2679714D02*
X1572143Y-2479714D01*
X1572143Y-2508286D02*
X1586428Y-2494000D01*
X1615000Y-2479714D01*
X1657857Y-2479714D01*
X1686428Y-2494000D01*
X1700714Y-2522571D01*
X1700714Y-2679714D01*
X1700714Y-2522571D02*
X1715000Y-2494000D01*
X1743571Y-2479714D01*
X1786428Y-2479714D01*
X1815000Y-2494000D01*
X1829286Y-2522571D01*
X1829286Y-2679714D01*
X1972143Y-2679714D02*
X1972143Y-2479714D01*
X1972143Y-2508286D02*
X1986428Y-2494000D01*
X2015000Y-2479714D01*
X2057857Y-2479714D01*
X2086428Y-2494000D01*
X2100714Y-2522571D01*
X2100714Y-2679714D01*
X2100714Y-2522571D02*
X2115000Y-2494000D01*
X2143571Y-2479714D01*
X2186429Y-2479714D01*
X2215000Y-2494000D01*
X2229286Y-2522571D01*
X2229286Y-2679714D01*
X2815000Y-2365429D02*
X2557857Y-2751143D01*
X3200714Y-2379714D02*
X3229286Y-2379714D01*
X3257857Y-2394000D01*
X3272143Y-2408286D01*
X3286428Y-2436857D01*
X3300714Y-2494000D01*
X3300714Y-2565429D01*
X3286428Y-2622571D01*
X3272143Y-2651143D01*
X3257857Y-2665429D01*
X3229286Y-2679714D01*
X3200714Y-2679714D01*
X3172143Y-2665429D01*
X3157857Y-2651143D01*
X3143571Y-2622571D01*
X3129286Y-2565429D01*
X3129286Y-2494000D01*
X3143571Y-2436857D01*
X3157857Y-2408286D01*
X3172143Y-2394000D01*
X3200714Y-2379714D01*
X3429286Y-2651143D02*
X3443571Y-2665429D01*
X3429286Y-2679714D01*
X3415000Y-2665429D01*
X3429286Y-2651143D01*
X3429286Y-2679714D01*
X3629286Y-2379714D02*
X3657857Y-2379714D01*
X3686428Y-2394000D01*
X3700714Y-2408286D01*
X3715000Y-2436857D01*
X3729286Y-2494000D01*
X3729286Y-2565429D01*
X3715000Y-2622571D01*
X3700714Y-2651143D01*
X3686428Y-2665429D01*
X3657857Y-2679714D01*
X3629286Y-2679714D01*
X3600714Y-2665429D01*
X3586428Y-2651143D01*
X3572143Y-2622571D01*
X3557857Y-2565429D01*
X3557857Y-2494000D01*
X3572143Y-2436857D01*
X3586428Y-2408286D01*
X3600714Y-2394000D01*
X3629286Y-2379714D01*
X3829286Y-2379714D02*
X4015000Y-2379714D01*
X3915000Y-2494000D01*
X3957857Y-2494000D01*
X3986428Y-2508286D01*
X4000714Y-2522571D01*
X4015000Y-2551143D01*
X4015000Y-2622571D01*
X4000714Y-2651143D01*
X3986428Y-2665429D01*
X3957857Y-2679714D01*
X3872143Y-2679714D01*
X3843571Y-2665429D01*
X3829286Y-2651143D01*
X4286429Y-2379714D02*
X4143571Y-2379714D01*
X4129286Y-2522571D01*
X4143571Y-2508286D01*
X4172143Y-2494000D01*
X4243571Y-2494000D01*
X4272143Y-2508286D01*
X4286429Y-2522571D01*
X4300714Y-2551143D01*
X4300714Y-2622571D01*
X4286429Y-2651143D01*
X4272143Y-2665429D01*
X4243571Y-2679714D01*
X4172143Y-2679714D01*
X4143571Y-2665429D01*
X4129286Y-2651143D01*
X4557857Y-2479714D02*
X4557857Y-2679714D01*
X4486429Y-2365429D02*
X4415000Y-2579714D01*
X4600714Y-2579714D01*
X4700714Y-2379714D02*
X4700714Y-2436857D01*
X4815000Y-2379714D02*
X4815000Y-2436857D01*
X5257857Y-2794000D02*
X5243571Y-2779714D01*
X5215000Y-2736857D01*
X5200714Y-2708286D01*
X5186429Y-2665429D01*
X5172143Y-2594000D01*
X5172143Y-2536857D01*
X5186429Y-2465429D01*
X5200714Y-2422571D01*
X5215000Y-2394000D01*
X5243571Y-2351143D01*
X5257857Y-2336857D01*
X5500714Y-2379714D02*
X5443571Y-2379714D01*
X5415000Y-2394000D01*
X5400714Y-2408286D01*
X5372143Y-2451143D01*
X5357857Y-2508286D01*
X5357857Y-2622571D01*
X5372143Y-2651143D01*
X5386429Y-2665429D01*
X5415000Y-2679714D01*
X5472143Y-2679714D01*
X5500714Y-2665429D01*
X5515000Y-2651143D01*
X5529286Y-2622571D01*
X5529286Y-2551143D01*
X5515000Y-2522571D01*
X5500714Y-2508286D01*
X5472143Y-2494000D01*
X5415000Y-2494000D01*
X5386429Y-2508286D01*
X5372143Y-2522571D01*
X5357857Y-2551143D01*
X5886428Y-2679714D02*
X5886428Y-2379714D01*
X6015000Y-2679714D02*
X6015000Y-2522571D01*
X6000714Y-2494000D01*
X5972143Y-2479714D01*
X5929286Y-2479714D01*
X5900714Y-2494000D01*
X5886428Y-2508286D01*
X6200714Y-2679714D02*
X6172143Y-2665429D01*
X6157857Y-2651143D01*
X6143571Y-2622571D01*
X6143571Y-2536857D01*
X6157857Y-2508286D01*
X6172143Y-2494000D01*
X6200714Y-2479714D01*
X6243571Y-2479714D01*
X6272143Y-2494000D01*
X6286428Y-2508286D01*
X6300714Y-2536857D01*
X6300714Y-2622571D01*
X6286428Y-2651143D01*
X6272143Y-2665429D01*
X6243571Y-2679714D01*
X6200714Y-2679714D01*
X6472143Y-2679714D02*
X6443571Y-2665429D01*
X6429286Y-2636857D01*
X6429286Y-2379714D01*
X6700714Y-2665429D02*
X6672143Y-2679714D01*
X6615000Y-2679714D01*
X6586428Y-2665429D01*
X6572143Y-2636857D01*
X6572143Y-2522571D01*
X6586428Y-2494000D01*
X6615000Y-2479714D01*
X6672143Y-2479714D01*
X6700714Y-2494000D01*
X6715000Y-2522571D01*
X6715000Y-2551143D01*
X6572143Y-2579714D01*
X6829286Y-2665429D02*
X6857857Y-2679714D01*
X6915000Y-2679714D01*
X6943571Y-2665429D01*
X6957857Y-2636857D01*
X6957857Y-2622571D01*
X6943571Y-2594000D01*
X6915000Y-2579714D01*
X6872143Y-2579714D01*
X6843571Y-2565429D01*
X6829286Y-2536857D01*
X6829286Y-2522571D01*
X6843571Y-2494000D01*
X6872143Y-2479714D01*
X6915000Y-2479714D01*
X6943571Y-2494000D01*
X7057857Y-2794000D02*
X7072143Y-2779714D01*
X7100714Y-2736857D01*
X7115000Y-2708286D01*
X7129286Y-2665429D01*
X7143571Y-2594000D01*
X7143571Y-2536857D01*
X7129286Y-2465429D01*
X7115000Y-2422571D01*
X7100714Y-2394000D01*
X7072143Y-2351143D01*
X7057857Y-2336857D01*
X-100000Y-2890000D02*
X0Y-2990000D01*
X0Y-2890000D02*
X-100000Y-2990000D01*
X0Y-2940000D02*
G75*
G03*
X0Y-2940000I-50000J0D01*
G01*
X443571Y-3075714D02*
X272143Y-3075714D01*
X357857Y-3075714D02*
X357857Y-2775714D01*
X329286Y-2818571D01*
X300714Y-2847143D01*
X272143Y-2861428D01*
X572143Y-3047143D02*
X586429Y-3061428D01*
X572143Y-3075714D01*
X557857Y-3061428D01*
X572143Y-3047143D01*
X572143Y-3075714D01*
X772143Y-2775714D02*
X800714Y-2775714D01*
X829286Y-2790000D01*
X843571Y-2804286D01*
X857857Y-2832857D01*
X872143Y-2890000D01*
X872143Y-2961428D01*
X857857Y-3018571D01*
X843571Y-3047143D01*
X829286Y-3061428D01*
X800714Y-3075714D01*
X772143Y-3075714D01*
X743571Y-3061428D01*
X729286Y-3047143D01*
X715000Y-3018571D01*
X700714Y-2961428D01*
X700714Y-2890000D01*
X715000Y-2832857D01*
X729286Y-2804286D01*
X743571Y-2790000D01*
X772143Y-2775714D01*
X1057857Y-2775714D02*
X1086429Y-2775714D01*
X1115000Y-2790000D01*
X1129286Y-2804286D01*
X1143571Y-2832857D01*
X1157857Y-2890000D01*
X1157857Y-2961428D01*
X1143571Y-3018571D01*
X1129286Y-3047143D01*
X1115000Y-3061428D01*
X1086429Y-3075714D01*
X1057857Y-3075714D01*
X1029286Y-3061428D01*
X1015000Y-3047143D01*
X1000714Y-3018571D01*
X986428Y-2961428D01*
X986428Y-2890000D01*
X1000714Y-2832857D01*
X1015000Y-2804286D01*
X1029286Y-2790000D01*
X1057857Y-2775714D01*
X1343571Y-2775714D02*
X1372143Y-2775714D01*
X1400714Y-2790000D01*
X1415000Y-2804286D01*
X1429286Y-2832857D01*
X1443571Y-2890000D01*
X1443571Y-2961428D01*
X1429286Y-3018571D01*
X1415000Y-3047143D01*
X1400714Y-3061428D01*
X1372143Y-3075714D01*
X1343571Y-3075714D01*
X1315000Y-3061428D01*
X1300714Y-3047143D01*
X1286429Y-3018571D01*
X1272143Y-2961428D01*
X1272143Y-2890000D01*
X1286429Y-2832857D01*
X1300714Y-2804286D01*
X1315000Y-2790000D01*
X1343571Y-2775714D01*
X1572143Y-3075714D02*
X1572143Y-2875714D01*
X1572143Y-2904286D02*
X1586428Y-2890000D01*
X1615000Y-2875714D01*
X1657857Y-2875714D01*
X1686428Y-2890000D01*
X1700714Y-2918571D01*
X1700714Y-3075714D01*
X1700714Y-2918571D02*
X1715000Y-2890000D01*
X1743571Y-2875714D01*
X1786428Y-2875714D01*
X1815000Y-2890000D01*
X1829286Y-2918571D01*
X1829286Y-3075714D01*
X1972143Y-3075714D02*
X1972143Y-2875714D01*
X1972143Y-2904286D02*
X1986428Y-2890000D01*
X2015000Y-2875714D01*
X2057857Y-2875714D01*
X2086428Y-2890000D01*
X2100714Y-2918571D01*
X2100714Y-3075714D01*
X2100714Y-2918571D02*
X2115000Y-2890000D01*
X2143571Y-2875714D01*
X2186429Y-2875714D01*
X2215000Y-2890000D01*
X2229286Y-2918571D01*
X2229286Y-3075714D01*
X2815000Y-2761429D02*
X2557857Y-3147143D01*
X3200714Y-2775714D02*
X3229286Y-2775714D01*
X3257857Y-2790000D01*
X3272143Y-2804286D01*
X3286428Y-2832857D01*
X3300714Y-2890000D01*
X3300714Y-2961428D01*
X3286428Y-3018571D01*
X3272143Y-3047143D01*
X3257857Y-3061428D01*
X3229286Y-3075714D01*
X3200714Y-3075714D01*
X3172143Y-3061428D01*
X3157857Y-3047143D01*
X3143571Y-3018571D01*
X3129286Y-2961428D01*
X3129286Y-2890000D01*
X3143571Y-2832857D01*
X3157857Y-2804286D01*
X3172143Y-2790000D01*
X3200714Y-2775714D01*
X3429286Y-3047143D02*
X3443571Y-3061428D01*
X3429286Y-3075714D01*
X3415000Y-3061428D01*
X3429286Y-3047143D01*
X3429286Y-3075714D01*
X3629286Y-2775714D02*
X3657857Y-2775714D01*
X3686428Y-2790000D01*
X3700714Y-2804286D01*
X3715000Y-2832857D01*
X3729286Y-2890000D01*
X3729286Y-2961428D01*
X3715000Y-3018571D01*
X3700714Y-3047143D01*
X3686428Y-3061428D01*
X3657857Y-3075714D01*
X3629286Y-3075714D01*
X3600714Y-3061428D01*
X3586428Y-3047143D01*
X3572143Y-3018571D01*
X3557857Y-2961428D01*
X3557857Y-2890000D01*
X3572143Y-2832857D01*
X3586428Y-2804286D01*
X3600714Y-2790000D01*
X3629286Y-2775714D01*
X3829286Y-2775714D02*
X4015000Y-2775714D01*
X3915000Y-2890000D01*
X3957857Y-2890000D01*
X3986428Y-2904286D01*
X4000714Y-2918571D01*
X4015000Y-2947143D01*
X4015000Y-3018571D01*
X4000714Y-3047143D01*
X3986428Y-3061428D01*
X3957857Y-3075714D01*
X3872143Y-3075714D01*
X3843571Y-3061428D01*
X3829286Y-3047143D01*
X4157857Y-3075714D02*
X4215000Y-3075714D01*
X4243571Y-3061428D01*
X4257857Y-3047143D01*
X4286429Y-3004286D01*
X4300714Y-2947143D01*
X4300714Y-2832857D01*
X4286429Y-2804286D01*
X4272143Y-2790000D01*
X4243571Y-2775714D01*
X4186428Y-2775714D01*
X4157857Y-2790000D01*
X4143571Y-2804286D01*
X4129286Y-2832857D01*
X4129286Y-2904286D01*
X4143571Y-2932857D01*
X4157857Y-2947143D01*
X4186428Y-2961428D01*
X4243571Y-2961428D01*
X4272143Y-2947143D01*
X4286429Y-2932857D01*
X4300714Y-2904286D01*
X4557857Y-2875714D02*
X4557857Y-3075714D01*
X4486429Y-2761429D02*
X4415000Y-2975714D01*
X4600714Y-2975714D01*
X4700714Y-2775714D02*
X4700714Y-2832857D01*
X4815000Y-2775714D02*
X4815000Y-2832857D01*
X5257857Y-3190000D02*
X5243571Y-3175714D01*
X5215000Y-3132857D01*
X5200714Y-3104286D01*
X5186429Y-3061428D01*
X5172143Y-2990000D01*
X5172143Y-2932857D01*
X5186429Y-2861428D01*
X5200714Y-2818571D01*
X5215000Y-2790000D01*
X5243571Y-2747143D01*
X5257857Y-2732857D01*
X5343571Y-2775714D02*
X5529286Y-2775714D01*
X5429286Y-2890000D01*
X5472143Y-2890000D01*
X5500714Y-2904286D01*
X5515000Y-2918571D01*
X5529286Y-2947143D01*
X5529286Y-3018571D01*
X5515000Y-3047143D01*
X5500714Y-3061428D01*
X5472143Y-3075714D01*
X5386429Y-3075714D01*
X5357857Y-3061428D01*
X5343571Y-3047143D01*
X5815000Y-3075714D02*
X5643571Y-3075714D01*
X5729286Y-3075714D02*
X5729286Y-2775714D01*
X5700714Y-2818571D01*
X5672143Y-2847143D01*
X5643571Y-2861428D01*
X6172143Y-3075714D02*
X6172143Y-2775714D01*
X6300714Y-3075714D02*
X6300714Y-2918571D01*
X6286428Y-2890000D01*
X6257857Y-2875714D01*
X6215000Y-2875714D01*
X6186428Y-2890000D01*
X6172143Y-2904286D01*
X6486428Y-3075714D02*
X6457857Y-3061428D01*
X6443571Y-3047143D01*
X6429286Y-3018571D01*
X6429286Y-2932857D01*
X6443571Y-2904286D01*
X6457857Y-2890000D01*
X6486428Y-2875714D01*
X6529286Y-2875714D01*
X6557857Y-2890000D01*
X6572143Y-2904286D01*
X6586428Y-2932857D01*
X6586428Y-3018571D01*
X6572143Y-3047143D01*
X6557857Y-3061428D01*
X6529286Y-3075714D01*
X6486428Y-3075714D01*
X6757857Y-3075714D02*
X6729286Y-3061428D01*
X6715000Y-3032857D01*
X6715000Y-2775714D01*
X6986428Y-3061428D02*
X6957857Y-3075714D01*
X6900714Y-3075714D01*
X6872143Y-3061428D01*
X6857857Y-3032857D01*
X6857857Y-2918571D01*
X6872143Y-2890000D01*
X6900714Y-2875714D01*
X6957857Y-2875714D01*
X6986428Y-2890000D01*
X7000714Y-2918571D01*
X7000714Y-2947143D01*
X6857857Y-2975714D01*
X7115000Y-3061428D02*
X7143571Y-3075714D01*
X7200714Y-3075714D01*
X7229286Y-3061428D01*
X7243571Y-3032857D01*
X7243571Y-3018571D01*
X7229286Y-2990000D01*
X7200714Y-2975714D01*
X7157857Y-2975714D01*
X7129286Y-2961428D01*
X7115000Y-2932857D01*
X7115000Y-2918571D01*
X7129286Y-2890000D01*
X7157857Y-2875714D01*
X7200714Y-2875714D01*
X7229286Y-2890000D01*
X7343571Y-3190000D02*
X7357857Y-3175714D01*
X7386428Y-3132857D01*
X7400714Y-3104286D01*
X7415000Y-3061428D01*
X7429286Y-2990000D01*
X7429286Y-2932857D01*
X7415000Y-2861428D01*
X7400714Y-2818571D01*
X7386428Y-2790000D01*
X7357857Y-2747143D01*
X7343571Y-2732857D01*
M02*
